<svg width="36" height="52" viewBox="0 0 36 52" fill="none" xmlns="http://www.w3.org/2000/svg">
<path d="M35.9992 1.35757C35.2608 1.98796 34.6304 2.72474 33.9544 3.41672C32.0753 5.34068 30.2113 7.27824 28.3418 9.211C28.297 9.25739 28.2562 9.30699 28.2202 9.34779C28.245 9.43579 28.3058 9.42219 28.3546 9.42379C29.1194 9.44619 29.1194 9.44619 29.1194 10.1934C29.1194 11.0582 29.109 11.9237 29.1258 12.7885C29.1314 13.0581 29.0394 13.1213 28.7858 13.1173C27.8266 13.1045 26.8666 13.1213 25.9066 13.1061C25.6306 13.1021 25.521 13.1525 25.4978 13.4637C25.1994 17.5748 24.8858 21.6851 24.5659 25.7954C24.5435 26.0882 24.6259 26.2906 24.8226 26.501C27.8282 29.7041 30.8241 32.9161 33.8312 36.1176C34.02 36.3184 33.992 36.4144 33.8112 36.5864C33.3417 37.0336 33.3457 37.0464 32.9025 36.5728C31.0377 34.5808 29.1761 32.5865 27.3122 30.5937C27.2418 30.5185 27.1922 30.4161 27.0466 30.3849C27.3778 31.3593 27.361 32.3129 26.8706 33.2129C26.1778 34.4856 25.0874 35.1296 23.6339 35.0704C22.2451 35.0136 21.2499 34.308 20.6475 33.0697C20.5315 32.8313 20.4235 32.7393 20.1532 32.7409C18.274 32.7545 16.394 32.7529 14.5149 32.7417C14.2453 32.7401 14.1381 32.7953 14.1533 33.0873C14.1781 33.5649 14.1517 34.0456 14.1637 34.524C14.1693 34.7328 14.1309 34.8376 13.8861 34.8296C13.3669 34.812 12.8461 34.8176 12.3269 34.828C12.1341 34.832 12.0741 34.7648 12.0781 34.576C12.0877 34.0568 12.0733 33.5377 12.0853 33.0193C12.0901 32.8161 12.0349 32.7305 11.8181 32.7441C11.5525 32.7609 11.2853 32.7481 11.019 32.7481C10.4534 32.7473 10.3878 32.6897 10.3638 32.1089C10.3158 30.9665 10.2742 29.8241 10.2278 28.6818C10.2198 28.4842 10.1998 28.2874 10.1846 28.0738C9.70458 28.537 9.22939 28.9698 8.783 29.4297C6.41026 31.8753 4.03991 34.3248 1.68156 36.784C1.44717 37.028 1.32877 36.98 1.12717 36.7672C0.723984 36.3408 0.713584 36.352 1.13277 35.9192C4.00391 32.9545 6.87025 29.9865 9.75098 27.0306C10.0446 26.729 10.1382 26.4322 10.1174 26.0138C9.99418 23.5307 9.90378 21.0451 9.80138 18.5612C9.70858 16.3028 9.61179 14.0437 9.52699 11.7853C9.51899 11.5757 9.42859 11.4445 9.29739 11.3037C6.66145 8.48461 4.02871 5.66147 1.39517 2.83994C0.930379 2.34555 0.46479 1.85196 0 1.35757C0 0.90478 0 0.45199 0 0C0.139197 0.0359992 0.208795 0.159196 0.296793 0.252794C3.21593 3.37352 6.13186 6.49746 9.0502 9.61819C9.159 9.73418 9.25019 9.88058 9.44619 9.95258C9.41979 9.36779 9.38139 8.8238 9.37579 8.27902C9.37339 8.02302 9.26699 7.98382 9.0398 7.97902C8.67341 7.97102 8.17262 8.15662 7.97742 7.89902C7.79583 7.65983 7.95262 7.18144 7.91422 6.81345C7.87582 6.45106 8.00542 6.34946 8.35261 6.37906C8.50541 6.39186 8.72941 6.50866 8.827 6.24226C9.155 5.35108 9.86458 4.82869 10.6822 4.4727C11.199 4.24711 11.4909 3.98471 11.3637 3.39592C11.3141 3.16553 11.4325 3.10313 11.6533 3.10953C12.1325 3.12393 12.6133 3.12073 13.0933 3.11113C13.3181 3.10633 13.4829 3.11513 13.4469 3.41752C13.4181 3.65832 13.6021 3.56472 13.7181 3.54872C14.4053 3.45112 15.0981 3.39592 15.79 3.43112C16.0916 3.44632 16.218 3.37592 16.1604 3.07193C16.1012 2.75514 16.2556 2.70634 16.538 2.70954C17.978 2.72314 19.418 2.73354 20.8571 2.70474C21.2819 2.69594 21.4331 2.82074 21.3603 3.22633C21.2955 3.58792 21.4443 3.67032 21.8051 3.68872C23.5083 3.77512 25.1362 4.11751 26.4706 5.28548C26.6218 5.41748 26.677 5.34468 26.7874 5.25028C27.2946 4.81509 27.9506 4.85109 28.349 5.32308C28.733 5.77747 28.6642 6.42866 28.173 6.84545C28.0634 6.93905 27.9994 7.01824 27.9954 7.17024C27.9882 7.43184 28.121 7.77503 27.937 7.93342C27.7442 8.09982 27.401 7.96942 27.1242 7.98702C27.0714 7.99022 27.0178 7.98782 26.9642 7.98782C25.8634 7.98782 25.8634 7.98782 25.833 9.103C25.8314 9.1694 25.8314 9.2358 25.8298 9.30219C25.829 9.36219 25.8602 9.39339 25.9138 9.41819C26.1314 9.51819 26.8138 9.38619 26.9898 9.203C29.7385 6.35986 32.4841 3.51352 35.2392 0.677585C35.4736 0.43599 35.6528 0.120797 36 0C35.9992 0.45279 35.9992 0.90558 35.9992 1.35757ZM15.7852 31.7905C17.1708 31.7905 18.5564 31.7833 19.942 31.7969C20.2211 31.7993 20.3107 31.7481 20.3339 31.4377C20.4459 29.9625 21.1795 28.8402 22.5923 28.4106C23.3859 28.169 23.5803 27.821 23.5627 27.0866C23.5547 26.7402 23.4987 26.493 23.2643 26.2442C21.4763 24.3467 19.6924 22.4451 17.9236 20.5291C17.6956 20.2827 17.5892 20.3131 17.382 20.5291C15.3637 22.6307 13.3381 24.7251 11.3085 26.8146C11.155 26.9722 11.1006 27.1258 11.111 27.3426C11.1749 28.7098 11.2349 30.0777 11.2717 31.4457C11.2789 31.7273 11.3525 31.7993 11.6293 31.7961C13.0141 31.7825 14.3997 31.7905 15.7852 31.7905ZM21.1883 15.1893C21.0395 15.1813 20.9867 15.1765 20.9339 15.1765C19.3212 15.1757 17.7084 15.1717 16.0964 15.1813C15.8492 15.1829 15.7396 15.1349 15.754 14.8581C15.7772 14.4069 15.7764 13.9525 15.754 13.5013C15.7404 13.2293 15.8412 13.1741 16.0932 13.1749C18.1324 13.1837 20.1716 13.1853 22.2099 13.1741C22.4803 13.1725 22.6099 13.2293 22.5619 13.5181C22.5523 13.5741 22.5355 13.6541 22.5523 13.5997C23.2035 12.9341 23.8939 12.3085 24.5851 11.6837C24.7083 11.5725 24.7018 11.4253 24.7122 11.2789C24.7818 10.2974 24.8386 9.31499 24.9322 8.33581C24.961 8.03422 24.8722 7.98222 24.5987 7.98302C19.9612 7.99022 15.3229 7.99022 10.6854 7.98222C10.411 7.98142 10.3102 8.04622 10.3278 8.33421C10.3782 9.1566 10.4078 9.98058 10.4382 10.8038C10.4462 11.027 10.5222 11.199 10.6814 11.3645C11.3533 12.0661 12.0093 12.7821 12.6725 13.4917C14.2629 15.1925 15.858 16.89 17.4404 18.598C17.6252 18.7972 17.7252 18.7996 17.902 18.5988C18.2004 18.2596 18.5292 17.9468 18.8436 17.6212C19.6084 16.8292 20.3715 16.0364 21.1883 15.1893ZM11.0382 25.533C11.5077 25.0962 11.9893 24.6835 12.4317 24.2323C13.8837 22.7507 15.3189 21.2523 16.7676 19.7676C16.9412 19.59 16.9492 19.49 16.7684 19.2988C15.2173 17.6548 13.6805 15.998 12.1381 14.3453C11.6277 13.7981 11.1142 13.2533 10.6022 12.7069C10.575 12.7197 10.5486 12.7325 10.5214 12.7461C10.695 17.0196 10.867 21.2947 11.0382 25.533ZM24.5723 13.1381C24.4195 13.2805 24.3419 13.3469 24.2707 13.4205C22.3715 15.3813 20.4763 17.346 18.5692 19.2988C18.3676 19.5052 18.3972 19.6228 18.5764 19.8124C19.7468 21.0507 20.9075 22.2987 22.0715 23.5435C22.5859 24.0931 23.1003 24.6427 23.6811 25.2626C23.9803 21.1915 24.2723 17.2188 24.5723 13.1381ZM26.0626 6.39026C25.7938 5.82627 25.3418 5.57508 24.8722 5.36388C23.8291 4.89429 22.7123 4.7183 21.5883 4.5775C21.4475 4.5599 21.3363 4.5751 21.3627 4.74709C21.4059 5.02869 21.2443 5.03509 21.0339 5.03429C19.5292 5.02869 18.0244 5.02149 16.5204 5.03909C16.2116 5.04309 16.1108 4.94949 16.1596 4.6599C16.2084 4.3655 16.0756 4.3071 15.798 4.3343C15.1229 4.3991 14.4469 4.4487 13.7741 4.5415C13.4957 4.5799 13.4205 4.6887 13.4349 4.94869C13.4541 5.29348 13.4637 5.64227 13.4325 5.98467C13.4021 6.32226 13.5181 6.39906 13.8485 6.39746C17.0708 6.38466 20.2931 6.38946 23.5155 6.38946C24.3403 6.39026 25.165 6.39026 26.0626 6.39026ZM23.7619 33.3209C24.7418 33.3201 25.513 32.5489 25.5066 31.5761C25.5002 30.6321 24.725 29.8537 23.7779 29.8393C22.8219 29.8257 22.0171 30.6193 22.0131 31.5793C22.0083 32.5529 22.7803 33.3217 23.7619 33.3209ZM28.3194 11.2653C28.3194 11.0134 28.3202 10.7622 28.3186 10.5102C28.3178 10.4198 28.329 10.3022 28.193 10.3102C27.765 10.3358 27.2778 10.1422 26.9674 10.635C26.8986 10.7446 26.7858 10.827 26.6922 10.9206C26.4498 11.1638 26.2466 11.8757 26.4178 12.1149C26.5914 12.3565 26.905 12.1741 27.1514 12.2197C27.2154 12.2317 27.2834 12.2213 27.3498 12.2213C28.3194 12.2213 28.3194 12.2213 28.3194 11.2653ZM18.7764 4.23351C19.282 4.23351 19.7892 4.21511 20.2939 4.23991C20.6027 4.25511 20.5683 4.07031 20.5579 3.88631C20.5483 3.72312 20.6491 3.50472 20.3203 3.50872C19.282 3.52152 18.2436 3.52232 17.2052 3.50792C16.882 3.50312 16.9676 3.71192 16.9612 3.87991C16.954 4.06151 16.9092 4.25191 17.2196 4.23831C17.738 4.21751 18.2572 4.23351 18.7764 4.23351ZM10.6606 6.39026C10.7806 6.39026 10.9022 6.37586 11.0198 6.39346C11.3109 6.43666 11.3957 6.30706 11.3621 6.03667C11.3309 5.79027 11.4669 5.40068 11.3085 5.32388C11.0686 5.20788 10.8254 5.51108 10.5902 5.64707C10.5214 5.68707 10.4582 5.73827 10.3998 5.79187C10.235 5.94387 9.97818 6.11826 10.0382 6.31906C10.0902 6.49426 10.3926 6.35586 10.5806 6.38946C10.607 6.39426 10.6342 6.39026 10.6606 6.39026ZM25.2946 28.4234C24.9994 28.1434 24.8002 27.8402 24.4867 27.6298C24.3259 28.2322 24.3387 28.245 25.2946 28.4234Z" fill="black"/>
<path d="M2.64003 51.4389C2.64003 49.1373 2.64643 46.8358 2.63283 44.5342C2.63123 44.231 2.71603 44.1638 3.01043 44.1638C12.9238 44.1718 22.8364 44.1718 32.7498 44.1638C33.0442 44.1638 33.129 44.231 33.1274 44.5342C33.1138 46.8358 33.1202 49.1373 33.1202 51.4389C22.9596 51.4389 12.7998 51.4389 2.64003 51.4389Z" fill="black"/>
<path d="M24.9195 31.6136C24.9235 32.2584 24.4283 32.7528 23.7835 32.748C23.1691 32.7432 22.6643 32.244 22.6563 31.6328C22.6483 31.0112 23.1707 30.4952 23.8043 30.5C24.4339 30.5048 24.9155 30.9856 24.9195 31.6136Z" fill="black"/>
</svg>
