<svg width="15" height="14" viewBox="0 0 15 14" fill="none" xmlns="http://www.w3.org/2000/svg">
<path d="M7.49992 12.3334C4.55992 12.3334 2.16659 9.94004 2.16659 7.00004C2.16659 4.06004 4.55992 1.66671 7.49992 1.66671C10.4399 1.66671 12.8333 4.06004 12.8333 7.00004C12.8333 9.94004 10.4399 12.3334 7.49992 12.3334ZM7.49992 0.333374C6.62444 0.333374 5.75753 0.505812 4.9487 0.840844C4.13986 1.17588 3.40493 1.66694 2.78587 2.286C1.53563 3.53624 0.833252 5.23193 0.833252 7.00004C0.833252 8.76815 1.53563 10.4638 2.78587 11.7141C3.40493 12.3331 4.13986 12.8242 4.9487 13.1592C5.75753 13.4943 6.62444 13.6667 7.49992 13.6667C9.26803 13.6667 10.9637 12.9643 12.214 11.7141C13.4642 10.4638 14.1666 8.76815 14.1666 7.00004C14.1666 6.12456 13.9941 5.25766 13.6591 4.44882C13.3241 3.63998 12.833 2.90505 12.214 2.286C11.5949 1.66694 10.86 1.17588 10.0511 0.840844C9.2423 0.505812 8.3754 0.333374 7.49992 0.333374ZM8.16659 3.66671H6.83325V6.33337H4.16659V7.66671H6.83325V10.3334H8.16659V7.66671H10.8333V6.33337H8.16659V3.66671Z" fill="black"/>
</svg>
