<svg width="59" height="40" viewBox="0 0 59 40" fill="none" xmlns="http://www.w3.org/2000/svg">
<rect x="1.16675" y="0.5" width="57.3333" height="39" rx="3.5" fill="#006FCF" stroke="#D9D9D9"/>
<path d="M50.5962 18.0106H54.761V8.3335H50.2287V9.68093L49.3712 8.3335H45.4514V10.0484L44.7164 8.3335H37.4893C37.2443 8.3335 36.9993 8.45599 36.7543 8.45599C36.5093 8.45599 36.3868 8.57848 36.1418 8.70098C35.8968 8.82347 35.7744 8.82347 35.5294 8.94597V8.3335H14.8278L14.2153 9.92592L13.6029 8.3335H8.70308V10.0484L7.96812 8.3335H4.0483L2.33337 12.4983V18.0106H5.15075L5.64072 16.6631H6.62068L7.11066 18.0106H28.6697V16.7856L29.5271 18.0106H35.5294V17.2756C35.6519 17.3981 35.8968 17.3981 36.0193 17.5206C36.1418 17.6431 36.3868 17.6431 36.5093 17.7656C36.7543 17.8881 36.9993 17.8881 37.2443 17.8881H41.6541L42.1441 16.5406H43.124L43.614 17.8881H49.6162V16.6631L50.5962 18.0106ZM57.3334 30.26V21.1954H23.6474L22.7899 22.4204L21.9325 21.1954H12.1329V30.8725H21.9325L22.7899 29.6475L23.6474 30.8725H29.7721V28.7901H29.5271C30.3846 28.7901 31.1196 28.6676 31.732 28.4226V30.995H36.1418V29.77L36.9993 30.995H55.251C55.9859 30.75 56.7209 30.6275 57.3334 30.26Z" fill="white"/>
<path d="M55.251 27.9326H51.9436V29.28H55.1285C56.4759 29.28 57.3334 28.4226 57.3334 27.1976C57.3334 25.9727 56.5984 25.3602 55.3735 25.3602H53.9035C53.536 25.3602 53.2911 25.1152 53.2911 24.7477C53.2911 24.3803 53.536 24.1353 53.9035 24.1353H56.7209L57.3334 22.7878H54.026C52.6786 22.7878 51.8211 23.6453 51.8211 24.7477C51.8211 25.9727 52.5561 26.5852 53.781 26.5852H55.251C55.6184 26.5852 55.8634 26.8302 55.8634 27.1976C55.9859 27.6876 55.7409 27.9326 55.251 27.9326ZM49.2487 27.9326H45.9414V29.28H49.1262C50.4737 29.28 51.3311 28.4226 51.3311 27.1976C51.3311 25.9727 50.5962 25.3602 49.3712 25.3602H47.9013C47.5338 25.3602 47.2888 25.1152 47.2888 24.7477C47.2888 24.3803 47.5338 24.1353 47.9013 24.1353H50.7187L51.3311 22.7878H48.0238C46.6764 22.7878 45.8189 23.6453 45.8189 24.7477C45.8189 25.9727 46.5539 26.5852 47.7788 26.5852H49.2487C49.6162 26.5852 49.8612 26.8302 49.8612 27.1976C49.9837 27.6876 49.6162 27.9326 49.2487 27.9326ZM44.9614 24.0128V22.6653H39.8167V29.1575H44.9614V27.8101H41.2866V26.4627H44.8389V25.1152H41.2866V23.8903H44.9614V24.0128ZM36.6318 24.0128C37.2443 24.0128 37.4893 24.3803 37.4893 24.7477C37.4893 25.1152 37.2443 25.4827 36.6318 25.4827H34.7944V23.8903L36.6318 24.0128ZM34.7944 26.8302H35.5294L37.4893 29.1575H39.3267L37.1218 26.7077C38.2242 26.4627 38.8367 25.7277 38.8367 24.7477C38.8367 23.5228 37.9793 22.6653 36.6318 22.6653H33.202V29.1575H34.6719L34.7944 26.8302ZM30.8746 24.8702C30.8746 25.3602 30.6296 25.7277 30.0171 25.7277H28.0572V24.0128H29.8946C30.5071 24.0128 30.8746 24.3803 30.8746 24.8702ZM26.5873 22.6653V29.1575H28.0572V26.9526H30.0171C31.3646 26.9526 32.3445 26.0952 32.3445 24.7477C32.3445 23.5228 31.487 22.5428 30.1396 22.5428L26.5873 22.6653ZM24.3824 29.1575H26.2198L23.6474 25.8502L26.2198 22.6653H24.3824L22.7899 24.7477L21.1975 22.6653H19.3601L21.9325 25.8502L19.3601 29.0351H21.1975L22.7899 26.9526L24.3824 29.1575ZM18.8701 24.0128V22.6653H13.7254V29.1575H18.8701V27.8101H15.1953V26.4627H18.7476V25.1152H15.1953V23.8903H18.8701V24.0128ZM48.6363 12.4983L51.2087 16.4181H53.0461V9.92592H51.5761V14.2132L51.2087 13.6008L48.8813 9.92592H46.9213V16.4181H48.3913V12.0083L48.6363 12.4983ZM42.2666 12.3758L42.7565 11.0284L43.2465 12.3758L43.859 13.8457H41.6541L42.2666 12.3758ZM44.8389 16.4181H46.4314L43.614 9.92592H41.6541L38.8367 16.4181H40.4291L41.0416 15.0707H44.2265L44.8389 16.4181ZM37.9793 16.4181L38.5917 15.0707H38.2242C37.1218 15.0707 36.5093 14.3357 36.5093 13.2333V13.1108C36.5093 12.0083 37.1218 11.2734 38.2242 11.2734H39.8167V9.92592H38.1017C36.1418 9.92592 35.0394 11.2734 35.0394 13.1108V13.2333C35.0394 15.1932 36.1418 16.4181 37.9793 16.4181ZM32.467 16.4181H33.9369V10.0484H32.467V16.4181ZM29.2821 11.2734C29.8946 11.2734 30.1396 11.6408 30.1396 12.0083C30.1396 12.3758 29.8946 12.7433 29.2821 12.7433H27.4447V11.1509L29.2821 11.2734ZM27.4447 14.0907H28.1797L30.1396 16.4181H31.977L29.7721 13.9682C30.8746 13.7233 31.487 12.9883 31.487 12.0083C31.487 10.7834 30.6296 9.92592 29.2821 9.92592H25.8523V16.4181H27.3222L27.4447 14.0907ZM24.7499 11.2734V9.92592H19.6051V16.4181H24.7499V15.0707H21.075V13.7233H24.6274V12.3758H21.075V11.1509H24.7499V11.2734ZM13.6029 16.4181H14.9503L16.7877 11.1509V16.4181H18.2576V9.92592H15.8078L14.3378 14.3357L12.8679 9.92592H10.418V16.4181H11.8879V11.1509L13.6029 16.4181ZM5.64072 12.3758L6.1307 11.0284L6.62068 12.3758L7.23315 13.8457H5.02825L5.64072 12.3758ZM8.21311 16.4181H9.80553L6.98816 9.92592H5.15075L2.33337 16.4181H3.9258L4.53827 15.0707H7.72313L8.21311 16.4181Z" fill="#006FCF"/>
</svg>
