<svg width="70" height="48" viewBox="0 0 70 48" fill="none" xmlns="http://www.w3.org/2000/svg">
<rect x="0.5" y="0.5" width="69" height="47" rx="5.5" fill="#006FCF" stroke="#D9D9D9"/>
<path d="M60.6704 21.9644H65.8196V10H60.216V11.6659L59.1559 10H54.3096V12.1203L53.4009 10H44.4655C44.1626 10 43.8597 10.1514 43.5568 10.1514C43.2539 10.1514 43.1024 10.3029 42.7996 10.4543C42.4967 10.6058 42.3452 10.6058 42.0423 10.7572V10H16.4477L15.6904 11.9688L14.9332 10H8.87528V12.1203L7.96659 10H3.12027L1 15.1492V21.9644H4.4833L5.08909 20.2984H6.30067L6.90646 21.9644H33.5612V20.4499L34.6214 21.9644H42.0423V21.0557C42.1938 21.2071 42.4967 21.2071 42.6481 21.3586C42.7996 21.51 43.1024 21.51 43.2539 21.6615C43.5568 21.8129 43.8597 21.8129 44.1626 21.8129H49.6147L50.2205 20.147H51.4321L52.0379 21.8129H59.4588V20.2984L60.6704 21.9644ZM69 37.1091V25.902H27.3519L26.2918 27.4165L25.2316 25.902H13.1158V37.8664H25.2316L26.2918 36.3519L27.3519 37.8664H34.9243V35.2918H34.6214C35.6815 35.2918 36.5902 35.1403 37.3474 34.8374V38.0178H42.7996V36.5033L43.8597 38.0178H66.4254C67.3341 37.7149 68.2428 37.5635 69 37.1091Z" fill="white"/>
<path d="M66.4254 34.2316H62.3363V35.8975H66.2739C67.9399 35.8975 69 34.8374 69 33.3229C69 31.8085 68.0913 31.0512 66.5768 31.0512H64.7595C64.3051 31.0512 64.0022 30.7483 64.0022 30.294C64.0022 29.8396 64.3051 29.5367 64.7595 29.5367H68.2428L69 27.8708H64.9109C63.245 27.8708 62.1849 28.931 62.1849 30.294C62.1849 31.8085 63.0935 32.5657 64.608 32.5657H66.4254C66.8797 32.5657 67.1826 32.8686 67.1826 33.3229C67.3341 33.9287 67.0312 34.2316 66.4254 34.2316ZM59.0045 34.2316H54.9154V35.8975H58.853C60.5189 35.8975 61.5791 34.8374 61.5791 33.3229C61.5791 31.8085 60.6704 31.0512 59.1559 31.0512H57.3385C56.8842 31.0512 56.5813 30.7483 56.5813 30.294C56.5813 29.8396 56.8842 29.5367 57.3385 29.5367H60.8218L61.5791 27.8708H57.49C55.8241 27.8708 54.7639 28.931 54.7639 30.294C54.7639 31.8085 55.6726 32.5657 57.1871 32.5657H59.0045C59.4588 32.5657 59.7617 32.8686 59.7617 33.3229C59.9131 33.9287 59.4588 34.2316 59.0045 34.2316ZM53.7038 29.3853V27.7194H47.343V35.7461H53.7038V34.0802H49.1604V32.4143H53.5523V30.7483H49.1604V29.2339H53.7038V29.3853ZM43.4053 29.3853C44.1626 29.3853 44.4655 29.8396 44.4655 30.294C44.4655 30.7483 44.1626 31.2027 43.4053 31.2027H41.1336V29.2339L43.4053 29.3853ZM41.1336 32.8686H42.0423L44.4655 35.7461H46.7372L44.0111 32.7171C45.3742 32.4143 46.1314 31.5056 46.1314 30.294C46.1314 28.7795 45.0713 27.7194 43.4053 27.7194H39.1648V35.7461H40.9822L41.1336 32.8686ZM36.2873 30.4454C36.2873 31.0512 35.9844 31.5056 35.2272 31.5056H32.804V29.3853H35.0757C35.833 29.3853 36.2873 29.8396 36.2873 30.4454ZM30.9866 27.7194V35.7461H32.804V33.02H35.2272C36.8931 33.02 38.1047 31.9599 38.1047 30.294C38.1047 28.7795 37.0445 27.5679 35.3786 27.5679L30.9866 27.7194ZM28.2606 35.7461H30.5323L27.3519 31.657L30.5323 27.7194H28.2606L26.2918 30.294L24.3229 27.7194H22.0512L25.2316 31.657L22.0512 35.5947H24.3229L26.2918 33.02L28.2606 35.7461ZM21.4454 29.3853V27.7194H15.0846V35.7461H21.4454V34.0802H16.902V32.4143H21.294V30.7483H16.902V29.2339H21.4454V29.3853ZM58.2472 15.1492L61.4276 19.9955H63.6993V11.9688H61.882V17.2695L61.4276 16.5122L58.5501 11.9688H56.1269V19.9955H57.9443V14.5434L58.2472 15.1492ZM50.3719 14.9978L50.9777 13.3318L51.5835 14.9978L52.3408 16.8151H49.6147L50.3719 14.9978ZM53.5523 19.9955H55.5212L52.0379 11.9688H49.6147L46.1314 19.9955H48.1002L48.8575 18.3296H52.7951L53.5523 19.9955ZM45.0713 19.9955L45.8285 18.3296H45.3742C44.0111 18.3296 43.2539 17.4209 43.2539 16.0579V15.9065C43.2539 14.5434 44.0111 13.6347 45.3742 13.6347H47.343V11.9688H45.2227C42.7996 11.9688 41.4365 13.6347 41.4365 15.9065V16.0579C41.4365 18.4811 42.7996 19.9955 45.0713 19.9955ZM38.2561 19.9955H40.0735V12.1203H38.2561V19.9955ZM34.3185 13.6347C35.0757 13.6347 35.3786 14.0891 35.3786 14.5434C35.3786 14.9978 35.0757 15.4521 34.3185 15.4521H32.0468V13.4833L34.3185 13.6347ZM32.0468 17.118H32.9555L35.3786 19.9955H37.6503L34.9243 16.9666C36.2873 16.6637 37.0445 15.755 37.0445 14.5434C37.0445 13.029 35.9844 11.9688 34.3185 11.9688H30.078V19.9955H31.8953L32.0468 17.118ZM28.7149 13.6347V11.9688H22.3541V19.9955H28.7149V18.3296H24.1715V16.6637H28.5635V14.9978H24.1715V13.4833H28.7149V13.6347ZM14.9332 19.9955H16.5991L18.8708 13.4833V19.9955H20.6882V11.9688H17.6592L15.8419 17.4209L14.0245 11.9688H10.9955V19.9955H12.8129V13.4833L14.9332 19.9955ZM5.08909 14.9978L5.69488 13.3318L6.30067 14.9978L7.05791 16.8151H4.33185L5.08909 14.9978ZM8.26949 19.9955H10.2383L6.75501 11.9688H4.4833L1 19.9955H2.96882L3.72606 18.3296H7.6637L8.26949 19.9955Z" fill="#006FCF"/>
</svg>
