<svg width="14" height="18" viewBox="0 0 14 18" fill="none" xmlns="http://www.w3.org/2000/svg">
<path d="M12.0002 6.08333H11.1668V4.41667C11.1668 2.11667 9.30016 0.25 7.00016 0.25C4.70016 0.25 2.8335 2.11667 2.8335 4.41667V6.08333H2.00016C1.0835 6.08333 0.333496 6.83333 0.333496 7.75L0.333496 16.0833C0.333496 17 1.0835 17.75 2.00016 17.75H12.0002C12.9168 17.75 13.6668 17 13.6668 16.0833V7.75C13.6668 6.83333 12.9168 6.08333 12.0002 6.08333ZM7.00016 13.5833C6.0835 13.5833 5.3335 12.8333 5.3335 11.9167C5.3335 11 6.0835 10.25 7.00016 10.25C7.91683 10.25 8.66683 11 8.66683 11.9167C8.66683 12.8333 7.91683 13.5833 7.00016 13.5833ZM4.50016 6.08333V4.41667C4.50016 3.03333 5.61683 1.91667 7.00016 1.91667C8.3835 1.91667 9.50016 3.03333 9.50016 4.41667V6.08333H4.50016Z" fill="black"/>
</svg>
