<svg width="59" height="40" viewBox="0 0 59 40" fill="none" xmlns="http://www.w3.org/2000/svg">
<rect x="1.1665" y="0.5" width="57" height="39" rx="5.5" fill="url(#paint0_linear_7616_75686)" stroke="#D9D9D9"/>
<path d="M51.2092 14.4604C51.2092 13.8449 51.0845 13.2294 50.8349 12.6138C50.5854 11.9983 50.2112 11.5059 49.8369 11.1366C49.3379 10.6441 48.8388 10.2748 48.2151 10.1517C47.5913 9.9055 46.8427 9.9055 45.8447 9.9055H32.1215V19.0154H45.7199C46.718 19.0154 47.5913 18.8922 48.0903 18.7691C48.7141 18.5229 49.2131 18.2767 49.7121 17.7843C50.2112 17.2919 50.4607 16.7994 50.7102 16.307C51.0844 15.6915 51.2092 15.076 51.2092 14.4604Z" fill="white"/>
<path d="M51.2092 25.6629C51.2092 25.0474 51.0845 24.4318 50.8349 23.8163C50.5854 23.2008 50.2112 22.7084 49.8369 22.339C49.3379 21.8466 48.8388 21.4773 48.2151 21.3542C47.5913 21.108 46.8427 21.108 45.8447 21.108H32.1215V30.2178H45.7199C46.718 30.2178 47.5913 30.0947 48.0903 29.9716C48.7141 29.7254 49.2131 29.4792 49.7121 28.9868C50.2112 28.4943 50.4607 28.0019 50.7102 27.5095C51.0844 26.894 51.2092 26.2784 51.2092 25.6629Z" fill="white"/>
<path d="M30.2501 19.0152C29.7511 13.1061 25.5094 9.16675 18.7725 9.16675C11.6614 9.16675 7.29492 13.4755 7.29492 20.0001C7.29492 26.7709 11.9109 30.8334 18.7725 30.8334C25.5094 30.8334 29.7511 27.0171 30.2501 20.9849H18.6478V18.8921H30.2501V19.0152Z" fill="white"/>
<defs>
<linearGradient id="paint0_linear_7616_75686" x1="61.962" y1="-3.2" x2="5.98654" y2="46.0469" gradientUnits="userSpaceOnUse">
<stop stop-color="#0D2350"/>
<stop offset="0.557292" stop-color="#288FAE"/>
<stop offset="0.75" stop-color="#259479"/>
<stop offset="1" stop-color="#239942"/>
</linearGradient>
</defs>
</svg>
