<svg width="59" height="40" viewBox="0 0 59 40" fill="none" xmlns="http://www.w3.org/2000/svg">
<rect x="1.1665" y="0.5" width="56.6686" height="39" rx="5.5" fill="white" stroke="#D9D9D9"/>
<path fill-rule="evenodd" clip-rule="evenodd" d="M29.5838 28.5948C27.6092 30.3086 25.0478 31.3432 22.2489 31.3432C16.0037 31.3432 10.9409 26.1922 10.9409 19.8382C10.9409 13.4842 16.0037 8.33325 22.2489 8.33325C25.0478 8.33325 27.6092 9.36784 29.5838 11.0816C31.5584 9.36784 34.1198 8.33325 36.9187 8.33325C43.1639 8.33325 48.2266 13.4842 48.2266 19.8382C48.2266 26.1922 43.1639 31.3432 36.9187 31.3432C34.1198 31.3432 31.5584 30.3086 29.5838 28.5948Z" fill="#ED0006"/>
<path fill-rule="evenodd" clip-rule="evenodd" d="M29.584 28.5948C32.0153 26.4846 33.5571 23.3446 33.5571 19.8382C33.5571 16.3319 32.0153 13.1919 29.584 11.0816C31.5586 9.36784 34.12 8.33325 36.9189 8.33325C43.1641 8.33325 48.2268 13.4842 48.2268 19.8382C48.2268 26.1922 43.1641 31.3432 36.9189 31.3432C34.12 31.3432 31.5586 30.3086 29.584 28.5948Z" fill="#F9A000"/>
<path fill-rule="evenodd" clip-rule="evenodd" d="M29.5839 11.0818C32.0152 13.192 33.5569 16.332 33.5569 19.8383C33.5569 23.3447 32.0152 26.4847 29.5839 28.5949C27.1525 26.4847 25.6108 23.3447 25.6108 19.8383C25.6108 16.332 27.1525 13.192 29.5839 11.0818Z" fill="#FF5E00"/>
</svg>
