<svg width="47" height="32" viewBox="0 0 47 32" fill="none" xmlns="http://www.w3.org/2000/svg">
<rect x="1.44043" y="0.5" width="45" height="31" rx="3.5" fill="white"/>
<mask id="mask0_5868_66680" style="mask-type:alpha" maskUnits="userSpaceOnUse" x="10" y="23" width="28" height="4">
<path d="M10.4268 26.9999H37.3643V23.4648H10.4268V26.9999Z" fill="white"/>
</mask>
<g mask="url(#mask0_5868_66680)">
<path fill-rule="evenodd" clip-rule="evenodd" d="M34.3608 25.6553C34.3608 25.1979 34.642 24.8319 35.0963 24.8319C35.5306 24.8319 35.8168 25.1827 35.8168 25.6553C35.8168 26.1279 35.5306 26.4786 35.0963 26.4786C34.642 26.4786 34.3608 26.1126 34.3608 25.6553ZM36.2709 25.6553V23.4648H35.7971V24.7354C35.6342 24.5169 35.3677 24.3796 35.032 24.3796C34.3706 24.3796 33.867 24.9134 33.867 25.6553C33.867 26.3974 34.3706 26.9309 35.032 26.9309C35.3677 26.9309 35.6342 26.7936 35.7971 26.5751V26.87H36.2709V25.6553ZM29.5977 25.6553C29.5977 25.1979 29.8789 24.8319 30.333 24.8319C30.7673 24.8319 31.0537 25.1827 31.0537 25.6553C31.0537 26.1279 30.7673 26.4786 30.333 26.4786C29.8789 26.4786 29.5977 26.1126 29.5977 25.6553ZM31.5078 25.6553V24.4405H31.034V24.7354C30.8711 24.5169 30.6046 24.3796 30.2689 24.3796C29.6075 24.3796 29.1039 24.9134 29.1039 25.6553C29.1039 26.3974 29.6075 26.9309 30.2689 26.9309C30.6046 26.9309 30.8711 26.7936 31.034 26.5751V26.87H31.5078V25.6553ZM37.0858 26.6878V26.7477H37.1393C37.1514 26.7477 37.1612 26.7452 37.1686 26.7401C37.1758 26.7353 37.1795 26.7276 37.1795 26.7175C37.1795 26.7076 37.1758 26.7002 37.1686 26.6952C37.1612 26.6903 37.1514 26.6878 37.1393 26.6878H37.0858ZM37.1398 26.6459C37.1676 26.6459 37.1893 26.6523 37.2044 26.6652C37.2194 26.6779 37.227 26.6954 37.227 26.7175C37.227 26.736 37.2209 26.7512 37.2091 26.7632C37.197 26.7751 37.1797 26.7827 37.1575 26.7853L37.2288 26.8698H37.1731L37.107 26.786H37.0858V26.8698H37.0395V26.6459H37.1398ZM37.126 26.9467C37.1514 26.9467 37.1748 26.9419 37.1967 26.932C37.2184 26.9221 37.2376 26.9086 37.2539 26.8919C37.2704 26.8749 37.2833 26.8551 37.2929 26.832C37.3022 26.8091 37.3069 26.7848 37.3069 26.7589C37.3069 26.7327 37.3022 26.7084 37.2929 26.6855C37.2833 26.6627 37.2704 26.6429 37.2539 26.6259C37.2376 26.6089 37.2184 26.5957 37.1967 26.586C37.1748 26.5761 37.1514 26.5713 37.126 26.5713C37.1003 26.5713 37.0762 26.5761 37.054 26.586C37.0316 26.5957 37.0121 26.6089 36.9956 26.6259C36.9793 26.6429 36.9663 26.6627 36.9569 26.6855C36.9475 26.7084 36.9428 26.7327 36.9428 26.7589C36.9428 26.7848 36.9475 26.8091 36.9569 26.832C36.9663 26.8551 36.9793 26.8749 36.9956 26.8919C37.0121 26.9086 37.0316 26.9221 37.054 26.932C37.0762 26.9419 37.1003 26.9467 37.126 26.9467ZM37.126 26.5177C37.159 26.5177 37.1898 26.5241 37.2187 26.5365C37.2475 26.5492 37.2729 26.5665 37.2946 26.5883C37.316 26.6101 37.333 26.6358 37.3456 26.6652C37.3579 26.6944 37.3643 26.7256 37.3643 26.7589C37.3643 26.7919 37.3579 26.8231 37.3456 26.8523C37.333 26.8815 37.316 26.9068 37.2946 26.9287C37.2729 26.9505 37.2475 26.968 37.2187 26.9807C37.1898 26.9936 37.159 27 37.126 27C37.0922 27 37.0609 26.9936 37.0316 26.9807C37.0022 26.968 36.9769 26.9505 36.9557 26.9287C36.934 26.9068 36.9172 26.8815 36.9046 26.8523C36.8923 26.8231 36.8861 26.7919 36.8861 26.7589C36.8861 26.7256 36.8923 26.6944 36.9046 26.6652C36.9172 26.6358 36.934 26.6101 36.9557 26.5883C36.9769 26.5665 37.0022 26.5492 37.0316 26.5365C37.0609 26.5241 37.0922 26.5177 37.126 26.5177ZM33.3242 24.3796C33.0282 24.3796 32.8157 24.522 32.6826 24.7354V24.4405H32.2135V26.87H32.6875V25.5027C32.6875 25.1012 32.8751 24.842 33.2106 24.842C33.3144 24.842 33.4228 24.8573 33.5315 24.903L33.6896 24.4456C33.5759 24.3999 33.4278 24.3796 33.3242 24.3796ZM15.1107 25.6553C15.1107 25.1979 15.3922 24.8319 15.8463 24.8319C16.2806 24.8319 16.567 25.1827 16.567 25.6553C16.567 26.1279 16.2806 26.4786 15.8463 26.4786C15.3922 26.4786 15.1107 26.1126 15.1107 25.6553ZM17.0211 25.6553V24.4405H16.5471V24.7354C16.3844 24.5169 16.1177 24.3796 15.7822 24.3796C15.1208 24.3796 14.6172 24.9134 14.6172 25.6553C14.6172 26.3974 15.1208 26.9309 15.7822 26.9309C16.1177 26.9309 16.3844 26.7936 16.5471 26.5751V26.87H17.0211V25.6553ZM23.4081 24.8319C23.7584 24.8319 23.9955 25.0657 24.03 25.4469H22.7564C22.801 25.091 23.028 24.8319 23.4081 24.8319ZM23.418 24.3796C22.7268 24.3796 22.253 24.8928 22.253 25.6502C22.253 26.4228 22.7467 26.9309 23.4525 26.9309C23.8079 26.9309 24.1335 26.8396 24.42 26.5903L24.1681 26.2297C23.9706 26.3924 23.7189 26.4837 23.4821 26.4837C23.1513 26.4837 22.8158 26.2906 22.7564 25.8535H24.5186C24.5235 25.7875 24.5284 25.7213 24.5284 25.6502C24.5235 24.8928 24.0793 24.3796 23.418 24.3796ZM26.7348 25.6553C26.7348 26.3924 27.2135 26.9309 27.9737 26.9309C28.3292 26.9309 28.5661 26.8497 28.8227 26.6413L28.5759 26.2601C28.3834 26.4025 28.1811 26.4786 27.959 26.4786C27.5493 26.4736 27.2283 26.1431 27.2283 25.6553C27.2283 25.1674 27.5493 24.837 27.959 24.8319C28.1811 24.8319 28.3834 24.908 28.5759 25.0504L28.8227 24.6692C28.5661 24.4608 28.3292 24.3796 27.9737 24.3796C27.2135 24.3796 26.7348 24.9184 26.7348 25.6553ZM19.5778 24.6337C19.331 24.4659 18.9904 24.3796 18.6152 24.3796C18.0182 24.3796 17.6529 24.6692 17.6529 25.1522C17.6529 25.5484 17.9193 25.7875 18.4476 25.8637L18.6894 25.8992C18.9706 25.9398 19.1237 26.0416 19.1237 26.1786C19.1237 26.3667 18.9164 26.4888 18.5659 26.4888C18.1956 26.4888 17.9538 26.3718 17.7813 26.2347L17.5392 26.616C17.8897 26.8802 18.3093 26.9309 18.561 26.9309C19.2423 26.9309 19.6172 26.6058 19.6172 26.1431C19.6172 25.7162 19.331 25.4977 18.8126 25.4215L18.5708 25.386C18.3487 25.3555 18.1513 25.2842 18.1513 25.1218C18.1513 24.9438 18.3389 24.8217 18.6201 24.8217C18.9213 24.8217 19.2125 24.9388 19.3557 25.0301L19.5778 24.6337ZM26.1967 24.3796C25.9007 24.3796 25.6885 24.522 25.5551 24.7354V24.4405H25.0863V26.87H25.56V25.5027C25.56 25.1012 25.7476 24.842 26.0833 24.842C26.1869 24.842 26.2956 24.8573 26.404 24.903L26.562 24.4456C26.4487 24.3999 26.3005 24.3796 26.1967 24.3796ZM21.8187 24.4405H20.9599V23.7037H20.4812V24.4405H19.9825V24.8827H20.4812V26.0314C20.4812 26.5954 20.6737 26.9309 21.2806 26.9309C21.5027 26.9309 21.7595 26.8599 21.9225 26.7429L21.7743 26.3109C21.6212 26.4025 21.4534 26.4482 21.3203 26.4482C21.0634 26.4482 20.9599 26.2855 20.9599 26.0416V24.8827H21.8187V24.4405ZM14.1287 26.87V25.34C14.1287 24.7659 13.7929 24.3847 13.2203 24.3796C12.9193 24.3745 12.6083 24.471 12.3911 24.8116C12.2282 24.5423 11.9716 24.3796 11.6112 24.3796C11.3595 24.3796 11.093 24.4507 10.9005 24.7354V24.4405H10.4268V26.87H10.9055V25.4773C10.9055 25.0555 11.1522 24.8319 11.5027 24.8319C11.8431 24.8319 12.0357 25.0606 12.0357 25.4723V26.87H12.5146V25.4773C12.5146 25.0555 12.7712 24.8319 13.1119 24.8319C13.4624 24.8319 13.6497 25.0606 13.6497 25.4723V26.87H14.1287Z" fill="black"/>
</g>
<mask id="mask1_5868_66680" style="mask-type:alpha" maskUnits="userSpaceOnUse" x="8" y="4" width="30" height="23">
<path d="M8.94043 27H37.655V4H8.94043V27Z" fill="white"/>
</mask>
<g mask="url(#mask1_5868_66680)">
<path fill-rule="evenodd" clip-rule="evenodd" d="M19.0264 20.3211H27.5688V5.95361H19.0264V20.3211Z" fill="#FF5F00"/>
<path fill-rule="evenodd" clip-rule="evenodd" d="M19.9084 13.1371C19.9084 10.2223 21.2338 7.62653 23.2977 5.95337C21.7882 4.72973 19.8837 3.99976 17.8136 3.99976C12.913 3.99976 8.94043 8.09075 8.94043 13.1371C8.94043 18.1835 12.913 22.2745 17.8136 22.2745C19.8837 22.2745 21.7882 21.5445 23.2977 20.3209C21.2338 18.6477 19.9084 16.0519 19.9084 13.1371Z" fill="#EB001B"/>
<path fill-rule="evenodd" clip-rule="evenodd" d="M37.3775 18.8889V18.4447H37.2875L37.184 18.7503L37.0807 18.4447H36.9908V18.8889H37.0541V18.5538L37.1512 18.8428H37.217L37.3139 18.5531V18.8889H37.3775ZM36.8079 18.8889V18.5204H36.9232V18.4453H36.6299V18.5204H36.745V18.8889H36.8079Z" fill="#F79E1B"/>
<path fill-rule="evenodd" clip-rule="evenodd" d="M37.6552 13.1372C37.6552 18.1836 33.6823 22.2746 28.7819 22.2746C26.7119 22.2746 24.8072 21.5446 23.2979 20.321C25.3618 18.6478 26.6872 16.0521 26.6872 13.1372C26.6872 10.2224 25.3618 7.62665 23.2979 5.9535C24.8072 4.72985 26.7119 3.99988 28.7819 3.99988C33.6823 3.99988 37.6552 8.09088 37.6552 13.1372Z" fill="#F79E1B"/>
</g>
<rect x="1.44043" y="0.5" width="45" height="31" rx="3.5" stroke="#D9D9D9"/>
</svg>
