<svg width="47" height="32" viewBox="0 0 47 32" fill="none" xmlns="http://www.w3.org/2000/svg">
<rect x="0.557617" y="0.5" width="45.0006" height="31" rx="3.5" fill="white"/>
<path fill-rule="evenodd" clip-rule="evenodd" d="M40.7456 13.2013L39.8879 18.6384C39.8713 18.7437 39.953 18.8389 40.06 18.8389H40.9226C41.0655 18.8389 41.1871 18.7353 41.2093 18.5947L42.055 13.2553C42.0717 13.15 41.99 13.0547 41.8829 13.0547H40.9176C40.8319 13.0547 40.7589 13.1169 40.7456 13.2013Z" fill="#009CDE"/>
<path fill-rule="evenodd" clip-rule="evenodd" d="M38.1727 16.9217C38.076 17.4914 37.6222 17.8739 37.0433 17.8739C36.753 17.8739 36.5207 17.7809 36.3713 17.6048C36.2233 17.4301 36.1676 17.1814 36.2145 16.9043C36.3046 16.3397 36.7657 15.9449 37.3359 15.9449C37.62 15.9449 37.8508 16.0389 38.003 16.2166C38.1563 16.3956 38.2165 16.646 38.1727 16.9217ZM39.5672 14.981H38.5666C38.4808 14.981 38.4078 15.043 38.3945 15.1275L38.3504 15.4063L38.2806 15.3052C38.0638 14.9918 37.5809 14.8871 37.0986 14.8871C35.9932 14.8871 35.0487 15.7219 34.8649 16.8927C34.7693 17.4768 34.9051 18.035 35.2374 18.4246C35.5428 18.7825 35.9785 18.9315 36.4977 18.9315C37.3888 18.9315 37.883 18.3611 37.883 18.3611L37.8384 18.6382C37.8216 18.7436 37.9033 18.839 38.0105 18.839H38.9115C39.0544 18.839 39.176 18.7355 39.1984 18.5948L39.7392 15.1815C39.756 15.0761 39.6742 14.981 39.5672 14.981Z" fill="#009CDE"/>
<path fill-rule="evenodd" clip-rule="evenodd" d="M33.5606 15.0048C33.4464 15.7522 32.8735 15.7522 32.3194 15.7522H32.0041L32.2253 14.3567C32.2386 14.2723 32.3116 14.2102 32.3973 14.2102H32.5419C32.9189 14.2102 33.2753 14.2102 33.459 14.4243C33.5689 14.5524 33.6021 14.7423 33.5606 15.0048ZM33.3194 13.0547H31.2296C31.0868 13.0547 30.9651 13.1583 30.9429 13.2989L30.0979 18.6384C30.0812 18.7436 30.1629 18.8389 30.2699 18.8389H31.3421C31.4422 18.8389 31.5273 18.7664 31.5428 18.6679L31.7825 17.1543C31.8048 17.0136 31.9264 16.91 32.0693 16.91H32.7305C34.107 16.91 34.9014 16.2462 35.1091 14.9306C35.2025 14.3553 35.1128 13.9031 34.8424 13.5866C34.5453 13.2387 34.0186 13.0547 33.3194 13.0547Z" fill="#009CDE"/>
<path fill-rule="evenodd" clip-rule="evenodd" d="M29.9916 14.981H28.9858C28.8896 14.981 28.7997 15.0285 28.7457 15.1078L27.3583 17.1439L26.7703 15.1873C26.7335 15.0649 26.6205 14.981 26.4922 14.981H25.5035C25.3841 14.981 25.3 15.0979 25.3385 15.2105L26.446 18.4497L25.4044 19.9144C25.3226 20.0293 25.4051 20.1883 25.5465 20.1883H26.5513C26.6466 20.1883 26.7357 20.1418 26.79 20.0637L30.1348 15.2535C30.2149 15.1384 30.1322 14.981 29.9916 14.981Z" fill="#003087"/>
<path fill-rule="evenodd" clip-rule="evenodd" d="M23.2674 16.9217C23.1708 17.4914 22.7169 17.8739 22.138 17.8739C21.8477 17.8739 21.6154 17.7809 21.4661 17.6048C21.318 17.4301 21.2623 17.1814 21.3092 16.9043C21.3994 16.3397 21.8605 15.9449 22.4306 15.9449C22.7148 15.9449 22.9455 16.0389 23.0978 16.2166C23.2511 16.3956 23.3113 16.646 23.2674 16.9217ZM24.662 14.981H23.6613C23.5756 14.981 23.5026 15.043 23.4893 15.1275L23.4452 15.4063L23.3753 15.3052C23.1586 14.9918 22.6756 14.8871 22.1934 14.8871C21.0878 14.8871 20.1435 15.7219 19.9597 16.8927C19.864 17.4768 19.9998 18.035 20.3322 18.4246C20.6375 18.7825 21.0733 18.9315 21.5925 18.9315C22.4836 18.9315 22.9778 18.3611 22.9778 18.3611L22.9331 18.6382C22.9164 18.7436 22.9981 18.839 23.1051 18.839H24.0063C24.1491 18.839 24.2708 18.7355 24.293 18.5948L24.834 15.1815C24.8507 15.0761 24.769 14.981 24.662 14.981Z" fill="#003087"/>
<path fill-rule="evenodd" clip-rule="evenodd" d="M18.6563 15.0048C18.5421 15.7522 17.9692 15.7522 17.4151 15.7522H17.0998L17.3209 14.3567C17.3344 14.2723 17.4073 14.2102 17.493 14.2102H17.6375C18.0147 14.2102 18.371 14.2102 18.5547 14.4243C18.6646 14.5524 18.6979 14.7423 18.6563 15.0048ZM18.4152 13.0547H16.3254C16.1825 13.0547 16.0609 13.1583 16.0386 13.2989L15.1936 18.6384C15.1769 18.7436 15.2586 18.8389 15.3656 18.8389H16.3634C16.5063 18.8389 16.628 18.7353 16.6503 18.5947L16.8783 17.1543C16.9005 17.0136 17.0222 16.91 17.165 16.91H17.8263C19.2027 16.91 19.9972 16.2462 20.2048 14.9306C20.2983 14.3553 20.2086 13.9031 19.9382 13.5866C19.6409 13.2387 19.1142 13.0547 18.4152 13.0547Z" fill="#003087"/>
<mask id="mask0_5868_66701" style="mask-type:alpha" maskUnits="userSpaceOnUse" x="4" y="11" width="39" height="10">
<path d="M42.0569 20.1883V11H4.05762V20.1883H42.0569Z" fill="white"/>
</mask>
<g mask="url(#mask0_5868_66701)">
<path fill-rule="evenodd" clip-rule="evenodd" d="M11.0949 13.3343C11.2074 12.6196 11.0941 12.1332 10.7062 11.6927C10.279 11.2078 9.50737 11 8.52008 11H5.65412C5.45238 11 5.28061 11.1463 5.24914 11.3449L4.0558 18.8854C4.03223 19.0342 4.14765 19.1687 4.29877 19.1687H6.06803L5.94593 19.9403C5.92536 20.0705 6.02623 20.1883 6.15847 20.1883H7.64973C7.8263 20.1883 7.97657 20.0602 8.00409 19.8865L8.01874 19.811L8.29965 18.0359L8.31778 17.9378C8.3453 17.764 8.49557 17.636 8.67204 17.636H8.8951C10.3399 17.636 11.4711 17.0511 11.8016 15.3596C11.9398 14.6529 11.8684 14.0629 11.5032 13.6481C11.3926 13.5227 11.2552 13.4189 11.0949 13.3343Z" fill="#009CDE"/>
<path fill-rule="evenodd" clip-rule="evenodd" d="M11.0949 13.3343C11.2074 12.6196 11.0941 12.1332 10.7062 11.6927C10.279 11.2078 9.50737 11 8.52008 11H5.65412C5.45238 11 5.28061 11.1463 5.24914 11.3449L4.0558 18.8854C4.03223 19.0342 4.14765 19.1687 4.29877 19.1687H6.06803L6.51246 16.3606L6.49865 16.4486C6.53011 16.25 6.70048 16.1037 6.90222 16.1037H7.74318C9.39466 16.1037 10.6877 15.4351 11.0656 13.5016C11.0768 13.4444 11.0863 13.3889 11.0949 13.3343Z" fill="#012169"/>
<path fill-rule="evenodd" clip-rule="evenodd" d="M6.98985 13.3439C7.00882 13.2244 7.08574 13.1266 7.18933 13.0771C7.23648 13.0546 7.28908 13.0421 7.34421 13.0421H9.59067C9.85684 13.0421 10.105 13.0595 10.3318 13.0959C10.3967 13.1063 10.4597 13.1182 10.521 13.1318C10.5823 13.1453 10.6418 13.1604 10.6994 13.1773C10.7282 13.1856 10.7565 13.1944 10.7844 13.2037C10.8958 13.2405 10.9995 13.284 11.0949 13.3343C11.2074 12.6196 11.0941 12.1332 10.7062 11.6927C10.279 11.2078 9.50737 11 8.52008 11H5.65412C5.45238 11 5.28061 11.1463 5.24914 11.3449L4.0558 18.8854C4.03223 19.0342 4.14765 19.1687 4.29877 19.1687H6.06803L6.98985 13.3439Z" fill="#003087"/>
</g>
<rect x="0.557617" y="0.5" width="45.0006" height="31" rx="3.5" stroke="#D9D9D9"/>
</svg>
