<svg width="72" height="20" viewBox="0 0 72 20" fill="none" xmlns="http://www.w3.org/2000/svg">
<path d="M26.8321 4.09033H22.861C22.5893 4.09033 22.3582 4.29639 22.3158 4.57639L20.7097 15.2049C20.6778 15.4146 20.8334 15.6037 21.0372 15.6037H22.933C23.2048 15.6037 23.4359 15.3976 23.4783 15.117L23.9114 12.2503C23.9532 11.9697 24.1849 11.7637 24.4561 11.7637H25.7132C28.329 11.7637 29.8386 10.4425 30.2329 7.82427C30.4106 6.67882 30.2404 5.77882 29.7266 5.14851C29.1622 4.45639 28.1612 4.09033 26.8321 4.09033ZM27.2902 7.97215C27.073 9.45942 25.9843 9.45942 24.9316 9.45942H24.3324L24.7528 6.68185C24.7777 6.51397 24.9171 6.39033 25.0797 6.39033H25.3543C26.0714 6.39033 26.7479 6.39033 27.0974 6.817C27.3059 7.07154 27.3697 7.44973 27.2902 7.97215Z" fill="#253B80"/>
<path d="M38.7022 7.92422H36.8006C36.6386 7.92422 36.4986 8.04785 36.4737 8.21573L36.3895 8.77088L36.2565 8.56967C35.8448 7.94603 34.9268 7.73755 34.0106 7.73755C31.9092 7.73755 30.1144 9.39876 29.7649 11.7291C29.5832 12.8915 29.8415 14.003 30.4733 14.7782C31.0528 15.4909 31.8819 15.7879 32.8684 15.7879C34.5616 15.7879 35.5005 14.6515 35.5005 14.6515L35.4157 15.203C35.3838 15.4139 35.5394 15.603 35.7421 15.603H37.455C37.7273 15.603 37.9572 15.3969 38.0002 15.1163L39.0279 8.323C39.0604 8.11391 38.9054 7.92422 38.7022 7.92422ZM36.0515 11.7872C35.8681 12.9212 35.0058 13.6824 33.9061 13.6824C33.3539 13.6824 32.9126 13.4976 32.6292 13.1472C32.3482 12.7994 32.2413 12.3042 32.3308 11.7527C32.5021 10.6285 33.3788 9.8424 34.4617 9.8424C35.0017 9.8424 35.4407 10.0297 35.7299 10.383C36.0196 10.74 36.1346 11.2382 36.0515 11.7872Z" fill="#253B80"/>
<path d="M48.8301 7.92432H46.9192C46.7368 7.92432 46.5655 8.01886 46.4622 8.17704L43.8266 12.2292L42.7095 8.33523C42.6392 8.09159 42.4238 7.92432 42.1799 7.92432H40.3021C40.0739 7.92432 39.9154 8.15704 39.988 8.38129L42.0928 14.8286L40.114 17.7443C39.9584 17.974 40.1152 18.2898 40.384 18.2898H42.2926C42.4737 18.2898 42.6433 18.1977 42.7461 18.0425L49.1018 8.46674C49.2539 8.23765 49.0977 7.92432 48.8301 7.92432Z" fill="#253B80"/>
<path d="M55.1568 4.09033H51.1852C50.914 4.09033 50.6829 4.29639 50.6405 4.57639L49.0344 15.2049C49.0025 15.4146 49.1581 15.6037 49.3608 15.6037H51.3988C51.5881 15.6037 51.7501 15.4594 51.7797 15.2631L52.2355 12.2503C52.2773 11.9697 52.509 11.7637 52.7802 11.7637H54.0367C56.6531 11.7637 58.1622 10.4425 58.557 7.82427C58.7353 6.67882 58.564 5.77882 58.0501 5.14851C57.4863 4.45639 56.4859 4.09033 55.1568 4.09033ZM55.6149 7.97215C55.3983 9.45942 54.3096 9.45942 53.2563 9.45942H52.6577L53.0786 6.68185C53.1036 6.51397 53.2418 6.39033 53.405 6.39033H53.6796C54.3961 6.39033 55.0732 6.39033 55.4227 6.817C55.6312 7.07154 55.6944 7.44973 55.6149 7.97215Z" fill="#179BD7"/>
<path d="M67.0264 7.92422H65.1259C64.9628 7.92422 64.824 8.04785 64.7996 8.21573L64.7154 8.77088L64.5818 8.56967C64.1702 7.94603 63.2528 7.73755 62.3365 7.73755C60.2351 7.73755 58.4409 9.39876 58.0914 11.7291C57.9102 12.8915 58.1675 14.003 58.7992 14.7782C59.3798 15.4909 60.2078 15.7879 61.1944 15.7879C62.8875 15.7879 63.8264 14.6515 63.8264 14.6515L63.7417 15.203C63.7097 15.4139 63.8653 15.603 64.0691 15.603H65.7815C66.0526 15.603 66.2837 15.3969 66.3261 15.1163L67.3544 8.323C67.3858 8.11391 67.2302 7.92422 67.0264 7.92422ZM64.3757 11.7872C64.1934 12.9212 63.33 13.6824 62.2302 13.6824C61.6792 13.6824 61.2367 13.4976 60.9534 13.1472C60.6724 12.7994 60.5667 12.3042 60.6549 11.7527C60.8274 10.6285 61.703 9.8424 62.7859 9.8424C63.3259 9.8424 63.7649 10.0297 64.054 10.383C64.3449 10.74 64.4599 11.2382 64.3757 11.7872Z" fill="#179BD7"/>
<path d="M69.2678 4.38172L67.638 15.2048C67.606 15.4144 67.7616 15.6035 67.9643 15.6035H69.6029C69.8752 15.6035 70.1063 15.3975 70.1481 15.1169L71.7553 4.48899C71.7873 4.2793 71.6316 4.0896 71.429 4.0896H69.5942C69.4322 4.09021 69.2928 4.21384 69.2678 4.38172Z" fill="#179BD7"/>
<path d="M4.21911 17.6691L4.52279 15.6558L3.84634 15.6394H0.616211L2.86099 0.78303C2.86795 0.738181 2.8906 0.696363 2.92369 0.666666C2.95679 0.636969 2.99918 0.620605 3.04331 0.620605H8.48976C10.2979 0.620605 11.5457 1.01333 12.1972 1.78848C12.5026 2.15212 12.6971 2.53212 12.7912 2.9503C12.8899 3.38909 12.8916 3.91333 12.7952 4.55273L12.7883 4.59939V5.00909L13.0937 5.1897C13.3509 5.33212 13.5553 5.49515 13.7121 5.68182C13.9734 5.99273 14.1423 6.38788 14.2138 6.85636C14.2875 7.33818 14.2631 7.91152 14.1423 8.56061C14.003 9.30727 13.7777 9.95758 13.4734 10.4897C13.1936 10.98 12.837 11.3867 12.4138 11.7018C12.0096 12.0012 11.5294 12.2285 10.9865 12.3739C10.4605 12.517 9.86066 12.5891 9.20279 12.5891H8.77892C8.47582 12.5891 8.18144 12.703 7.95034 12.9073C7.71866 13.1158 7.56537 13.4006 7.51834 13.7121L7.4864 13.8933L6.94989 17.4418L6.9255 17.5721C6.91911 17.6133 6.90808 17.6339 6.89182 17.6479C6.87731 17.6606 6.8564 17.6691 6.83608 17.6691H4.21911Z" fill="#253B80"/>
<path d="M13.3827 4.64673C13.3665 4.75521 13.3479 4.86612 13.327 4.98006C12.6087 8.82915 10.1515 10.1589 7.01307 10.1589H5.41513C5.03133 10.1589 4.70791 10.4498 4.6481 10.8449L3.82997 16.2607L3.59829 17.7958C3.55939 18.0552 3.751 18.2892 4.00184 18.2892H6.83597C7.17158 18.2892 7.45668 18.0346 7.50952 17.6892L7.53739 17.5389L8.071 14.0043L8.10526 13.8104C8.15752 13.4637 8.4432 13.2092 8.77881 13.2092H9.20268C11.9486 13.2092 14.0981 12.0455 14.7264 8.67824C14.9888 7.27158 14.8529 6.09703 14.1585 5.27097C13.9483 5.02188 13.6876 4.81521 13.3827 4.64673Z" fill="#179BD7"/>
<path d="M12.6312 4.33403C12.5215 4.3007 12.4083 4.2704 12.2921 4.24312C12.1754 4.21646 12.0558 4.19282 11.9327 4.17221C11.5019 4.09949 11.0298 4.06494 10.5241 4.06494H6.25517C6.15008 4.06494 6.05021 4.08979 5.96079 4.13464C5.76395 4.23343 5.61763 4.42797 5.58221 4.66615L4.67408 10.6698L4.64795 10.8449C4.70776 10.4498 5.03117 10.1589 5.41498 10.1589H7.01292C10.1513 10.1589 12.6086 8.82858 13.3268 4.98009C13.3483 4.86615 13.3663 4.75524 13.3826 4.64676C13.2009 4.54615 13.004 4.46009 12.7921 4.38676C12.7398 4.36858 12.6858 4.351 12.6312 4.33403Z" fill="#222D65"/>
<path d="M5.58231 4.66606C5.61773 4.42788 5.76406 4.23333 5.9609 4.13515C6.0509 4.0903 6.15019 4.06545 6.25528 4.06545H10.5242C11.0299 4.06545 11.502 4.1 11.9328 4.17273C12.0559 4.19333 12.1755 4.21697 12.2922 4.24364C12.4084 4.27091 12.5216 4.30121 12.6313 4.33454C12.6859 4.35151 12.7399 4.36909 12.7928 4.38667C13.0047 4.46 13.2015 4.54667 13.3833 4.64667C13.597 3.22424 13.3815 2.25576 12.6447 1.37879C11.8324 0.413333 10.3662 0 8.49018 0H3.04374C2.66051 0 2.33361 0.290909 2.27438 0.686667L0.00579996 15.6958C-0.0389097 15.9927 0.180574 16.2606 0.467413 16.2606H3.82993L4.67419 10.6697L5.58231 4.66606Z" fill="#253B80"/>
</svg>
