<svg width="32" height="32" viewBox="0 0 32 32" fill="none" xmlns="http://www.w3.org/2000/svg">
<rect width="32" height="32" rx="16" fill="#08875D"/>
<path d="M25.2834 9.88959L15.2834 19.8896C14.8934 20.2796 14.2634 20.2796 13.8734 19.8896L11.0434 17.0596C10.6534 16.6696 10.6534 16.0396 11.0434 15.6496C11.4334 15.2596 12.0634 15.2596 12.4534 15.6496L14.5734 17.7696L23.8634 8.47959C24.2534 8.08959 24.8834 8.08959 25.2734 8.47959C25.6734 8.86959 25.6734 9.49959 25.2834 9.88959ZM19.7634 6.73959C18.0734 6.04959 16.1534 5.80959 14.1534 6.16959C10.0834 6.89959 6.83339 10.1796 6.14339 14.2496C5.00339 20.9996 10.6234 26.7796 17.3334 25.9096C21.2934 25.3996 24.6134 22.4496 25.6534 18.5996C26.0534 17.1296 26.0934 15.7096 25.8634 14.3796C25.7334 13.5796 24.7434 13.2696 24.1634 13.8396C23.9334 14.0696 23.8334 14.4096 23.8934 14.7296C24.1134 16.0596 24.0134 17.4796 23.3734 18.9896C22.2134 21.6996 19.6934 23.6896 16.7634 23.9596C11.6634 24.4296 7.43339 20.1096 8.06339 14.9796C8.49339 11.4396 11.3434 8.55959 14.8734 8.06959C16.6034 7.82959 18.2434 8.15959 19.6434 8.87959C20.0334 9.07959 20.5034 9.00959 20.8134 8.69959C21.2934 8.21959 21.1734 7.40959 20.5734 7.09959C20.3034 6.97959 20.0334 6.84959 19.7634 6.73959Z" fill="white"/>
</svg>
