<svg width="18" height="18" viewBox="0 0 18 18" fill="none" xmlns="http://www.w3.org/2000/svg">
<path d="M8.99961 0.600098C4.34781 0.600098 0.599609 4.34829 0.599609 9.0001C0.599609 13.6519 4.34781 17.4001 8.99961 17.4001C13.6514 17.4001 17.3996 13.6519 17.3996 9.0001C17.3996 8.09649 17.2785 7.19541 16.9554 6.35491L15.9054 7.38471C16.0341 7.90214 16.1073 8.41957 16.1073 9.0001C16.1073 12.9426 12.9422 16.1078 8.99961 16.1078C5.05706 16.1078 1.89192 12.9426 1.89192 9.0001C1.89192 5.05755 5.05706 1.89241 8.99961 1.89241C10.9381 1.89241 12.6797 2.66476 13.9063 3.89144L14.815 2.98279C13.3283 1.49613 11.2611 0.600098 8.99961 0.600098ZM16.289 3.36644L8.99961 10.6559L6.23326 7.88952L5.30442 8.81837L8.53519 12.0491L8.99961 12.4934L9.46403 12.0491L17.2179 4.29529L16.289 3.36644Z" fill="white"/>
</svg>
