<svg width="59" height="40" viewBox="0 0 59 40" fill="none" xmlns="http://www.w3.org/2000/svg">
<rect x="1.1665" y="0.5" width="56.6686" height="38.7714" rx="5.5" fill="white" stroke="#D9D9D9"/>
<path fill-rule="evenodd" clip-rule="evenodd" d="M19.7657 26.9422H16.252L13.6172 16.8902C13.4921 16.4278 13.2266 16.019 12.836 15.8264C11.8612 15.3422 10.787 14.9569 9.61523 14.7625V14.3755H15.2755C16.0567 14.3755 16.6426 14.9569 16.7402 15.632L18.1073 22.8829L21.6193 14.3755H25.0353L19.7657 26.9422ZM26.9883 26.9422H23.6699L26.4024 14.3755H29.7208L26.9883 26.9422ZM34.014 17.8569C34.1116 17.18 34.6975 16.793 35.381 16.793C36.4552 16.6959 37.6253 16.8902 38.6018 17.3727L39.1877 14.667C38.2112 14.28 37.137 14.0857 36.1622 14.0857C32.9415 14.0857 30.5979 15.8264 30.5979 18.2422C30.5979 20.08 32.258 21.045 33.4298 21.6264C34.6975 22.206 35.1857 22.5931 35.0881 23.1727C35.0881 24.0422 34.1116 24.4292 33.1368 24.4292C31.965 24.4292 30.7932 24.1394 29.7208 23.6552L29.1349 26.3626C30.3067 26.8451 31.5744 27.0394 32.7462 27.0394C36.3575 27.1349 38.6018 25.3959 38.6018 22.7857C38.6018 19.4987 34.014 19.306 34.014 17.8569V17.8569ZM50.2152 26.9422L47.5804 14.3755H44.7503C44.1644 14.3755 43.5785 14.7625 43.3832 15.3422L38.5041 26.9422H41.9202L42.602 25.106H46.7992L47.1898 26.9422H50.2152ZM45.2385 17.7597L46.2133 22.4959H43.4808L45.2385 17.7597Z" fill="#172B85"/>
</svg>
