<svg width="48" height="32" viewBox="0 0 48 32" fill="none" xmlns="http://www.w3.org/2000/svg">
<rect x="1.44043" y="0.5" width="45.1176" height="31" rx="3.5" fill="white" stroke="#D9D9D9"/>
<path fill-rule="evenodd" clip-rule="evenodd" d="M14.941 21.6777H12.1472L10.0522 13.5899C9.95273 13.2178 9.7416 12.8889 9.43102 12.7339C8.65594 12.3443 7.80185 12.0343 6.87012 11.8779V11.5666H11.3708C11.9919 11.5666 12.4578 12.0343 12.5354 12.5775L13.6225 18.4116L16.4149 11.5666H19.1311L14.941 21.6777ZM20.684 21.6777H18.0455L20.2181 11.5666H22.8567L20.684 21.6777ZM26.2703 14.3677C26.348 13.8231 26.8138 13.5117 27.3573 13.5117C28.2114 13.4335 29.1418 13.5899 29.9182 13.9781L30.3841 11.8011C29.6077 11.4897 28.7536 11.3334 27.9785 11.3334C25.4176 11.3334 23.5541 12.7339 23.5541 14.6777C23.5541 16.1564 24.8741 16.9328 25.8058 17.4006C26.8138 17.867 27.202 18.1784 27.1244 18.6448C27.1244 19.3444 26.348 19.6558 25.5729 19.6558C24.6411 19.6558 23.7094 19.4226 22.8567 19.033L22.3908 21.2113C23.3226 21.5995 24.3306 21.7559 25.2623 21.7559C28.1338 21.8327 29.9182 20.4335 29.9182 18.3334C29.9182 15.6887 26.2703 15.5337 26.2703 14.3677V14.3677ZM39.1525 21.6777L37.0574 11.5666H34.8071C34.3412 11.5666 33.8754 11.8779 33.7201 12.3443L29.8406 21.6777H32.5568L33.0989 20.2003H36.4363L36.7469 21.6777H39.1525ZM35.1953 14.2895L35.9704 18.1002H33.7977L35.1953 14.2895Z" fill="#172B85"/>
</svg>
