<svg width="20" height="16" viewBox="0 0 20 16" fill="none" xmlns="http://www.w3.org/2000/svg">
<mask id="mask0_2362_47165" style="mask-type:luminance" maskUnits="userSpaceOnUse" x="0" y="0" width="20" height="16">
<rect y="0.509766" width="20" height="15" fill="white"/>
</mask>
<g mask="url(#mask0_2362_47165)">
<path fill-rule="evenodd" clip-rule="evenodd" d="M0 0.509766V15.5098H20V0.509766H0Z" fill="#F7FCFF"/>
<mask id="mask1_2362_47165" style="mask-type:luminance" maskUnits="userSpaceOnUse" x="0" y="0" width="20" height="16">
<path fill-rule="evenodd" clip-rule="evenodd" d="M0 0.509766V15.5098H20V0.509766H0Z" fill="white"/>
</mask>
<g mask="url(#mask1_2362_47165)">
<path fill-rule="evenodd" clip-rule="evenodd" d="M0 0.509766V5.50977H20V0.509766H0Z" fill="#E31D1C"/>
<path fill-rule="evenodd" clip-rule="evenodd" d="M0 10.5098V15.5098H20V10.5098H0Z" fill="#3D58DB"/>
<rect x="6.29785" y="4.50781" width="7.125" height="2.5" fill="#E31D1C"/>
<path d="M6.65767 6.10938H12.988C12.9987 6.58997 13.0019 7.42835 13.0018 8.23544C13.0018 8.75664 13.0004 9.25841 12.9991 9.62994L12.9972 10.0755L12.9966 10.199L12.9965 10.2168L12.9962 10.2188C12.9934 10.2355 12.9887 10.2616 12.9815 10.296C12.9671 10.3648 12.9429 10.4658 12.9043 10.5882C12.827 10.834 12.6939 11.16 12.472 11.4838C12.038 12.1175 11.2499 12.769 9.78113 12.769C8.31431 12.769 7.56438 12.1184 7.16521 11.4908C6.96024 11.1685 6.84319 10.8437 6.77768 10.5981C6.74508 10.4758 6.72571 10.3749 6.71463 10.3062C6.7091 10.2719 6.70566 10.2457 6.70368 10.2291L6.70249 10.2184L6.70216 10.1908L6.70067 10.0681L6.69536 9.62529C6.69097 9.25599 6.68511 8.75685 6.67926 8.23745C6.67031 7.44382 6.66139 6.60533 6.65767 6.10938ZM6.70145 10.2086C6.70144 10.2084 6.70143 10.2084 6.70145 10.2086L6.70145 10.2086Z" fill="#F7FCFF" stroke="#E31D1C" stroke-width="0.703125"/>
<mask id="mask2_2362_47165" style="mask-type:luminance" maskUnits="userSpaceOnUse" x="6" y="5" width="8" height="9">
<path d="M6.65767 6.10938H12.988C12.9987 6.58997 13.0019 7.42835 13.0018 8.23544C13.0018 8.75664 13.0004 9.25841 12.9991 9.62994L12.9972 10.0755L12.9966 10.199L12.9965 10.2168L12.9962 10.2188C12.9934 10.2355 12.9887 10.2616 12.9815 10.296C12.9671 10.3648 12.9429 10.4658 12.9043 10.5882C12.827 10.834 12.6939 11.16 12.472 11.4838C12.038 12.1175 11.2499 12.769 9.78113 12.769C8.31431 12.769 7.56438 12.1184 7.16521 11.4908C6.96024 11.1685 6.84319 10.8437 6.77768 10.5981C6.74508 10.4758 6.72571 10.3749 6.71463 10.3062C6.7091 10.2719 6.70566 10.2457 6.70368 10.2291L6.70249 10.2184L6.70216 10.1908L6.70067 10.0681L6.69536 9.62529C6.69097 9.25599 6.68511 8.75685 6.67926 8.23745C6.67031 7.44382 6.66139 6.60533 6.65767 6.10938ZM6.70145 10.2086C6.70144 10.2084 6.70143 10.2084 6.70145 10.2086L6.70145 10.2086Z" fill="white" stroke="white" stroke-width="0.703125"/>
</mask>
<g mask="url(#mask2_2362_47165)">
<path fill-rule="evenodd" clip-rule="evenodd" d="M6.56152 6.15918H7.87988V7.49787H6.56152V6.15918ZM9.19824 7.49787H7.87988V8.83656H6.56152V10.1752L7.87988 10.1752V11.5139H6.56152V12.8526H7.87988V11.5139H9.19824V12.8526H10.5166V11.5139H11.835V12.8526H13.1533V11.5139H11.835V10.1752L13.1533 10.1752V8.83656H11.835V7.49787H13.1533V6.15918H11.835V7.49787H10.5166V6.15918H9.19824V7.49787ZM9.19824 8.83656V7.49787H10.5166V8.83656H9.19824ZM9.19824 10.1752V8.83656H7.87988V10.1752H9.19824ZM10.5166 10.1752V11.5139H9.19824V10.1752H10.5166ZM10.5166 10.1752V8.83656H11.835V10.1752H10.5166Z" fill="#F50100"/>
</g>
<path fill-rule="evenodd" clip-rule="evenodd" d="M6.53316 5.61093C6.53316 5.61093 6.94093 5.39312 7.28873 5.28087C7.63653 5.16862 7.91143 5.10729 7.91143 5.10729L7.39397 3.19974L6.35752 2.8125L5.77051 3.78006L6.53316 5.61093Z" fill="#56C6F5" stroke="white" stroke-width="0.5"/>
<path d="M6.36316 4.56608L6.48226 4.50868C6.60524 4.77175 6.76736 4.85301 6.98957 4.77008C7.21655 4.68537 7.3091 4.52518 7.27644 4.27124L7.40717 4.25391C7.4477 4.56913 7.32058 4.78917 7.03505 4.89573C6.74475 5.00407 6.5138 4.88831 6.36316 4.56608Z" fill="white"/>
<path fill-rule="evenodd" clip-rule="evenodd" d="M6.64521 3.97308L6.53135 4.04205C6.50616 4.05731 6.47483 4.03538 6.48056 4.00648L6.50643 3.8759L6.38976 3.81178C6.36395 3.79759 6.36728 3.75949 6.39517 3.75L6.52119 3.70712L6.51839 3.57402C6.51777 3.54457 6.55243 3.52841 6.57459 3.54782L6.67475 3.63551L6.78861 3.56654C6.8138 3.55128 6.84513 3.57321 6.83941 3.60211L6.81354 3.73269L6.9302 3.79681C6.95601 3.811 6.95268 3.8491 6.92479 3.85859L6.79877 3.90148L6.80157 4.03457C6.80219 4.06402 6.76753 4.08018 6.74537 4.06078L6.64521 3.97308Z" fill="#FECA00"/>
<path fill-rule="evenodd" clip-rule="evenodd" d="M9.08798 4.93207C9.08798 4.93207 9.43573 4.90103 9.80112 4.90813C10.1665 4.91523 10.4756 4.91782 10.4756 4.91782L10.6541 3.0369L9.8714 2.32978L9.00137 3.05352L9.08798 4.93207Z" fill="#56C6F5" stroke="white" stroke-width="0.5"/>
<path fill-rule="evenodd" clip-rule="evenodd" d="M9.84388 4.62565C10.1453 4.62565 10.1742 4.30004 10.1742 4.07824C10.0971 3.95522 10.1127 3.86719 9.86558 3.86719C9.61849 3.86719 9.59028 3.94185 9.51819 4.07824C9.51819 4.30004 9.54241 4.62565 9.84388 4.62565Z" fill="#FECA00"/>
<path fill-rule="evenodd" clip-rule="evenodd" d="M10.1831 3.70475C10.4846 3.70475 10.5135 3.37915 10.5135 3.15734C10.4364 3.03432 10.4519 2.94629 10.2048 2.94629C9.95772 2.94629 9.92951 3.02095 9.85742 3.15734C9.85742 3.37915 9.88165 3.70475 10.1831 3.70475Z" fill="#FECA00"/>
<path fill-rule="evenodd" clip-rule="evenodd" d="M9.52393 3.70475C9.8254 3.70475 9.85427 3.37915 9.85427 3.15734C9.77719 3.03432 9.79272 2.94629 9.54563 2.94629C9.29854 2.94629 9.27034 3.02095 9.19824 3.15734C9.19824 3.37915 9.22247 3.70475 9.52393 3.70475Z" fill="#FECA00"/>
<path d="M7.6429 5.13671L7.71493 5.3814L7.9581 5.30448L7.95811 5.30447L7.95813 5.30447L7.95824 5.30443L7.95893 5.30422L7.96196 5.30326L7.97435 5.29941L8.02144 5.28508C8.0617 5.273 8.11784 5.25654 8.1812 5.2391C8.31143 5.20325 8.45953 5.16679 8.56358 5.15233C8.67593 5.13672 8.81756 5.12512 8.93448 5.11738C8.99222 5.11356 9.04259 5.11077 9.07846 5.10893L9.12034 5.10689L9.13134 5.1064L9.13406 5.10629L9.13469 5.10626L9.13481 5.10626H9.13481L9.13482 5.10626L9.13483 5.10626L9.3961 5.09552L9.37362 4.83498L9.21595 3.00722L9.206 2.8919L9.11163 2.82488L8.25993 2.22L8.08457 2.09546L7.93524 2.25026L7.16119 3.05271L7.06024 3.15737L7.1013 3.29687L7.6429 5.13671Z" fill="#2E42A5" stroke="white" stroke-width="0.5"/>
<mask id="mask3_2362_47165" style="mask-type:luminance" maskUnits="userSpaceOnUse" x="6" y="1" width="4" height="5">
<path d="M7.6429 5.13671L7.71493 5.3814L7.9581 5.30448L7.95811 5.30447L7.95813 5.30447L7.95824 5.30443L7.95893 5.30422L7.96196 5.30326L7.97435 5.29941L8.02144 5.28508C8.0617 5.273 8.11784 5.25654 8.1812 5.2391C8.31143 5.20325 8.45953 5.16679 8.56358 5.15233C8.67593 5.13672 8.81756 5.12512 8.93448 5.11738C8.99222 5.11356 9.04259 5.11077 9.07846 5.10893L9.12034 5.10689L9.13134 5.1064L9.13406 5.10629L9.13469 5.10626L9.13481 5.10626H9.13481L9.13482 5.10626L9.13483 5.10626L9.3961 5.09552L9.37362 4.83498L9.21595 3.00722L9.206 2.8919L9.11163 2.82488L8.25993 2.22L8.08457 2.09546L7.93524 2.25026L7.16119 3.05271L7.06024 3.15737L7.1013 3.29687L7.6429 5.13671Z" fill="white" stroke="white" stroke-width="0.5"/>
</mask>
<g mask="url(#mask3_2362_47165)">
<path d="M7.77277 4.65919L7.61621 4.29039C7.95247 4.1432 8.52049 4.05289 9.11822 4.01758L9.14119 4.41851C8.58552 4.45133 8.0599 4.53351 7.77277 4.65919Z" fill="#C51918"/>
<path d="M7.50855 3.76713L7.35199 3.39833C7.68824 3.25115 8.411 3.13199 9.00873 3.09668L9.0317 3.49761C8.47603 3.53044 7.79568 3.64145 7.50855 3.76713Z" fill="#C51918"/>
</g>
<path d="M11.9884 5.13125L11.9204 5.38317L11.6716 5.30448L11.6716 5.30447L11.6716 5.30447L11.6715 5.30443L11.6708 5.30422L11.6678 5.30326L11.6554 5.29941L11.6083 5.28508C11.568 5.273 11.5119 5.25654 11.4486 5.2391C11.3183 5.20325 11.1702 5.16679 11.0662 5.15233C10.9538 5.13672 10.8122 5.12512 10.6953 5.11738C10.6375 5.11356 10.5872 5.11077 10.5513 5.10893L10.5094 5.10689L10.4984 5.1064L10.4957 5.10629L10.4951 5.10626L10.4949 5.10626H10.4949L10.4949 5.10626L10.4949 5.10626L10.2337 5.09552L10.2561 4.83498L10.4138 3.00722L10.4237 2.8919L10.5181 2.82488L11.3698 2.22L11.5501 2.09196L11.6992 2.25527L12.429 3.05469L12.5215 3.15597L12.4857 3.28838L11.9884 5.13125Z" fill="#2E42A5" stroke="white" stroke-width="0.5"/>
<mask id="mask4_2362_47165" style="mask-type:luminance" maskUnits="userSpaceOnUse" x="9" y="1" width="4" height="5">
<path d="M11.9884 5.13125L11.9204 5.38317L11.6716 5.30448L11.6716 5.30447L11.6716 5.30447L11.6715 5.30443L11.6708 5.30422L11.6678 5.30326L11.6554 5.29941L11.6083 5.28508C11.568 5.273 11.5119 5.25654 11.4486 5.2391C11.3183 5.20325 11.1702 5.16679 11.0662 5.15233C10.9538 5.13672 10.8122 5.12512 10.6953 5.11738C10.6375 5.11356 10.5872 5.11077 10.5513 5.10893L10.5094 5.10689L10.4984 5.1064L10.4957 5.10629L10.4951 5.10626L10.4949 5.10626H10.4949L10.4949 5.10626L10.4949 5.10626L10.2337 5.09552L10.2561 4.83498L10.4138 3.00722L10.4237 2.8919L10.5181 2.82488L11.3698 2.22L11.5501 2.09196L11.6992 2.25527L12.429 3.05469L12.5215 3.15597L12.4857 3.28838L11.9884 5.13125Z" fill="white" stroke="white" stroke-width="0.5"/>
</mask>
<g mask="url(#mask4_2362_47165)">
<path fill-rule="evenodd" clip-rule="evenodd" d="M11.4986 4.55182C11.4986 4.55182 11.6823 4.44955 11.7088 4.27713C11.7353 4.1047 12.0195 3.89233 11.8774 3.9176C11.7353 3.94288 11.8166 3.96262 11.6108 3.9176C11.405 3.87258 11.1387 3.84281 11.1387 3.71631C11.1387 3.58982 11.2711 3.48943 11.1629 3.48943C11.0547 3.48943 10.8238 3.36971 10.8702 3.46121C10.9165 3.55272 10.7635 3.44925 10.84 3.63923C10.9165 3.82921 10.8238 4.02059 10.8702 4.07095C10.9165 4.12131 10.84 4.36831 10.84 4.36831C10.84 4.36831 10.8681 4.46004 10.9173 4.32264C10.9665 4.18524 11.074 4.08892 11.0202 4.20578C10.9665 4.32264 10.8978 4.6006 10.959 4.55182C11.0202 4.50304 11.0811 4.36816 11.0811 4.32264C11.0811 4.27713 11.2355 4.09846 11.2355 4.23338C11.2355 4.36831 11.0902 4.47456 11.1629 4.47456C11.2355 4.47456 11.2762 4.50323 11.3219 4.36831C11.3676 4.23338 11.4785 4.14413 11.524 4.23338C11.5695 4.32264 11.5595 4.31787 11.4986 4.43484C11.4378 4.55182 11.4986 4.55182 11.4986 4.55182Z" fill="#FECA00"/>
<path fill-rule="evenodd" clip-rule="evenodd" d="M11.067 3.55204L10.9986 3.4376C11.1214 3.36196 11.2341 3.34181 11.333 3.38398C11.378 3.40315 11.412 3.42499 11.5003 3.48715L11.5119 3.49526C11.6039 3.55979 11.6526 3.58608 11.6826 3.58608V3.71995C11.6139 3.71995 11.5546 3.68791 11.4369 3.60541L11.4252 3.59719C11.3457 3.54125 11.315 3.52146 11.282 3.50742C11.2273 3.48409 11.1568 3.49669 11.067 3.55204ZM10.8506 4.42513C10.8894 4.42513 10.9209 4.39403 10.9209 4.35568C10.9209 4.31733 10.8894 4.28624 10.8506 4.28624C10.8118 4.28624 10.7803 4.31733 10.7803 4.35568C10.7803 4.39403 10.8118 4.42513 10.8506 4.42513ZM11.0527 4.48955C11.0527 4.5279 11.0213 4.55899 10.9824 4.55899C10.9436 4.55899 10.9121 4.5279 10.9121 4.48955C10.9121 4.4512 10.9436 4.42011 10.9824 4.42011C11.0213 4.42011 11.0527 4.4512 11.0527 4.48955ZM11.2192 4.55383C11.2581 4.55383 11.2896 4.52274 11.2896 4.48439C11.2896 4.44603 11.2581 4.41494 11.2192 4.41494C11.1804 4.41494 11.1489 4.44603 11.1489 4.48439C11.1489 4.52274 11.1804 4.55383 11.2192 4.55383ZM11.5098 4.59552C11.5098 4.63388 11.4784 4.66497 11.4395 4.66497C11.4007 4.66497 11.3692 4.63388 11.3692 4.59552C11.3692 4.55717 11.4007 4.52608 11.4395 4.52608C11.4784 4.52608 11.5098 4.55717 11.5098 4.59552Z" fill="#C51918"/>
</g>
<path d="M13.4313 5.66283L13.3233 5.91157L13.0842 5.78384L13.0842 5.78384L13.0842 5.78383L13.0841 5.78382L13.0841 5.78379L13.0835 5.78345L13.0805 5.78188L13.068 5.77535C13.057 5.76956 13.0405 5.76105 13.0196 5.75042C12.9777 5.72914 12.9181 5.69953 12.8481 5.66654C12.7062 5.59975 12.5285 5.52245 12.3696 5.47116C12.2011 5.4168 12.0501 5.37469 11.9413 5.34622C11.887 5.332 11.8433 5.32123 11.8136 5.31407L11.7798 5.30609L11.7715 5.30417L11.7696 5.30374L11.7692 5.30367L11.7692 5.30366L11.7692 5.30366L11.7692 5.30366L11.7692 5.30365L11.5108 5.24601L11.5832 4.9913L12.1119 3.13137L12.1465 3.00979L12.2649 2.96555L13.3014 2.57831L13.4952 2.50587L13.6026 2.68283L14.1896 3.65039L14.2567 3.76096L14.2052 3.87959L13.4313 5.66283Z" fill="#56C6F5" stroke="white" stroke-width="0.5"/>
<mask id="mask5_2362_47165" style="mask-type:luminance" maskUnits="userSpaceOnUse" x="11" y="2" width="4" height="5">
<path d="M13.4313 5.66283L13.3233 5.91157L13.0842 5.78384L13.0842 5.78384L13.0842 5.78383L13.0841 5.78382L13.0841 5.78379L13.0835 5.78345L13.0805 5.78188L13.068 5.77535C13.057 5.76956 13.0405 5.76105 13.0196 5.75042C12.9777 5.72914 12.9181 5.69953 12.8481 5.66654C12.7062 5.59975 12.5285 5.52245 12.3696 5.47116C12.2011 5.4168 12.0501 5.37469 11.9413 5.34622C11.887 5.332 11.8433 5.32123 11.8136 5.31407L11.7798 5.30609L11.7715 5.30417L11.7696 5.30374L11.7692 5.30367L11.7692 5.30366L11.7692 5.30366L11.7692 5.30366L11.7692 5.30365L11.5108 5.24601L11.5832 4.9913L12.1119 3.13137L12.1465 3.00979L12.2649 2.96555L13.3014 2.57831L13.4952 2.50587L13.6026 2.68283L14.1896 3.65039L14.2567 3.76096L14.2052 3.87959L13.4313 5.66283Z" fill="white" stroke="white" stroke-width="0.5"/>
</mask>
<g mask="url(#mask5_2362_47165)">
<path fill-rule="evenodd" clip-rule="evenodd" d="M13.2047 3.68969L13.1159 3.78894C13.0963 3.8109 13.0599 3.79909 13.057 3.76978L13.0435 3.63734L12.9132 3.61013C12.8844 3.60411 12.8764 3.5667 12.9003 3.54947L13.0083 3.47161L12.9667 3.34515C12.9575 3.31717 12.9859 3.29158 13.0128 3.30366L13.1342 3.35824L13.2229 3.25899C13.2426 3.23703 13.2789 3.24885 13.2819 3.27816L13.2953 3.4106L13.4257 3.43781C13.4545 3.44383 13.4624 3.48124 13.4385 3.49846L13.3306 3.57632L13.3722 3.70278C13.3814 3.73077 13.3529 3.75635 13.3261 3.74428L13.2047 3.68969Z" fill="#FECA00"/>
<path d="M11.8719 4.56413L12.0047 4.0459C12.5927 4.20121 13.2056 4.40026 13.6553 4.59275L13.4504 5.08617C13.0256 4.90433 12.4365 4.71326 11.8719 4.56413Z" fill="#E31D1C"/>
<path d="M12.0519 4.08512L12.0832 3.95508C12.6469 4.09496 13.2461 4.31817 13.6814 4.52606L13.6253 4.6472C13.1983 4.4433 12.6075 4.22298 12.0519 4.08512Z" fill="white"/>
<path d="M11.8849 4.6193L11.9162 4.48926C12.4799 4.62914 13.0009 4.81895 13.4363 5.02684L13.3802 5.14799C12.9531 4.94409 12.4404 4.75716 11.8849 4.6193Z" fill="white"/>
<path d="M12.1393 4.36896L12.26 4.31445C12.3108 4.4334 12.3736 4.4596 12.4785 4.40862C12.7264 4.28821 13.3411 4.45648 13.3411 4.68338C13.3411 4.77189 13.2898 4.82556 13.2115 4.82245C13.1673 4.8207 13.1201 4.80323 13.0508 4.76901C13.0424 4.76485 13.0369 4.76207 13.0233 4.75515C12.9468 4.71611 12.941 4.71326 12.9206 4.70592L12.9642 4.57801C12.9924 4.58819 12.9969 4.59036 13.0819 4.63373C13.095 4.64039 13.1001 4.64297 13.108 4.64685C13.161 4.67308 13.1965 4.68621 13.2166 4.68701C13.2184 4.68708 13.2093 4.69665 13.2093 4.68338C13.2093 4.58354 12.7089 4.44659 12.5349 4.53117C12.3612 4.61552 12.2193 4.55626 12.1393 4.36896Z" fill="#272727"/>
</g>
</g>
</g>
</svg>
