<svg width="20" height="16" viewBox="0 0 20 16" fill="none" xmlns="http://www.w3.org/2000/svg">
<mask id="mask0_2362_47216" style="mask-type:luminance" maskUnits="userSpaceOnUse" x="0" y="0" width="20" height="16">
<rect y="0.509766" width="20" height="15" fill="white"/>
</mask>
<g mask="url(#mask0_2362_47216)">
<path fill-rule="evenodd" clip-rule="evenodd" d="M0 0.509766V15.5098H20V0.509766H0Z" fill="#F7FCFF"/>
<mask id="mask1_2362_47216" style="mask-type:luminance" maskUnits="userSpaceOnUse" x="0" y="0" width="20" height="16">
<path fill-rule="evenodd" clip-rule="evenodd" d="M0 0.509766V15.5098H20V0.509766H0Z" fill="white"/>
</mask>
<g mask="url(#mask1_2362_47216)">
<path fill-rule="evenodd" clip-rule="evenodd" d="M15.3546 3.48427C15.3546 3.48427 12.0532 5.30804 11.6377 5.42344C11.2221 5.5388 11.4994 5.60812 10.7835 5.56199C10.068 5.51581 8.65973 5.81946 8.33656 5.61169C8.01332 5.40378 7.89788 5.03448 7.87495 5.65792C7.85179 6.28108 8.3599 6.81206 7.71326 6.85829C7.0671 6.90438 6.99767 6.30402 6.55923 6.67361C6.12055 7.04282 5.75114 7.87399 5.47399 7.66622C5.19701 7.45831 4.80467 6.90438 4.92011 7.43536C5.03531 7.96625 5.38165 9.3035 6.4898 9.32664C7.59805 9.34982 7.8287 8.95729 7.87495 9.28055C7.92097 9.60363 8.4059 9.64976 8.52119 9.23423C8.6368 8.8187 9.58326 9.69766 10.0911 9.25903C10.5989 8.8205 11.0144 8.45106 11.1762 8.19711C11.3377 7.94316 11.8918 7.98944 12.4227 7.98944C12.9537 7.98944 13.7384 8.2202 13.3229 7.71245C12.9076 7.20436 12.1918 6.97365 12.6075 6.46575C13.0228 5.95791 16.5494 4.26921 16.7111 4.08448C16.8726 3.89981 15.8393 3.20728 15.3546 3.48427Z" fill="#F57A01"/>
<path fill-rule="evenodd" clip-rule="evenodd" d="M15.3546 3.48427C15.3546 3.48427 12.0532 5.30804 11.6377 5.42344C11.2221 5.5388 11.4994 5.60812 10.7835 5.56199C10.068 5.51581 8.65973 5.81946 8.33656 5.61169C8.01332 5.40378 7.89788 5.03448 7.87495 5.65792C7.85179 6.28108 8.3599 6.81206 7.71326 6.85829C7.0671 6.90438 6.99767 6.30402 6.55923 6.67361C6.12055 7.04282 5.75114 7.87399 5.47399 7.66622C5.19701 7.45831 4.80467 6.90438 4.92011 7.43536C5.03531 7.96625 5.38165 9.3035 6.4898 9.32664C7.59805 9.34982 7.8287 8.95729 7.87495 9.28055C7.92097 9.60363 8.4059 9.64976 8.52119 9.23423C8.6368 8.8187 9.58326 9.69766 10.0911 9.25903C10.5989 8.8205 11.0144 8.45106 11.1762 8.19711C11.3377 7.94316 11.8918 7.98944 12.4227 7.98944C12.9537 7.98944 13.7384 8.2202 13.3229 7.71245C12.9076 7.20436 12.1918 6.97365 12.6075 6.46575C13.0228 5.95791 16.5494 4.26921 16.7111 4.08448C16.8726 3.89981 15.8393 3.20728 15.3546 3.48427Z" fill="url(#paint0_linear_2362_47216)"/>
<path fill-rule="evenodd" clip-rule="evenodd" d="M6.8201 10.5752C8.45897 10.5752 9.86728 12.399 9.86728 12.399C9.89097 12.4227 9.91286 12.4457 9.93303 12.4681C9.9532 12.4457 9.97508 12.4227 9.99877 12.399C9.99877 12.399 11.6414 10.5752 13.2804 10.5752C14.9194 10.5752 12.0994 13.2301 10.2757 13.2301C10.2757 13.2301 10.0883 13.213 9.93303 13.135C9.77776 13.213 9.59031 13.2301 9.59031 13.2301C7.76656 13.2301 5.1809 10.5752 6.8201 10.5752Z" fill="#006B49"/>
<path fill-rule="evenodd" clip-rule="evenodd" d="M6.8201 10.5752C8.45897 10.5752 9.86728 12.399 9.86728 12.399C9.89097 12.4227 9.91286 12.4457 9.93303 12.4681C9.9532 12.4457 9.97508 12.4227 9.99877 12.399C9.99877 12.399 11.6414 10.5752 13.2804 10.5752C14.9194 10.5752 12.0994 13.2301 10.2757 13.2301C10.2757 13.2301 10.0883 13.213 9.93303 13.135C9.77776 13.213 9.59031 13.2301 9.59031 13.2301C7.76656 13.2301 5.1809 10.5752 6.8201 10.5752Z" fill="url(#paint1_linear_2362_47216)"/>
</g>
</g>
<defs>
<linearGradient id="paint0_linear_2362_47216" x1="18.75" y1="11.7598" x2="18.75" y2="1.75977" gradientUnits="userSpaceOnUse">
<stop stop-color="#EA5113"/>
<stop offset="1" stop-color="#FC9B58"/>
</linearGradient>
<linearGradient id="paint1_linear_2362_47216" x1="13.7736" y1="13.2301" x2="13.7736" y2="10.5752" gradientUnits="userSpaceOnUse">
<stop stop-color="#008057"/>
<stop offset="1" stop-color="#00B77C"/>
</linearGradient>
</defs>
</svg>
