<svg width="20" height="16" viewBox="0 0 20 16" fill="none" xmlns="http://www.w3.org/2000/svg">
<mask id="mask0_924_24122" style="mask-type:luminance" maskUnits="userSpaceOnUse" x="0" y="0" width="20" height="16">
<rect y="0.510254" width="20" height="15" fill="white"/>
</mask>
<g mask="url(#mask0_924_24122)">
<path fill-rule="evenodd" clip-rule="evenodd" d="M0 0.510254V15.5103H20V0.510254H0Z" fill="#E31D1C"/>
<mask id="mask1_924_24122" style="mask-type:luminance" maskUnits="userSpaceOnUse" x="0" y="0" width="20" height="16">
<path fill-rule="evenodd" clip-rule="evenodd" d="M0 0.510254V15.5103H20V0.510254H0Z" fill="white"/>
</mask>
<g mask="url(#mask1_924_24122)">
<path fill-rule="evenodd" clip-rule="evenodd" d="M0 0.510254V8.01025H20V0.510254H0Z" fill="#2E42A5"/>
<path fill-rule="evenodd" clip-rule="evenodd" d="M2.99902 7.41878C2.99902 7.41878 3.75319 7.88821 5.5008 7.88821C7.2484 7.88821 8.17603 7.41878 8.17603 7.41878C8.17603 7.41878 6.8055 6.62207 5.58008 6.62207C4.35465 6.62207 2.99902 7.41878 2.99902 7.41878Z" fill="black"/>
<path d="M3.04376 4.7243L2.82768 4.85004L2.89999 4.9743H3.04376H8.24704H8.43022L8.48542 4.79963L8.24704 4.7243C8.48542 4.79963 8.48544 4.79956 8.48547 4.79948L8.48553 4.79929L8.48567 4.79883L8.48607 4.79755L8.48728 4.79361L8.49125 4.78033C8.49454 4.76914 8.49905 4.75334 8.50442 4.73342C8.51514 4.6936 8.52933 4.63708 8.54398 4.56777C8.57315 4.42981 8.60485 4.23787 8.61369 4.02423C8.63078 3.61117 8.56472 3.04521 8.13819 2.67442C7.69969 2.29322 7.14849 2.35917 6.70618 2.46972C6.55447 2.50763 6.39768 2.55591 6.25387 2.60019C6.18732 2.62068 6.12355 2.64031 6.06435 2.65767C5.86355 2.71654 5.70769 2.75182 5.58778 2.75182C5.46891 2.75182 5.33267 2.71964 5.16055 2.66545C5.11082 2.6498 5.05657 2.63174 4.99937 2.6127C4.87315 2.57068 4.7325 2.52386 4.59398 2.48741C4.16874 2.3755 3.66584 2.33082 3.11012 2.64555C2.81471 2.81286 2.64261 3.04849 2.56134 3.30784C2.48241 3.55976 2.49329 3.81965 2.53364 4.04168C2.57426 4.26515 2.6476 4.46588 2.70923 4.60875C2.74031 4.68079 2.76907 4.73961 2.79039 4.78101C2.80106 4.80175 2.80992 4.8182 2.81634 4.82986L2.82406 4.84372L2.82641 4.84784L2.82719 4.84918L2.82747 4.84967L2.82758 4.84987C2.82763 4.84996 2.82768 4.85004 3.04376 4.7243Z" fill="#FFD83D" stroke="black" stroke-width="0.5"/>
<path d="M2.50146 4.96498L2.38491 4.74381L2.19195 4.8455L2.26654 5.05047L2.98714 7.03069L3.06764 7.25193L3.29323 7.18486L3.29326 7.18485L3.29327 7.18485L3.29331 7.18484L3.29366 7.18474L3.29572 7.18413L3.30487 7.18148L3.34251 7.17087C3.37592 7.1616 3.42554 7.1482 3.48906 7.13204C3.61617 7.09969 3.79859 7.05638 4.01801 7.01303C4.45844 6.92603 5.04072 6.84034 5.6211 6.84034C6.20124 6.84034 6.77234 6.92597 7.20121 7.0128C7.41492 7.05607 7.59166 7.0993 7.71445 7.13155C7.77582 7.14767 7.82362 7.16103 7.85574 7.17025L7.89185 7.1808L7.90056 7.18341L7.90249 7.184L7.90278 7.18409L7.90283 7.18411L7.90284 7.18411L7.90286 7.18412L8.12807 7.25361L8.21065 7.03278L8.95121 5.05255L9.0283 4.84641L8.83361 4.74381L8.71705 4.96498C8.83361 4.74381 8.83351 4.74376 8.83341 4.74371L8.8332 4.74359L8.83269 4.74333L8.83139 4.74265L8.82767 4.74074L8.8157 4.73474C8.8057 4.72981 8.79167 4.72305 8.7736 4.71475C8.73745 4.69813 8.68513 4.67529 8.61655 4.64835C8.47937 4.59445 8.27719 4.52417 8.00927 4.45442C7.47324 4.31487 6.67513 4.17773 5.60926 4.17773C4.54338 4.17773 3.74528 4.31487 3.20924 4.45442C2.94132 4.52417 2.73915 4.59445 2.60197 4.64835C2.53339 4.67529 2.48107 4.69813 2.44492 4.71475C2.42685 4.72305 2.41282 4.72981 2.40282 4.73474L2.39085 4.74074L2.38712 4.74265L2.38583 4.74333L2.38532 4.74359L2.3851 4.74371C2.38501 4.74376 2.38491 4.74381 2.50146 4.96498Z" fill="#FFD83D" stroke="black" stroke-width="0.5"/>
<path d="M5.54614 3.26949C5.96663 3.26949 6.21631 2.8646 6.21631 2.49119C6.21631 2.11778 5.96663 1.71289 5.54614 1.71289C5.12566 1.71289 4.87598 2.11778 4.87598 2.49119C4.87598 2.8646 5.12566 3.26949 5.54614 3.26949Z" fill="#FFD83D" stroke="black" stroke-width="0.5"/>
<mask id="path-9-outside-1_924_24122" maskUnits="userSpaceOnUse" x="4.0733" y="-0.489746" width="3" height="4" fill="black">
<rect fill="white" x="4.0733" y="-0.489746" width="3" height="4"/>
<path fill-rule="evenodd" clip-rule="evenodd" d="M5.70337 0.510254H5.38824L5.42881 1.08693L5.0733 1.03856V1.43478L5.43427 1.38506L5.38824 2.29327H5.70337L5.65672 1.38348L6.01868 1.43478V1.03856L5.66327 1.08957L5.70337 0.510254Z"/>
</mask>
<path fill-rule="evenodd" clip-rule="evenodd" d="M5.70337 0.510254H5.38824L5.42881 1.08693L5.0733 1.03856V1.43478L5.43427 1.38506L5.38824 2.29327H5.70337L5.65672 1.38348L6.01868 1.43478V1.03856L5.66327 1.08957L5.70337 0.510254Z" fill="#FFD83D"/>
<path d="M5.38824 0.510254V0.0102539H4.85184L4.88948 0.545337L5.38824 0.510254ZM5.70337 0.510254L6.20218 0.544779L6.23917 0.0102539H5.70337V0.510254ZM5.42881 1.08693L5.36139 1.58236L5.97072 1.66528L5.92758 1.05185L5.42881 1.08693ZM5.0733 1.03856L5.14072 0.543121L4.5733 0.465913V1.03856H5.0733ZM5.0733 1.43478H4.5733V2.00837L5.14153 1.93011L5.0733 1.43478ZM5.43427 1.38506L5.93363 1.41037L5.96419 0.807349L5.36605 0.889739L5.43427 1.38506ZM5.38824 2.29327L4.88889 2.26797L4.86226 2.79327H5.38824V2.29327ZM5.70337 2.29327V2.79327H6.22967L6.20271 2.26767L5.70337 2.29327ZM5.65672 1.38348L5.72688 0.888429L5.12631 0.803311L5.15737 1.40909L5.65672 1.38348ZM6.01868 1.43478L5.94852 1.92983L6.51868 2.01064V1.43478H6.01868ZM6.01868 1.03856H6.51868V0.46166L5.94764 0.543629L6.01868 1.03856ZM5.66327 1.08957L5.16447 1.05505L5.12173 1.67243L5.73432 1.5845L5.66327 1.08957ZM5.38824 1.01025H5.70337V0.0102539H5.38824V1.01025ZM5.92758 1.05185L5.88701 0.475171L4.88948 0.545337L4.93004 1.12201L5.92758 1.05185ZM5.00589 1.53399L5.36139 1.58236L5.49622 0.591495L5.14072 0.543121L5.00589 1.53399ZM5.5733 1.43478V1.03856H4.5733V1.43478H5.5733ZM5.36605 0.889739L5.00508 0.939459L5.14153 1.93011L5.5025 1.88039L5.36605 0.889739ZM5.8876 2.31858L5.93363 1.41037L4.93491 1.35975L4.88889 2.26797L5.8876 2.31858ZM5.70337 1.79327H5.38824V2.79327H5.70337V1.79327ZM5.15737 1.40909L5.20403 2.31888L6.20271 2.26767L6.15606 1.35788L5.15737 1.40909ZM6.08884 0.93973L5.72688 0.888429L5.58655 1.87853L5.94852 1.92983L6.08884 0.93973ZM5.51868 1.03856V1.43478H6.51868V1.03856H5.51868ZM5.73432 1.5845L6.08972 1.53348L5.94764 0.543629L5.59223 0.594645L5.73432 1.5845ZM5.20456 0.475729L5.16447 1.05505L6.16208 1.1241L6.20218 0.544779L5.20456 0.475729Z" fill="black" mask="url(#path-9-outside-1_924_24122)"/>
</g>
</g>
</svg>
