<svg width="20" height="16" viewBox="0 0 20 16" fill="none" xmlns="http://www.w3.org/2000/svg">
<rect y="0.509766" width="20" height="15" fill="#F7FCFF"/>
<mask id="mask0_2362_47109" style="mask-type:luminance" maskUnits="userSpaceOnUse" x="0" y="0" width="20" height="16">
<rect y="0.509766" width="20" height="15" fill="white"/>
</mask>
<g mask="url(#mask0_2362_47109)">
<mask id="path-3-inside-1_2362_47109" fill="white">
<path fill-rule="evenodd" clip-rule="evenodd" d="M6.25 4.30957H3.75V6.17991C3.47464 6.24522 3.2698 6.49271 3.2698 6.78805C3.2698 6.79525 3.26992 6.80243 3.27016 6.80957H1.25V9.30957H3.33171C3.41244 9.47668 3.56537 9.60238 3.75 9.64617V11.8096H6.25V9.65421C6.45225 9.61993 6.62144 9.48848 6.70788 9.30957H8.75V6.80957H6.76942C6.76966 6.80243 6.76979 6.79525 6.76979 6.78805C6.76979 6.47872 6.54508 6.22189 6.25 6.17186V4.30957Z"/>
</mask>
<path fill-rule="evenodd" clip-rule="evenodd" d="M6.25 4.30957H3.75V6.17991C3.47464 6.24522 3.2698 6.49271 3.2698 6.78805C3.2698 6.79525 3.26992 6.80243 3.27016 6.80957H1.25V9.30957H3.33171C3.41244 9.47668 3.56537 9.60238 3.75 9.64617V11.8096H6.25V9.65421C6.45225 9.61993 6.62144 9.48848 6.70788 9.30957H8.75V6.80957H6.76942C6.76966 6.80243 6.76979 6.79525 6.76979 6.78805C6.76979 6.47872 6.54508 6.22189 6.25 6.17186V4.30957Z" fill="#A0A0A0"/>
<path d="M3.75 4.30957V3.68457H3.125V4.30957H3.75ZM6.25 4.30957H6.875V3.68457H6.25V4.30957ZM3.75 6.17991L3.89426 6.78803L4.375 6.67399V6.17991H3.75ZM3.27016 6.80957V7.43457H3.91667L3.89481 6.78843L3.27016 6.80957ZM1.25 6.80957V6.18457H0.625V6.80957H1.25ZM1.25 9.30957H0.625V9.93457H1.25V9.30957ZM3.33171 9.30957L3.89448 9.03769L3.72388 8.68457H3.33171V9.30957ZM3.75 9.64617H4.375V9.15209L3.89426 9.03805L3.75 9.64617ZM3.75 11.8096H3.125V12.4346H3.75V11.8096ZM6.25 11.8096V12.4346H6.875V11.8096H6.25ZM6.25 9.65421L6.14554 9.038L5.625 9.12625V9.65421H6.25ZM6.70788 9.30957V8.68457H6.31571L6.14511 9.03769L6.70788 9.30957ZM8.75 9.30957V9.93457H9.375V9.30957H8.75ZM8.75 6.80957H9.375V6.18457H8.75V6.80957ZM6.76942 6.80957L6.14478 6.78843L6.12292 7.43457H6.76942V6.80957ZM6.25 6.17186H5.625V6.69983L6.14554 6.78807L6.25 6.17186ZM3.75 4.93457H6.25V3.68457H3.75V4.93457ZM4.375 6.17991V4.30957H3.125V6.17991H4.375ZM3.8948 6.78805L3.89426 6.78803L3.60574 5.57178C3.05501 5.70242 2.6448 6.19657 2.6448 6.78805H3.8948ZM3.89481 6.78843L3.8948 6.78805H2.6448C2.6448 6.8023 2.64504 6.81652 2.64552 6.83071L3.89481 6.78843ZM1.25 7.43457H3.27016V6.18457H1.25V7.43457ZM1.875 9.30957V6.80957H0.625V9.30957H1.875ZM3.33171 8.68457H1.25V9.93457H3.33171V8.68457ZM3.89426 9.03805L3.89448 9.03769L2.76894 9.58145C2.93005 9.91492 3.23493 10.1663 3.60574 10.2543L3.89426 9.03805ZM4.375 11.8096V9.64617H3.125V11.8096H4.375ZM6.25 11.1846H3.75V12.4346H6.25V11.1846ZM5.625 9.65421V11.8096H6.875V9.65421H5.625ZM6.35446 10.2704C6.76086 10.2015 7.09825 9.93828 7.27064 9.58145L6.14511 9.03769L6.14554 9.038L6.35446 10.2704ZM8.75 8.68457H6.70788V9.93457H8.75V8.68457ZM8.125 6.80957V9.30957H9.375V6.80957H8.125ZM6.76942 7.43457H8.75V6.18457H6.76942V7.43457ZM6.14479 6.78805L6.14478 6.78843L7.39406 6.83071C7.39454 6.81653 7.39479 6.80231 7.39479 6.78805H6.14479ZM6.14554 6.78807L6.14479 6.78805H7.39479C7.39479 6.16878 6.94509 5.65578 6.35446 5.55566L6.14554 6.78807ZM5.625 4.30957V6.17186H6.875V4.30957H5.625Z" fill="#FECA00" mask="url(#path-3-inside-1_2362_47109)"/>
<path fill-rule="evenodd" clip-rule="evenodd" d="M10 0.509766H20V15.5098H10V0.509766Z" fill="#E31D1C"/>
<mask id="mask1_2362_47109" style="mask-type:luminance" maskUnits="userSpaceOnUse" x="10" y="0" width="10" height="16">
<path fill-rule="evenodd" clip-rule="evenodd" d="M10 0.509766H20V15.5098H10V0.509766Z" fill="white"/>
</mask>
<g mask="url(#mask1_2362_47109)">
</g>
</g>
</svg>
