<svg width="20" height="16" viewBox="0 0 20 16" fill="none" xmlns="http://www.w3.org/2000/svg">
<mask id="mask0_2362_47129" style="mask-type:luminance" maskUnits="userSpaceOnUse" x="0" y="0" width="20" height="16">
<rect y="0.509766" width="20" height="15" fill="white"/>
</mask>
<g mask="url(#mask0_2362_47129)">
<path fill-rule="evenodd" clip-rule="evenodd" d="M5 0.509766H20V15.5098H5V0.509766Z" fill="#EF0000"/>
<path fill-rule="evenodd" clip-rule="evenodd" d="M0 0.509766H7.5V15.5098H0V0.509766Z" fill="#2F8D00"/>
<mask id="mask1_2362_47129" style="mask-type:luminance" maskUnits="userSpaceOnUse" x="2" y="3" width="11" height="10">
<path fill-rule="evenodd" clip-rule="evenodd" d="M7.44048 12.8889C4.77768 12.8889 2.61905 10.7043 2.61905 8.0094C2.61905 5.31452 4.77768 3.12988 7.44048 3.12988C10.1033 3.12988 12.2619 5.31452 12.2619 8.0094C12.2619 10.7043 10.1033 12.8889 7.44048 12.8889Z" fill="white"/>
</mask>
<g mask="url(#mask1_2362_47129)">
<path fill-rule="evenodd" clip-rule="evenodd" d="M7.14285 3.00977H7.76785V4.69651H7.14285V3.00977Z" fill="#FFE017"/>
<path fill-rule="evenodd" clip-rule="evenodd" d="M7.14285 11.4434H7.76785V13.0096H7.14285V11.4434Z" fill="#FFE017"/>
<path d="M2.69653 8.26179L2.52179 7.81348C4.45003 7.04368 5.90538 6.54724 6.89287 6.32351C8.3417 5.99525 9.93362 5.75239 11.6687 5.59473L11.7113 6.07472C9.99611 6.23057 8.4246 6.47033 6.9969 6.79379C6.03881 7.01087 4.60367 7.50042 2.69653 8.26179Z" fill="#FFE017"/>
<path d="M11.963 5.29921L11.8212 5.75927C10.3639 5.2992 9.17678 5.10144 8.26426 5.1627L8.23274 4.68183C9.21249 4.61606 10.4544 4.82295 11.963 5.29921Z" fill="#FFE017"/>
<path d="M12.4673 7.8721L12.1979 8.2695C11.455 7.75371 10.5397 7.49462 9.44583 7.49462V7.0127C10.6317 7.0127 11.6409 7.29837 12.4673 7.8721Z" fill="#FFE017"/>
<path d="M12.0638 8.01562L12.1869 8.48117C10.5852 8.915 9.08152 9.16114 7.67561 9.2191C6.26001 9.27747 4.6101 9.03044 2.72446 8.47992L2.85645 8.01687C4.69626 8.55402 6.29666 8.79363 7.65623 8.73757C9.02549 8.68112 10.4947 8.44063 12.0638 8.01562Z" fill="#FFE017"/>
<path d="M11.8823 10.282L11.1296 11.0537C9.69919 9.62455 8.43986 8.60269 7.35938 7.98871C6.26043 7.36424 4.82732 6.73013 3.06224 6.08894L3.42421 5.06836C5.24134 5.72846 6.72717 6.38589 7.88393 7.04322C9.05916 7.71104 10.3894 8.79042 11.8823 10.282Z" fill="#FFE017"/>
<path d="M3.41144 10.7187L3.12653 10.3326C3.16631 10.3025 3.2373 10.2524 3.33512 10.1888C3.49662 10.0839 3.67595 9.97914 3.86891 9.88126C4.40035 9.61167 4.93343 9.44336 5.44188 9.42789C5.46675 9.42714 5.49151 9.42676 5.51616 9.42676V9.90869C5.4963 9.90869 5.47631 9.90899 5.45618 9.9096C5.0277 9.92263 4.55716 10.0712 4.08229 10.3121C3.90529 10.4019 3.74037 10.4982 3.59236 10.5944C3.54084 10.6278 3.49526 10.6588 3.4562 10.6864C3.43342 10.7025 3.41831 10.7135 3.41144 10.7187Z" fill="#FFE017"/>
<path d="M3.6326 10.8856L3.75252 10.4192C5.34009 10.8373 6.56402 11.0456 7.4182 11.0456C8.26919 11.0456 9.53581 10.7999 11.2098 10.3066L11.3429 10.7694C9.62932 11.2742 8.32382 11.5275 7.4182 11.5275C6.51578 11.5275 5.25594 11.3131 3.6326 10.8856Z" fill="#FFE017"/>
<path d="M3.01402 6.56879L3.76845 5.79883L4.87302 6.90735L4.1186 7.67731L3.01402 6.56879Z" fill="#FFE017"/>
<path d="M9.27246 10.414L9.83361 9.49023L11.5859 10.5805L11.0247 11.5042L9.27246 10.414Z" fill="#FFE017"/>
</g>
<path fill-rule="evenodd" clip-rule="evenodd" d="M2.61905 8.0094C2.61905 10.7043 4.77768 12.8889 7.44048 12.8889C10.1033 12.8889 12.2619 10.7043 12.2619 8.0094C12.2619 5.31452 10.1033 3.12988 7.44048 3.12988C4.77768 3.12988 2.61905 5.31452 2.61905 8.0094ZM11.6667 8.06964C11.6667 10.3986 9.80119 12.2865 7.5 12.2865C5.19881 12.2865 3.33333 10.3986 3.33333 8.06964C3.33333 5.74073 5.19881 3.85277 7.5 3.85277C9.80119 3.85277 11.6667 5.74073 11.6667 8.06964Z" fill="#F9E813"/>
<path d="M4.78545 5V8.91294C5.04303 10.4617 5.91082 11.2361 7.38881 11.2361C8.86681 11.2361 9.7346 10.4617 9.99218 8.91294V5H4.78545Z" fill="white"/>
<path d="M4.4283 4.63867H10.3493V8.94327L10.3444 8.97305C10.0583 10.6929 9.04436 11.5977 7.38881 11.5977C5.73325 11.5977 4.71928 10.6929 4.43325 8.97305L4.4283 8.94327V4.63867Z" fill="#C51918"/>
<path d="M5.78264 5.95312H8.99497V8.72869C8.99497 8.72869 8.75659 10.162 7.3888 10.162C6.02102 10.162 5.78264 8.72869 5.78264 8.72869V5.95312Z" fill="#F7FCFF"/>
<path fill-rule="evenodd" clip-rule="evenodd" d="M5.00002 4.9375H5.45182V5.2387H5.00002V4.9375Z" fill="#F9E813"/>
<path fill-rule="evenodd" clip-rule="evenodd" d="M4.76192 5.05762H5.59525V5.20822H4.76192V5.05762Z" fill="#060101"/>
<path fill-rule="evenodd" clip-rule="evenodd" d="M4.76192 5.17871H5.21372V5.32931H4.76192V5.17871Z" fill="#F9E813"/>
<path fill-rule="evenodd" clip-rule="evenodd" d="M5.23811 5.17871H5.68992V5.32931H5.23811V5.17871Z" fill="#F9E813"/>
<path fill-rule="evenodd" clip-rule="evenodd" d="M4.76192 5.54004H5.06312V5.99185H4.76192V5.54004Z" fill="#F9E813"/>
<path fill-rule="evenodd" clip-rule="evenodd" d="M5.35716 5.54004H5.65837V5.99185H5.35716V5.54004Z" fill="#F9E813"/>
<path fill-rule="evenodd" clip-rule="evenodd" d="M5.11906 5.54004H5.26967V5.99185H5.11906V5.54004Z" fill="#F9E813"/>
<path fill-rule="evenodd" clip-rule="evenodd" d="M4.76192 5.41895H5.59525V5.56955H4.76192V5.41895Z" fill="#060101"/>
<path fill-rule="evenodd" clip-rule="evenodd" d="M4.76192 5.78125H5.59525V5.93185H4.76192V5.78125Z" fill="#060101"/>
<path fill-rule="evenodd" clip-rule="evenodd" d="M4.88097 5.29883H5.03157V5.44943H4.88097V5.29883Z" fill="#F9E813"/>
<path fill-rule="evenodd" clip-rule="evenodd" d="M5.35716 5.29883H5.50776V5.44943H5.35716V5.29883Z" fill="#F9E813"/>
<path fill-rule="evenodd" clip-rule="evenodd" d="M5.11906 5.17871H5.26967V5.47992H5.11906V5.17871Z" fill="#F9E813"/>
<path fill-rule="evenodd" clip-rule="evenodd" d="M7.26192 4.9375H7.71372V5.2387H7.26192V4.9375Z" fill="#F9E813"/>
<path fill-rule="evenodd" clip-rule="evenodd" d="M7.02382 5.05762H7.85715V5.20822H7.02382V5.05762Z" fill="#060101"/>
<path fill-rule="evenodd" clip-rule="evenodd" d="M7.02382 5.17871H7.47563V5.32931H7.02382V5.17871Z" fill="#F9E813"/>
<path fill-rule="evenodd" clip-rule="evenodd" d="M7.50002 5.17871H7.95182V5.32931H7.50002V5.17871Z" fill="#F9E813"/>
<path fill-rule="evenodd" clip-rule="evenodd" d="M7.02382 5.54004H7.32502V5.99185H7.02382V5.54004Z" fill="#F9E813"/>
<path fill-rule="evenodd" clip-rule="evenodd" d="M7.61906 5.54004H7.92027V5.99185H7.61906V5.54004Z" fill="#F9E813"/>
<path fill-rule="evenodd" clip-rule="evenodd" d="M7.38097 5.54004H7.53157V5.99185H7.38097V5.54004Z" fill="#F9E813"/>
<path fill-rule="evenodd" clip-rule="evenodd" d="M7.02382 5.41895H7.85715V5.56955H7.02382V5.41895Z" fill="#060101"/>
<path fill-rule="evenodd" clip-rule="evenodd" d="M7.02382 5.78125H7.85715V5.93185H7.02382V5.78125Z" fill="#060101"/>
<path fill-rule="evenodd" clip-rule="evenodd" d="M7.14287 5.29883H7.29347V5.44943H7.14287V5.29883Z" fill="#F9E813"/>
<path fill-rule="evenodd" clip-rule="evenodd" d="M7.61906 5.29883H7.76967V5.44943H7.61906V5.29883Z" fill="#F9E813"/>
<path fill-rule="evenodd" clip-rule="evenodd" d="M7.38097 5.17871H7.53157V5.47992H7.38097V5.17871Z" fill="#F9E813"/>
<path fill-rule="evenodd" clip-rule="evenodd" d="M9.40477 4.9375H9.85658V5.2387H9.40477V4.9375Z" fill="#F9E813"/>
<path fill-rule="evenodd" clip-rule="evenodd" d="M9.16667 5.05762H10V5.20822H9.16667V5.05762Z" fill="#060101"/>
<path fill-rule="evenodd" clip-rule="evenodd" d="M9.16667 5.17871H9.61848V5.32931H9.16667V5.17871Z" fill="#F9E813"/>
<path fill-rule="evenodd" clip-rule="evenodd" d="M9.64287 5.17871H10.0947V5.32931H9.64287V5.17871Z" fill="#F9E813"/>
<path fill-rule="evenodd" clip-rule="evenodd" d="M9.16667 5.54004H9.46788V5.99185H9.16667V5.54004Z" fill="#F9E813"/>
<path fill-rule="evenodd" clip-rule="evenodd" d="M9.76192 5.54004H10.0631V5.99185H9.76192V5.54004Z" fill="#F9E813"/>
<path fill-rule="evenodd" clip-rule="evenodd" d="M9.52382 5.54004H9.67442V5.99185H9.52382V5.54004Z" fill="#F9E813"/>
<path fill-rule="evenodd" clip-rule="evenodd" d="M9.16667 5.41895H10V5.56955H9.16667V5.41895Z" fill="#060101"/>
<path fill-rule="evenodd" clip-rule="evenodd" d="M9.16667 5.78125H10V5.93185H9.16667V5.78125Z" fill="#060101"/>
<path fill-rule="evenodd" clip-rule="evenodd" d="M9.28572 5.29883H9.43632V5.44943H9.28572V5.29883Z" fill="#F9E813"/>
<path fill-rule="evenodd" clip-rule="evenodd" d="M9.76192 5.29883H9.91252V5.44943H9.76192V5.29883Z" fill="#F9E813"/>
<path fill-rule="evenodd" clip-rule="evenodd" d="M9.52382 5.17871H9.67442V5.47992H9.52382V5.17871Z" fill="#F9E813"/>
<path fill-rule="evenodd" clip-rule="evenodd" d="M9.40477 7.10645H9.85658V7.40765H9.40477V7.10645Z" fill="#F9E813"/>
<path fill-rule="evenodd" clip-rule="evenodd" d="M9.16667 7.22656H10V7.37716H9.16667V7.22656Z" fill="#060101"/>
<path fill-rule="evenodd" clip-rule="evenodd" d="M9.16667 7.34766H9.61848V7.49826H9.16667V7.34766Z" fill="#F9E813"/>
<path fill-rule="evenodd" clip-rule="evenodd" d="M9.64287 7.34766H10.0947V7.49826H9.64287V7.34766Z" fill="#F9E813"/>
<path fill-rule="evenodd" clip-rule="evenodd" d="M9.16667 7.70898H9.46788V8.16079H9.16667V7.70898Z" fill="#F9E813"/>
<path fill-rule="evenodd" clip-rule="evenodd" d="M9.76192 7.70898H10.0631V8.16079H9.76192V7.70898Z" fill="#F9E813"/>
<path fill-rule="evenodd" clip-rule="evenodd" d="M9.52382 7.70898H9.67442V8.16079H9.52382V7.70898Z" fill="#F9E813"/>
<path fill-rule="evenodd" clip-rule="evenodd" d="M9.16667 7.58789H10V7.73849H9.16667V7.58789Z" fill="#060101"/>
<path fill-rule="evenodd" clip-rule="evenodd" d="M9.16667 7.9502H10V8.1008H9.16667V7.9502Z" fill="#060101"/>
<path fill-rule="evenodd" clip-rule="evenodd" d="M9.28572 7.46777H9.43632V7.61838H9.28572V7.46777Z" fill="#F9E813"/>
<path fill-rule="evenodd" clip-rule="evenodd" d="M9.76192 7.46777H9.91252V7.61838H9.76192V7.46777Z" fill="#F9E813"/>
<path fill-rule="evenodd" clip-rule="evenodd" d="M9.52382 7.34766H9.67442V7.64886H9.52382V7.34766Z" fill="#F9E813"/>
<path fill-rule="evenodd" clip-rule="evenodd" d="M5.00002 7.10645H5.45182V7.40765H5.00002V7.10645Z" fill="#F9E813"/>
<path fill-rule="evenodd" clip-rule="evenodd" d="M4.76192 7.22656H5.59525V7.37716H4.76192V7.22656Z" fill="#060101"/>
<path fill-rule="evenodd" clip-rule="evenodd" d="M4.76192 7.34766H5.21372V7.49826H4.76192V7.34766Z" fill="#F9E813"/>
<path fill-rule="evenodd" clip-rule="evenodd" d="M5.23811 7.34766H5.68992V7.49826H5.23811V7.34766Z" fill="#F9E813"/>
<path fill-rule="evenodd" clip-rule="evenodd" d="M4.76192 7.70898H5.06312V8.16079H4.76192V7.70898Z" fill="#F9E813"/>
<path fill-rule="evenodd" clip-rule="evenodd" d="M5.35716 7.70898H5.65837V8.16079H5.35716V7.70898Z" fill="#F9E813"/>
<path fill-rule="evenodd" clip-rule="evenodd" d="M5.11906 7.70898H5.26967V8.16079H5.11906V7.70898Z" fill="#F9E813"/>
<path fill-rule="evenodd" clip-rule="evenodd" d="M4.76192 7.58789H5.59525V7.73849H4.76192V7.58789Z" fill="#060101"/>
<path fill-rule="evenodd" clip-rule="evenodd" d="M4.76192 7.9502H5.59525V8.1008H4.76192V7.9502Z" fill="#060101"/>
<path fill-rule="evenodd" clip-rule="evenodd" d="M4.88097 7.46777H5.03157V7.61838H4.88097V7.46777Z" fill="#F9E813"/>
<path fill-rule="evenodd" clip-rule="evenodd" d="M5.35716 7.46777H5.50776V7.61838H5.35716V7.46777Z" fill="#F9E813"/>
<path fill-rule="evenodd" clip-rule="evenodd" d="M5.11906 7.34766H5.26967V7.64886H5.11906V7.34766Z" fill="#F9E813"/>
<path fill-rule="evenodd" clip-rule="evenodd" d="M5.28986 9.82422L5.58027 9.47811L5.81101 9.67173L5.52059 10.0178L5.28986 9.82422Z" fill="#F9E813"/>
<path fill-rule="evenodd" clip-rule="evenodd" d="M5.22911 10.084L5.76477 9.44561L5.88014 9.54242L5.34448 10.1808L5.22911 10.084Z" fill="#060101"/>
<path fill-rule="evenodd" clip-rule="evenodd" d="M5.3214 10.1621L5.61181 9.816L5.72718 9.91281L5.43676 10.2589L5.3214 10.1621Z" fill="#F9E813"/>
<path fill-rule="evenodd" clip-rule="evenodd" d="M5.62749 9.79688L5.9179 9.45077L6.03327 9.54758L5.74286 9.89368L5.62749 9.79688Z" fill="#F9E813"/>
<path fill-rule="evenodd" clip-rule="evenodd" d="M5.59828 10.3945L5.79189 10.1638L6.138 10.4542L5.94439 10.6849L5.59828 10.3945Z" fill="#F9E813"/>
<path fill-rule="evenodd" clip-rule="evenodd" d="M5.9809 9.93848L6.17451 9.70774L6.52061 9.99816L6.327 10.2289L5.9809 9.93848Z" fill="#F9E813"/>
<path fill-rule="evenodd" clip-rule="evenodd" d="M5.82785 10.1201L5.92466 10.0047L6.27076 10.2952L6.17395 10.4105L5.82785 10.1201Z" fill="#F9E813"/>
<path fill-rule="evenodd" clip-rule="evenodd" d="M5.50598 10.3164L6.04164 9.67804L6.15701 9.77484L5.62135 10.4132L5.50598 10.3164Z" fill="#060101"/>
<path fill-rule="evenodd" clip-rule="evenodd" d="M5.78287 10.5488L6.31852 9.91046L6.43389 10.0073L5.89824 10.6456L5.78287 10.5488Z" fill="#060101"/>
<path fill-rule="evenodd" clip-rule="evenodd" d="M5.49022 10.1484L5.58702 10.0331L5.70239 10.1299L5.60559 10.2452L5.49022 10.1484Z" fill="#F9E813"/>
<path fill-rule="evenodd" clip-rule="evenodd" d="M5.79631 9.7832L5.89312 9.66783L6.00848 9.76464L5.91168 9.88001L5.79631 9.7832Z" fill="#F9E813"/>
<path fill-rule="evenodd" clip-rule="evenodd" d="M5.55096 9.8877L5.64777 9.77233L5.87851 9.96594L5.7817 10.0813L5.55096 9.8877Z" fill="#F9E813"/>
<path fill-rule="evenodd" clip-rule="evenodd" d="M9.36156 9.55176L9.65197 9.89786L9.42124 10.0915L9.13082 9.74537L9.36156 9.55176Z" fill="#F9E813"/>
<path fill-rule="evenodd" clip-rule="evenodd" d="M9.11621 9.44629L9.65187 10.0847L9.5365 10.1815L9.00084 9.54309L9.11621 9.44629Z" fill="#060101"/>
<path fill-rule="evenodd" clip-rule="evenodd" d="M9.02393 9.52441L9.31434 9.87052L9.19897 9.96732L8.90856 9.62122L9.02393 9.52441Z" fill="#F9E813"/>
<path fill-rule="evenodd" clip-rule="evenodd" d="M9.33002 9.88867L9.62043 10.2348L9.50507 10.3316L9.21465 9.98548L9.33002 9.88867Z" fill="#F9E813"/>
<path fill-rule="evenodd" clip-rule="evenodd" d="M8.74704 9.75684L8.94065 9.98757L8.59455 10.278L8.40094 10.0473L8.74704 9.75684Z" fill="#F9E813"/>
<path fill-rule="evenodd" clip-rule="evenodd" d="M9.12965 10.2119L9.32326 10.4427L8.97716 10.7331L8.78355 10.5023L9.12965 10.2119Z" fill="#F9E813"/>
<path fill-rule="evenodd" clip-rule="evenodd" d="M8.97661 10.0303L9.07341 10.1456L8.72731 10.4361L8.6305 10.3207L8.97661 10.0303Z" fill="#F9E813"/>
<path fill-rule="evenodd" clip-rule="evenodd" d="M8.83934 9.67871L9.375 10.3171L9.25963 10.4139L8.72397 9.77552L8.83934 9.67871Z" fill="#060101"/>
<path fill-rule="evenodd" clip-rule="evenodd" d="M8.56245 9.91113L9.09811 10.5495L8.98274 10.6463L8.44709 10.0079L8.56245 9.91113Z" fill="#060101"/>
<path fill-rule="evenodd" clip-rule="evenodd" d="M9.00815 9.69238L9.10495 9.80775L8.98959 9.90456L8.89278 9.78919L9.00815 9.69238Z" fill="#F9E813"/>
<path fill-rule="evenodd" clip-rule="evenodd" d="M9.31424 10.0576L9.41104 10.173L9.29568 10.2698L9.19887 10.1544L9.31424 10.0576Z" fill="#F9E813"/>
<path fill-rule="evenodd" clip-rule="evenodd" d="M9.25349 9.79785L9.3503 9.91322L9.11956 10.1068L9.02276 9.99146L9.25349 9.79785Z" fill="#F9E813"/>
<path fill-rule="evenodd" clip-rule="evenodd" d="M7.84903 6.2627H7.02382V6.86362C7.02382 6.86362 7.08506 7.17393 7.43642 7.17393C7.78779 7.17393 7.84903 6.86362 7.84903 6.86362V6.2627ZM7.38096 6.50366C7.38096 6.5702 7.32766 6.62414 7.26191 6.62414C7.19617 6.62414 7.14287 6.5702 7.14287 6.50366C7.14287 6.43712 7.19617 6.38318 7.26191 6.38318C7.32766 6.38318 7.38096 6.43712 7.38096 6.50366ZM7.26191 7.10607C7.32766 7.10607 7.38096 7.05213 7.38096 6.98559C7.38096 6.91905 7.32766 6.8651 7.26191 6.8651C7.19617 6.8651 7.14287 6.91905 7.14287 6.98559C7.14287 7.05213 7.19617 7.10607 7.26191 7.10607ZM7.7381 6.98559C7.7381 7.05213 7.68481 7.10607 7.61906 7.10607C7.55331 7.10607 7.50001 7.05213 7.50001 6.98559C7.50001 6.91905 7.55331 6.8651 7.61906 6.8651C7.68481 6.8651 7.7381 6.91905 7.7381 6.98559ZM7.44049 6.8651C7.50623 6.8651 7.55953 6.81116 7.55953 6.74462C7.55953 6.67808 7.50623 6.62414 7.44049 6.62414C7.37474 6.62414 7.32144 6.67808 7.32144 6.74462C7.32144 6.81116 7.37474 6.8651 7.44049 6.8651ZM7.7381 6.50366C7.7381 6.5702 7.68481 6.62414 7.61906 6.62414C7.55331 6.62414 7.50001 6.5702 7.50001 6.50366C7.50001 6.43712 7.55331 6.38318 7.61906 6.38318C7.68481 6.38318 7.7381 6.43712 7.7381 6.50366Z" fill="#013399"/>
<path fill-rule="evenodd" clip-rule="evenodd" d="M7.84903 7.58789H7.02382V8.18881C7.02382 8.18881 7.08506 8.49913 7.43642 8.49913C7.78779 8.49913 7.84903 8.18881 7.84903 8.18881V7.58789ZM7.38096 7.82885C7.38096 7.89539 7.32766 7.94934 7.26191 7.94934C7.19617 7.94934 7.14287 7.89539 7.14287 7.82885C7.14287 7.76231 7.19617 7.70837 7.26191 7.70837C7.32766 7.70837 7.38096 7.76231 7.38096 7.82885ZM7.26191 8.43126C7.32766 8.43126 7.38096 8.37732 7.38096 8.31078C7.38096 8.24424 7.32766 8.1903 7.26191 8.1903C7.19617 8.1903 7.14287 8.24424 7.14287 8.31078C7.14287 8.37732 7.19617 8.43126 7.26191 8.43126ZM7.7381 8.31078C7.7381 8.37732 7.68481 8.43126 7.61906 8.43126C7.55331 8.43126 7.50001 8.37732 7.50001 8.31078C7.50001 8.24424 7.55331 8.1903 7.61906 8.1903C7.68481 8.1903 7.7381 8.24424 7.7381 8.31078ZM7.44049 8.1903C7.50623 8.1903 7.55953 8.13636 7.55953 8.06982C7.55953 8.00328 7.50623 7.94934 7.44049 7.94934C7.37474 7.94934 7.32144 8.00328 7.32144 8.06982C7.32144 8.13636 7.37474 8.1903 7.44049 8.1903ZM7.7381 7.82885C7.7381 7.89539 7.68481 7.94934 7.61906 7.94934C7.55331 7.94934 7.50001 7.89539 7.50001 7.82885C7.50001 7.76231 7.55331 7.70837 7.61906 7.70837C7.68481 7.70837 7.7381 7.76231 7.7381 7.82885Z" fill="#013399"/>
<path fill-rule="evenodd" clip-rule="evenodd" d="M8.92045 7.58789H8.09525V8.18881C8.09525 8.18881 8.15648 8.49913 8.50785 8.49913C8.85922 8.49913 8.92045 8.18881 8.92045 8.18881V7.58789ZM8.45239 7.82885C8.45239 7.89539 8.39909 7.94934 8.33334 7.94934C8.26759 7.94934 8.21429 7.89539 8.21429 7.82885C8.21429 7.76231 8.26759 7.70837 8.33334 7.70837C8.39909 7.70837 8.45239 7.76231 8.45239 7.82885ZM8.33334 8.43126C8.39909 8.43126 8.45239 8.37732 8.45239 8.31078C8.45239 8.24424 8.39909 8.1903 8.33334 8.1903C8.26759 8.1903 8.21429 8.24424 8.21429 8.31078C8.21429 8.37732 8.26759 8.43126 8.33334 8.43126ZM8.80953 8.31078C8.80953 8.37732 8.75623 8.43126 8.69048 8.43126C8.62474 8.43126 8.57144 8.37732 8.57144 8.31078C8.57144 8.24424 8.62474 8.1903 8.69048 8.1903C8.75623 8.1903 8.80953 8.24424 8.80953 8.31078ZM8.51191 8.1903C8.57766 8.1903 8.63096 8.13636 8.63096 8.06982C8.63096 8.00328 8.57766 7.94934 8.51191 7.94934C8.44616 7.94934 8.39286 8.00328 8.39286 8.06982C8.39286 8.13636 8.44616 8.1903 8.51191 8.1903ZM8.80953 7.82885C8.80953 7.89539 8.75623 7.94934 8.69048 7.94934C8.62474 7.94934 8.57144 7.89539 8.57144 7.82885C8.57144 7.76231 8.62474 7.70837 8.69048 7.70837C8.75623 7.70837 8.80953 7.76231 8.80953 7.82885Z" fill="#013399"/>
<path fill-rule="evenodd" clip-rule="evenodd" d="M6.7776 7.58789H5.95239V8.18881C5.95239 8.18881 6.01363 8.49913 6.365 8.49913C6.71636 8.49913 6.7776 8.18881 6.7776 8.18881V7.58789ZM6.30954 7.82885C6.30954 7.89539 6.25624 7.94934 6.19049 7.94934C6.12474 7.94934 6.07144 7.89539 6.07144 7.82885C6.07144 7.76231 6.12474 7.70837 6.19049 7.70837C6.25624 7.70837 6.30954 7.76231 6.30954 7.82885ZM6.19049 8.43126C6.25624 8.43126 6.30954 8.37732 6.30954 8.31078C6.30954 8.24424 6.25624 8.1903 6.19049 8.1903C6.12474 8.1903 6.07144 8.24424 6.07144 8.31078C6.07144 8.37732 6.12474 8.43126 6.19049 8.43126ZM6.66668 8.31078C6.66668 8.37732 6.61338 8.43126 6.54763 8.43126C6.48188 8.43126 6.42858 8.37732 6.42858 8.31078C6.42858 8.24424 6.48188 8.1903 6.54763 8.1903C6.61338 8.1903 6.66668 8.24424 6.66668 8.31078ZM6.36906 8.1903C6.43481 8.1903 6.48811 8.13636 6.48811 8.06982C6.48811 8.00328 6.43481 7.94934 6.36906 7.94934C6.30331 7.94934 6.25001 8.00328 6.25001 8.06982C6.25001 8.13636 6.30331 8.1903 6.36906 8.1903ZM6.66668 7.82885C6.66668 7.89539 6.61338 7.94934 6.54763 7.94934C6.48188 7.94934 6.42858 7.89539 6.42858 7.82885C6.42858 7.76231 6.48188 7.70837 6.54763 7.70837C6.61338 7.70837 6.66668 7.76231 6.66668 7.82885Z" fill="#013399"/>
<path fill-rule="evenodd" clip-rule="evenodd" d="M7.84903 8.91309H7.02382V9.51401C7.02382 9.51401 7.08506 9.82432 7.43642 9.82432C7.78779 9.82432 7.84903 9.51401 7.84903 9.51401V8.91309ZM7.38096 9.15405C7.38096 9.22059 7.32766 9.27453 7.26191 9.27453C7.19617 9.27453 7.14287 9.22059 7.14287 9.15405C7.14287 9.08751 7.19617 9.03357 7.26191 9.03357C7.32766 9.03357 7.38096 9.08751 7.38096 9.15405ZM7.26191 9.75646C7.32766 9.75646 7.38096 9.70252 7.38096 9.63598C7.38096 9.56944 7.32766 9.5155 7.26191 9.5155C7.19617 9.5155 7.14287 9.56944 7.14287 9.63598C7.14287 9.70252 7.19617 9.75646 7.26191 9.75646ZM7.7381 9.63598C7.7381 9.70252 7.68481 9.75646 7.61906 9.75646C7.55331 9.75646 7.50001 9.70252 7.50001 9.63598C7.50001 9.56944 7.55331 9.5155 7.61906 9.5155C7.68481 9.5155 7.7381 9.56944 7.7381 9.63598ZM7.44049 9.5155C7.50623 9.5155 7.55953 9.46155 7.55953 9.39501C7.55953 9.32847 7.50623 9.27453 7.44049 9.27453C7.37474 9.27453 7.32144 9.32847 7.32144 9.39501C7.32144 9.46155 7.37474 9.5155 7.44049 9.5155ZM7.7381 9.15405C7.7381 9.22059 7.68481 9.27453 7.61906 9.27453C7.55331 9.27453 7.50001 9.22059 7.50001 9.15405C7.50001 9.08751 7.55331 9.03357 7.61906 9.03357C7.68481 9.03357 7.7381 9.08751 7.7381 9.15405Z" fill="#013399"/>
</g>
</svg>
