<svg width="20" height="16" viewBox="0 0 20 16" fill="none" xmlns="http://www.w3.org/2000/svg">
<mask id="mask0_924_24264" style="mask-type:luminance" maskUnits="userSpaceOnUse" x="0" y="0" width="20" height="16">
<rect y="0.510254" width="20" height="15" fill="white"/>
</mask>
<g mask="url(#mask0_924_24264)">
<path fill-rule="evenodd" clip-rule="evenodd" d="M0 0.510254V15.5103H20V0.510254H0Z" fill="#F7FCFF"/>
<mask id="mask1_924_24264" style="mask-type:luminance" maskUnits="userSpaceOnUse" x="0" y="0" width="20" height="16">
<path fill-rule="evenodd" clip-rule="evenodd" d="M0 0.510254V15.5103H20V0.510254H0Z" fill="white"/>
</mask>
<g mask="url(#mask1_924_24264)">
<path fill-rule="evenodd" clip-rule="evenodd" d="M0 8.01025V15.5103H20V8.01025H0Z" fill="#56C6F5"/>
<path fill-rule="evenodd" clip-rule="evenodd" d="M6.40886 6.15296C6.40422 6.10014 6.39317 6.05449 6.37407 6.01889C6.21353 5.71967 6.26539 5.34525 6.26539 5.34525C6.26539 5.34525 6.07369 5.78372 5.9612 6.19654C5.84296 6.0043 5.80163 5.8117 5.80163 5.8117C5.80163 5.8117 5.7251 7.02269 5.95906 7.30962C6.19303 7.59655 6.34901 7.72263 6.34901 7.72263C6.34901 7.72263 6.36672 7.21978 6.2986 6.82652C6.3466 6.66246 6.3899 6.48274 6.40541 6.328C6.43612 6.30526 6.51704 6.2445 6.61832 6.16187C6.57564 6.39735 6.57353 6.52531 6.57353 6.52531C6.57353 6.52531 7.45513 5.88518 7.47754 5.54635C7.49995 5.20752 7.74235 4.91748 7.74235 4.91748C7.74235 4.91748 7.54192 5.05464 7.31304 5.23856C7.37355 4.95415 7.5609 4.72998 7.5609 4.72998C7.5609 4.72998 6.55952 5.41523 6.47746 5.77625C6.44176 5.93328 6.42097 6.05995 6.40886 6.15296ZM6.45174 8.23446C6.35573 8.05317 5.93789 7.29322 5.64645 7.22709C5.31529 7.15195 5.06674 6.86717 5.06674 6.86717C5.06674 6.86717 5.58691 7.96342 5.93065 8.10094C6.20668 8.21139 6.38845 8.25548 6.44934 8.26857C6.43931 8.41635 6.43756 8.51844 6.43756 8.51844C6.43756 8.51844 6.59993 8.4007 6.84859 8.12641C7.09724 7.85211 7.0842 6.63878 7.0842 6.63878C7.0842 6.63878 6.98565 7.0037 6.72095 7.21641C6.54338 7.35909 6.47652 7.89628 6.45174 8.23446ZM5.66961 8.11977C6.04793 8.11755 6.62994 9.04523 6.62994 9.04523C6.62994 9.04523 6.40446 9.05758 6.01057 8.99535C5.61668 8.93312 5.00275 7.87605 5.00275 7.87605C5.00275 7.87605 5.29129 8.12199 5.66961 8.11977ZM7.51377 10.2803C7.51377 10.2803 7.73826 9.09816 7.40116 8.82257C7.06405 8.54699 7.00458 8.13515 7.00458 8.13515C7.00458 8.13515 6.70512 9.44609 7.00458 9.78558C7.30404 10.1251 7.51377 10.2803 7.51377 10.2803ZM6.15357 9.96117C6.37371 10.2222 7.07509 9.96117 7.07509 9.96117C7.07509 9.96117 7.22963 10.1015 6.6734 9.59314C6.11716 9.08476 4.98534 9.40585 5.28994 9.40585C5.59454 9.40585 5.93343 9.70017 6.15357 9.96117ZM6.67328 11.3489C7.08136 11.6945 7.96313 10.8728 7.96313 10.8728C7.96313 10.8728 7.73613 10.5979 7.31543 10.3953C6.89472 10.1926 5.34283 10.3953 5.34283 10.3953L6.03346 10.7027C6.03346 10.7027 5.26471 11.0033 5.46876 10.9865C5.67282 10.9698 6.26521 11.0033 6.67328 11.3489Z" fill="#006923"/>
<path fill-rule="evenodd" clip-rule="evenodd" d="M12.0084 10.6329C12.0084 10.6329 11.6576 10.0433 12.0084 9.75848C12.3593 9.47363 12.4981 9.66309 12.4981 9.33561C12.4981 9.00812 12.5336 9.10563 12.706 8.94305C12.8784 8.78046 12.7563 8.38558 12.9872 8.58302C13.218 8.78046 13.2612 8.40185 13.2612 9.18838C13.2612 9.97492 13.2612 8.475 13.2612 8.03324C13.2612 7.59147 12.9872 7.69605 12.9872 7.39978C12.9872 7.10352 12.7132 6.66104 12.9872 6.66104C13.2612 6.66104 13.4222 6.99025 13.4222 6.99025C13.4222 6.99025 13.6914 7.44909 13.6914 6.99025C13.6914 6.5314 13.2121 6.66781 12.9872 6.16147C12.7622 5.65514 12.7978 6.21826 12.4981 5.56581C12.1985 4.91337 11.8418 4.70632 12.17 4.70632C12.4981 4.70632 12.4249 4.70632 12.706 4.70632C12.9872 4.70632 13.4222 4.47281 13.4222 4.70632C13.4222 4.93984 13.4222 4.83283 13.4222 5.19932C13.4222 5.56581 13.6914 5.56581 13.6914 5.56581C13.6914 5.56581 13.8378 4.83283 14.0216 5.19932C14.2055 5.56581 14.0803 6.16147 14.2149 6.16147C14.3494 6.16147 14.238 5.54591 14.5319 6.01738C14.8257 6.48886 14.5319 6.80837 14.5319 6.99025C14.5319 7.17213 14.2149 7.61773 14.2149 7.61773C14.2149 7.61773 14.2768 7.83568 14.5319 7.61773C14.787 7.39978 15.029 7.18183 15.029 7.39978C15.029 7.61773 15.5262 7.68544 15.029 8.03324C14.5319 8.38103 14.8489 8.72923 14.5319 8.72923C14.2149 8.72923 13.8414 9.18838 13.6914 9.18838C13.5415 9.18838 12.9808 9.53992 13.2612 9.53992C13.5415 9.53992 13.8284 8.83685 14.0216 9.18838C14.2149 9.53992 14.2123 9.13129 14.3721 9.33561C14.5319 9.53992 14.6917 10.6485 14.5319 10.2035C14.3721 9.75848 14.1217 9.75848 13.6914 9.75848C13.2612 9.75848 12.4249 9.79061 12.706 9.99705C12.9872 10.2035 13.3029 9.79061 13.4222 9.99705C13.5415 10.2035 13.5068 10.4099 13.6914 10.2035C13.876 9.99705 14.0576 10.2035 14.2149 10.2035C14.3721 10.2035 14.0576 10.4346 14.2149 10.6329C14.3721 10.8313 14.7226 11.0955 14.3721 11.0955C14.0216 11.0955 13.8414 10.8153 13.6914 11.0955C13.5415 11.3757 13.5352 11.8623 13.2612 11.4789C12.9872 11.0955 12.4981 11.2901 12.4981 11.0955C12.4981 10.9009 12.6051 10.8695 12.3068 10.8695C12.0084 10.8695 12.0084 10.6329 12.0084 10.6329Z" fill="#009933"/>
<path fill-rule="evenodd" clip-rule="evenodd" d="M13.4476 6.4165C13.4476 6.5028 13.3799 6.57275 13.2964 6.57275C13.2129 6.57275 13.1452 6.5028 13.1452 6.4165C13.1452 6.33021 13.2129 6.26025 13.2964 6.26025C13.3799 6.26025 13.4476 6.33021 13.4476 6.4165ZM6.4617 6.76025C6.54521 6.76025 6.61291 6.6903 6.61291 6.604C6.61291 6.51771 6.54521 6.44775 6.4617 6.44775C6.37818 6.44775 6.31049 6.51771 6.31049 6.604C6.31049 6.6903 6.37818 6.76025 6.4617 6.76025ZM6.61291 7.4165C6.61291 7.5028 6.54521 7.57275 6.4617 7.57275C6.37818 7.57275 6.31049 7.5028 6.31049 7.4165C6.31049 7.33021 6.37818 7.26025 6.4617 7.26025C6.54521 7.26025 6.61291 7.33021 6.61291 7.4165ZM6.70363 9.01025C6.78714 9.01025 6.85484 8.9403 6.85484 8.854C6.85484 8.76771 6.78714 8.69775 6.70363 8.69775C6.62012 8.69775 6.55242 8.76771 6.55242 8.854C6.55242 8.9403 6.62012 9.01025 6.70363 9.01025ZM7.91331 10.5728C7.99682 10.5728 8.06452 10.5028 8.06452 10.4165C8.06452 10.3302 7.99682 10.2603 7.91331 10.2603C7.8298 10.2603 7.7621 10.3302 7.7621 10.4165C7.7621 10.5028 7.8298 10.5728 7.91331 10.5728ZM13.7198 8.19775C13.8033 8.19775 13.871 8.1278 13.871 8.0415C13.871 7.95521 13.8033 7.88525 13.7198 7.88525C13.6362 7.88525 13.5686 7.95521 13.5686 8.0415C13.5686 8.1278 13.6362 8.19775 13.7198 8.19775ZM13.3871 9.2915C13.3871 9.3778 13.3194 9.44775 13.2359 9.44775C13.1524 9.44775 13.0847 9.3778 13.0847 9.2915C13.0847 9.20521 13.1524 9.13525 13.2359 9.13525C13.3194 9.13525 13.3871 9.20521 13.3871 9.2915ZM11.9658 10.8228C12.0494 10.8228 12.1171 10.7528 12.1171 10.6665C12.1171 10.5802 12.0494 10.5103 11.9658 10.5103C11.8823 10.5103 11.8146 10.5802 11.8146 10.6665C11.8146 10.7528 11.8823 10.8228 11.9658 10.8228ZM8.12511 10.854C8.12511 10.9403 8.05741 11.0103 7.9739 11.0103C7.89039 11.0103 7.82269 10.9403 7.82269 10.854C7.82269 10.7677 7.89039 10.6978 7.9739 10.6978C8.05741 10.6978 8.12511 10.7677 8.12511 10.854Z" fill="#C51918"/>
<path fill-rule="evenodd" clip-rule="evenodd" d="M11.2737 12.898C11.2737 12.77 9.33589 11.4345 8.81577 11.1399C8.29565 10.8453 5.75577 9.22409 6.44745 6.76074H6.34278C6.34278 6.76074 5.87469 9.79603 9.09971 11.6828C10.5681 12.6678 10.6412 12.898 10.6412 12.898C10.6412 12.898 11.2737 13.026 11.2737 12.898Z" fill="#FECA00"/>
<path fill-rule="evenodd" clip-rule="evenodd" d="M8.70259 12.898C8.70259 12.77 10.6404 11.4345 11.1605 11.1399C11.6807 10.8453 14.2205 9.22409 13.5289 6.76074H13.6335C13.6335 6.76074 14.1016 9.79603 10.8766 11.6828C9.40818 12.6678 9.33509 12.898 9.33509 12.898C9.33509 12.898 8.70259 13.026 8.70259 12.898Z" fill="#FECA00"/>
<path fill-rule="evenodd" clip-rule="evenodd" d="M10.0302 11.0638C11.3831 11.0638 12.4798 9.31263 12.4798 7.604C12.4798 5.89537 11.3831 5.01025 10.0302 5.01025C8.67735 5.01025 7.58063 5.89537 7.58063 7.604C7.58063 9.31263 8.67735 11.0638 10.0302 11.0638Z" fill="#56C6F5"/>
<path fill-rule="evenodd" clip-rule="evenodd" d="M8.94577 6.47235C8.94577 6.47235 9.32302 6.13961 9.13439 6.13961C9.09781 6.13961 9.05327 6.13246 9.00524 6.12476C8.80563 6.09273 8.5457 6.05103 8.5457 6.47235V7.19635L8.5456 7.19805H8.48994C8.45542 7.19805 8.42744 7.22603 8.42744 7.26055C8.42744 7.29507 8.45542 7.32305 8.48994 7.32305H8.53884C8.53048 7.4777 8.51568 7.75271 8.50116 8.02758L8.42964 8.03384C8.39266 8.03707 8.36531 8.06967 8.36855 8.10664L8.37317 8.15953C8.37641 8.19651 8.409 8.22386 8.44598 8.22062L8.49121 8.21667C8.47442 8.53782 8.46026 8.81887 8.46026 8.85327C8.46026 8.93775 9.03419 8.90504 9.03419 8.90504C9.03419 8.90504 9.01633 8.56624 8.99667 8.17244L9.03513 8.16908C9.0721 8.16585 9.09945 8.13325 9.09622 8.09627L9.09159 8.04338C9.08836 8.00641 9.05576 7.97906 9.01878 7.98229L8.98739 7.98504C8.97581 7.7492 8.96447 7.50972 8.95655 7.32305H9.03026C9.06478 7.32305 9.09276 7.29507 9.09276 7.26055C9.09276 7.22603 9.06478 7.19805 9.03026 7.19805H8.95147C8.94789 7.10477 8.94577 7.03466 8.94577 6.99934V6.47235Z" fill="white"/>
<path fill-rule="evenodd" clip-rule="evenodd" d="M8.66937 7.38574H8.87099V7.65456H8.66937V7.38574Z" fill="black"/>
<path fill-rule="evenodd" clip-rule="evenodd" d="M8.60901 8.32324H8.94503V8.94824H8.60901V8.32324Z" fill="black"/>
<path fill-rule="evenodd" clip-rule="evenodd" d="M10.2159 6.47235C10.2159 6.47235 10.5932 6.13961 10.4045 6.13961C10.368 6.13961 10.3234 6.13246 10.2754 6.12476C10.0758 6.09273 9.81584 6.05103 9.81584 6.47235V7.19635L9.81574 7.19805H9.76008C9.72557 7.19805 9.69758 7.22603 9.69758 7.26055C9.69758 7.29507 9.72557 7.32305 9.76008 7.32305H9.80898C9.80062 7.4777 9.78582 7.75271 9.7713 8.02758L9.69978 8.03384C9.6628 8.03707 9.63545 8.06967 9.63869 8.10664L9.64331 8.15953C9.64655 8.19651 9.67915 8.22386 9.71612 8.22062L9.76136 8.21667C9.74456 8.53782 9.7304 8.81887 9.7304 8.85327C9.7304 8.93775 10.3043 8.90504 10.3043 8.90504C10.3043 8.90504 10.2865 8.56624 10.2668 8.17244L10.3053 8.16908C10.3422 8.16585 10.3696 8.13325 10.3664 8.09627L10.3617 8.04338C10.3585 8.00641 10.3259 7.97906 10.2889 7.98229L10.2575 7.98504C10.2459 7.7492 10.2346 7.50972 10.2267 7.32305H10.3004C10.3349 7.32305 10.3629 7.29507 10.3629 7.26055C10.3629 7.22603 10.3349 7.19805 10.3004 7.19805H10.2216C10.218 7.10477 10.2159 7.03466 10.2159 6.99934V6.47235Z" fill="white"/>
<path fill-rule="evenodd" clip-rule="evenodd" d="M9.93951 7.38574H10.1411V7.65456H9.93951V7.38574Z" fill="black"/>
<path fill-rule="evenodd" clip-rule="evenodd" d="M9.87915 8.32324H10.2152V8.94824H9.87915V8.32324Z" fill="black"/>
<path fill-rule="evenodd" clip-rule="evenodd" d="M11.4256 6.47235C11.4256 6.47235 11.8028 6.13961 11.6142 6.13961C11.5776 6.13961 11.5331 6.13246 11.485 6.12476C11.2854 6.09273 11.0255 6.05103 11.0255 6.47235V7.19635L11.0254 7.19805H10.9697C10.9352 7.19805 10.9072 7.22603 10.9072 7.26055C10.9072 7.29507 10.9352 7.32305 10.9697 7.32305H11.0186C11.0103 7.4777 10.9955 7.75271 10.981 8.02758L10.9094 8.03384C10.8725 8.03707 10.8451 8.06967 10.8483 8.10664L10.853 8.15953C10.8562 8.19651 10.8888 8.22386 10.9258 8.22062L10.971 8.21667C10.9542 8.53782 10.9401 8.81887 10.9401 8.85327C10.9401 8.93775 11.514 8.90504 11.514 8.90504C11.514 8.90504 11.4961 8.56624 11.4765 8.17244L11.5149 8.16908C11.5519 8.16585 11.5792 8.13325 11.576 8.09627L11.5714 8.04338C11.5682 8.00641 11.5356 7.97906 11.4986 7.98229L11.4672 7.98504C11.4556 7.7492 11.4443 7.50972 11.4364 7.32305H11.5101C11.5446 7.32305 11.5726 7.29507 11.5726 7.26055C11.5726 7.22603 11.5446 7.19805 11.5101 7.19805H11.4313C11.4277 7.10477 11.4256 7.03466 11.4256 6.99934V6.47235Z" fill="white"/>
<path fill-rule="evenodd" clip-rule="evenodd" d="M11.1492 7.38574H11.3508V7.65456H11.1492V7.38574Z" fill="black"/>
<path fill-rule="evenodd" clip-rule="evenodd" d="M11.0888 8.32324H11.4248V8.94824H11.0888V8.32324Z" fill="black"/>
<path fill-rule="evenodd" clip-rule="evenodd" d="M11.5726 4.51025H8.36696V4.98878L8.34546 4.9907C8.34546 4.9907 6.7749 6.21115 7.21077 8.0394C7.64665 9.86765 9.378 11.2235 9.378 11.2235L9.46529 10.9079C9.46529 10.9079 7.81552 8.66472 7.81552 7.76836C7.81552 6.872 8.12678 6.03068 8.45634 5.89986C8.65457 5.82118 8.68876 5.83715 8.74277 5.86237C8.77856 5.87908 8.82306 5.89986 8.92974 5.89986C9.19742 5.89986 9.46529 5.70825 9.46529 5.70825C9.46529 5.70825 9.65152 5.89986 9.82452 5.89986C9.99751 5.89986 9.99994 5.70825 9.99994 5.70825V5.07275H10.0193V5.70825C10.0193 5.70825 10.0217 5.89986 10.1947 5.89986C10.3677 5.89986 10.554 5.70825 10.554 5.70825C10.554 5.70825 10.8218 5.89986 11.0895 5.89986C11.1962 5.89986 11.2407 5.87908 11.2765 5.86237C11.3305 5.83715 11.3647 5.82118 11.5629 5.89986C11.8925 6.03068 12.2037 6.872 12.2037 7.76836C12.2037 8.66472 10.554 10.9079 10.554 10.9079L10.6412 11.2235C10.6412 11.2235 12.3726 9.86765 12.8085 8.0394C13.2443 6.21115 11.6738 4.9907 11.6738 4.9907L11.5726 4.98165V4.51025Z" fill="#E8AA00"/>
<path d="M8.36696 4.51025V4.19775H8.05446V4.51025H8.36696ZM11.5726 4.51025H11.8851V4.19775H11.5726V4.51025ZM8.36696 4.98878L8.39479 5.30004L8.67946 5.27458V4.98878H8.36696ZM8.34546 4.9907L8.31763 4.67944L8.22619 4.68762L8.15371 4.74394L8.34546 4.9907ZM7.21077 8.0394L7.51475 7.96693L7.21077 8.0394ZM9.378 11.2235L9.18533 11.4695L9.55425 11.7584L9.67919 11.3068L9.378 11.2235ZM9.46529 10.9079L9.76647 10.9913L9.80693 10.845L9.71703 10.7228L9.46529 10.9079ZM8.45634 5.89986L8.57163 6.19032L8.45634 5.89986ZM8.74277 5.86237L8.875 5.57922L8.875 5.57922L8.74277 5.86237ZM9.46529 5.70825L9.68938 5.49045L9.50206 5.29773L9.28348 5.45409L9.46529 5.70825ZM9.99994 5.70825L10.3124 5.71221V5.70825H9.99994ZM9.99994 5.07275V4.76025H9.68744V5.07275H9.99994ZM10.0193 5.07275H10.3318V4.76025H10.0193V5.07275ZM10.0193 5.70825H9.70678L9.70683 5.71221L10.0193 5.70825ZM10.554 5.70825L10.7358 5.45409L10.5172 5.29773L10.3299 5.49045L10.554 5.70825ZM11.2765 5.86237L11.1442 5.57922L11.1442 5.57922L11.2765 5.86237ZM11.5629 5.89986L11.4476 6.19032L11.5629 5.89986ZM10.554 10.9079L10.3022 10.7228L10.2123 10.845L10.2528 10.9913L10.554 10.9079ZM10.6412 11.2235L10.3401 11.3068L10.465 11.7584L10.8339 11.4695L10.6412 11.2235ZM12.8085 8.0394L13.1125 8.11187L12.8085 8.0394ZM11.6738 4.9907L11.8655 4.74394L11.7931 4.68762L11.7016 4.67944L11.6738 4.9907ZM11.5726 4.98165H11.2601V5.26746L11.5448 5.29291L11.5726 4.98165ZM8.36696 4.82275H11.5726V4.19775H8.36696V4.82275ZM8.67946 4.98878V4.51025H8.05446V4.98878H8.67946ZM8.37329 5.30196L8.39479 5.30004L8.33913 4.67752L8.31763 4.67944L8.37329 5.30196ZM7.51475 7.96693C7.32239 7.16008 7.56953 6.48452 7.87863 5.99673C8.03324 5.75273 8.20093 5.56016 8.32982 5.42893C8.39404 5.36354 8.448 5.31402 8.48495 5.28159C8.50341 5.26539 8.51757 5.2535 8.52658 5.24608C8.53108 5.24238 8.53429 5.23979 8.5361 5.23835C8.537 5.23762 8.53755 5.23719 8.53774 5.23704C8.53784 5.23696 8.53784 5.23696 8.53775 5.23703C8.53771 5.23706 8.53764 5.23712 8.53755 5.23719C8.5375 5.23722 8.53742 5.23729 8.5374 5.23731C8.5373 5.23738 8.53721 5.23746 8.34546 4.9907C8.15371 4.74394 8.1536 4.74403 8.15348 4.74412C8.15344 4.74416 8.15331 4.74425 8.15322 4.74432C8.15303 4.74447 8.15282 4.74463 8.15259 4.74482C8.15212 4.74518 8.15155 4.74563 8.1509 4.74615C8.14958 4.74718 8.14789 4.74853 8.14583 4.75017C8.14172 4.75345 8.13617 4.75794 8.12927 4.76362C8.11548 4.77497 8.09633 4.7911 8.07269 4.81184C8.02546 4.85329 7.96012 4.9134 7.88391 4.99099C7.73194 5.14573 7.53424 5.37254 7.3507 5.66219C6.98349 6.24169 6.66328 7.09047 6.90679 8.11187L7.51475 7.96693ZM9.378 11.2235C9.57067 10.9774 9.57073 10.9775 9.57078 10.9775C9.57079 10.9775 9.57083 10.9775 9.57085 10.9776C9.57088 10.9776 9.57089 10.9776 9.57087 10.9776C9.57083 10.9775 9.57069 10.9774 9.57045 10.9772C9.56996 10.9769 9.56907 10.9762 9.56778 10.9751C9.56519 10.9731 9.56103 10.9697 9.55536 10.9651C9.54404 10.9559 9.52675 10.9417 9.50422 10.9227C9.45916 10.8847 9.39324 10.8276 9.31231 10.7531C9.15022 10.6039 8.92907 10.3861 8.69492 10.1134C8.22283 9.56368 7.71628 8.81223 7.51475 7.96693L6.90679 8.11187C7.14114 9.09482 7.71821 9.9354 8.22076 10.5206C8.47394 10.8154 8.71287 11.0508 8.88903 11.213C8.97722 11.2941 9.04997 11.3572 9.10129 11.4005C9.12696 11.4222 9.14729 11.4389 9.16154 11.4504C9.16867 11.4562 9.17427 11.4607 9.17827 11.4639C9.18027 11.4655 9.18186 11.4668 9.18304 11.4677C9.18363 11.4682 9.18412 11.4685 9.1845 11.4688C9.18469 11.469 9.18486 11.4691 9.185 11.4692C9.18507 11.4693 9.18515 11.4694 9.18518 11.4694C9.18526 11.4694 9.18533 11.4695 9.378 11.2235ZM9.1641 10.8246L9.07681 11.1401L9.67919 11.3068L9.76647 10.9913L9.1641 10.8246ZM7.50302 7.76836C7.50302 8.06591 7.63321 8.42803 7.78937 8.76763C7.95133 9.11984 8.16461 9.49606 8.37397 9.8376C8.58398 10.1802 8.79349 10.4935 8.95024 10.7208C9.02871 10.8346 9.09419 10.9272 9.1402 10.9916C9.1632 11.0237 9.18136 11.0489 9.19385 11.0661C9.20009 11.0747 9.20492 11.0813 9.20824 11.0859C9.2099 11.0881 9.21118 11.0899 9.21206 11.0911C9.21251 11.0917 9.21285 11.0922 9.2131 11.0925C9.21322 11.0927 9.21332 11.0928 9.21339 11.0929C9.21343 11.0929 9.21347 11.093 9.21348 11.093C9.21351 11.0931 9.21354 11.0931 9.46529 10.9079C9.71703 10.7228 9.71704 10.7228 9.71705 10.7228C9.71704 10.7228 9.71704 10.7228 9.71703 10.7228C9.717 10.7228 9.71695 10.7227 9.71687 10.7226C9.71672 10.7224 9.71647 10.722 9.71612 10.7216C9.71542 10.7206 9.71433 10.7191 9.71287 10.7171C9.70994 10.7131 9.70551 10.707 9.69967 10.699C9.68799 10.6829 9.6707 10.659 9.6486 10.628C9.60438 10.5662 9.54098 10.4765 9.46478 10.366C9.31219 10.1448 9.10926 9.84122 8.90683 9.51097C8.70375 9.17967 8.50459 8.82701 8.35722 8.50652C8.20404 8.17341 8.12802 7.91898 8.12802 7.76836H7.50302ZM8.34105 5.60941C8.17432 5.67559 8.04923 5.81195 7.95861 5.94545C7.86377 6.08519 7.78309 6.25679 7.71751 6.44344C7.58618 6.81725 7.50302 7.28685 7.50302 7.76836H8.12802C8.12802 7.3535 8.20049 6.95426 8.30718 6.65062C8.36061 6.49855 8.41954 6.37926 8.47575 6.29645C8.53618 6.2074 8.57358 6.18954 8.57163 6.19032L8.34105 5.60941ZM8.875 5.57922C8.83768 5.56179 8.75527 5.52213 8.63271 5.53035C8.54055 5.53654 8.44373 5.56865 8.34105 5.60941L8.57163 6.19032C8.6158 6.17279 8.64481 6.16296 8.66343 6.15761C8.68243 6.15215 8.68395 6.15332 8.67457 6.15395C8.66921 6.15431 8.66099 6.15445 8.65066 6.15346C8.64009 6.15244 8.62983 6.15047 8.6204 6.14788C8.61135 6.1454 8.60512 6.1429 8.6032 6.1421C8.60238 6.14176 8.60266 6.14183 8.61055 6.14552L8.875 5.57922ZM8.92974 5.58736C8.91316 5.58736 8.90209 5.58655 8.89532 5.58579C8.88875 5.58506 8.88598 5.58434 8.88596 5.58434C8.88588 5.58432 8.8861 5.58437 8.8865 5.5845C8.8869 5.58464 8.88712 5.58472 8.88698 5.58467C8.88604 5.5843 8.88454 5.58368 8.875 5.57922L8.61055 6.14552C8.63084 6.15499 8.67368 6.1754 8.73338 6.19043C8.79184 6.20515 8.85588 6.21236 8.92974 6.21236V5.58736ZM9.46529 5.70825C9.28348 5.45409 9.28353 5.45405 9.28359 5.454C9.28361 5.45399 9.28366 5.45395 9.2837 5.45393C9.28377 5.45388 9.28384 5.45383 9.2839 5.45378C9.28402 5.45369 9.28413 5.45362 9.28423 5.45355C9.28442 5.45341 9.28455 5.45332 9.28462 5.45327C9.28476 5.45317 9.28467 5.45324 9.28434 5.45346C9.28369 5.45392 9.28213 5.45499 9.27973 5.45659C9.27491 5.45981 9.2668 5.4651 9.25589 5.47179C9.23385 5.4853 9.20172 5.5037 9.16336 5.522C9.08057 5.56149 8.99599 5.58736 8.92974 5.58736V6.21236C9.13117 6.21236 9.31436 6.14243 9.43243 6.08611C9.49449 6.05651 9.54606 6.02701 9.58261 6.0046C9.601 5.99332 9.6159 5.98364 9.62678 5.97638C9.63222 5.97275 9.63668 5.9697 9.64008 5.96735C9.64178 5.96617 9.64323 5.96516 9.6444 5.96434C9.64498 5.96392 9.6455 5.96356 9.64595 5.96324C9.64618 5.96308 9.64638 5.96293 9.64658 5.96279C9.64667 5.96273 9.64676 5.96266 9.64685 5.9626C9.64689 5.96257 9.64695 5.96252 9.64698 5.96251C9.64704 5.96246 9.6471 5.96242 9.46529 5.70825ZM9.82452 5.58736C9.83713 5.58736 9.83621 5.5903 9.81882 5.58283C9.80259 5.57585 9.78218 5.56417 9.75967 5.54835C9.73779 5.53298 9.71863 5.51703 9.70497 5.50486C9.69831 5.49893 9.6934 5.49429 9.69061 5.4916C9.68922 5.49026 9.68839 5.48944 9.68816 5.48921C9.68805 5.4891 9.68809 5.48914 9.68829 5.48934C9.68839 5.48944 9.68853 5.48958 9.68871 5.48977C9.6888 5.48986 9.6889 5.48996 9.68901 5.49007C9.68907 5.49013 9.68913 5.49019 9.68919 5.49025C9.68922 5.49028 9.68926 5.49033 9.68928 5.49035C9.68933 5.4904 9.68938 5.49045 9.46529 5.70825C9.2412 5.92606 9.24125 5.92611 9.2413 5.92616C9.24131 5.92618 9.24137 5.92624 9.2414 5.92627C9.24147 5.92635 9.24155 5.92642 9.24163 5.9265C9.24178 5.92666 9.24195 5.92684 9.24213 5.92702C9.24249 5.92739 9.2429 5.92781 9.24336 5.92827C9.24427 5.9292 9.24538 5.93031 9.24668 5.9316C9.24926 5.93418 9.2526 5.93747 9.25664 5.94138C9.26471 5.94916 9.2757 5.95949 9.28921 5.97152C9.31587 5.99528 9.35408 6.02723 9.40038 6.05976C9.47994 6.11565 9.63706 6.21236 9.82452 6.21236V5.58736ZM9.99994 5.70825C9.68746 5.7043 9.68746 5.70416 9.68746 5.70403C9.68746 5.70398 9.68747 5.70385 9.68747 5.70376C9.68747 5.70358 9.68747 5.7034 9.68748 5.70323C9.68748 5.70288 9.68749 5.70254 9.68749 5.7022C9.68751 5.70154 9.68752 5.7009 9.68754 5.7003C9.68757 5.6991 9.68761 5.69803 9.68765 5.69706C9.68773 5.69514 9.68783 5.69363 9.68792 5.69245C9.68809 5.6902 9.68828 5.68882 9.68843 5.68788C9.68849 5.68754 9.68921 5.68204 9.69364 5.67251C9.69825 5.66257 9.71133 5.63897 9.7404 5.61771C9.77303 5.59384 9.80608 5.58736 9.82452 5.58736V6.21236C9.92945 6.21236 10.0277 6.18194 10.1094 6.12214C10.1876 6.06495 10.2337 5.99345 10.2606 5.93561C10.2872 5.87817 10.2994 5.82477 10.3053 5.7885C10.3084 5.7696 10.3101 5.75325 10.3111 5.74052C10.3116 5.73411 10.3119 5.72848 10.3121 5.72375C10.3122 5.72138 10.3123 5.71923 10.3123 5.7173C10.3123 5.71634 10.3124 5.71543 10.3124 5.71458C10.3124 5.71416 10.3124 5.71375 10.3124 5.71335C10.3124 5.71315 10.3124 5.71296 10.3124 5.71277C10.3124 5.71267 10.3124 5.71253 10.3124 5.71248C10.3124 5.71234 10.3124 5.71221 9.99994 5.70825ZM9.68744 5.07275V5.70825H10.3124V5.07275H9.68744ZM10.0193 4.76025H9.99994V5.38525H10.0193V4.76025ZM9.70681 5.07275V5.70825H10.3318V5.07275H9.70681ZM10.0193 5.70825C9.70683 5.71221 9.70684 5.71234 9.70684 5.71248C9.70684 5.71253 9.70684 5.71267 9.70684 5.71277C9.70684 5.71296 9.70685 5.71315 9.70685 5.71335C9.70686 5.71375 9.70686 5.71416 9.70687 5.71458C9.70689 5.71543 9.70691 5.71634 9.70694 5.7173C9.70699 5.71923 9.70706 5.72138 9.70716 5.72375C9.70737 5.72848 9.70768 5.73411 9.70818 5.74052C9.70916 5.75325 9.71088 5.7696 9.71397 5.7885C9.71988 5.82477 9.73203 5.87817 9.75868 5.93561C9.78553 5.99345 9.83165 6.06495 9.90983 6.12214C9.99157 6.18194 10.0898 6.21236 10.1947 6.21236V5.58736C10.2132 5.58736 10.2462 5.59384 10.2788 5.61771C10.3079 5.63897 10.321 5.66257 10.3256 5.67251C10.33 5.68204 10.3308 5.68754 10.3308 5.68788C10.331 5.68882 10.3312 5.6902 10.3313 5.69245C10.3314 5.69363 10.3315 5.69514 10.3316 5.69706C10.3316 5.69803 10.3317 5.6991 10.3317 5.7003C10.3317 5.7009 10.3317 5.70154 10.3318 5.7022C10.3318 5.70254 10.3318 5.70288 10.3318 5.70323C10.3318 5.7034 10.3318 5.70358 10.3318 5.70376C10.3318 5.70385 10.3318 5.70398 10.3318 5.70403C10.3318 5.70416 10.3318 5.7043 10.0193 5.70825ZM10.1947 6.21236C10.3822 6.21236 10.5393 6.11565 10.6189 6.05976C10.6652 6.02723 10.7034 5.99528 10.73 5.97152C10.7435 5.95949 10.7545 5.94916 10.7626 5.94138C10.7666 5.93747 10.77 5.93418 10.7726 5.9316C10.7739 5.93031 10.775 5.9292 10.7759 5.92827C10.7763 5.92781 10.7768 5.92739 10.7771 5.92702C10.7773 5.92684 10.7775 5.92666 10.7776 5.9265C10.7777 5.92642 10.7778 5.92635 10.7778 5.92627C10.7779 5.92624 10.7779 5.92618 10.7779 5.92616C10.778 5.92611 10.778 5.92606 10.554 5.70825C10.3299 5.49045 10.3299 5.4904 10.33 5.49035C10.33 5.49033 10.33 5.49028 10.3301 5.49025C10.3301 5.49019 10.3302 5.49013 10.3302 5.49007C10.3303 5.48996 10.3304 5.48986 10.3305 5.48977C10.3307 5.48958 10.3309 5.48944 10.331 5.48934C10.3312 5.48914 10.3312 5.4891 10.3311 5.48921C10.3309 5.48944 10.33 5.49026 10.3286 5.4916C10.3258 5.49429 10.3209 5.49893 10.3143 5.50486C10.3006 5.51703 10.2815 5.53298 10.2596 5.54835C10.2371 5.56417 10.2167 5.57585 10.2004 5.58283C10.183 5.5903 10.1821 5.58736 10.1947 5.58736V6.21236ZM10.554 5.70825C10.3721 5.96242 10.3722 5.96246 10.3723 5.96251C10.3723 5.96252 10.3724 5.96257 10.3724 5.9626C10.3725 5.96266 10.3726 5.96273 10.3727 5.96279C10.3729 5.96293 10.3731 5.96308 10.3733 5.96324C10.3737 5.96356 10.3743 5.96392 10.3748 5.96434C10.376 5.96516 10.3775 5.96617 10.3792 5.96735C10.3826 5.9697 10.387 5.97275 10.3925 5.97638C10.4033 5.98364 10.4182 5.99332 10.4366 6.0046C10.4732 6.02701 10.5248 6.05651 10.5868 6.08611C10.7049 6.14243 10.8881 6.21236 11.0895 6.21236V5.58736C11.0233 5.58736 10.9387 5.56149 10.8559 5.522C10.8175 5.5037 10.7854 5.4853 10.7634 5.47179C10.7524 5.4651 10.7443 5.45981 10.7395 5.45659C10.7371 5.45499 10.7356 5.45392 10.7349 5.45346C10.7346 5.45324 10.7345 5.45317 10.7346 5.45327C10.7347 5.45332 10.7348 5.45341 10.735 5.45355C10.7351 5.45362 10.7352 5.45369 10.7353 5.45378C10.7354 5.45383 10.7355 5.45388 10.7355 5.45393C10.7356 5.45395 10.7356 5.45399 10.7357 5.454C10.7357 5.45405 10.7358 5.45409 10.554 5.70825ZM11.0895 6.21236C11.1634 6.21236 11.2274 6.20515 11.2859 6.19043C11.3456 6.1754 11.3884 6.15499 11.4087 6.14552L11.1442 5.57922C11.1347 5.58368 11.1332 5.5843 11.1323 5.58467C11.1321 5.58472 11.1323 5.58464 11.1327 5.5845C11.1331 5.58437 11.1334 5.58432 11.1333 5.58434C11.1333 5.58434 11.1305 5.58506 11.1239 5.58579C11.1172 5.58655 11.1061 5.58736 11.0895 5.58736V6.21236ZM11.4087 6.14552C11.4166 6.14183 11.4169 6.14176 11.416 6.1421C11.4141 6.1429 11.4079 6.1454 11.3988 6.14788C11.3894 6.15047 11.3792 6.15244 11.3686 6.15346C11.3583 6.15445 11.35 6.15431 11.3447 6.15395C11.3353 6.15332 11.3368 6.15215 11.3558 6.15761C11.3744 6.16296 11.4034 6.17279 11.4476 6.19032L11.6782 5.60941C11.5755 5.56865 11.4787 5.53654 11.3865 5.53035C11.264 5.52213 11.1816 5.56179 11.1442 5.57922L11.4087 6.14552ZM11.4476 6.19032C11.4457 6.18954 11.4831 6.2074 11.5435 6.29645C11.5997 6.37926 11.6586 6.49855 11.7121 6.65062C11.8188 6.95426 11.8912 7.3535 11.8912 7.76836H12.5162C12.5162 7.28685 12.4331 6.81725 12.3017 6.44344C12.2362 6.25679 12.1555 6.08519 12.0606 5.94545C11.97 5.81195 11.8449 5.67559 11.6782 5.60941L11.4476 6.19032ZM11.8912 7.76836C11.8912 7.91898 11.8152 8.17341 11.662 8.50652C11.5147 8.82701 11.3155 9.17967 11.1124 9.51097C10.91 9.84122 10.7071 10.1448 10.5545 10.366C10.4783 10.4765 10.4149 10.5662 10.3706 10.628C10.3485 10.659 10.3313 10.6829 10.3196 10.699C10.3137 10.707 10.3093 10.7131 10.3064 10.7171C10.3049 10.7191 10.3038 10.7206 10.3031 10.7216C10.3028 10.722 10.3025 10.7224 10.3024 10.7226C10.3023 10.7227 10.3022 10.7228 10.3022 10.7228C10.3022 10.7228 10.3022 10.7228 10.3022 10.7228C10.3022 10.7228 10.3022 10.7228 10.554 10.9079C10.8057 11.0931 10.8057 11.0931 10.8058 11.093C10.8058 11.093 10.8058 11.0929 10.8059 11.0929C10.8059 11.0928 10.806 11.0927 10.8061 11.0925C10.8064 11.0922 10.8067 11.0917 10.8072 11.0911C10.8081 11.0899 10.8093 11.0881 10.811 11.0859C10.8143 11.0813 10.8192 11.0747 10.8254 11.0661C10.8379 11.0489 10.856 11.0237 10.879 10.9916C10.9251 10.9272 10.9905 10.8346 11.069 10.7208C11.2257 10.4935 11.4353 10.1802 11.6453 9.8376C11.8546 9.49606 12.0679 9.11984 12.2299 8.76763C12.386 8.42803 12.5162 8.06591 12.5162 7.76836H11.8912ZM10.2528 10.9913L10.3401 11.3068L10.9424 11.1401L10.8551 10.8246L10.2528 10.9913ZM10.6412 11.2235C10.8339 11.4695 10.834 11.4694 10.8341 11.4694C10.8341 11.4694 10.8342 11.4693 10.8342 11.4692C10.8344 11.4691 10.8346 11.469 10.8347 11.4688C10.8351 11.4685 10.8356 11.4682 10.8362 11.4677C10.8374 11.4668 10.839 11.4655 10.841 11.4639C10.845 11.4607 10.8506 11.4562 10.8577 11.4504C10.872 11.4389 10.8923 11.4222 10.918 11.4005C10.9693 11.3572 11.042 11.2941 11.1302 11.213C11.3064 11.0508 11.5453 10.8154 11.7985 10.5206C12.301 9.9354 12.8781 9.09482 13.1125 8.11187L12.5045 7.96693C12.303 8.81223 11.7964 9.56368 11.3243 10.1134C11.0902 10.3861 10.869 10.6039 10.7069 10.7531C10.626 10.8276 10.5601 10.8847 10.515 10.9227C10.4925 10.9417 10.4752 10.9559 10.4639 10.9651C10.4582 10.9697 10.4541 10.9731 10.4515 10.9751C10.4502 10.9762 10.4493 10.9769 10.4488 10.9772C10.4486 10.9774 10.4484 10.9775 10.4484 10.9776C10.4484 10.9776 10.4484 10.9776 10.4484 10.9776C10.4484 10.9775 10.4485 10.9775 10.4485 10.9775C10.4485 10.9775 10.4486 10.9774 10.6412 11.2235ZM13.1125 8.11187C13.356 7.09047 13.0358 6.24169 12.6685 5.66219C12.485 5.37254 12.2873 5.14573 12.1353 4.99099C12.0591 4.9134 11.9938 4.85329 11.9466 4.81184C11.9229 4.7911 11.9038 4.77497 11.89 4.76362C11.8831 4.75794 11.8775 4.75345 11.8734 4.75017C11.8714 4.74853 11.8697 4.74718 11.8683 4.74615C11.8677 4.74563 11.8671 4.74518 11.8667 4.74482C11.8664 4.74463 11.8662 4.74447 11.866 4.74432C11.8659 4.74425 11.8658 4.74416 11.8658 4.74412C11.8656 4.74403 11.8655 4.74394 11.6738 4.9907C11.482 5.23746 11.4819 5.23738 11.4818 5.23731C11.4818 5.23729 11.4817 5.23722 11.4817 5.23719C11.4816 5.23712 11.4815 5.23706 11.4815 5.23703C11.4814 5.23696 11.4814 5.23696 11.4815 5.23704C11.4817 5.23719 11.4822 5.23762 11.4831 5.23835C11.485 5.23979 11.4882 5.24238 11.4927 5.24608C11.5017 5.2535 11.5158 5.26539 11.5343 5.28159C11.5712 5.31402 11.6252 5.36354 11.6894 5.42893C11.8183 5.56016 11.986 5.75273 12.1406 5.99673C12.4497 6.48452 12.6969 7.16008 12.5045 7.96693L13.1125 8.11187ZM11.7016 4.67944L11.6004 4.67039L11.5448 5.29291L11.646 5.30196L11.7016 4.67944ZM11.2601 4.51025V4.98165H11.8851V4.51025H11.2601Z" fill="#FFD018"/>
<path fill-rule="evenodd" clip-rule="evenodd" d="M8.1897 9.1258C8.1897 9.1258 8.38625 8.59804 8.72996 8.77396C9.07368 8.94988 9.04366 9.56231 9.35638 9.34406C9.6691 9.1258 9.49181 8.77396 9.95522 8.77396C10.4186 8.77396 10.3504 9.34406 10.6283 9.34406C10.9062 9.34406 10.9302 8.77396 11.2409 8.77396C11.5516 8.77396 11.8666 9.1258 11.8666 9.1258L10.0282 11.6274L8.1897 9.1258Z" fill="#8FC753"/>
<path fill-rule="evenodd" clip-rule="evenodd" d="M4.95555 12.0462L4.75782 11.7798C4.75782 11.7798 5.57785 11.7798 5.68911 11.9726C5.72046 12.0269 5.73414 12.0684 5.74456 12.1C5.77109 12.1805 5.77641 12.1967 5.99885 12.1967C6.30859 12.1967 5.99885 11.8894 5.86988 11.7798C5.7409 11.6701 5.81944 11.4791 5.99885 11.4791C6.06799 11.4791 6.18833 11.4632 6.33627 11.4438C6.57219 11.4127 6.87827 11.3724 7.15871 11.3724C7.615 11.3724 7.23673 11.7798 7.23673 11.7798C7.23673 11.7798 7.8275 11.7798 7.68085 11.6102C7.53421 11.4406 8.17329 11.2344 8.44942 11.2344C8.70681 11.2344 9.8654 11.2921 10.0215 11.3C10.1848 11.2921 11.3959 11.2344 11.6533 11.2344C11.9294 11.2344 12.5685 11.4406 12.4218 11.6102C12.2752 11.7798 12.866 11.7798 12.866 11.7798C12.866 11.7798 12.4877 11.3724 12.944 11.3724C13.2244 11.3724 13.5305 11.4127 13.7664 11.4438C13.9144 11.4632 14.0347 11.4791 14.1039 11.4791C14.2833 11.4791 14.3618 11.6701 14.2328 11.7798C14.1039 11.8894 13.7941 12.1967 14.1039 12.1967C14.3263 12.1967 14.3316 12.1805 14.3581 12.1C14.3686 12.0684 14.3822 12.0269 14.4136 11.9726C14.521 11.7864 15.2888 11.78 15.342 11.7798C15.3296 11.7571 15.3226 11.731 15.3226 11.7031C15.3226 11.6168 15.3903 11.5469 15.4738 11.5469C15.5573 11.5469 15.625 11.6168 15.625 11.7031C15.625 11.7894 15.5573 11.8594 15.4738 11.8594C15.4181 11.8594 15.3695 11.8283 15.3432 11.782L15.1472 12.0462L15.3513 12.299C15.3788 12.2598 15.4234 12.2344 15.4738 12.2344C15.5573 12.2344 15.625 12.3043 15.625 12.3906C15.625 12.4769 15.5573 12.5469 15.4738 12.5469C15.3903 12.5469 15.3226 12.4769 15.3226 12.3906C15.3226 12.3728 15.3255 12.3557 15.3308 12.3397C15.2152 12.2836 15.0154 12.1967 14.8857 12.1967H14.5248C14.6156 12.1967 15.1154 12.5264 14.964 12.6693L14.9384 12.6936C14.7899 12.8347 14.5963 13.0188 14.4136 12.9184C14.2202 12.8122 14.1039 12.6693 14.1039 12.6693L13.9523 12.1967C13.9523 12.1967 13.0591 11.9661 13.0591 12.1257C13.0591 12.2853 13.0566 12.3635 12.7398 12.3635C12.5625 12.3635 12.3913 12.3334 12.2405 12.3069C12.1218 12.286 12.0158 12.2674 11.9294 12.2674C11.8059 12.2674 11.615 12.3055 11.4738 12.3337C11.3909 12.3503 11.325 12.3635 11.3 12.3635C11.2324 12.3635 10.8707 12.3471 11.1186 12.1967C11.3665 12.0462 11.4236 11.8894 11.4236 11.8894C11.4236 11.8894 10.4316 12.0367 10.0389 12.0458V12.0462L10.0211 12.0461L10.0033 12.0462V12.0458C9.61402 12.0366 8.67912 11.8894 8.67912 11.8894C8.67912 11.8894 8.73623 12.0462 8.98412 12.1967C9.232 12.3471 8.87033 12.3635 8.80269 12.3635C8.77766 12.3635 8.71184 12.3503 8.6289 12.3337C8.48767 12.3055 8.29683 12.2674 8.17329 12.2674C8.08694 12.2674 7.98092 12.286 7.86224 12.3069C7.71141 12.3334 7.54015 12.3635 7.36289 12.3635C7.04614 12.3635 7.0436 12.2853 7.0436 12.1257C7.0436 11.9661 6.15038 12.1967 6.15038 12.1967L5.99885 12.6693C5.99885 12.6693 5.88252 12.8122 5.68911 12.9184C5.50641 13.0188 5.31276 12.8347 5.16429 12.6936L5.13866 12.6693C4.9873 12.5264 5.48709 12.1967 5.57785 12.1967H5.21698C5.02549 12.1967 4.68083 12.3863 4.68083 12.3863L4.95555 12.0462ZM4.52621 11.8594C4.60972 11.8594 4.67742 11.7894 4.67742 11.7031C4.67742 11.6168 4.60972 11.5469 4.52621 11.5469C4.4427 11.5469 4.375 11.6168 4.375 11.7031C4.375 11.7894 4.4427 11.8594 4.52621 11.8594ZM4.52621 12.5469C4.60972 12.5469 4.67742 12.4769 4.67742 12.3906C4.67742 12.3043 4.60972 12.2344 4.52621 12.2344C4.4427 12.2344 4.375 12.3043 4.375 12.3906C4.375 12.4769 4.4427 12.5469 4.52621 12.5469Z" fill="white"/>
<path fill-rule="evenodd" clip-rule="evenodd" d="M9.93411 1.77881H10.0591V1.91279H10.2126V2.03779H10.0591V2.26531C10.2315 2.29443 10.363 2.44904 10.363 2.63538C10.363 2.84249 10.2005 3.01038 10.0001 3.01038C9.79968 3.01038 9.63721 2.84249 9.63721 2.63538C9.63721 2.45157 9.7652 2.29864 9.93411 2.26657V2.03779H9.79301V1.91279H9.93411V1.77881Z" fill="#FFD018"/>
<path fill-rule="evenodd" clip-rule="evenodd" d="M8.59173 3.77675C8.41676 3.77675 8.04779 3.96386 8.04779 3.96386L8.33468 4.60008L10.0651 4.53515L11.7955 4.60008L12.0824 3.96386C12.0824 3.96386 11.7134 3.77675 11.5385 3.77675C11.4616 3.77675 11.4519 3.73154 11.4409 3.68082C11.427 3.61605 11.411 3.54229 11.2509 3.54229C11.1377 3.54229 11.0576 3.56109 10.9928 3.5763C10.8943 3.59943 10.831 3.61429 10.7398 3.54229C10.736 3.53929 10.7322 3.53628 10.7284 3.53327C10.5807 3.41659 10.4272 3.29541 10.1791 3.29541C10.1296 3.29541 10.0926 3.34223 10.0651 3.41764C10.0376 3.34223 10.0006 3.29541 9.95111 3.29541C9.70293 3.29541 9.54952 3.41659 9.40181 3.53327C9.398 3.53628 9.39419 3.53929 9.39038 3.54229C9.29913 3.61429 9.23586 3.59943 9.13736 3.5763C9.07256 3.56109 8.99252 3.54229 8.87925 3.54229C8.71914 3.54229 8.70323 3.61605 8.68926 3.68082C8.67832 3.73154 8.66856 3.77675 8.59173 3.77675Z" fill="#E31D1C"/>
<path fill-rule="evenodd" clip-rule="evenodd" d="M9.75503 2.74072L9.63357 2.78286C9.3126 2.89421 9.03464 2.93094 8.79986 2.89475C8.31646 2.82026 7.68572 3.07177 7.76475 3.4401C7.79939 3.60151 7.90048 3.90636 8.00562 4.16474C8.1515 4.52325 8.2536 4.7041 8.37303 4.7041C8.38849 4.7041 8.55067 4.71295 8.6047 4.7159C8.61442 4.71643 8.62065 4.71677 8.62188 4.71683C8.79754 4.72573 8.95237 4.73043 9.10131 4.72973C9.532 4.72772 9.79897 4.68544 9.89431 4.55622L9.92236 4.51819L9.90905 4.4724C9.79595 4.08348 9.74359 3.54993 9.75316 2.8731L9.75503 2.74072ZM7.94179 3.39952C7.90303 3.21892 8.3964 3.02218 8.77297 3.08022C9.00756 3.11637 9.27338 3.08916 9.57052 2.99976C9.56895 3.60136 9.61801 4.09004 9.71853 4.46672C9.63241 4.51178 9.40611 4.54083 9.10038 4.54225C8.95519 4.54293 8.80334 4.53832 8.63065 4.52958C8.63218 4.52965 8.45274 4.51971 8.3913 4.51719C8.38926 4.51511 8.38686 4.51251 8.38418 4.50939C8.36797 4.49051 8.34773 4.46 8.32492 4.41959C8.27994 4.33994 8.22743 4.22641 8.17277 4.09208C8.0715 3.84321 7.97372 3.54834 7.94179 3.39952Z" fill="#FFD018"/>
<path fill-rule="evenodd" clip-rule="evenodd" d="M10.2842 2.74072L10.4057 2.78286C10.7266 2.89421 11.0046 2.93094 11.2394 2.89475C11.7228 2.82026 12.3535 3.07177 12.2745 3.4401C12.2399 3.60151 12.1388 3.90636 12.0336 4.16474C11.8877 4.52325 11.7856 4.7041 11.6662 4.7041C11.6508 4.7041 11.4886 4.71295 11.4345 4.7159C11.4248 4.71643 11.4186 4.71677 11.4174 4.71683C11.2417 4.72573 11.0869 4.73043 10.9379 4.72973C10.5072 4.72772 10.2403 4.68544 10.1449 4.55622L10.1169 4.51819L10.1302 4.4724C10.2433 4.08348 10.2957 3.54993 10.2861 2.8731L10.2842 2.74072ZM12.0975 3.39952C12.1362 3.21892 11.6428 3.02218 11.2663 3.08022C11.0317 3.11637 10.7659 3.08916 10.4687 2.99976C10.4703 3.60136 10.4212 4.09004 10.3207 4.46672C10.4068 4.51178 10.6331 4.54083 10.9389 4.54225C11.0841 4.54293 11.2359 4.53832 11.4086 4.52958C11.4071 4.52965 11.5865 4.51971 11.6479 4.51719C11.65 4.51511 11.6524 4.51251 11.6551 4.50939C11.6713 4.49051 11.6915 4.46 11.7143 4.41959C11.7593 4.33994 11.8118 4.22641 11.8665 4.09208C11.9677 3.84321 12.0655 3.54834 12.0975 3.39952Z" fill="#FFD018"/>
<path fill-rule="evenodd" clip-rule="evenodd" d="M11.9471 4.55472C11.9469 4.52004 11.9669 4.45739 12.0105 4.34106C12.0707 4.18078 12.1119 4.13221 12.1994 4.07878C12.2436 4.05173 12.2609 4.02829 12.2818 3.94759C12.2985 3.88303 12.3154 3.83266 12.3348 3.78623C12.3387 3.7768 12.3472 3.75805 12.3553 3.73999L12.3553 3.73998L12.3553 3.7399C12.3636 3.72132 12.3717 3.70349 12.3741 3.69726C12.3876 3.6633 12.3932 3.63309 12.3932 3.58412C12.3932 3.5283 12.3786 3.48358 12.3401 3.40226C12.3171 3.3537 12.3141 3.34725 12.3059 3.32676C12.2893 3.28521 12.2808 3.24928 12.2808 3.21259V2.97188C12.2808 2.83132 12.2752 2.82276 12.2062 2.83208C12.1993 2.83301 12.1926 2.83408 12.1855 2.83535C12.1881 2.83489 12.1524 2.84185 12.1439 2.84285C12.1275 2.8448 12.114 2.84348 12.1003 2.83733C12.0756 2.82615 12.0574 2.80423 12.0139 2.73909C11.9934 2.70842 11.9713 2.71142 11.8929 2.7496C11.8818 2.75503 11.8752 2.75817 11.868 2.76146C11.7879 2.79828 11.7322 2.79934 11.6849 2.74152C11.6121 2.65265 11.5641 2.65832 11.4759 2.74409C11.4323 2.78646 11.4103 2.80249 11.3824 2.80659L11.3801 2.80693C11.3507 2.81128 11.3489 2.81155 11.2661 2.76082C11.2605 2.77256 11.2482 2.77709 11.2283 2.78173C11.2018 2.78791 11.1624 2.79001 11.136 2.78588C11.114 2.78244 11.0984 2.77566 11.0881 2.7542C11.0531 2.75315 11.0117 2.75258 10.9639 2.75258V2.69008C11.0252 2.69008 11.0762 2.69099 11.1175 2.69272L11.129 2.68266C11.1517 2.66268 11.187 2.63165 11.2037 2.63658C11.2059 2.63724 11.2125 2.64309 11.2216 2.65115L11.2216 2.65116L11.2216 2.65116C11.2355 2.6635 11.2552 2.681 11.2741 2.693L11.2764 2.69446C11.3586 2.74487 11.3617 2.7465 11.3739 2.74471C11.3847 2.74312 11.4002 2.73182 11.4344 2.69857C11.5452 2.5909 11.6324 2.58061 11.7311 2.70115C11.7561 2.73172 11.7851 2.73116 11.8435 2.70435C11.8501 2.7013 11.8564 2.69831 11.8671 2.69307C11.9717 2.6421 12.0183 2.63576 12.0636 2.70357C12.0995 2.75732 12.1147 2.77562 12.1245 2.78005L12.1267 2.78117C12.1288 2.78217 12.1317 2.78165 12.1588 2.77674L12.1751 2.77378C12.183 2.77237 12.1905 2.77116 12.1983 2.77011C12.3126 2.75467 12.3412 2.79874 12.3412 2.97188V3.21259C12.3412 3.23996 12.348 3.2683 12.3618 3.30292C12.3693 3.3216 12.3721 3.32778 12.3944 3.37477C12.4367 3.46414 12.4537 3.51605 12.4537 3.58412C12.4537 3.64111 12.4466 3.67938 12.4301 3.72101C12.4271 3.72863 12.418 3.74889 12.409 3.76876L12.409 3.76879C12.4013 3.78597 12.3937 3.80285 12.3903 3.81099C12.3721 3.85463 12.3561 3.90211 12.3402 3.96371C12.3153 4.06029 12.288 4.09723 12.2301 4.13258C12.1541 4.17904 12.1221 4.21679 12.0669 4.36367C12.0383 4.43997 12.0205 4.4935 12.012 4.52699C12.0102 4.53391 12.0089 4.53971 12.0081 4.54438C12.0168 4.55141 12.0158 4.55637 12.0129 4.57022L12.0129 4.57023C12.0108 4.57498 12.0102 4.57644 12.0093 4.57776L12.008 4.57971C12.0045 4.58394 12.0045 4.58394 12.0003 4.58741C11.9986 4.58872 11.9967 4.58989 11.9948 4.5909C11.996 4.59073 11.9969 4.59037 11.998 4.5896C11.9943 4.59385 11.9895 4.59992 11.9834 4.60787C11.9241 4.68531 11.8496 4.68531 11.7783 4.6104L11.8214 4.56657C11.8682 4.61575 11.9003 4.61575 11.9359 4.5691L11.9471 4.55472ZM8.02294 4.55472C8.02314 4.52004 8.00314 4.45739 7.95945 4.34106C7.89927 4.18078 7.85812 4.13221 7.77065 4.07878C7.72637 4.05173 7.70907 4.02829 7.68822 3.94759C7.67153 3.88303 7.65459 3.83266 7.6352 3.78623C7.63125 3.77678 7.62282 3.75799 7.61469 3.7399L7.61469 3.73989L7.61469 3.73988L7.61468 3.73988L7.61468 3.73987C7.60634 3.72131 7.59834 3.70348 7.59587 3.69726C7.58237 3.6633 7.57678 3.63309 7.57678 3.58412C7.57678 3.5283 7.59139 3.48358 7.62993 3.40226C7.65294 3.3537 7.65592 3.34725 7.6641 3.32676C7.6807 3.28521 7.68924 3.24928 7.68924 3.21259V2.97188C7.68924 2.83132 7.6948 2.82276 7.76381 2.83208C7.77073 2.83301 7.77743 2.83408 7.78447 2.83535C7.78189 2.83489 7.81764 2.84185 7.82611 2.84285C7.84253 2.8448 7.85603 2.84348 7.86966 2.83733C7.89444 2.82615 7.91261 2.80423 7.95614 2.73909C7.97665 2.70842 7.99872 2.71142 8.07709 2.7496C8.08823 2.75503 8.0948 2.75817 8.10197 2.76146C8.18214 2.79828 8.23778 2.79934 8.28513 2.74152C8.35787 2.65265 8.40593 2.65832 8.49414 2.74409C8.53771 2.78646 8.55971 2.80249 8.58759 2.80659L8.58992 2.80693C8.61929 2.81128 8.62108 2.81155 8.70387 2.76082C8.70952 2.77256 8.72179 2.77709 8.74165 2.78173C8.76817 2.78791 8.8076 2.79001 8.83402 2.78588C8.85601 2.78244 8.8716 2.77566 8.88191 2.7542C8.91689 2.75315 8.95828 2.75258 9.00612 2.75258V2.69008C8.94483 2.69008 8.89377 2.69099 8.85254 2.69272L8.84096 2.68266C8.81827 2.66268 8.78304 2.63165 8.76634 2.63658C8.76411 2.63724 8.75751 2.64309 8.74841 2.65116L8.74841 2.65116L8.74841 2.65116L8.74841 2.65116L8.74841 2.65116C8.73392 2.66401 8.7131 2.68247 8.69356 2.69446C8.61143 2.74487 8.60828 2.7465 8.59611 2.74471C8.58528 2.74312 8.56979 2.73182 8.53559 2.69857C8.42485 2.5909 8.33763 2.58061 8.23895 2.70115C8.21393 2.73172 8.18492 2.73116 8.12653 2.70435C8.11988 2.7013 8.11363 2.69831 8.10288 2.69307C7.99827 2.6421 7.9517 2.63576 7.90637 2.70357C7.87045 2.75732 7.85529 2.77562 7.84546 2.78005L7.84332 2.78117C7.84117 2.78217 7.83832 2.78165 7.81124 2.77674L7.79485 2.77378C7.78701 2.77237 7.77947 2.77116 7.77165 2.77011C7.65738 2.75467 7.62875 2.79874 7.62875 2.97188V3.21259C7.62875 3.23996 7.62202 3.2683 7.60819 3.30292C7.60073 3.3216 7.59788 3.32778 7.57561 3.37477C7.53325 3.46414 7.5163 3.51605 7.5163 3.58412C7.5163 3.64111 7.52338 3.67938 7.53992 3.72101C7.54295 3.72863 7.55204 3.74889 7.56096 3.76875L7.56096 3.76875C7.56868 3.78595 7.57627 3.80285 7.57967 3.81099C7.59789 3.85463 7.61386 3.90211 7.62978 3.96371C7.65473 4.06029 7.682 4.09723 7.73987 4.13258C7.81594 4.17904 7.84791 4.21679 7.90306 4.36367C7.93172 4.43997 7.94949 4.4935 7.958 4.52699C7.95976 4.53391 7.96105 4.53971 7.96192 4.54438C7.95316 4.55141 7.9542 4.55637 7.9571 4.57022C7.95917 4.57498 7.95981 4.57644 7.96065 4.57776L7.96204 4.57971L7.96204 4.57971C7.96552 4.58394 7.96552 4.58394 7.96971 4.58741C7.97143 4.58872 7.97325 4.58989 7.97515 4.5909C7.97404 4.59073 7.97312 4.59037 7.97202 4.5896C7.97566 4.59385 7.98052 4.59992 7.98661 4.60787C8.04587 4.68531 8.12039 4.68531 8.19173 4.6104L8.14862 4.56657C8.10179 4.61575 8.06974 4.61575 8.03405 4.5691L8.02294 4.55472ZM8.74936 2.71933L8.74819 2.71877L8.74868 2.71898L8.74936 2.71933Z" fill="#5E5E5E"/>
<path d="M8.60876 11.6886L8.64673 11.3784C9.31834 11.4606 9.76677 11.5017 9.99272 11.5019C10.3335 11.5172 10.7396 11.4925 11.2105 11.4275L11.2532 11.737C10.7648 11.8045 10.3401 11.8303 9.9857 11.8142C9.74983 11.8142 9.29297 11.7724 8.60876 11.6886Z" fill="#272727"/>
</g>
</g>
</svg>
