<svg width="20" height="16" viewBox="0 0 20 16" fill="none" xmlns="http://www.w3.org/2000/svg">
<mask id="mask0_2362_47074" style="mask-type:luminance" maskUnits="userSpaceOnUse" x="0" y="0" width="20" height="16">
<rect y="0.509766" width="20" height="15" fill="white"/>
</mask>
<g mask="url(#mask0_2362_47074)">
<path fill-rule="evenodd" clip-rule="evenodd" d="M0 0.509766V15.5098H20V0.509766H0Z" fill="#2E42A5"/>
<mask id="mask1_2362_47074" style="mask-type:luminance" maskUnits="userSpaceOnUse" x="0" y="0" width="20" height="16">
<path fill-rule="evenodd" clip-rule="evenodd" d="M0 0.509766V15.5098H20V0.509766H0Z" fill="white"/>
</mask>
<g mask="url(#mask1_2362_47074)">
<path fill-rule="evenodd" clip-rule="evenodd" d="M0 0.509766V5.50977H20V0.509766H0Z" fill="#F7FCFF"/>
<path fill-rule="evenodd" clip-rule="evenodd" d="M0 10.5098V15.5098H20V10.5098H0Z" fill="#C51918"/>
<path fill-rule="evenodd" clip-rule="evenodd" d="M8.58762 3.65734C8.58762 3.65734 7.27216 3.03613 5.63603 3.03613C3.99991 3.03613 2.68445 3.65734 2.68445 3.65734C2.68445 3.65734 2.83084 6.15404 3.06222 7.47667C3.16101 8.04139 3.63584 8.86504 4.06572 9.25488C4.5557 9.69923 5.63603 10.2257 5.63603 10.2257C5.94866 10.0102 6.5332 9.91336 7.28035 9.25488C8.0275 8.5964 8.2132 7.47667 8.2132 7.47667L8.58762 3.65734Z" fill="#2E42A5"/>
<path d="M8.41374 3.57617L8.96157 3.84975L8.5855 7.61389C8.45378 8.41055 8.12421 9.0388 7.59716 9.5033C7.31125 9.75527 7.03217 9.94354 6.73296 10.1C6.56407 10.1883 5.8576 10.5522 5.86376 10.5492C5.79298 10.5833 5.7393 10.6132 5.6957 10.6433L5.62737 10.6903L5.5536 10.6544C4.82187 10.2978 4.13918 9.81801 3.79992 9.51034C3.33681 9.09036 2.84851 8.23095 2.7444 7.63586C2.58875 6.74607 2.44916 5.52051 2.3512 3.84975L2.84332 3.59229C2.94055 5.25046 3.05791 6.57228 3.21076 7.446C3.30119 7.96293 3.75147 8.75543 4.16224 9.12794C4.46582 9.40325 4.95491 9.70853 5.62737 10.0405C5.66748 10.017 5.71194 9.99376 5.76279 9.96925C5.76422 9.96856 6.22167 9.76541 6.38065 9.68229C6.65949 9.53651 6.91867 9.36166 7.18552 9.12648C7.65338 8.71414 7.94539 8.15884 8.06348 7.45342L8.41374 3.57617Z" fill="#C51918"/>
<path fill-rule="evenodd" clip-rule="evenodd" d="M3.46381 7.39967C3.46381 7.39967 3.58304 7.76446 3.80348 8.17414C4.1272 8.25951 4.32528 8.25502 4.38789 8.18494C4.569 7.98223 5.2134 7.8956 5.33364 8.06877C5.40782 8.17561 5.66856 8.24947 5.95366 8.15175L5.92187 8.15738C5.97139 8.13937 6.08738 8.09339 6.15888 8.06506L6.2171 8.0421C6.32443 8.0016 6.4033 7.98034 6.48364 7.97437C6.58435 7.96688 6.68093 7.98563 6.78326 8.03436C7.0082 8.14146 7.28575 8.19138 7.47476 8.15894C7.70579 7.75655 7.87054 7.39967 7.87054 7.39967L6.77348 6.3468L6.33744 6.81997L5.61296 5.78711L5.00642 6.81997L4.54133 6.3468L3.46381 7.39967ZM4.09803 8.64361C4.04739 8.57533 3.99953 8.50478 3.95454 8.43358C4.23533 8.48478 4.42599 8.45786 4.53206 8.33914C4.58216 8.28306 4.73081 8.22868 4.89994 8.20595C4.97879 8.19535 5.05444 8.19271 5.11244 8.19825C5.13905 8.20079 5.1605 8.20494 5.17494 8.20993C5.17962 8.21155 5.17947 8.21134 5.17462 8.20439L5.17374 8.20314C5.30307 8.38804 5.65417 8.48715 5.98544 8.36671L5.95366 8.37234C6.04326 8.34479 6.20464 8.28133 6.26264 8.25853L6.28283 8.25063C6.3748 8.21593 6.43819 8.19885 6.49731 8.19445C6.56549 8.18938 6.62983 8.20187 6.70281 8.23662C6.902 8.33147 7.13355 8.3879 7.33764 8.38936C7.29413 8.45973 7.24921 8.5297 7.20338 8.59769C7.04473 8.63452 6.79929 8.5861 6.6013 8.47798C6.50875 8.42745 6.42038 8.40777 6.32823 8.41563C6.25537 8.42184 6.18471 8.44368 6.08926 8.48498C6.08369 8.48739 6.0641 8.4963 6.03771 8.50829C5.97528 8.53667 5.87483 8.58233 5.83207 8.60015L5.86797 8.59292C5.62019 8.6885 5.4033 8.61804 5.34138 8.51576C5.23088 8.33324 4.65174 8.42252 4.48881 8.63167C4.44537 8.68743 4.31428 8.69761 4.09803 8.64361ZM4.31366 8.8992C4.32586 8.91174 4.33819 8.92409 4.35063 8.93622C4.91513 9.48664 5.61296 9.75643 5.61296 9.75643C5.61296 9.75643 6.44413 9.50492 6.91587 8.97539C6.95612 8.9302 6.99645 8.88126 7.03656 8.82952C6.86453 8.82101 6.67543 8.765 6.51127 8.67535C6.45094 8.64241 6.39901 8.63085 6.34389 8.63555C6.29514 8.6397 6.24176 8.6562 6.16341 8.69011C6.1613 8.69102 6.15618 8.69333 6.14865 8.69672C6.10068 8.71832 5.95498 8.78392 5.86797 8.81351L5.90387 8.80628C5.61186 8.92803 5.30182 8.83191 5.1809 8.64956C5.17018 8.64535 5.15337 8.64162 5.13206 8.63929C5.08354 8.63398 5.01948 8.63654 4.95251 8.64687C4.80901 8.66899 4.68369 8.72157 4.64225 8.77477C4.57257 8.8642 4.46331 8.9037 4.31366 8.8992Z" fill="white"/>
<path fill-rule="evenodd" clip-rule="evenodd" d="M4.46673 4.18833H4.02728L4.36812 3.86903L4.02728 3.53162H4.46673L4.65228 3.2041L4.83858 3.53162H5.27728L4.95349 3.84876L5.241 4.18833H4.83858L4.65228 4.53395L4.46673 4.18833Z" fill="#FECA00"/>
<path fill-rule="evenodd" clip-rule="evenodd" d="M6.53784 4.18833H6.09839L6.43923 3.86903L6.09839 3.53162H6.53784L6.72339 3.2041L6.90969 3.53162H7.34839L7.02459 3.84876L7.3121 4.18833H6.90969L6.72339 4.53395L6.53784 4.18833Z" fill="#FECA00"/>
<path fill-rule="evenodd" clip-rule="evenodd" d="M5.37494 5.23911H4.93549L5.27632 4.91981L4.93549 4.5824H5.37494L5.56049 4.25488L5.74678 4.5824H6.18549L5.86169 4.89954L6.1492 5.23911H5.74678L5.56049 5.58473L5.37494 5.23911Z" fill="#FECA00"/>
</g>
</g>
</svg>
