<svg width="20" height="16" viewBox="0 0 20 16" fill="none" xmlns="http://www.w3.org/2000/svg">
<mask id="mask0_924_24076" style="mask-type:luminance" maskUnits="userSpaceOnUse" x="0" y="0" width="20" height="16">
<rect y="0.510254" width="20" height="15" fill="white"/>
</mask>
<g mask="url(#mask0_924_24076)">
<path fill-rule="evenodd" clip-rule="evenodd" d="M0 0.510254V15.5103H20V0.510254H0Z" fill="#3D58DB"/>
<mask id="mask1_924_24076" style="mask-type:luminance" maskUnits="userSpaceOnUse" x="0" y="0" width="20" height="16">
<path fill-rule="evenodd" clip-rule="evenodd" d="M0 0.510254V15.5103H20V0.510254H0Z" fill="white"/>
</mask>
<g mask="url(#mask1_924_24076)">
<path fill-rule="evenodd" clip-rule="evenodd" d="M0 0.510254V5.51025H20V0.510254H0Z" fill="#F7FCFF"/>
<path fill-rule="evenodd" clip-rule="evenodd" d="M0 10.5103V15.5103H20V10.5103H0Z" fill="#E31D1C"/>
<path d="M9.75255 4.2793L10.0633 4.24623L10.0336 3.9668H9.75255H3.96562H3.67349L3.65383 4.25827L3.96562 4.2793L3.65383 4.25833L3.65382 4.25846L3.65379 4.25896L3.65366 4.26088L3.65316 4.26833L3.65125 4.29724L3.64417 4.40736C3.63813 4.5026 3.62967 4.63963 3.61993 4.8071C3.60045 5.14195 3.57583 5.59896 3.55532 6.08719C3.51489 7.04944 3.48809 8.17592 3.5581 8.70201C3.6947 9.72855 4.31979 12.033 6.73749 13.0774L6.86359 13.1318L6.98897 13.0758C9.28535 12.0489 10.0534 9.98105 10.2306 8.70371C10.32 8.05907 10.2745 6.93104 10.2118 5.99366C10.18 5.51865 10.1429 5.08218 10.1138 4.76456C10.0992 4.60569 10.0866 4.47639 10.0777 4.38669L10.0671 4.28305L10.0643 4.25582L10.0636 4.24876L10.0634 4.24693L10.0633 4.24644L10.0633 4.2463L9.75255 4.2793Z" fill="#E31D1C" stroke="white" stroke-width="0.625"/>
<mask id="mask2_924_24076" style="mask-type:luminance" maskUnits="userSpaceOnUse" x="3" y="3" width="8" height="11">
<path d="M9.75255 4.2793L10.0633 4.24623L10.0336 3.9668H9.75255H3.96562H3.67349L3.65383 4.25827L3.96562 4.2793L3.65383 4.25833L3.65382 4.25846L3.65379 4.25896L3.65366 4.26088L3.65316 4.26833L3.65125 4.29724L3.64417 4.40736C3.63813 4.5026 3.62967 4.63963 3.61993 4.8071C3.60045 5.14195 3.57583 5.59896 3.55532 6.08719C3.51489 7.04944 3.48809 8.17592 3.5581 8.70201C3.6947 9.72855 4.31979 12.033 6.73749 13.0774L6.86359 13.1318L6.98897 13.0758C9.28535 12.0489 10.0534 9.98105 10.2306 8.70371C10.32 8.05907 10.2745 6.93104 10.2118 5.99366C10.18 5.51865 10.1429 5.08218 10.1138 4.76456C10.0992 4.60569 10.0866 4.47639 10.0777 4.38669L10.0671 4.28305L10.0643 4.25582L10.0636 4.24876L10.0634 4.24693L10.0633 4.24644L10.0633 4.2463L9.75255 4.2793Z" fill="white" stroke="white" stroke-width="0.625"/>
</mask>
<g mask="url(#mask2_924_24076)">
<path fill-rule="evenodd" clip-rule="evenodd" d="M6.41079 4.62891C6.41079 4.62891 6.53984 4.82554 6.59762 5.12622C6.6554 5.4269 6.66536 5.95372 6.66536 5.95372L5.44106 5.80298V6.73129L6.69271 6.57188L6.67237 7.45297C6.67237 7.45297 6.29792 7.49179 5.9908 7.45297C5.68369 7.41415 5.07867 7.25153 5.07867 7.25153V8.31427C5.07867 8.31427 5.69336 8.11762 5.9908 8.07249C6.28825 8.02737 6.67237 8.07249 6.67237 8.07249V9.37769H7.18051V8.07249C7.18051 8.07249 7.73599 8.02421 8.06734 8.07648C8.3987 8.12876 8.71302 8.31427 8.71302 8.31427V7.25153C8.71302 7.25153 8.39459 7.41018 8.09424 7.44966C7.7939 7.48914 7.18051 7.45297 7.18051 7.45297L7.20086 6.57188C7.20086 6.57188 7.61662 6.52884 7.84988 6.5605C8.08314 6.59217 8.3751 6.73129 8.3751 6.73129V5.80298C8.3751 5.80298 8.09054 5.95782 7.86665 5.98591C7.64275 6.014 7.1735 5.95372 7.1735 5.95372C7.1735 5.95372 7.18182 5.41005 7.22996 5.14533C7.2781 4.8806 7.41443 4.62891 7.41443 4.62891H6.41079Z" fill="#F7FCFF"/>
<path fill-rule="evenodd" clip-rule="evenodd" d="M4.31091 10.6635C4.31091 10.6635 4.5856 10.074 5.03256 9.96189C5.47951 9.84979 5.94819 10.3127 5.94819 10.3127C5.94819 10.3127 6.23438 9.37744 6.93194 9.37744C7.62951 9.37744 7.87432 10.3127 7.87432 10.3127C7.87432 10.3127 8.17194 9.96189 8.59993 9.96189C9.02791 9.96189 9.42443 10.6635 9.42443 10.6635C9.42443 10.6635 8.14605 12.9844 6.86767 12.9844C5.58929 12.9844 4.31091 10.6635 4.31091 10.6635Z" fill="#2E42A5"/>
</g>
</g>
</g>
</svg>
