<svg width="20" height="16" viewBox="0 0 20 16" fill="none" xmlns="http://www.w3.org/2000/svg">
<mask id="mask0_2362_47293" style="mask-type:luminance" maskUnits="userSpaceOnUse" x="0" y="0" width="20" height="16">
<rect y="0.509766" width="20" height="15" fill="white"/>
</mask>
<g mask="url(#mask0_2362_47293)">
<path fill-rule="evenodd" clip-rule="evenodd" d="M0 0.509766V15.5098H20V0.509766H0Z" fill="#FFB400"/>
<mask id="mask1_2362_47293" style="mask-type:luminance" maskUnits="userSpaceOnUse" x="0" y="0" width="20" height="16">
<path fill-rule="evenodd" clip-rule="evenodd" d="M0 0.509766V15.5098H20V0.509766H0Z" fill="white"/>
</mask>
<g mask="url(#mask1_2362_47293)">
<path fill-rule="evenodd" clip-rule="evenodd" d="M0 0.509766V4.25977H20V0.509766H0Z" fill="#C51918"/>
<path fill-rule="evenodd" clip-rule="evenodd" d="M0 11.7598V15.5098H20V11.7598H0Z" fill="#C51918"/>
<rect x="3.13" y="6.92969" width="0.7" height="3.64" fill="#F1F9FF"/>
<path fill-rule="evenodd" clip-rule="evenodd" d="M4.10998 6.2998H2.84998V6.6498H3.05998V6.9298H3.89998V6.6498H4.10998V6.2998Z" fill="#C88A02"/>
<path fill-rule="evenodd" clip-rule="evenodd" d="M3.89998 10.78H4.10998V11.13H2.84998V10.78H3.05998V10.5H3.89998V10.78Z" fill="#C88A02"/>
<path fill-rule="evenodd" clip-rule="evenodd" d="M3.47999 6.36961C3.63232 6.36961 3.64781 6.31225 3.73768 6.22658C3.80746 6.16005 3.96999 6.07755 3.96999 5.98461C3.96999 5.77198 3.75061 5.59961 3.47999 5.59961C3.20937 5.59961 2.98999 5.77198 2.98999 5.98461C2.98999 6.08815 3.10191 6.15738 3.18654 6.22658C3.2757 6.29948 3.34115 6.36961 3.47999 6.36961Z" fill="#AD1619"/>
<path fill-rule="evenodd" clip-rule="evenodd" d="M2.84998 11.1299H4.10998V11.6899C4.10998 11.6899 3.95248 11.6199 3.79498 11.6199C3.63748 11.6199 3.47998 11.6899 3.47998 11.6899C3.47998 11.6899 3.32248 11.6199 3.16498 11.6199C3.00748 11.6199 2.84998 11.6899 2.84998 11.6899V11.1299Z" fill="#005BBF"/>
<mask id="mask2_2362_47293" style="mask-type:luminance" maskUnits="userSpaceOnUse" x="2" y="11" width="3" height="1">
<path fill-rule="evenodd" clip-rule="evenodd" d="M2.84998 11.1299H4.10998V11.6899C4.10998 11.6899 3.95248 11.6199 3.79498 11.6199C3.63748 11.6199 3.47998 11.6899 3.47998 11.6899C3.47998 11.6899 3.32248 11.6199 3.16498 11.6199C3.00748 11.6199 2.84998 11.6899 2.84998 11.6899V11.1299Z" fill="white"/>
</mask>
<g mask="url(#mask2_2362_47293)">
<path d="M2.8386 11.5794L2.8111 11.5124C2.92458 11.4619 3.03847 11.4365 3.15254 11.4365C3.22623 11.4365 3.26471 11.4468 3.33013 11.4759C3.38759 11.5015 3.41738 11.5094 3.48023 11.5094C3.54307 11.5094 3.57286 11.5015 3.63032 11.4759C3.69574 11.4468 3.73422 11.4365 3.80791 11.4365C3.92198 11.4365 4.03587 11.4619 4.14935 11.5124L4.12185 11.5794C4.01688 11.5327 3.91231 11.5094 3.80791 11.5094C3.74507 11.5094 3.71528 11.5174 3.65782 11.543C3.5924 11.5721 3.55392 11.5824 3.48023 11.5824C3.40653 11.5824 3.36805 11.5721 3.30263 11.543C3.24517 11.5174 3.21538 11.5094 3.15254 11.5094C3.04814 11.5094 2.94357 11.5327 2.8386 11.5794Z" fill="white"/>
<path d="M2.8386 11.3695L2.8111 11.3024C2.92458 11.2519 3.03847 11.2266 3.15254 11.2266C3.22623 11.2266 3.26471 11.2368 3.33013 11.266C3.38759 11.2915 3.41738 11.2995 3.48023 11.2995C3.54307 11.2995 3.57286 11.2915 3.63032 11.266C3.69574 11.2368 3.73422 11.2266 3.80791 11.2266C3.92198 11.2266 4.03587 11.2519 4.14935 11.3024L4.12185 11.3695C4.01688 11.3227 3.91231 11.2995 3.80791 11.2995C3.74507 11.2995 3.71528 11.3074 3.65782 11.333C3.5924 11.3621 3.55392 11.3724 3.48023 11.3724C3.40653 11.3724 3.36805 11.3621 3.30263 11.333C3.24517 11.3074 3.21538 11.2995 3.15254 11.2995C3.04814 11.2995 2.94357 11.3227 2.8386 11.3695Z" fill="white"/>
</g>
<rect x="9.98999" y="6.92969" width="0.7" height="3.64" fill="#F1F9FF"/>
<path fill-rule="evenodd" clip-rule="evenodd" d="M10.97 6.2998H9.71002V6.6498H9.92002V6.9298H10.76V6.6498H10.97V6.2998Z" fill="#C88A02"/>
<path fill-rule="evenodd" clip-rule="evenodd" d="M10.76 10.78H10.97V11.13H9.71002V10.78H9.92002V10.5H10.76V10.78Z" fill="#C88A02"/>
<path fill-rule="evenodd" clip-rule="evenodd" d="M10.34 6.36961C10.4923 6.36961 10.5078 6.31225 10.5977 6.22658C10.6674 6.16005 10.83 6.07755 10.83 5.98461C10.83 5.77198 10.6106 5.59961 10.34 5.59961C10.0694 5.59961 9.84998 5.77198 9.84998 5.98461C9.84998 6.08815 9.9619 6.15738 10.0465 6.22658C10.1357 6.29948 10.2011 6.36961 10.34 6.36961Z" fill="#AD1619"/>
<path fill-rule="evenodd" clip-rule="evenodd" d="M9.71002 11.1299H10.97V11.6899C10.97 11.6899 10.8125 11.6199 10.655 11.6199C10.4975 11.6199 10.34 11.6899 10.34 11.6899C10.34 11.6899 10.1825 11.6199 10.025 11.6199C9.86752 11.6199 9.71002 11.6899 9.71002 11.6899V11.1299Z" fill="#005BBF"/>
<mask id="mask3_2362_47293" style="mask-type:luminance" maskUnits="userSpaceOnUse" x="9" y="11" width="2" height="1">
<path fill-rule="evenodd" clip-rule="evenodd" d="M9.71002 11.1299H10.97V11.6899C10.97 11.6899 10.8125 11.6199 10.655 11.6199C10.4975 11.6199 10.34 11.6899 10.34 11.6899C10.34 11.6899 10.1825 11.6199 10.025 11.6199C9.86752 11.6199 9.71002 11.6899 9.71002 11.6899V11.1299Z" fill="white"/>
</mask>
<g mask="url(#mask3_2362_47293)">
<path d="M9.69864 11.5794L9.67114 11.5124C9.78463 11.4619 9.89852 11.4365 10.0126 11.4365C10.0863 11.4365 10.1248 11.4468 10.1902 11.4759C10.2476 11.5015 10.2774 11.5094 10.3403 11.5094C10.4031 11.5094 10.4329 11.5015 10.4904 11.4759C10.5558 11.4468 10.5943 11.4365 10.668 11.4365C10.782 11.4365 10.8959 11.4619 11.0094 11.5124L10.9819 11.5794C10.8769 11.5327 10.7724 11.5094 10.668 11.5094C10.6051 11.5094 10.5753 11.5174 10.5179 11.543C10.4524 11.5721 10.414 11.5824 10.3403 11.5824C10.2666 11.5824 10.2281 11.5721 10.1627 11.543C10.1052 11.5174 10.0754 11.5094 10.0126 11.5094C9.90819 11.5094 9.80362 11.5327 9.69864 11.5794Z" fill="white"/>
<path d="M9.69864 11.3695L9.67114 11.3024C9.78463 11.2519 9.89852 11.2266 10.0126 11.2266C10.0863 11.2266 10.1248 11.2368 10.1902 11.266C10.2476 11.2915 10.2774 11.2995 10.3403 11.2995C10.4031 11.2995 10.4329 11.2915 10.4904 11.266C10.5558 11.2368 10.5943 11.2266 10.668 11.2266C10.782 11.2266 10.8959 11.2519 11.0094 11.3024L10.9819 11.3695C10.8769 11.3227 10.7724 11.2995 10.668 11.2995C10.6051 11.2995 10.5753 11.3074 10.5179 11.333C10.4524 11.3621 10.414 11.3724 10.3403 11.3724C10.2666 11.3724 10.2281 11.3621 10.1627 11.333C10.1052 11.3074 10.0754 11.2995 10.0126 11.2995C9.90819 11.2995 9.80362 11.3227 9.69864 11.3695Z" fill="white"/>
</g>
<path fill-rule="evenodd" clip-rule="evenodd" d="M3.11747 10.3099C3.24367 10.1569 3.31425 10.0177 3.31425 9.8699C3.31425 9.77668 3.28651 9.69617 3.23791 9.6304L3.24612 9.6267C3.24536 9.62705 3.38457 9.56637 3.43303 9.54313C3.52313 9.49993 3.6025 9.45417 3.67989 9.39789C3.7293 9.36196 3.7955 9.32283 3.89641 9.26864L3.99125 9.2182L4.01685 9.2046C4.06589 9.17844 4.10242 9.15838 4.13635 9.1387C4.24208 9.07737 4.31195 9.02668 4.36539 8.95891C4.49196 8.79841 4.46568 8.58083 4.28831 8.46007C4.20141 8.4009 4.08415 8.36695 3.91225 8.34023L3.87665 8.33472L3.6664 8.30213C3.58415 8.28921 3.51075 8.27715 3.44531 8.26572C3.87566 8.19411 4.49019 8.22043 4.7605 8.35999L5.01741 7.8624C4.46657 7.578 3.21149 7.60704 2.74265 7.92991C2.39878 8.16673 2.44492 8.52471 2.80271 8.67886C2.95221 8.74327 3.1471 8.78601 3.50776 8.84395C3.44732 8.87901 3.39721 8.91104 3.35052 8.94499C3.30318 8.97943 3.25245 9.00867 3.19092 9.03817C3.16149 9.05228 3.07434 9.09055 3.0344 9.10809L3.01432 9.11693C2.72289 9.24944 2.58146 9.43275 2.62372 9.76367L2.6466 9.9428L2.68764 9.95541L3.11747 10.3099ZM2.75723 9.84701L2.75634 9.84959L2.75702 9.84776L2.75723 9.84701ZM10.4412 9.8699C10.4412 10.0177 10.5118 10.1569 10.638 10.3099L11.0678 9.95541L11.1089 9.9428L11.1317 9.76367C11.174 9.43275 11.0326 9.24944 10.7411 9.11693L10.7211 9.10809L10.721 9.10805C10.681 9.0905 10.594 9.05227 10.5645 9.03817C10.503 9.00867 10.4523 8.97943 10.4049 8.94499C10.3583 8.91104 10.3081 8.87901 10.2477 8.84395C10.6084 8.78601 10.8033 8.74327 10.9528 8.67886C11.3105 8.52471 11.3567 8.16673 11.0128 7.92991C10.544 7.60704 9.2889 7.578 8.73806 7.8624L8.99497 8.35999C9.26528 8.22043 9.8798 8.19411 10.3102 8.26572C10.2447 8.27715 10.1713 8.28921 10.0891 8.30213L9.87879 8.33473L9.84321 8.34023C9.67132 8.36695 9.55405 8.4009 9.46715 8.46007C9.28978 8.58083 9.2635 8.79841 9.39008 8.95891C9.44352 9.02668 9.51339 9.07737 9.61912 9.1387C9.65305 9.15838 9.68957 9.17844 9.73862 9.2046L9.76429 9.21824L9.85905 9.26864C9.95997 9.32283 10.0262 9.36196 10.0756 9.39789C10.153 9.45417 10.2323 9.49993 10.3224 9.54313C10.3709 9.56637 10.5101 9.62705 10.5093 9.6267L10.5176 9.6304C10.469 9.69617 10.4412 9.77668 10.4412 9.8699Z" fill="#AD1619"/>
<path d="M3.7021 8.25977L3.90872 8.30251V8.61047C3.68866 8.78606 3.13 9.08199 3.13 9.08199V8.25977H3.7021Z" fill="#F1F9FF"/>
<path d="M10.1966 8.25977L9.99003 8.30251V8.61047C10.2101 8.78606 10.7687 9.08199 10.7687 9.08199V8.25977H10.1966Z" fill="#F1F9FF"/>
<path fill-rule="evenodd" clip-rule="evenodd" d="M9.23497 5.01338V4.91089C8.87492 4.65249 8.49787 4.52328 8.10382 4.52328C7.72606 4.35611 7.34369 4.29122 6.95671 4.32861C6.95681 4.32742 6.95687 4.32681 6.95687 4.32681C6.37501 4.26987 5.78861 4.52328 5.78861 4.52328C5.19755 4.52328 4.65747 4.91089 4.65747 4.91089V5.01338L5.36349 5.72246C5.36349 5.72246 5.56222 6.40496 6.95399 6.24455V6.24628C6.95399 6.24628 7.87546 6.22113 7.94021 6.1996C7.9659 6.19105 7.99254 6.18327 8.01977 6.17533C8.20026 6.12263 8.4063 6.06248 8.52895 5.72246L9.23497 5.01338ZM6.95399 4.35997C6.9339 4.59604 6.81917 6.01912 6.95399 6.23975V4.35997Z" fill="#AD1619"/>
<path fill-rule="evenodd" clip-rule="evenodd" d="M5.19606 5.60335L5.19652 5.60119L4.69983 5.13388L4.7478 5.0829L5.21387 5.5214L5.2258 5.46654C5.30205 5.48312 5.35778 5.48922 5.39027 5.48576V5.39064L5.49358 5.44655C5.5444 5.47405 5.61718 5.48145 5.71303 5.46585C5.78343 5.4544 5.83094 5.37264 5.84647 5.19841L5.87783 4.84668L5.98302 5.18377C6.03061 5.33631 6.10323 5.40355 6.2066 5.40355C6.30757 5.40355 6.34815 5.36654 6.35263 5.27324L6.36534 5.00862L6.485 5.24497C6.52811 5.33012 6.58757 5.36875 6.6721 5.36875C6.79301 5.36875 6.87377 5.26795 6.87377 5.1098H6.87606H7.01377H7.01606C7.01606 5.26795 7.09682 5.36875 7.21772 5.36875C7.30226 5.36875 7.36171 5.33012 7.40482 5.24497L7.52449 5.00862L7.53719 5.27324C7.54167 5.36654 7.58226 5.40355 7.68322 5.40355C7.7866 5.40355 7.85921 5.33631 7.90681 5.18377L8.012 4.84668L8.04336 5.19841C8.05889 5.37264 8.10639 5.4544 8.1768 5.46585C8.27265 5.48145 8.34543 5.47405 8.39624 5.44655L8.49956 5.39064V5.48576C8.53204 5.48922 8.58778 5.48312 8.66403 5.46654L8.68616 5.56833L9.20212 5.0829L9.25009 5.13388L8.60802 5.73796C8.51435 5.91047 8.46717 6.02434 8.46717 6.07164C8.46717 6.1438 8.27943 6.18664 7.91302 6.23063C7.62596 6.26509 7.28719 6.28823 7.01009 6.29169V6.29214L6.97496 6.29202L6.93983 6.29214V6.29169C6.66272 6.28823 6.32395 6.26509 6.0369 6.23063C5.67048 6.18664 5.48274 6.1438 5.48274 6.07164C5.48274 6.06269 5.48105 6.05136 5.47768 6.0377C5.44073 5.99065 5.41476 5.91367 5.39747 5.84424C5.38125 5.81177 5.36272 5.77631 5.34189 5.73796L5.19964 5.60412L5.19606 5.60335ZM8.63696 5.61462C8.52232 5.63491 8.43954 5.63286 8.39561 5.5971C8.32691 5.61709 8.24632 5.61901 8.15431 5.60404C8.05604 5.58804 7.9876 5.52268 7.94642 5.41424C7.89266 5.48273 7.82469 5.52501 7.74326 5.53868C8.19121 5.60221 8.505 5.69151 8.505 5.69151C8.505 5.69151 8.49726 5.75785 8.47845 5.83585C8.49836 5.79502 8.52195 5.74964 8.54922 5.69957L8.55597 5.69082L8.63696 5.61462ZM7.53188 5.51207C7.49292 5.49272 7.46181 5.46465 7.43932 5.42847C7.40592 5.45797 7.36794 5.47954 7.32575 5.49285C7.39618 5.49823 7.46505 5.50474 7.53188 5.51207ZM7.07864 5.47923C7.02411 5.45403 6.97877 5.41368 6.94491 5.36197C6.91129 5.41331 6.86636 5.45346 6.81235 5.47869C6.84434 5.47774 6.87653 5.47707 6.90886 5.4767V5.47639L6.93693 5.47647L6.965 5.47639V5.4767C7.00311 5.47713 7.04101 5.47799 7.07864 5.47923ZM5.38885 5.68602L5.32359 5.62462C5.40193 5.63239 5.45992 5.62502 5.49421 5.5971C5.56292 5.61709 5.6435 5.61901 5.73552 5.60404C5.83379 5.58804 5.90222 5.52268 5.9434 5.41424C5.99561 5.48075 6.06121 5.52254 6.13952 5.53742C5.75331 5.59168 5.46515 5.66551 5.38885 5.68602ZM6.56104 5.49187C6.49322 5.49691 6.42682 5.503 6.36225 5.50988C6.3992 5.49062 6.42885 5.46331 6.45051 5.42847C6.4831 5.45726 6.52006 5.4785 6.56104 5.49187ZM8.28313 6.07301C8.33218 6.09596 8.37149 6.07307 8.40257 6.02912C8.39988 6.04126 8.3982 6.05223 8.39752 6.06206C8.39341 6.06475 8.38712 6.06798 8.37886 6.07146C8.3558 6.08115 8.32059 6.09148 8.27478 6.10193C8.18473 6.12247 8.05657 6.14289 7.90467 6.16113C7.60806 6.19674 7.25535 6.22018 6.97496 6.22202C6.69456 6.22018 6.34186 6.19674 6.04524 6.16113C5.89335 6.14289 5.76518 6.12247 5.67514 6.10193C5.63674 6.09317 5.60579 6.0845 5.5832 6.07621C5.58568 6.07526 5.5882 6.0742 5.59074 6.07301C5.74365 6.00146 6.75483 5.93431 6.93693 5.92272C7.11903 5.93431 8.13021 6.00146 8.28313 6.07301ZM8.47597 6.06019L8.4749 6.06141L8.47554 6.06053L8.47597 6.06019Z" fill="#C88A02"/>
<path fill-rule="evenodd" clip-rule="evenodd" d="M6.94517 3.85164C7.06115 3.85164 7.15517 3.75762 7.15517 3.64164C7.15517 3.52566 7.06115 3.43164 6.94517 3.43164C6.82919 3.43164 6.73517 3.52566 6.73517 3.64164C6.73517 3.75762 6.82919 3.85164 6.94517 3.85164Z" fill="#005BBF"/>
<path fill-rule="evenodd" clip-rule="evenodd" d="M6.8085 4.88245C6.81298 4.9055 6.81998 4.92696 6.82883 4.94608C6.8017 4.93572 6.7695 4.92972 6.73497 4.92972C6.63832 4.92972 6.55997 4.97673 6.55997 5.03472C6.55997 5.09271 6.63832 5.13972 6.73497 5.13972C6.83162 5.13972 6.90997 5.09271 6.90997 5.03472C6.90997 5.09271 6.98832 5.13972 7.08497 5.13972C7.18162 5.13972 7.25997 5.09271 7.25997 5.03472C7.25997 4.97673 7.18162 4.92972 7.08497 4.92972C7.06064 4.92972 7.03747 4.9327 7.01642 4.93808C7.02149 4.90937 7.02127 4.87646 7.01465 4.84238C6.9962 4.74751 6.93511 4.67957 6.87818 4.69063C6.82126 4.7017 6.79006 4.78758 6.8085 4.88245ZM6.90997 5.03472L6.90989 5.03151L6.91004 5.03157L6.90997 5.03472ZM5.77883 5.01608C5.76998 4.99696 5.76298 4.9755 5.7585 4.95245C5.74006 4.85758 5.77126 4.7717 5.82818 4.76063C5.88511 4.74957 5.94621 4.81751 5.96465 4.91238C5.97127 4.94646 5.97149 4.97937 5.96642 5.00808C5.98747 5.0027 6.01064 4.99972 6.03497 4.99972C6.13162 4.99972 6.20997 5.04673 6.20997 5.10472C6.20997 5.16271 6.13162 5.20972 6.03497 5.20972C5.93832 5.20972 5.85997 5.16271 5.85997 5.10472L5.86004 5.10157L5.85989 5.10151L5.85997 5.10472C5.85997 5.16271 5.78162 5.20972 5.68497 5.20972C5.58832 5.20972 5.50997 5.16271 5.50997 5.10472C5.50997 5.04673 5.58832 4.99972 5.68497 4.99972C5.7195 4.99972 5.7517 5.00572 5.77883 5.01608ZM7.97117 5.08007C7.9631 5.13749 7.87897 5.17314 7.78326 5.15969C7.68756 5.14624 7.61651 5.08878 7.62458 5.03136C7.63265 4.97393 7.71678 4.93828 7.81249 4.95174C7.84669 4.95654 7.87774 4.96697 7.90316 4.981C7.89706 4.96083 7.89312 4.93861 7.89189 4.91517C7.88683 4.81865 7.92968 4.73794 7.98759 4.73491C8.0455 4.73187 8.09654 4.80766 8.1016 4.90417C8.10342 4.93884 8.09906 4.97147 8.09004 4.99919C8.11163 4.99678 8.13499 4.99706 8.15908 5.00045C8.25479 5.0139 8.32584 5.07135 8.31777 5.12878C8.3097 5.1862 8.22557 5.22185 8.12986 5.2084C8.03415 5.19495 7.9631 5.13749 7.97117 5.08007ZM7.97117 5.08007L7.97154 5.07688L7.97169 5.07696L7.97117 5.08007ZM8.63768 5.35773C8.72302 5.4031 8.81427 5.39838 8.8415 5.34718L8.84293 5.34431C8.85134 5.35321 8.86129 5.35968 8.87264 5.36315C8.9281 5.38011 8.99596 5.31893 9.02422 5.2265C9.05247 5.13407 9.03043 5.0454 8.97497 5.02845C8.91951 5.01149 8.85165 5.07267 8.82339 5.1651C8.81653 5.18755 8.81263 5.20979 8.81146 5.23082C8.79238 5.20894 8.76677 5.18852 8.73627 5.17231C8.65094 5.12693 8.55969 5.13166 8.53246 5.18286C8.50524 5.23406 8.55235 5.31235 8.63768 5.35773ZM5.20298 5.37917C5.11764 5.42455 5.02639 5.41982 4.99917 5.36862C4.99866 5.36767 4.99819 5.36672 4.99773 5.36575C4.98933 5.37465 4.97938 5.38113 4.96802 5.3846C4.91257 5.40155 4.8447 5.34037 4.81645 5.24794C4.78819 5.15552 4.81024 5.06684 4.86569 5.04989C4.92115 5.03293 4.98901 5.09412 5.01727 5.18654C5.02413 5.209 5.02803 5.23123 5.0292 5.25226C5.04828 5.23038 5.0739 5.20997 5.10439 5.19375C5.18973 5.14838 5.28098 5.1531 5.3082 5.2043C5.33542 5.25551 5.28832 5.3338 5.20298 5.37917Z" fill="#C88A02"/>
<path fill-rule="evenodd" clip-rule="evenodd" d="M6.86679 3.05762H7.01262V3.14974H7.10791V3.29558H7.01262V3.58724H7.10791V3.73308H6.77002V3.58724H6.86679V3.29558H6.77002V3.14974H6.86679V3.05762Z" fill="#C88A02"/>
<rect x="6.83997" y="3.84961" width="0.28" height="0.91" fill="#C88A02"/>
<path d="M5.71286 4.00187L5.71164 4.07186C5.09095 4.06102 4.73492 4.1516 4.64454 4.33213C4.5511 4.51877 4.56848 4.74566 4.6994 5.01518L4.63644 5.04576C4.49675 4.7582 4.47767 4.50909 4.58194 4.3008C4.68928 4.08639 5.06591 3.99057 5.71286 4.00187Z" fill="white"/>
<path d="M5.83295 4.62298L5.79706 4.68308C5.66189 4.60237 5.59424 4.46464 5.59424 4.27483C5.59424 4.00203 5.73477 3.84205 6.04561 3.73258C6.244 3.66271 6.51501 3.69136 6.85939 3.81622L6.83553 3.88203C6.50493 3.76216 6.24912 3.73512 6.06886 3.7986C5.78375 3.89902 5.66424 4.03506 5.66424 4.27483C5.66424 4.4414 5.72043 4.5558 5.83295 4.62298Z" fill="white"/>
<path d="M4.78757 4.90785L4.65548 4.95424C4.51843 4.56403 4.55757 4.29902 4.79175 4.1847C4.9981 4.08397 5.29884 4.04298 5.69547 4.05905L5.6898 4.19894C5.31428 4.18372 5.0349 4.2218 4.85316 4.31051C4.69926 4.38564 4.67111 4.57626 4.78757 4.90785Z" fill="#C88A02"/>
<path d="M6.33082 3.90953C6.01074 3.90953 5.87929 3.98749 5.8042 4.21767C5.75634 4.36436 5.80275 4.48956 5.95325 4.60642L5.86738 4.717C5.67254 4.56569 5.60385 4.38039 5.6711 4.17425C5.7668 3.8809 5.95459 3.76953 6.33082 3.76953C6.57742 3.76953 6.76952 3.83432 6.90327 3.96617L6.92413 3.98673V4.66171H6.78413V4.04657C6.67967 3.95583 6.52962 3.90953 6.33082 3.90953Z" fill="#C88A02"/>
<path d="M8.15561 4.07218L8.15683 4.14217C8.77752 4.13133 9.13355 4.22191 9.22393 4.40244C9.31737 4.58909 9.29999 4.81597 9.16907 5.08549L9.23203 5.11608C9.37172 4.82852 9.3908 4.5794 9.28653 4.37111C9.17919 4.15671 8.80255 4.06089 8.15561 4.07218Z" fill="white"/>
<path d="M7.93646 4.63763L7.97235 4.69773C8.10752 4.61702 8.17517 4.47929 8.17517 4.28947C8.17517 4.01667 8.03464 3.8567 7.7238 3.74723C7.52541 3.67736 7.2544 3.70601 6.91002 3.83087L6.93388 3.89668C7.26448 3.77681 7.52029 3.74977 7.70054 3.81325C7.98566 3.91367 8.10517 4.04971 8.10517 4.28947C8.10517 4.45604 8.04898 4.57045 7.93646 4.63763Z" fill="white"/>
<path d="M9.12454 4.97816L9.25663 5.02456C9.39368 4.63434 9.35454 4.36933 9.12036 4.25502C8.91401 4.15429 8.61327 4.11329 8.21664 4.12936L8.22231 4.26925C8.59783 4.25403 8.87721 4.29211 9.05895 4.38083C9.21285 4.45595 9.241 4.64657 9.12454 4.97816Z" fill="#C88A02"/>
<path d="M7.57329 3.92027C7.89338 3.92027 8.02482 3.99823 8.09992 4.22841C8.14777 4.3751 8.10136 4.5003 7.95087 4.61716L8.03674 4.72774C8.23157 4.57644 8.30027 4.39114 8.23301 4.18499C8.13731 3.89165 7.94953 3.78027 7.57329 3.78027C7.32669 3.78027 7.1346 3.84506 7.00084 3.97691L6.97998 3.99747V4.67245H7.11998V4.05731C7.22445 3.96657 7.3745 3.92027 7.57329 3.92027Z" fill="#C88A02"/>
<path opacity="0.3" fill-rule="evenodd" clip-rule="evenodd" d="M4.66998 6.2998H9.21998V10.3878C9.21998 10.3878 8.882 11.7598 6.94498 11.7598C5.00797 11.7598 4.66998 10.3516 4.66998 10.3516V6.2998Z" fill="#E1E5E8"/>
<mask id="mask4_2362_47293" style="mask-type:luminance" maskUnits="userSpaceOnUse" x="4" y="6" width="6" height="6">
<path fill-rule="evenodd" clip-rule="evenodd" d="M4.66998 6.2998H9.21998V10.3878C9.21998 10.3878 8.882 11.7598 6.94498 11.7598C5.00797 11.7598 4.66998 10.3516 4.66998 10.3516V6.2998Z" fill="white"/>
</mask>
<g mask="url(#mask4_2362_47293)">
<rect x="4.66998" y="8.81934" width="2.31" height="2.73" fill="#FFC034"/>
<rect x="4.95001" y="8.95996" width="0.28" height="2.59" fill="#AD1619"/>
<rect x="5.92999" y="8.95996" width="0.28" height="2.59" fill="#AD1619"/>
<rect x="5.44" y="8.95996" width="0.28" height="2.59" fill="#AD1619"/>
<rect x="6.41998" y="8.95996" width="0.28" height="2.59" fill="#AD1619"/>
<rect x="4.66998" y="6.22949" width="2.31" height="2.66" fill="#AD1619"/>
<rect x="6.90997" y="8.75" width="2.31" height="2.66" fill="#AD1619"/>
<rect x="6.90997" y="6.2998" width="2.45" height="2.59" fill="#F1F9FF"/>
<path fill-rule="evenodd" clip-rule="evenodd" d="M5.64997 6.50977H5.85997V7.09051H5.99997V6.80014H6.20997V7.09051H6.41997V7.45347H6.20997V8.1068H6.41997V8.46977H5.15997V8.1068H5.36997V7.45347H5.15997V7.09051H5.29997V6.80014H5.50997V7.09051H5.64997V6.50977Z" fill="#C88A02"/>
<path d="M8.11176 6.63198L8.25511 6.47852L8.55607 6.75966L8.41272 6.91312L8.11176 6.63198Z" fill="#C88A02"/>
<path fill-rule="evenodd" clip-rule="evenodd" d="M8.97498 10.597V9.06445H7.22498V10.5842L7.22775 10.596C7.31634 10.9735 7.61803 11.1645 8.09998 11.1645C8.58146 11.1645 8.88311 10.9784 8.97206 10.6091L8.97498 10.597ZM8.09998 10.9545C7.71328 10.9545 7.50211 10.8242 7.43498 10.5594V9.27445H8.76498V10.5716C8.69801 10.8277 8.48682 10.9545 8.09998 10.9545Z" fill="#FFC034"/>
<path fill-rule="evenodd" clip-rule="evenodd" d="M8.17223 9.19336H8.0264V9.88815L7.45151 9.26289L7.34845 9.35765L7.86836 9.92311H7.39729V10.1331H7.75915H7.87981L7.34845 10.711L7.45151 10.8058L8.0264 10.1805V10.9927H8.17223V10.2536L8.67992 10.8058L8.78298 10.711L8.25162 10.1331H8.84472V9.92311H8.26308L8.78298 9.35765L8.67992 9.26289L8.17223 9.81507V9.19336Z" fill="#FFC034"/>
<path fill-rule="evenodd" clip-rule="evenodd" d="M8.42666 11.4119C8.42666 11.4119 6.94404 11.5285 6.94404 10.5723C6.94404 10.5723 6.9299 11.4119 5.38177 11.4119V12.1668H8.42666V11.4119Z" fill="#F1F9FF"/>
<path fill-rule="evenodd" clip-rule="evenodd" d="M6.94498 9.37977C7.23493 9.37977 7.46998 9.12905 7.46998 8.81977C7.46998 8.51049 7.23493 8.25977 6.94498 8.25977C6.65503 8.25977 6.41998 8.51049 6.41998 8.81977C6.41998 9.12905 6.65503 9.37977 6.94498 9.37977Z" fill="#005BBF" stroke="#AD1619" stroke-width="0.729167"/>
</g>
</g>
</g>
</svg>
