<svg width="20" height="16" viewBox="0 0 20 16" fill="none" xmlns="http://www.w3.org/2000/svg">
<mask id="mask0_2362_47273" style="mask-type:luminance" maskUnits="userSpaceOnUse" x="0" y="0" width="20" height="16">
<rect y="0.509766" width="20" height="15" fill="white"/>
</mask>
<g mask="url(#mask0_2362_47273)">
<path fill-rule="evenodd" clip-rule="evenodd" d="M0 0.509766V15.5098H20V0.509766H0Z" fill="#E31D1C"/>
<mask id="mask1_2362_47273" style="mask-type:luminance" maskUnits="userSpaceOnUse" x="0" y="0" width="20" height="16">
<path fill-rule="evenodd" clip-rule="evenodd" d="M0 0.509766V15.5098H20V0.509766H0Z" fill="white"/>
</mask>
<g mask="url(#mask1_2362_47273)">
<path fill-rule="evenodd" clip-rule="evenodd" d="M10.0159 10.5812C8.67757 10.2515 7.62937 9.13125 7.64153 7.48916C7.65292 5.95203 8.58358 4.65275 10.0548 4.30102C11.526 3.94929 12.8213 4.69593 12.8213 4.69593C12.4147 3.73605 11.0021 3.0617 9.84394 3.06364C7.68818 3.06725 5.39013 4.81553 5.37032 7.48916C5.34978 10.261 7.83119 11.8396 10.0136 11.836C11.7631 11.833 12.593 10.6361 12.7649 10.1269C12.7649 10.1269 11.3542 10.9109 10.0159 10.5812ZM13.0646 6.96432L11.7312 7.45411L13.2357 7.98486L13.21 9.57073L14.2014 8.38097L15.8389 8.49996L14.5412 7.38449L15.3932 6.19462L14.006 6.66148L13.0145 5.55923L13.0646 6.96432Z" fill="#F7FCFF"/>
</g>
</g>
</svg>
