<svg width="20" height="16" viewBox="0 0 20 16" fill="none" xmlns="http://www.w3.org/2000/svg">
<mask id="mask0_1457_20318" style="mask-type:luminance" maskUnits="userSpaceOnUse" x="0" y="0" width="20" height="16">
<rect y="0.510254" width="20" height="15" fill="white"/>
</mask>
<g mask="url(#mask0_1457_20318)">
<path fill-rule="evenodd" clip-rule="evenodd" d="M0 0.510254V15.5103H20V0.510254H0Z" fill="#2E42A5"/>
<mask id="mask1_1457_20318" style="mask-type:luminance" maskUnits="userSpaceOnUse" x="0" y="0" width="20" height="16">
<path fill-rule="evenodd" clip-rule="evenodd" d="M0 0.510254V15.5103H20V0.510254H0Z" fill="white"/>
</mask>
<g mask="url(#mask1_1457_20318)">
<mask id="mask2_1457_20318" style="mask-type:luminance" maskUnits="userSpaceOnUse" x="0" y="0" width="20" height="16">
<rect y="0.510254" width="20" height="15" fill="white"/>
</mask>
<g mask="url(#mask2_1457_20318)">
<path d="M-2.22696 14.4385L2.1741 16.2998L20.0999 2.53379L22.4213 -0.232134L17.715 -0.854231L10.4035 5.07794L4.51853 9.07483L-2.22696 14.4385Z" fill="white"/>
<path d="M-1.62445 15.7426L0.617684 16.8228L21.5877 -0.489084H18.4395L-1.62445 15.7426Z" fill="#F50100"/>
<path d="M22.227 14.4385L17.8259 16.2998L-0.0998707 2.53379L-2.42133 -0.232134L2.28497 -0.854231L9.59646 5.07794L15.4815 9.07483L22.227 14.4385Z" fill="white"/>
<path d="M22.0768 15.3745L19.8347 16.4546L10.9054 9.04249L8.25808 8.21436L-2.6447 -0.222641H0.503525L11.4002 8.0141L14.2946 9.00712L22.0768 15.3745Z" fill="#F50100"/>
<mask id="path-9-inside-1_1457_20318" fill="white">
<path fill-rule="evenodd" clip-rule="evenodd" d="M12.3611 -0.739746H7.63889V5.51025H-1.23279V10.5103H7.63889V16.7603H12.3611V10.5103H21.2672V5.51025H12.3611V-0.739746Z"/>
</mask>
<path fill-rule="evenodd" clip-rule="evenodd" d="M12.3611 -0.739746H7.63889V5.51025H-1.23279V10.5103H7.63889V16.7603H12.3611V10.5103H21.2672V5.51025H12.3611V-0.739746Z" fill="#F50100"/>
<path d="M7.63889 -0.739746V-1.98975H6.38889V-0.739746H7.63889ZM12.3611 -0.739746H13.6111V-1.98975H12.3611V-0.739746ZM7.63889 5.51025V6.76025H8.88889V5.51025H7.63889ZM-1.23279 5.51025V4.26025H-2.48279V5.51025H-1.23279ZM-1.23279 10.5103H-2.48279V11.7603H-1.23279V10.5103ZM7.63889 10.5103H8.88889V9.26025H7.63889V10.5103ZM7.63889 16.7603H6.38889V18.0103H7.63889V16.7603ZM12.3611 16.7603V18.0103H13.6111V16.7603H12.3611ZM12.3611 10.5103V9.26025H11.1111V10.5103H12.3611ZM21.2672 10.5103V11.7603H22.5172V10.5103H21.2672ZM21.2672 5.51025H22.5172V4.26025H21.2672V5.51025ZM12.3611 5.51025H11.1111V6.76025H12.3611V5.51025ZM7.63889 0.510254H12.3611V-1.98975H7.63889V0.510254ZM8.88889 5.51025V-0.739746H6.38889V5.51025H8.88889ZM-1.23279 6.76025H7.63889V4.26025H-1.23279V6.76025ZM0.0172119 10.5103V5.51025H-2.48279V10.5103H0.0172119ZM7.63889 9.26025H-1.23279V11.7603H7.63889V9.26025ZM8.88889 16.7603V10.5103H6.38889V16.7603H8.88889ZM12.3611 15.5103H7.63889V18.0103H12.3611V15.5103ZM11.1111 10.5103V16.7603H13.6111V10.5103H11.1111ZM21.2672 9.26025H12.3611V11.7603H21.2672V9.26025ZM20.0172 5.51025V10.5103H22.5172V5.51025H20.0172ZM12.3611 6.76025H21.2672V4.26025H12.3611V6.76025ZM11.1111 -0.739746V5.51025H13.6111V-0.739746H11.1111Z" fill="white" mask="url(#path-9-inside-1_1457_20318)"/>
</g>
</g>
</g>
</svg>
