<svg width="20" height="16" viewBox="0 0 20 16" fill="none" xmlns="http://www.w3.org/2000/svg">
<mask id="mask0_924_24071" style="mask-type:luminance" maskUnits="userSpaceOnUse" x="0" y="0" width="20" height="16">
<rect y="0.510254" width="20" height="15" fill="white"/>
</mask>
<g mask="url(#mask0_924_24071)">
<path fill-rule="evenodd" clip-rule="evenodd" d="M0 0.510254H20V15.5103H0V0.510254Z" fill="#F7FCFF"/>
<path fill-rule="evenodd" clip-rule="evenodd" d="M0 0.510254H8.75V15.5103H0V0.510254Z" fill="#FFDC17"/>
<path d="M14.2385 8.47949L14.0227 8.49355C14.0743 9.23465 14.2335 9.80713 14.5037 10.2111C14.9394 10.8627 15.5145 11.3664 15.8992 11.3664C15.9866 11.3664 16.007 11.3989 15.9782 11.479C15.9372 11.5929 15.8075 11.705 15.6408 11.748C15.3634 11.8195 14.7326 11.8565 13.759 11.8565V12.0658C14.7521 12.0658 15.3943 12.0282 15.6964 11.9502C15.9311 11.8897 16.1172 11.7288 16.1823 11.5478C16.2576 11.3385 16.144 11.1571 15.8992 11.1571C15.6135 11.1571 15.0833 10.6927 14.6852 10.0974C14.4377 9.72741 14.2877 9.18806 14.2385 8.47949Z" fill="#AF0100"/>
<path d="M13.2169 8.47949L13.4326 8.49355C13.3811 9.23465 13.2218 9.80713 12.9517 10.2111C12.5159 10.8627 11.9409 11.3664 11.5561 11.3664C11.4687 11.3664 11.4483 11.3989 11.4772 11.479C11.5182 11.5929 11.6478 11.705 11.8145 11.748C12.0919 11.8195 12.7227 11.8565 13.6963 11.8565V12.0658C12.7032 12.0658 12.061 12.0282 11.7589 11.9502C11.5243 11.8897 11.3381 11.7288 11.273 11.5478C11.1977 11.3385 11.3113 11.1571 11.5561 11.1571C11.8419 11.1571 12.372 10.6927 12.7702 10.0974C13.0176 9.72741 13.1676 9.18806 13.2169 8.47949Z" fill="#AF0100"/>
<path fill-rule="evenodd" clip-rule="evenodd" d="M17.5415 4.75879L11.8281 9.21254C11.6281 9.14736 11.4097 9.1117 11.1822 9.1117C10.2552 9.1117 9.47949 9.70379 9.47949 10.4722C9.47949 11.2405 10.2552 11.8326 11.1822 11.8326C11.2885 11.8326 11.3928 11.8248 11.4942 11.8099C11.4004 11.7367 11.3304 11.6451 11.2954 11.5477C11.2532 11.4306 11.2703 11.3222 11.3364 11.2494C11.2861 11.2544 11.2346 11.257 11.1821 11.257C10.5567 11.257 10.074 10.8886 10.074 10.4721C10.074 10.0557 10.5567 9.68726 11.1821 9.68726C11.8075 9.68726 12.2902 10.0557 12.2902 10.4721C12.2902 10.5997 12.2449 10.7227 12.1641 10.8321C12.1794 10.8184 12.1948 10.8044 12.2102 10.7901C12.4082 10.6057 11.9632 11.3663 11.5785 11.3663C11.4911 11.3663 11.4707 11.3988 11.4995 11.4789C11.5379 11.5856 11.6541 11.6907 11.8057 11.7389C12.4324 11.543 12.8849 11.059 12.8849 10.4722C12.8849 10.2321 12.8092 10.0093 12.6768 9.81633L15.7474 7.21033L15.9529 7.42267L16.1008 7.2885L16.6137 7.66861L16.3993 7.83395L16.837 8.36606L17.7202 7.68523L17.7351 7.67749L17.7325 7.6757L17.7873 7.6335L17.3495 7.10139L17.1379 7.26456L16.5644 6.86806L16.6316 6.80709L16.4471 6.61647L16.7245 6.38098L16.8718 6.53313L17.0299 6.38971L17.5272 6.7833L17.3182 6.94441L17.7559 7.47652L18.5125 6.8933L18.5991 6.84586L18.5865 6.83621L18.7062 6.74396L18.2684 6.21186L18.0212 6.40247L17.4765 5.98463L17.5505 5.91756L17.4242 5.78712L17.9895 5.30736L17.5415 4.75879Z" fill="#F4B300"/>
<path fill-rule="evenodd" clip-rule="evenodd" d="M9.80377 9.71361C9.96796 9.71361 10.1011 9.60818 10.1011 9.47814C10.1011 9.3481 9.96796 9.24268 9.80377 9.24268C9.63957 9.24268 9.50647 9.3481 9.50647 9.47814C9.50647 9.60818 9.63957 9.71361 9.80377 9.71361ZM9.91188 11.859C10.0761 11.859 10.2092 11.7535 10.2092 11.6235C10.2092 11.4934 10.0761 11.388 9.91188 11.388C9.74768 11.388 9.61458 11.4934 9.61458 11.6235C9.61458 11.7535 9.74768 11.859 9.91188 11.859ZM12.8578 11.6235C12.8578 11.7535 12.7247 11.859 12.5605 11.859C12.3963 11.859 12.2632 11.7535 12.2632 11.6235C12.2632 11.4934 12.3963 11.388 12.5605 11.388C12.7247 11.388 12.8578 11.4934 12.8578 11.6235Z" fill="#BFBFBF"/>
<path fill-rule="evenodd" clip-rule="evenodd" d="M14.6149 10.4727C14.6149 10.1273 14.7716 9.81754 15.0283 9.58117L11.7474 7.04033L11.7099 7.06913L11.8056 7.15588L11.5469 7.42316L11.4107 7.29962L10.9084 7.68639L11.1005 7.83444L10.6627 8.36655L9.78901 7.69299L9.76464 7.67799L9.76723 7.67619L9.71249 7.634L10.1503 7.10189L10.3619 7.26505L10.9354 6.86856L10.8682 6.80759L11.1161 6.55146L10.8272 6.32776L10.628 6.53363L10.4758 6.39558L9.98488 6.79328L10.1816 6.94491L9.74381 7.47702L9.01134 6.91234L8.90064 6.84636L8.91322 6.83671L8.79357 6.74446L9.23133 6.21235L9.47858 6.40296L10.0232 5.98513L9.94926 5.91805L10.0987 5.76361L9.51022 5.30785L9.88166 4.8584L15.5578 9.25409C15.7876 9.16297 16.0461 9.1122 16.3176 9.1122C17.2445 9.1122 18.0203 9.70429 18.0203 10.4727C18.0203 11.241 17.2445 11.8331 16.3176 11.8331C16.2113 11.8331 16.1069 11.8253 16.0055 11.8104C16.0993 11.7371 16.1694 11.6456 16.2044 11.5482C16.2465 11.4311 16.2295 11.3227 16.1634 11.2499C16.2137 11.2549 16.2652 11.2575 16.3177 11.2575C16.9431 11.2575 17.4258 10.8891 17.4258 10.4726C17.4258 10.0562 16.9431 9.68776 16.3177 9.68776C15.6923 9.68776 15.2096 10.0562 15.2096 10.4726C15.2096 10.6002 15.2548 10.7232 15.3356 10.8326C15.3203 10.8189 15.305 10.8049 15.2896 10.7906C15.0916 10.6062 15.5365 11.3668 15.9213 11.3668C16.0087 11.3668 16.029 11.3993 16.0002 11.4794C15.9618 11.5861 15.8457 11.6912 15.694 11.7394C15.0673 11.5435 14.6149 11.0595 14.6149 10.4727Z" fill="#BFBFBF"/>
<path fill-rule="evenodd" clip-rule="evenodd" d="M17.696 9.71409C17.5318 9.71409 17.3987 9.60867 17.3987 9.47863C17.3987 9.34859 17.5318 9.24316 17.696 9.24316C17.8602 9.24316 17.9933 9.34859 17.9933 9.47863C17.9933 9.60867 17.8602 9.71409 17.696 9.71409ZM17.5879 11.8594C17.4237 11.8594 17.2906 11.754 17.2906 11.624C17.2906 11.4939 17.4237 11.3885 17.5879 11.3885C17.7521 11.3885 17.8852 11.4939 17.8852 11.624C17.8852 11.754 17.7521 11.8594 17.5879 11.8594ZM14.6419 11.624C14.6419 11.754 14.775 11.8594 14.9392 11.8594C15.1034 11.8594 15.2365 11.754 15.2365 11.624C15.2365 11.4939 15.1034 11.3885 14.9392 11.3885C14.775 11.3885 14.6419 11.4939 14.6419 11.624Z" fill="#F4B300"/>
<path fill-rule="evenodd" clip-rule="evenodd" d="M13.5876 7.88232C13.5429 7.88232 13.5066 7.91863 13.5066 7.96341V8.30093H13.2067C13.1633 8.30093 13.1282 8.33607 13.1282 8.37942C13.1282 8.42277 13.1633 8.45791 13.2067 8.45791H13.5066V12.9292C13.5066 12.9739 13.5429 13.0102 13.5876 13.0102H13.7498C13.7946 13.0102 13.8309 12.9739 13.8309 12.9292V8.45791H14.2929C14.3363 8.45791 14.3714 8.42277 14.3714 8.37942C14.3714 8.33607 14.3363 8.30093 14.2929 8.30093H13.8309V7.96341C13.8309 7.91863 13.7946 7.88232 13.7498 7.88232H13.5876Z" fill="#AF0100"/>
<path fill-rule="evenodd" clip-rule="evenodd" d="M10.4714 5.25627L10.6037 5.34705C10.912 4.92603 11.1895 4.84146 11.4717 5.06243C11.959 5.44392 12.0012 6.37468 11.4801 6.68631C10.8587 7.05798 10.5437 7.78279 10.8192 8.17727C11.0735 8.54128 11.6865 8.40353 12.2917 7.94632C12.3992 7.86514 12.5016 7.77849 12.5979 7.68743L12.47 7.58873C12.3824 7.67073 12.2894 7.74899 12.192 7.82256C11.6522 8.23037 11.1335 8.34692 10.9536 8.08934C10.7388 7.78183 11.0133 7.14998 11.5653 6.81985C12.1898 6.44642 12.1416 5.38502 11.5737 4.94037C11.2074 4.65358 10.8281 4.76918 10.4714 5.25627ZM12.8514 7.16331L12.9833 7.25481C13.2128 6.94509 13.3696 6.60966 13.4217 6.2793L13.2614 6.25564C13.2134 6.5599 13.0668 6.87261 12.8514 7.16331Z" fill="#979797"/>
<path fill-rule="evenodd" clip-rule="evenodd" d="M17.0432 5.25627L16.9109 5.34705C16.6026 4.92603 16.3251 4.84146 16.0429 5.06243C15.5557 5.44392 15.5135 6.37468 16.0345 6.68631C16.656 7.05798 16.971 7.78279 16.6954 8.17727C16.4411 8.54128 15.8281 8.40353 15.2229 7.94632C15.1155 7.86514 15.013 7.77849 14.9168 7.68743L15.0446 7.58873C15.1323 7.67073 15.2253 7.74899 15.3227 7.82256C15.8625 8.23037 16.3812 8.34692 16.5611 8.08934C16.7759 7.78183 16.5013 7.14998 15.9493 6.81985C15.3249 6.44642 15.373 5.38502 15.9409 4.94037C16.3072 4.65358 16.6865 4.76918 17.0432 5.25627ZM14.6633 7.16331L14.5313 7.25481C14.3018 6.94509 14.145 6.60966 14.093 6.2793L14.2533 6.25564C14.3012 6.5599 14.4478 6.87261 14.6633 7.16331Z" fill="#979797"/>
<path fill-rule="evenodd" clip-rule="evenodd" d="M13.6688 13.0206C13.8479 13.0206 13.9931 12.948 13.9931 12.8585C13.9931 12.7689 13.8479 12.6963 13.6688 12.6963C13.4897 12.6963 13.3445 12.7689 13.3445 12.8585C13.3445 12.948 13.4897 13.0206 13.6688 13.0206Z" fill="#AF0100"/>
<path fill-rule="evenodd" clip-rule="evenodd" d="M13.6146 6.27242C14.2415 6.27242 14.7498 6.18772 14.7498 6.08323C14.7498 5.97875 14.2415 5.89404 13.6146 5.89404C12.9877 5.89404 12.4795 5.97875 12.4795 6.08323C12.4795 6.18772 12.9877 6.27242 13.6146 6.27242Z" fill="#AF0100"/>
<path fill-rule="evenodd" clip-rule="evenodd" d="M13.6787 1.78418H13.5165V1.97113H13.363V2.12811H13.5165V2.58623H13.6787V2.12811H13.8658V1.97113H13.6787V1.78418ZM12.4593 4.04563L12.3869 3.9237C12.4266 3.90707 12.467 3.89138 12.5083 3.87663L12.2974 3.41399L12.4457 3.35059L12.6629 3.82687C12.709 3.8136 12.7559 3.80139 12.8038 3.79023C12.7705 3.75249 12.7499 3.70086 12.7499 3.64392C12.7499 3.52832 12.8346 3.43462 12.9391 3.43462C13.0436 3.43462 13.1283 3.52832 13.1283 3.64392C13.1283 3.67654 13.1215 3.70742 13.1095 3.73494C13.238 3.71791 13.3721 3.70736 13.512 3.70328V3.52591H13.3089V3.39966H13.512V3.2493H13.7264V3.39966H13.9739V3.52591H13.7264V3.70204C13.8858 3.70481 14.0351 3.7159 14.1743 3.73536C14.1621 3.70773 14.1553 3.67671 14.1553 3.64392C14.1553 3.52832 14.24 3.43462 14.3445 3.43462C14.449 3.43462 14.5337 3.52832 14.5337 3.64392C14.5337 3.70312 14.5115 3.75658 14.4758 3.79465C14.5362 3.81041 14.5943 3.82818 14.6499 3.84796L14.8052 3.50757L14.9535 3.57097L14.7995 3.90864C14.8117 3.91425 14.8238 3.91997 14.8357 3.92581L14.754 4.04352L14.7409 4.03719L14.716 4.09184L14.5676 4.02844L14.5919 3.97529C14.3553 3.89039 14.067 3.84452 13.7264 3.83834V3.89437H13.512V3.83963C13.1078 3.85195 12.7571 3.92078 12.4593 4.04563ZM12.3869 4.18533L12.4248 4.24907L12.2974 4.30352L12.5083 4.76616C12.467 4.78092 12.4266 4.79661 12.3869 4.81324L12.4593 4.93516C12.7571 4.81032 13.1078 4.74149 13.512 4.72917V4.78391H13.7264V4.72788C14.067 4.73405 14.3553 4.77992 14.5919 4.86483L14.5676 4.91797L14.716 4.98137L14.7409 4.92673L14.754 4.93305L14.8357 4.81535C14.8238 4.80951 14.8117 4.80378 14.7995 4.79818L14.9535 4.4605L14.8052 4.3971L14.6499 4.7375C14.5943 4.71771 14.5362 4.69995 14.4758 4.68418C14.5115 4.64611 14.5337 4.59265 14.5337 4.53345C14.5337 4.41786 14.449 4.32415 14.3445 4.32415C14.24 4.32415 14.1553 4.41786 14.1553 4.53345C14.1553 4.56624 14.1621 4.59727 14.1743 4.62489C14.0351 4.60543 13.8858 4.59435 13.7264 4.59158V4.41545H13.9739V4.2892H13.7264V4.13883H13.512V4.2892H13.3089V4.41545H13.512V4.59282C13.3721 4.5969 13.238 4.60744 13.1095 4.62447C13.1215 4.59695 13.1283 4.56607 13.1283 4.53345C13.1283 4.41786 13.0436 4.32415 12.9391 4.32415C12.8346 4.32415 12.7499 4.41786 12.7499 4.53345C12.7499 4.5904 12.7705 4.64203 12.8038 4.67977C12.7559 4.69093 12.709 4.70314 12.6629 4.71641L12.4736 4.30132C12.8009 4.16682 13.1915 4.09925 13.646 4.09925C14.1058 4.09925 14.4749 4.16838 14.754 4.30515L14.8357 4.18744C14.5293 4.0373 14.1325 3.96298 13.646 3.96298C13.1609 3.96298 12.741 4.03688 12.3869 4.18533ZM12.3869 5.07486L12.4248 5.13861L12.2974 5.19306L12.5083 5.6557C12.467 5.67045 12.4266 5.68614 12.3869 5.70277L12.4593 5.8247C12.7571 5.69985 13.1078 5.63102 13.512 5.6187V5.67344H13.7264V5.61741C14.067 5.62359 14.3553 5.66946 14.5919 5.75436L14.5676 5.80751L14.716 5.87091L14.7409 5.81626L14.754 5.82259L14.8357 5.70488C14.8238 5.69904 14.8117 5.69332 14.7995 5.68771L14.9535 5.35004L14.8052 5.28664L14.6499 5.62703C14.5943 5.60725 14.5362 5.58948 14.4758 5.57372C14.5115 5.53565 14.5337 5.48219 14.5337 5.42299C14.5337 5.30739 14.449 5.21369 14.3445 5.21369C14.24 5.21369 14.1553 5.30739 14.1553 5.42299C14.1553 5.45577 14.1621 5.4868 14.1743 5.51443C14.0351 5.49497 13.8858 5.48388 13.7264 5.48111V5.30498H13.9739V5.17873H13.7264V5.02837H13.512V5.17873H13.3089V5.30498H13.512V5.48235C13.3721 5.48643 13.238 5.49698 13.1095 5.51401C13.1215 5.48649 13.1283 5.45561 13.1283 5.42299C13.1283 5.30739 13.0436 5.21369 12.9391 5.21369C12.8346 5.21369 12.7499 5.30739 12.7499 5.42299C12.7499 5.47993 12.7705 5.53156 12.8038 5.5693C12.7559 5.58046 12.709 5.59267 12.6629 5.60594L12.4736 5.19086C12.8009 5.05635 13.1915 4.98878 13.646 4.98878C14.1058 4.98878 14.4749 5.05791 14.754 5.19468L14.8357 5.07697C14.5293 4.92684 14.1325 4.85252 13.646 4.85252C13.1609 4.85252 12.741 4.92641 12.3869 5.07486ZM12.3869 5.9644L12.4593 6.08633C12.7895 5.94787 13.1848 5.87832 13.646 5.87832C14.1058 5.87832 14.4749 5.94745 14.754 6.08422L14.8357 5.96651C14.5293 5.81637 14.1325 5.74205 13.646 5.74205C13.1609 5.74205 12.741 5.81595 12.3869 5.9644Z" fill="#F4B300"/>
</g>
</svg>
