<svg xmlns="http://www.w3.org/2000/svg" width="150" height="20" viewBox="0 0 150 20" fill="none">
<path d="M35.2659 3.559C37.0764 3.559 38.4438 3.81233 39.368 4.319C40.2923 4.82567 40.7544 5.71867 40.7544 6.998C40.7544 7.77067 40.5708 8.423 40.2036 8.955C39.8491 9.487 39.3364 9.81 38.6654 9.924V10.019C39.1211 10.1077 39.5326 10.266 39.8998 10.494C40.267 10.722 40.5581 11.0513 40.7734 11.482C40.9886 11.9127 41.0962 12.4827 41.0962 13.192C41.0962 14.4207 40.6531 15.3833 39.7668 16.08C38.8806 16.7767 37.6651 17.125 36.1205 17.125H31.0498V3.559H35.2659ZM35.5888 8.936C36.4244 8.936 37.0004 8.803 37.317 8.537C37.6462 8.271 37.8107 7.88467 37.8107 7.378C37.8107 6.85867 37.6208 6.485 37.241 6.257C36.8612 6.029 36.2598 5.915 35.4368 5.915H33.9175V8.936H35.5888ZM33.9175 11.216V14.75H35.7977C36.6586 14.75 37.26 14.5853 37.6018 14.256C37.9437 13.914 38.1146 13.4643 38.1146 12.907C38.1146 12.4003 37.9374 11.995 37.5828 11.691C37.241 11.3743 36.6143 11.216 35.7027 11.216H33.9175ZM47.8548 6.561C49.2854 6.561 50.4186 6.97267 51.2542 7.796C52.0898 8.60667 52.5076 9.76567 52.5076 11.273V12.641H45.8227C45.848 13.439 46.0823 14.066 46.5254 14.522C46.9812 14.978 47.6079 15.206 48.4055 15.206C49.0765 15.206 49.6843 15.1427 50.2287 15.016C50.7731 14.8767 51.3365 14.6677 51.9189 14.389V16.574C51.4125 16.8273 50.8744 17.011 50.3046 17.125C49.7476 17.2517 49.0702 17.315 48.2726 17.315C47.2344 17.315 46.3165 17.125 45.5188 16.745C44.7212 16.3523 44.0945 15.7633 43.6387 14.978C43.1829 14.1927 42.955 13.2047 42.955 12.014C42.955 10.798 43.1576 9.791 43.5627 8.993C43.9805 8.18233 44.5566 7.57433 45.2909 7.169C46.0253 6.76367 46.8799 6.561 47.8548 6.561ZM47.8738 8.575C47.3293 8.575 46.8736 8.75233 46.5064 9.107C46.1519 9.46167 45.943 10.0127 45.8797 10.76H49.8489C49.8362 10.1267 49.6716 9.60733 49.3551 9.202C49.0386 8.784 48.5448 8.575 47.8738 8.575ZM59.1701 15.054C59.4866 15.054 59.7905 15.0223 60.0817 14.959C60.3729 14.8957 60.6641 14.8197 60.9553 14.731V16.84C60.6514 16.9667 60.2716 17.0743 59.8158 17.163C59.3727 17.2643 58.8852 17.315 58.3535 17.315C57.7331 17.315 57.176 17.2137 56.6822 17.011C56.2011 16.8083 55.815 16.46 55.5238 15.966C55.2452 15.4593 55.106 14.7627 55.106 13.876V8.879H53.7576V7.682L55.3149 6.732L56.1315 4.547H57.9357V6.751H60.8413V8.879H57.9357V13.876C57.9357 14.2687 58.0496 14.5663 58.2775 14.769C58.5054 14.959 58.8029 15.054 59.1701 15.054ZM67.4047 15.054C67.7213 15.054 68.0251 15.0223 68.3163 14.959C68.6075 14.8957 68.8987 14.8197 69.1899 14.731V16.84C68.8861 16.9667 68.5062 17.0743 68.0504 17.163C67.6073 17.2643 67.1199 17.315 66.5881 17.315C65.9677 17.315 65.4106 17.2137 64.9169 17.011C64.4358 16.8083 64.0496 16.46 63.7584 15.966C63.4799 15.4593 63.3406 14.7627 63.3406 13.876V8.879H61.9922V7.682L63.5495 6.732L64.3661 4.547H66.1703V6.751H69.076V8.879H66.1703V13.876C66.1703 14.2687 66.2842 14.5663 66.5121 14.769C66.74 14.959 67.0376 15.054 67.4047 15.054ZM75.5443 6.561C76.9749 6.561 78.1081 6.97267 78.9437 7.796C79.7793 8.60667 80.1971 9.76567 80.1971 11.273V12.641H73.5122C73.5375 13.439 73.7717 14.066 74.2149 14.522C74.6706 14.978 75.2974 15.206 76.095 15.206C76.766 15.206 77.3737 15.1427 77.9182 15.016C78.4626 14.8767 79.026 14.6677 79.6084 14.389V16.574C79.102 16.8273 78.5639 17.011 77.9941 17.125C77.437 17.2517 76.7597 17.315 75.9621 17.315C74.9239 17.315 74.006 17.125 73.2083 16.745C72.4107 16.3523 71.784 15.7633 71.3282 14.978C70.8724 14.1927 70.6445 13.2047 70.6445 12.014C70.6445 10.798 70.8471 9.791 71.2522 8.993C71.67 8.18233 72.2461 7.57433 72.9804 7.169C73.7148 6.76367 74.5694 6.561 75.5443 6.561ZM75.5632 8.575C75.0188 8.575 74.563 8.75233 74.1959 9.107C73.8414 9.46167 73.6325 10.0127 73.5692 10.76H77.5383C77.5257 10.1267 77.3611 9.60733 77.0446 9.202C76.728 8.784 76.2343 8.575 75.5632 8.575ZM88.2839 6.561C88.4232 6.561 88.5878 6.56733 88.7777 6.58C88.9676 6.59267 89.1195 6.61167 89.2335 6.637L89.0246 9.297C88.936 9.27167 88.803 9.25267 88.6258 9.24C88.4612 9.21467 88.3156 9.202 88.189 9.202C87.7079 9.202 87.2457 9.29067 86.8026 9.468C86.3595 9.63267 85.9986 9.905 85.7201 10.285C85.4542 10.665 85.3213 11.1843 85.3213 11.843V17.125H82.4916V6.751H84.6376L85.0554 8.499H85.1883C85.4922 7.967 85.91 7.511 86.4418 7.131C86.9735 6.751 87.5876 6.561 88.2839 6.561ZM112.932 3.559L109.476 17.125H106.209L104.367 10C104.329 9.86067 104.278 9.65167 104.215 9.373C104.164 9.09433 104.101 8.79033 104.025 8.461C103.962 8.13167 103.905 7.82133 103.854 7.53C103.804 7.226 103.766 6.99167 103.74 6.827C103.728 6.99167 103.69 7.226 103.626 7.53C103.576 7.82133 103.519 8.13167 103.455 8.461C103.392 8.77767 103.329 9.08167 103.266 9.373C103.202 9.65167 103.152 9.867 103.114 10.019L101.29 17.125H98.0239L94.5675 3.559H97.3972L99.1254 10.969C99.2014 11.2603 99.2837 11.6277 99.3723 12.071C99.4609 12.5143 99.5432 12.9577 99.6192 13.401C99.6952 13.8443 99.7521 14.218 99.7901 14.522C99.8281 14.2053 99.8851 13.8317 99.9611 13.401C100.037 12.9577 100.113 12.5333 100.189 12.128C100.278 11.71 100.354 11.387 100.417 11.159L102.392 3.559H105.108L107.083 11.159C107.146 11.3743 107.216 11.691 107.292 12.109C107.38 12.527 107.463 12.9577 107.539 13.401C107.615 13.8443 107.672 14.218 107.71 14.522C107.747 14.2053 107.804 13.8317 107.88 13.401C107.956 12.9577 108.039 12.5143 108.127 12.071C108.229 11.6277 108.311 11.2603 108.374 10.969L110.102 3.559H112.932ZM123.458 11.919C123.458 13.6417 123.003 14.9717 122.091 15.909C121.192 16.8463 119.964 17.315 118.407 17.315C117.444 17.315 116.584 17.106 115.824 16.688C115.077 16.27 114.488 15.662 114.058 14.864C113.627 14.0533 113.412 13.0717 113.412 11.919C113.412 10.1963 113.861 8.87267 114.76 7.948C115.659 7.02333 116.894 6.561 118.464 6.561C119.439 6.561 120.299 6.77 121.046 7.188C121.793 7.606 122.382 8.214 122.813 9.012C123.243 9.79733 123.458 10.7663 123.458 11.919ZM116.299 11.919C116.299 12.945 116.463 13.724 116.792 14.256C117.134 14.7753 117.685 15.035 118.445 15.035C119.192 15.035 119.73 14.7753 120.059 14.256C120.401 13.724 120.572 12.945 120.572 11.919C120.572 10.893 120.401 10.1267 120.059 9.62C119.73 9.10067 119.185 8.841 118.426 8.841C117.679 8.841 117.134 9.10067 116.792 9.62C116.463 10.1267 116.299 10.893 116.299 11.919ZM131.589 6.561C131.729 6.561 131.893 6.56733 132.083 6.58C132.273 6.59267 132.425 6.61167 132.539 6.637L132.33 9.297C132.241 9.27167 132.108 9.25267 131.931 9.24C131.767 9.21467 131.621 9.202 131.494 9.202C131.013 9.202 130.551 9.29067 130.108 9.468C129.665 9.63267 129.304 9.905 129.025 10.285C128.76 10.665 128.627 11.1843 128.627 11.843V17.125H125.797V6.751H127.943L128.361 8.499H128.494C128.798 7.967 129.215 7.511 129.747 7.131C130.279 6.751 130.893 6.561 131.589 6.561ZM137.251 17.125H134.421V2.685H137.251V17.125ZM143.493 17.315C142.341 17.315 141.398 16.8653 140.663 15.966C139.942 15.054 139.581 13.7177 139.581 11.957C139.581 10.1837 139.948 8.841 140.682 7.929C141.417 7.017 142.379 6.561 143.569 6.561C144.316 6.561 144.93 6.70667 145.411 6.998C145.892 7.28933 146.272 7.65033 146.55 8.081H146.645C146.607 7.87833 146.563 7.587 146.512 7.207C146.462 6.81433 146.437 6.41533 146.437 6.01V2.685H149.266V17.125H147.101L146.55 15.776H146.437C146.158 16.2067 145.785 16.574 145.316 16.878C144.848 17.1693 144.24 17.315 143.493 17.315ZM144.48 15.054C145.265 15.054 145.816 14.826 146.133 14.37C146.449 13.9013 146.613 13.2047 146.626 12.28V11.976C146.626 10.9627 146.468 10.19 146.152 9.658C145.848 9.126 145.278 8.86 144.442 8.86C143.822 8.86 143.335 9.13233 142.98 9.677C142.626 10.209 142.448 10.9817 142.448 11.995C142.448 13.0083 142.626 13.7747 142.98 14.294C143.335 14.8007 143.835 15.054 144.48 15.054Z" fill="#393939"/>
<path d="M19.6323 3.07081L19.4234 0.591309L17.98 2.02201C16.1588 3.82701 13.3594 4.28301 10.6513 4.72381C7.64497 5.21401 4.80387 5.67571 3.29787 7.92347C2.30842 9.40167 2.08053 11.4594 2.60659 14.1954C1.52029 14.7806 0.855591 16.0061 0.855591 17.6059V19.4983H2.75472V17.6059C2.75472 17.1176 2.85917 16.0764 3.69859 15.7914C6.44662 16.8934 8.71038 17.3152 10.5601 17.3152C13.1278 17.3152 14.9015 16.5096 16.0828 15.609C19.1081 13.2986 20.371 8.84877 19.6361 3.07271L19.6323 3.07081ZM14.9281 14.0966C12.9283 15.6223 9.9809 15.8218 6.32127 14.7065C8.50527 14.2429 12.0339 12.9338 15.5321 9.24967C15.7846 8.98367 15.7732 8.56187 15.5074 8.30917C15.2415 8.05647 14.8199 8.06787 14.5673 8.33387C10.0891 13.0535 5.51034 13.5684 4.42784 13.6235C4.04991 11.5183 4.19614 9.99447 4.87413 8.98367C5.92055 7.41997 8.25459 7.03997 10.9551 6.60101C13.2512 6.22671 15.7922 5.81251 17.8718 4.51291C18.2231 8.99127 17.1938 12.3695 14.9262 14.0985L14.9281 14.0966Z" fill="#0E6111"/>
</svg>
