<svg xmlns="http://www.w3.org/2000/svg" width="118" height="16" viewBox="0 0 118 16" fill="none">
<path d="M27.986 2.91494C29.4086 2.91494 30.4829 3.11494 31.2091 3.51494C31.9353 3.91494 32.2984 4.61994 32.2984 5.62994C32.2984 6.23994 32.1542 6.75494 31.8657 7.17494C31.5871 7.59494 31.1842 7.84994 30.657 7.93994V8.01494C31.0151 8.08494 31.3384 8.20994 31.6269 8.38994C31.9154 8.56994 32.1442 8.82994 32.3133 9.16994C32.4824 9.50994 32.567 9.95994 32.567 10.5199C32.567 11.4899 32.2188 12.2499 31.5225 12.7999C30.8261 13.3499 29.8711 13.6249 28.6575 13.6249H24.6734V2.91494H27.986ZM28.2397 7.15994C28.8962 7.15994 29.3489 7.05494 29.5976 6.84494C29.8562 6.63494 29.9855 6.32994 29.9855 5.92994C29.9855 5.51994 29.8363 5.22494 29.5379 5.04494C29.2394 4.86494 28.7669 4.77494 28.1203 4.77494H26.9266V7.15994H28.2397ZM26.9266 8.95994V11.7499H28.4038C29.0803 11.7499 29.5528 11.6199 29.8214 11.3599C30.09 11.0899 30.2243 10.7349 30.2243 10.2949C30.2243 9.89494 30.085 9.57494 29.8065 9.33494C29.5379 9.08494 29.0455 8.95994 28.3292 8.95994H26.9266ZM37.8773 5.28494C39.0014 5.28494 39.8917 5.60994 40.5483 6.25994C41.2048 6.89994 41.5331 7.81494 41.5331 9.00494V10.0849H36.2806C36.3005 10.7149 36.4846 11.2099 36.8327 11.5699C37.1909 11.9299 37.6833 12.1099 38.31 12.1099C38.8372 12.1099 39.3147 12.0599 39.7425 11.9599C40.1702 11.8499 40.6129 11.6849 41.0705 11.4649V13.1899C40.6726 13.3899 40.2498 13.5349 39.8022 13.6249C39.3645 13.7249 38.8323 13.7749 38.2055 13.7749C37.3898 13.7749 36.6686 13.6249 36.0419 13.3249C35.4152 13.0149 34.9228 12.5499 34.5646 11.9299C34.2065 11.3099 34.0275 10.5299 34.0275 9.58994C34.0275 8.62994 34.1866 7.83494 34.505 7.20494C34.8332 6.56494 35.2859 6.08494 35.8628 5.76494C36.4398 5.44494 37.1113 5.28494 37.8773 5.28494ZM37.8922 6.87494C37.4644 6.87494 37.1063 7.01494 36.8178 7.29494C36.5393 7.57494 36.3751 8.00994 36.3254 8.59994H39.444C39.4341 8.09994 39.3048 7.68994 39.0561 7.36994C38.8074 7.03994 38.4194 6.87494 37.8922 6.87494ZM46.7679 11.9899C47.0166 11.9899 47.2553 11.9649 47.4841 11.9149C47.7129 11.8649 47.9417 11.8049 48.1705 11.7349V13.3999C47.9318 13.4999 47.6334 13.5849 47.2752 13.6549C46.9271 13.7349 46.5441 13.7749 46.1263 13.7749C45.6388 13.7749 45.2011 13.6949 44.8131 13.5349C44.4351 13.3749 44.1317 13.0999 43.9029 12.7099C43.6841 12.3099 43.5746 11.7599 43.5746 11.0599V7.11494H42.5152V6.16994L43.7388 5.41994L44.3804 3.69494H45.798V5.43494H48.081V7.11494H45.798V11.0599C45.798 11.3699 45.8875 11.6049 46.0666 11.7649C46.2456 11.9149 46.4794 11.9899 46.7679 11.9899ZM53.238 11.9899C53.4867 11.9899 53.7254 11.9649 53.9542 11.9149C54.183 11.8649 54.4118 11.8049 54.6406 11.7349V13.3999C54.4019 13.4999 54.1034 13.5849 53.7453 13.6549C53.3971 13.7349 53.0141 13.7749 52.5963 13.7749C52.1089 13.7749 51.6712 13.6949 51.2832 13.5349C50.9052 13.3749 50.6018 13.0999 50.373 12.7099C50.1541 12.3099 50.0447 11.7599 50.0447 11.0599V7.11494H48.9853V6.16994L50.2088 5.41994L50.8505 3.69494H52.268V5.43494H54.5511V7.11494H52.268V11.0599C52.268 11.3699 52.3576 11.6049 52.5366 11.7649C52.7157 11.9149 52.9495 11.9899 53.238 11.9899ZM59.6333 5.28494C60.7574 5.28494 61.6477 5.60994 62.3043 6.25994C62.9608 6.89994 63.2891 7.81494 63.2891 9.00494V10.0849H58.0367C58.0566 10.7149 58.2406 11.2099 58.5888 11.5699C58.9469 11.9299 59.4393 12.1099 60.066 12.1099C60.5933 12.1099 61.0708 12.0599 61.4985 11.9599C61.9263 11.8499 62.3689 11.6849 62.8265 11.4649V13.1899C62.4286 13.3899 62.0058 13.5349 61.5582 13.6249C61.1205 13.7249 60.5883 13.7749 59.9616 13.7749C59.1458 13.7749 58.4246 13.6249 57.7979 13.3249C57.1712 13.0149 56.6788 12.5499 56.3207 11.9299C55.9625 11.3099 55.7835 10.5299 55.7835 9.58994C55.7835 8.62994 55.9426 7.83494 56.261 7.20494C56.5893 6.56494 57.0419 6.08494 57.6189 5.76494C58.1958 5.44494 58.8673 5.28494 59.6333 5.28494ZM59.6482 6.87494C59.2205 6.87494 58.8623 7.01494 58.5738 7.29494C58.2953 7.57494 58.1312 8.00994 58.0814 8.59994H61.2001C61.1901 8.09994 61.0608 7.68994 60.8121 7.36994C60.5634 7.03994 60.1754 6.87494 59.6482 6.87494ZM69.643 5.28494C69.7525 5.28494 69.8818 5.28994 70.031 5.29994C70.1802 5.30994 70.2996 5.32494 70.3891 5.34494L70.225 7.44494C70.1554 7.42494 70.0509 7.40994 69.9116 7.39994C69.7823 7.37994 69.6679 7.36994 69.5684 7.36994C69.1904 7.36994 68.8273 7.43994 68.4791 7.57994C68.131 7.70994 67.8475 7.92494 67.6286 8.22494C67.4197 8.52494 67.3152 8.93494 67.3152 9.45494V13.6249H65.0919V5.43494H66.7781L67.1063 6.81494H67.2108C67.4495 6.39494 67.7778 6.03494 68.1956 5.73494C68.6134 5.43494 69.0959 5.28494 69.643 5.28494ZM89.0095 2.91494L86.2937 13.6249H83.7272L82.2798 7.99994C82.2499 7.88994 82.2101 7.72494 82.1604 7.50494C82.1206 7.28494 82.0709 7.04494 82.0112 6.78494C81.9614 6.52494 81.9167 6.27994 81.8769 6.04994C81.8371 5.80994 81.8072 5.62494 81.7873 5.49494C81.7774 5.62494 81.7475 5.80994 81.6978 6.04994C81.658 6.27994 81.6133 6.52494 81.5635 6.78494C81.5138 7.03494 81.464 7.27494 81.4143 7.50494C81.3646 7.72494 81.3248 7.89494 81.2949 8.01494L79.8624 13.6249H77.2959L74.5801 2.91494H76.8035L78.1614 8.76494C78.221 8.99494 78.2857 9.28494 78.3553 9.63494C78.425 9.98494 78.4896 10.3349 78.5493 10.6849C78.609 11.0349 78.6538 11.3299 78.6836 11.5699C78.7135 11.3199 78.7582 11.0249 78.8179 10.6849C78.8776 10.3349 78.9373 9.99994 78.997 9.67994C79.0666 9.34994 79.1263 9.09494 79.176 8.91494L80.7279 2.91494H82.8617L84.4136 8.91494C84.4633 9.08494 84.518 9.33494 84.5777 9.66494C84.6473 9.99494 84.712 10.3349 84.7717 10.6849C84.8314 11.0349 84.8761 11.3299 84.906 11.5699C84.9358 11.3199 84.9806 11.0249 85.0403 10.6849C85.1 10.3349 85.1646 9.98494 85.2343 9.63494C85.3138 9.28494 85.3785 8.99494 85.4282 8.76494L86.7861 2.91494H89.0095ZM97.2801 9.51494C97.2801 10.8749 96.922 11.9249 96.2057 12.6649C95.4994 13.4049 94.5345 13.7749 93.3109 13.7749C92.5549 13.7749 91.8784 13.6099 91.2816 13.2799C90.6946 12.9499 90.2321 12.4699 89.8938 11.8399C89.5556 11.1999 89.3865 10.4249 89.3865 9.51494C89.3865 8.15494 89.7396 7.10994 90.4459 6.37994C91.1522 5.64994 92.1221 5.28494 93.3557 5.28494C94.1217 5.28494 94.7981 5.44994 95.385 5.77994C95.9719 6.10994 96.4345 6.58994 96.7727 7.21994C97.111 7.83994 97.2801 8.60494 97.2801 9.51494ZM91.6546 9.51494C91.6546 10.3249 91.7839 10.9399 92.0426 11.3599C92.3112 11.7699 92.7439 11.9749 93.3408 11.9749C93.9277 11.9749 94.3504 11.7699 94.6091 11.3599C94.8777 10.9399 95.012 10.3249 95.012 9.51494C95.012 8.70494 94.8777 8.09994 94.6091 7.69994C94.3504 7.28994 93.9227 7.08494 93.3258 7.08494C92.7389 7.08494 92.3112 7.28994 92.0426 7.69994C91.7839 8.09994 91.6546 8.70494 91.6546 9.51494ZM103.669 5.28494C103.778 5.28494 103.907 5.28994 104.057 5.29994C104.206 5.30994 104.325 5.32494 104.415 5.34494L104.251 7.44494C104.181 7.42494 104.077 7.40994 103.937 7.39994C103.808 7.37994 103.694 7.36994 103.594 7.36994C103.216 7.36994 102.853 7.43994 102.505 7.57994C102.157 7.70994 101.873 7.92494 101.654 8.22494C101.445 8.52494 101.341 8.93494 101.341 9.45494V13.6249H99.1176V5.43494H100.804L101.132 6.81494H101.236C101.475 6.39494 101.803 6.03494 102.221 5.73494C102.639 5.43494 103.122 5.28494 103.669 5.28494ZM108.117 13.6249H105.894V2.22494H108.117V13.6249ZM113.022 13.7749C112.116 13.7749 111.375 13.4199 110.798 12.7099C110.231 11.9899 109.948 10.9349 109.948 9.54494C109.948 8.14494 110.236 7.08494 110.813 6.36494C111.39 5.64494 112.146 5.28494 113.081 5.28494C113.668 5.28494 114.151 5.39994 114.529 5.62994C114.907 5.85994 115.205 6.14494 115.424 6.48494H115.498C115.468 6.32494 115.434 6.09494 115.394 5.79494C115.354 5.48494 115.334 5.16994 115.334 4.84994V2.22494H117.557V13.6249H115.856L115.424 12.5599H115.334C115.116 12.8999 114.822 13.1899 114.454 13.4299C114.086 13.6599 113.608 13.7749 113.022 13.7749ZM113.797 11.9899C114.414 11.9899 114.847 11.8099 115.096 11.4499C115.344 11.0799 115.473 10.5299 115.483 9.79994V9.55994C115.483 8.75994 115.359 8.14994 115.111 7.72994C114.872 7.30994 114.424 7.09994 113.768 7.09994C113.28 7.09994 112.897 7.31494 112.619 7.74494C112.34 8.16494 112.201 8.77494 112.201 9.57494C112.201 10.3749 112.34 10.9799 112.619 11.3899C112.897 11.7899 113.29 11.9899 113.797 11.9899Z" fill="#393939"/>
<path d="M15.7025 2.52952L15.5383 0.572021L14.4043 1.70152C12.9733 3.12652 10.7738 3.48652 8.64596 3.83452C6.28385 4.22152 4.05156 4.58602 2.86828 6.36057C2.09085 7.52757 1.91179 9.15207 2.32512 11.3121C1.4716 11.7741 0.949341 12.7416 0.949341 14.0046V15.4986H2.44151V14.0046C2.44151 13.6191 2.52358 12.7971 3.18313 12.5721C5.34229 13.4421 7.12096 13.7751 8.57434 13.7751C10.5918 13.7751 11.9854 13.1391 12.9136 12.4281C15.2906 10.6041 16.2829 7.09107 15.7054 2.53102L15.7025 2.52952ZM12.0063 11.2341C10.4351 12.4386 8.11922 12.5961 5.2438 11.7156C6.9598 11.3496 9.73226 10.3161 12.4808 7.40757C12.6793 7.19757 12.6704 6.86457 12.4614 6.66507C12.2525 6.46557 11.9213 6.47457 11.7228 6.68457C8.20428 10.4106 4.60665 10.8171 3.75611 10.8606C3.45916 9.19857 3.57406 7.99557 4.10677 7.19757C4.92896 5.96307 6.76284 5.66307 8.88471 5.31652C10.6887 5.02102 12.6853 4.69402 14.3192 3.66802C14.5953 7.20357 13.7865 9.87057 12.0048 11.2356L12.0063 11.2341Z" fill="#0E6111"/>
</svg>
