<svg width="27" height="28" viewBox="0 0 27 28" fill="none" xmlns="http://www.w3.org/2000/svg">
<path d="M13.5 0.666656C6.13996 0.666656 0.166626 6.63999 0.166626 14C0.166626 21.36 6.13996 27.3333 13.5 27.3333C20.86 27.3333 26.8333 21.36 26.8333 14C26.8333 6.63999 20.86 0.666656 13.5 0.666656ZM13.5 15.3333C12.7666 15.3333 12.1666 14.7333 12.1666 14V8.66666C12.1666 7.93332 12.7666 7.33332 13.5 7.33332C14.2333 7.33332 14.8333 7.93332 14.8333 8.66666V14C14.8333 14.7333 14.2333 15.3333 13.5 15.3333ZM14.8333 20.6667H12.1666V18H14.8333V20.6667Z" fill="#8C6D1F"/>
</svg>
