<svg width="44" height="32" viewBox="0 0 44 32" fill="none" xmlns="http://www.w3.org/2000/svg">
<path d="M0 4C0 1.79086 1.79086 0 4 0H40C42.2091 0 44 1.79086 44 4V28C44 30.2091 42.2091 32 40 32H4C1.79086 32 0 30.2091 0 28V4Z" fill="white"/>
<path d="M22 13.5H25.3333C25.7917 13.5 26.1667 13.125 26.1667 12.6667C26.1667 12.2083 25.7917 11.8333 25.3333 11.8333H22C21.5417 11.8333 21.1667 12.2083 21.1667 12.6667C21.1667 13.125 21.5417 13.5 22 13.5ZM22 16.8333H25.3333C25.7917 16.8333 26.1667 16.4583 26.1667 16C26.1667 15.5417 25.7917 15.1667 25.3333 15.1667H22C21.5417 15.1667 21.1667 15.5417 21.1667 16C21.1667 16.4583 21.5417 16.8333 22 16.8333ZM22 20.1667H25.3333C25.7917 20.1667 26.1667 19.7917 26.1667 19.3333C26.1667 18.875 25.7917 18.5 25.3333 18.5H22C21.5417 18.5 21.1667 18.875 21.1667 19.3333C21.1667 19.7917 21.5417 20.1667 22 20.1667ZM17.8333 11.8333H19.5V13.5H17.8333V11.8333ZM17.8333 15.1667H19.5V16.8333H17.8333V15.1667ZM17.8333 18.5H19.5V20.1667H17.8333V18.5ZM28.6667 8.5H15.3333C14.875 8.5 14.5 8.875 14.5 9.33333V22.6667C14.5 23.125 14.875 23.5 15.3333 23.5H28.6667C29.125 23.5 29.5 23.125 29.5 22.6667V9.33333C29.5 8.875 29.125 8.5 28.6667 8.5ZM27.8333 21.8333H16.1667V10.1667H27.8333V21.8333Z" fill="#393E41"/>
<path d="M4 1H40V-1H4V1ZM43 4V28H45V4H43ZM40 31H4V33H40V31ZM1 28V4H-1V28H1ZM4 31C2.34315 31 1 29.6569 1 28H-1C-1 30.7614 1.23857 33 4 33V31ZM43 28C43 29.6569 41.6569 31 40 31V33C42.7614 33 45 30.7614 45 28H43ZM40 1C41.6569 1 43 2.34315 43 4H45C45 1.23858 42.7614 -1 40 -1V1ZM4 -1C1.23858 -1 -1 1.23858 -1 4H1C1 2.34315 2.34315 1 4 1V-1Z" fill="#C0C3C7"/>
</svg>
