<svg width="44" height="32" viewBox="0 0 44 32" fill="none" xmlns="http://www.w3.org/2000/svg">
<path d="M0 4C0 1.79086 1.79086 0 4 0H40C42.2091 0 44 1.79086 44 4V28C44 30.2091 42.2091 32 40 32H4C1.79086 32 0 30.2091 0 28V4Z" fill="white"/>
<path d="M25.825 13.9167H24.5V9.74999C24.5 9.29166 24.125 8.91666 23.6667 8.91666H20.3334C19.875 8.91666 19.5 9.29166 19.5 9.74999V13.9167H18.175C17.4334 13.9167 17.0584 14.8167 17.5834 15.3417L21.4084 19.1667C21.7334 19.4917 22.2584 19.4917 22.5834 19.1667L26.4084 15.3417C26.9334 14.8167 26.5667 13.9167 25.825 13.9167ZM16.1667 22.25C16.1667 22.7083 16.5417 23.0833 17 23.0833H27C27.4584 23.0833 27.8334 22.7083 27.8334 22.25C27.8334 21.7917 27.4584 21.4167 27 21.4167H17C16.5417 21.4167 16.1667 21.7917 16.1667 22.25Z" fill="#393E41"/>
<path d="M4 1H40V-1H4V1ZM43 4V28H45V4H43ZM40 31H4V33H40V31ZM1 28V4H-1V28H1ZM4 31C2.34315 31 1 29.6569 1 28H-1C-1 30.7614 1.23857 33 4 33V31ZM43 28C43 29.6569 41.6569 31 40 31V33C42.7614 33 45 30.7614 45 28H43ZM40 1C41.6569 1 43 2.34315 43 4H45C45 1.23858 42.7614 -1 40 -1V1ZM4 -1C1.23858 -1 -1 1.23858 -1 4H1C1 2.34315 2.34315 1 4 1V-1Z" fill="#C0C3C7"/>
</svg>
