<svg width="44" height="32" viewBox="0 0 44 32" fill="none" xmlns="http://www.w3.org/2000/svg">
<path d="M0 4C0 1.79086 1.79086 0 4 0H40C42.2091 0 44 1.79086 44 4V28C44 30.2091 42.2091 32 40 32H4C1.79086 32 0 30.2091 0 28V4Z" fill="white"/>
<path d="M27 11.8333V9.33333C27 8.875 26.625 8.5 26.1667 8.5H17.8334C17.375 8.5 17 8.875 17 9.33333V11.8333H27Z" fill="#393E41"/>
<path d="M27.8334 12.6667H16.1667C14.7834 12.6667 13.6667 13.7833 13.6667 15.1667V19.3333C13.6667 19.7917 14.0417 20.1667 14.5 20.1667H17V21.8333C17 22.75 17.75 23.5 18.6667 23.5H25.3334C26.25 23.5 27 22.75 27 21.8333V20.1667H29.5C29.9584 20.1667 30.3334 19.7917 30.3334 19.3333V15.1667C30.3334 13.7833 29.2167 12.6667 27.8334 12.6667ZM25.3334 21.8333H18.6667V18.5H25.3334V21.8333ZM27 16.4167C26.5417 16.4167 26.1667 16.0417 26.1667 15.5833C26.1667 15.125 26.5417 14.75 27 14.75C27.4584 14.75 27.8334 15.125 27.8334 15.5833C27.8334 16.0417 27.4584 16.4167 27 16.4167Z" fill="#393E41"/>
<path d="M4 1H40V-1H4V1ZM43 4V28H45V4H43ZM40 31H4V33H40V31ZM1 28V4H-1V28H1ZM4 31C2.34315 31 1 29.6569 1 28H-1C-1 30.7614 1.23857 33 4 33V31ZM43 28C43 29.6569 41.6569 31 40 31V33C42.7614 33 45 30.7614 45 28H43ZM40 1C41.6569 1 43 2.34315 43 4H45C45 1.23858 42.7614 -1 40 -1V1ZM4 -1C1.23858 -1 -1 1.23858 -1 4H1C1 2.34315 2.34315 1 4 1V-1Z" fill="#C0C3C7"/>
</svg>
