<svg width="44" height="32" viewBox="0 0 44 32" fill="none" xmlns="http://www.w3.org/2000/svg">
<path d="M0 4C0 1.79086 1.79086 0 4 0H40C42.2091 0 44 1.79086 44 4V28C44 30.2091 42.2091 32 40 32H4C1.79086 32 0 30.2091 0 28V4Z" fill="#16891F"/>
<path d="M18.6636 21C17.7469 21 17.0052 21.75 17.0052 22.6667C17.0052 23.5833 17.7469 24.3333 18.6636 24.3333C19.5802 24.3333 20.3302 23.5833 20.3302 22.6667C20.3302 21.75 19.5802 21 18.6636 21ZM13.6636 8.49999C13.6636 8.95832 14.0386 9.33332 14.4969 9.33332H15.3302L18.3302 15.6583L17.2052 17.6917C16.5969 18.8083 17.3969 20.1667 18.6636 20.1667H27.8302C28.2886 20.1667 28.6636 19.7917 28.6636 19.3333C28.6636 18.875 28.2886 18.5 27.8302 18.5H18.6636L19.5802 16.8333H25.7886C26.4136 16.8333 26.9636 16.4917 27.2469 15.975L30.2302 10.5667C30.5386 10.0167 30.1386 9.33332 29.5052 9.33332H17.1719L16.6136 8.14166C16.4802 7.84999 16.1802 7.66666 15.8636 7.66666H14.4969C14.0386 7.66666 13.6636 8.04166 13.6636 8.49999ZM26.9969 21C26.0802 21 25.3386 21.75 25.3386 22.6667C25.3386 23.5833 26.0802 24.3333 26.9969 24.3333C27.9136 24.3333 28.6636 23.5833 28.6636 22.6667C28.6636 21.75 27.9136 21 26.9969 21Z" fill="white"/>
</svg>
