<svg width="16" height="21" viewBox="0 0 16 21" fill="none" xmlns="http://www.w3.org/2000/svg">
<path d="M7.96206 4.14249V1.35249C7.96206 0.902487 7.42206 0.682487 7.11206 1.00249L3.31206 4.79249C3.11206 4.99249 3.11206 5.30249 3.31206 5.50249L7.10206 9.29249C7.42206 9.60249 7.96206 9.38249 7.96206 8.93249V6.14249C11.6921 6.14249 14.6421 9.56249 13.8221 13.4325C13.3521 15.7025 11.5121 17.5325 9.25206 18.0025C5.68206 18.7525 2.50206 16.3025 2.02206 12.9925C1.95206 12.5125 1.53206 12.1425 1.04206 12.1425C0.442064 12.1425 -0.0379359 12.6725 0.0420641 13.2725C0.662064 17.6625 4.84206 20.9125 9.57206 19.9925C12.6921 19.3825 15.2021 16.8725 15.8121 13.7525C16.8021 8.62249 12.9021 4.14249 7.96206 4.14249Z" fill="#393E41"/>
</svg>
