<svg width="27" height="28" viewBox="0 0 27 28" fill="none" xmlns="http://www.w3.org/2000/svg">
<path d="M13.4993 0.666504C6.13935 0.666504 0.166016 6.63984 0.166016 13.9998C0.166016 21.3598 6.13935 27.3332 13.4993 27.3332C20.8594 27.3332 26.8327 21.3598 26.8327 13.9998C26.8327 6.63984 20.8594 0.666504 13.4993 0.666504ZM9.88602 19.7198L5.09935 14.9332C4.57935 14.4132 4.57935 13.5732 5.09935 13.0532C5.61935 12.5332 6.45935 12.5332 6.97935 13.0532L10.8327 16.8932L20.006 7.71984C20.526 7.19984 21.366 7.19984 21.886 7.71984C22.406 8.23984 22.406 9.07984 21.886 9.59984L11.766 19.7198C11.2593 20.2398 10.406 20.2398 9.88602 19.7198Z" fill="#197741"/>
</svg>
