<?xml version="1.0" encoding="utf-8"?>
<!-- Generator: Adobe Illustrator 18.1.1, SVG Export Plug-In . SVG Version: 6.00 Build 0)  -->
<svg version="1.1" id="Layer_1" xmlns="http://www.w3.org/2000/svg" xmlns:xlink="http://www.w3.org/1999/xlink" x="0px" y="0px"
	 viewBox="0 0 15000 10000" enable-background="new 0 0 15000 10000" xml:space="preserve">
<rect y="6666.7" fill="#ED1C24" width="15000" height="3333.3"/>
<rect y="3333.3" fill="#005DA4" width="15000" height="3333.3"/>
<rect y="0" fill="#FFFFFF" width="15000" height="3333.3"/>
<g id="Emblem">
	<path fill="#005DA4" d="M5072.8,3610.8l96.5-1424.5c-752.6-356.7-1625.6-356.7-2378.2,0l96.5,1424.5
		c43.4,640,478.5,1186.3,1092.6,1371.9C4594.3,4797.1,5029.4,4250.8,5072.8,3610.8"/>
	<path fill="#FFFFFF" d="M3088.4,3803.8c103.4,465.3,441.1,843.4,891.8,998.5c450.7-155.1,788.4-533.2,891.8-998.5l-445.9-594.6
		l-178.4,237.8L3980.2,2912l-267.5,535.1l-178.4-237.8L3088.4,3803.8"/>
	<path fill="#005DA4" d="M3181.3,4080.6c98.9,57.1,220.7,57.1,319.6,0s220.7-57.1,319.6,0s220.7,57.1,319.6,0
		c98.9-57.1,220.7-57.1,319.6,0c98.9,57.1,220.7,57.1,319.6,0v85.8c-98.9,57.1-220.7,57.1-319.6,0c-98.9-57.1-220.7-57.1-319.6,0
		c-98.9,57.1-220.7,57.1-319.6,0s-220.7-57.1-319.6,0s-220.7,57.1-319.6,0V4080.6z"/>
	<path fill="#005DA4" d="M3181.3,4252.2c98.9,57.1,220.7,57.1,319.6,0s220.7-57.1,319.6,0s220.7,57.1,319.6,0
		c98.9-57.1,220.7-57.1,319.6,0c98.9,57.1,220.7,57.1,319.6,0v85.8c-98.9,57.1-220.7,57.1-319.6,0c-98.9-57.1-220.7-57.1-319.6,0
		c-98.9,57.1-220.7,57.1-319.6,0s-220.7-57.1-319.6,0s-220.7,57.1-319.6,0V4252.2z"/>
	<path fill="#FFDD00" d="M3980.2,2503.2l22.3,72.9l74.2-17.1l-52,55.7l52,55.7l-74.2-17.1l-22.3,72.9l-22.3-72.9l-74.2,17.1l52-55.7
		l-52-55.7l74.2,17.1L3980.2,2503.2z"/>
	<path fill="#FFDD00" d="M3645.8,2057.3l22.3,72.9l74.2-17.1l-52,55.7l52,55.7l-74.2-17.1l-22.3,72.9l-22.3-72.9l-74.2,17.1l52-55.7
		l-52-55.7l74.2,17.1L3645.8,2057.3z"/>
	<path fill="#FFDD00" d="M4314.7,2057.3l22.3,72.9l74.2-17.1l-52,55.7l52,55.7l-74.2-17.1l-22.3,72.9l-22.3-72.9l-74.2,17.1l52-55.7
		l-52-55.7l74.2,17.1L4314.7,2057.3z"/>
	<path fill="#ED1C24" d="M2874.6,2148.5l98.7,1456.5c40.3,594.9,439.3,1105.2,1006.9,1287.8c567.7-182.6,966.6-692.8,1006.9-1287.8
		l98.7-1456.5c27.6,13.1,55.4,25.7,83.4,37.9l-96.5,1424.5c-43.4,640-478.5,1186.3-1092.6,1371.9
		c-614.1-185.5-1049.2-731.8-1092.6-1371.9l-96.5-1424.5C2819.1,2174.2,2847,2161.5,2874.6,2148.5"/>
</g>
</svg>
