<svg width="21" height="20" viewBox="0 0 21 20" fill="none" xmlns="http://www.w3.org/2000/svg">
<g id="Icon">
<path id="Vector" d="M7.16357 15.0003C6.24691 15.0003 5.50524 15.7503 5.50524 16.667C5.50524 17.5837 6.24691 18.3337 7.16357 18.3337C8.08024 18.3337 8.83024 17.5837 8.83024 16.667C8.83024 15.7503 8.08024 15.0003 7.16357 15.0003ZM2.16357 2.50033C2.16357 2.95866 2.53857 3.33366 2.99691 3.33366H3.83024L6.83024 9.65866L5.70524 11.692C5.09691 12.8087 5.89691 14.167 7.16357 14.167H16.3302C16.7886 14.167 17.1636 13.792 17.1636 13.3337C17.1636 12.8753 16.7886 12.5003 16.3302 12.5003H7.16357L8.08024 10.8337H14.2886C14.9136 10.8337 15.4636 10.492 15.7469 9.97533L18.7302 4.56699C19.0386 4.01699 18.6386 3.33366 18.0052 3.33366H5.67191L5.11357 2.14199C4.98024 1.85033 4.68024 1.66699 4.36357 1.66699H2.99691C2.53857 1.66699 2.16357 2.04199 2.16357 2.50033ZM15.4969 15.0003C14.5802 15.0003 13.8386 15.7503 13.8386 16.667C13.8386 17.5837 14.5802 18.3337 15.4969 18.3337C16.4136 18.3337 17.1636 17.5837 17.1636 16.667C17.1636 15.7503 16.4136 15.0003 15.4969 15.0003Z" fill="white"/>
</g>
</svg>
