<svg width="16" height="16" viewBox="0 0 16 16" fill="none" xmlns="http://www.w3.org/2000/svg">
<path d="M12.2001 3.80665C11.9401 3.54665 11.5201 3.54665 11.2601 3.80665L8.0001 7.05998L4.7401 3.79998C4.4801 3.53998 4.0601 3.53998 3.8001 3.79998C3.5401 4.05998 3.5401 4.47998 3.8001 4.73998L7.0601 7.99998L3.8001 11.26C3.5401 11.52 3.5401 11.94 3.8001 12.2C4.0601 12.46 4.4801 12.46 4.7401 12.2L8.0001 8.93998L11.2601 12.2C11.5201 12.46 11.9401 12.46 12.2001 12.2C12.4601 11.94 12.4601 11.52 12.2001 11.26L8.9401 7.99998L12.2001 4.73998C12.4534 4.48665 12.4534 4.05998 12.2001 3.80665Z" fill="#393E41"/>
</svg>
