<svg width="21" height="20" viewBox="0 0 21 20" fill="none" xmlns="http://www.w3.org/2000/svg">
<path d="M18.2361 4.90798L9.90278 13.2413C9.57778 13.5663 9.05278 13.5663 8.72778 13.2413L6.36945 10.883C6.04445 10.558 6.04445 10.033 6.36945 9.70798C6.69445 9.38298 7.21945 9.38298 7.54445 9.70798L9.31111 11.4747L17.0528 3.73298C17.3778 3.40798 17.9028 3.40798 18.2278 3.73298C18.5611 4.05798 18.5611 4.58298 18.2361 4.90798ZM13.6361 2.28298C12.2278 1.70798 10.6278 1.50798 8.96111 1.80798C5.56945 2.41632 2.86111 5.14965 2.28611 8.54132C1.33611 14.1663 6.01945 18.983 11.6111 18.258C14.9111 17.833 17.6778 15.3747 18.5444 12.1663C18.8778 10.9413 18.9111 9.75798 18.7194 8.64965C18.6111 7.98298 17.7861 7.72465 17.3028 8.19965C17.1111 8.39132 17.0278 8.67465 17.0778 8.94132C17.2611 10.0497 17.1778 11.233 16.6444 12.4913C15.6778 14.7497 13.5778 16.408 11.1361 16.633C6.88611 17.0246 3.36111 13.4247 3.88611 9.14965C4.24445 6.19965 6.61945 3.79965 9.56111 3.39132C11.0028 3.19132 12.3694 3.46632 13.5361 4.06632C13.8611 4.23298 14.2528 4.17465 14.5111 3.91632C14.9111 3.51632 14.8111 2.84132 14.3111 2.58298C14.0861 2.48298 13.8611 2.37465 13.6361 2.28298Z" fill="white"/>
</svg>
