<svg width="20" height="20" viewBox="0 0 20 20" fill="none" xmlns="http://www.w3.org/2000/svg">
<path d="M10 6.33335C10.4583 6.33335 10.8333 6.70835 10.8333 7.16669V10.5C10.8333 10.9584 10.4583 11.3334 10 11.3334C9.54166 11.3334 9.16666 10.9584 9.16666 10.5V7.16669C9.16666 6.70835 9.54166 6.33335 10 6.33335ZM9.99166 2.16669C5.39166 2.16669 1.66666 5.90002 1.66666 10.5C1.66666 15.1 5.39166 18.8334 9.99166 18.8334C14.6 18.8334 18.3333 15.1 18.3333 10.5C18.3333 5.90002 14.6 2.16669 9.99166 2.16669ZM10 17.1667C6.31666 17.1667 3.33333 14.1834 3.33333 10.5C3.33333 6.81669 6.31666 3.83335 10 3.83335C13.6833 3.83335 16.6667 6.81669 16.6667 10.5C16.6667 14.1834 13.6833 17.1667 10 17.1667ZM10.8333 14.6667H9.16666V13H10.8333V14.6667Z" fill="#B25E09"/>
</svg>
