<svg width="20" height="21" viewBox="0 0 20 21" fill="none" xmlns="http://www.w3.org/2000/svg">
<path d="M9.16666 6.33335H10.8333V8.00002H9.16666V6.33335ZM9.16666 9.66669H10.8333V14.6667H9.16666V9.66669ZM10 2.16669C5.4 2.16669 1.66666 5.90002 1.66666 10.5C1.66666 15.1 5.4 18.8334 10 18.8334C14.6 18.8334 18.3333 15.1 18.3333 10.5C18.3333 5.90002 14.6 2.16669 10 2.16669ZM10 17.1667C6.325 17.1667 3.33333 14.175 3.33333 10.5C3.33333 6.82502 6.325 3.83335 10 3.83335C13.675 3.83335 16.6667 6.82502 16.6667 10.5C16.6667 14.175 13.675 17.1667 10 17.1667Z" fill="#2F6FED"/>
</svg>
