<svg xmlns="http://www.w3.org/2000/svg" width="24" height="24" viewBox="0 0 24 24" fill="none">
<path d="M6.20062 22.4995H1.84688V8.47921H6.20062V22.4995ZM4.02141 6.56671C2.62922 6.56671 1.5 5.41359 1.5 4.0214C1.5 3.35269 1.76565 2.71136 2.2385 2.2385C2.71136 1.76565 3.35269 1.5 4.02141 1.5C4.69012 1.5 5.33145 1.76565 5.80431 2.2385C6.27716 2.71136 6.54281 3.35269 6.54281 4.0214C6.54281 5.41359 5.41313 6.56671 4.02141 6.56671ZM22.4953 22.4995H18.1509V15.6745C18.1509 14.048 18.1181 11.962 15.8873 11.962C13.6237 11.962 13.2769 13.7292 13.2769 15.5573V22.4995H8.92781V8.47921H13.1034V10.3917H13.1644C13.7456 9.29015 15.1655 8.12765 17.2838 8.12765C21.69 8.12765 22.5 11.0292 22.5 14.798V22.4995H22.4953Z" fill="white"/>
</svg>
