<svg width="20" height="20" viewBox="0 0 20 20" fill="none" xmlns="http://www.w3.org/2000/svg">
<path d="M3.54169 8.75C2.85002 8.75 2.29169 9.30833 2.29169 10C2.29169 10.6917 2.85002 11.25 3.54169 11.25C4.23335 11.25 4.79169 10.6917 4.79169 10C4.79169 9.30833 4.23335 8.75 3.54169 8.75ZM3.54169 3.75C2.85002 3.75 2.29169 4.30833 2.29169 5C2.29169 5.69167 2.85002 6.25 3.54169 6.25C4.23335 6.25 4.79169 5.69167 4.79169 5C4.79169 4.30833 4.23335 3.75 3.54169 3.75ZM3.54169 13.75C2.85002 13.75 2.29169 14.3167 2.29169 15C2.29169 15.6833 2.85835 16.25 3.54169 16.25C4.22502 16.25 4.79169 15.6833 4.79169 15C4.79169 14.3167 4.23335 13.75 3.54169 13.75ZM6.87502 15.8333H16.875C17.3334 15.8333 17.7084 15.4583 17.7084 15C17.7084 14.5417 17.3334 14.1667 16.875 14.1667H6.87502C6.41669 14.1667 6.04169 14.5417 6.04169 15C6.04169 15.4583 6.41669 15.8333 6.87502 15.8333ZM6.87502 10.8333H16.875C17.3334 10.8333 17.7084 10.4583 17.7084 10C17.7084 9.54167 17.3334 9.16667 16.875 9.16667H6.87502C6.41669 9.16667 6.04169 9.54167 6.04169 10C6.04169 10.4583 6.41669 10.8333 6.87502 10.8333ZM6.04169 5C6.04169 5.45833 6.41669 5.83333 6.87502 5.83333H16.875C17.3334 5.83333 17.7084 5.45833 17.7084 5C17.7084 4.54167 17.3334 4.16667 16.875 4.16667H6.87502C6.41669 4.16667 6.04169 4.54167 6.04169 5Z" fill="white"/>
</svg>
