<svg width="20" height="20" viewBox="0 0 20 20" fill="none" xmlns="http://www.w3.org/2000/svg">
<path d="M3.54175 8.75C2.85008 8.75 2.29175 9.30833 2.29175 10C2.29175 10.6917 2.85008 11.25 3.54175 11.25C4.23341 11.25 4.79175 10.6917 4.79175 10C4.79175 9.30833 4.23341 8.75 3.54175 8.75ZM3.54175 3.75C2.85008 3.75 2.29175 4.30833 2.29175 5C2.29175 5.69167 2.85008 6.25 3.54175 6.25C4.23341 6.25 4.79175 5.69167 4.79175 5C4.79175 4.30833 4.23341 3.75 3.54175 3.75ZM3.54175 13.75C2.85008 13.75 2.29175 14.3167 2.29175 15C2.29175 15.6833 2.85841 16.25 3.54175 16.25C4.22508 16.25 4.79175 15.6833 4.79175 15C4.79175 14.3167 4.23341 13.75 3.54175 13.75ZM6.87508 15.8333H16.8751C17.3334 15.8333 17.7084 15.4583 17.7084 15C17.7084 14.5417 17.3334 14.1667 16.8751 14.1667H6.87508C6.41675 14.1667 6.04175 14.5417 6.04175 15C6.04175 15.4583 6.41675 15.8333 6.87508 15.8333ZM6.87508 10.8333H16.8751C17.3334 10.8333 17.7084 10.4583 17.7084 10C17.7084 9.54167 17.3334 9.16667 16.8751 9.16667H6.87508C6.41675 9.16667 6.04175 9.54167 6.04175 10C6.04175 10.4583 6.41675 10.8333 6.87508 10.8333ZM6.04175 5C6.04175 5.45833 6.41675 5.83333 6.87508 5.83333H16.8751C17.3334 5.83333 17.7084 5.45833 17.7084 5C17.7084 4.54167 17.3334 4.16667 16.8751 4.16667H6.87508C6.41675 4.16667 6.04175 4.54167 6.04175 5Z" fill="#393E41"/>
</svg>
