<svg width="24" height="25" viewBox="0 0 24 25" fill="none" xmlns="http://www.w3.org/2000/svg">
<g id="Icon">
<path id="Vector" d="M20 2.89587H8C6.9 2.89587 6 3.79587 6 4.89587V16.8959C6 17.9959 6.9 18.8959 8 18.8959H20C21.1 18.8959 22 17.9959 22 16.8959V4.89587C22 3.79587 21.1 2.89587 20 2.89587ZM20 16.8959H8V4.89587H20V16.8959ZM4 6.89587H2V20.8959C2 21.9959 2.9 22.8959 4 22.8959H18V20.8959H4V6.89587ZM16 12.8959V9.89587C16 9.34587 15.55 8.89587 15 8.89587H13V13.8959H15C15.55 13.8959 16 13.4459 16 12.8959ZM14 9.89587H15V12.8959H14V9.89587ZM18 11.8959H19V10.8959H18V9.89587H19V8.89587H17V13.8959H18V11.8959ZM10 11.8959H11C11.55 11.8959 12 11.4459 12 10.8959V9.89587C12 9.34587 11.55 8.89587 11 8.89587H9V13.8959H10V11.8959ZM10 9.89587H11V10.8959H10V9.89587Z" fill="#393E41"/>
</g>
</svg>
