<svg width="20" height="20" viewBox="0 0 20 20" fill="none" xmlns="http://www.w3.org/2000/svg">
<g id="Icon">
<path id="tickCancelCircle" d="M10.3851 1.66666C5.77676 1.66666 2.05176 5.39166 2.05176 9.99999C2.05176 14.6083 5.77676 18.3333 10.3851 18.3333C14.9934 18.3333 18.7184 14.6083 18.7184 9.99999C18.7184 5.39166 14.9934 1.66666 10.3851 1.66666ZM13.9684 13.5833C13.6434 13.9083 13.1184 13.9083 12.7934 13.5833L10.3851 11.175L7.97676 13.5833C7.65176 13.9083 7.12676 13.9083 6.80176 13.5833C6.47676 13.2583 6.47676 12.7333 6.80176 12.4083L9.21009 9.99999L6.80176 7.59166C6.47676 7.26666 6.47676 6.74166 6.80176 6.41666C7.12676 6.09166 7.65176 6.09166 7.97676 6.41666L10.3851 8.82499L12.7934 6.41666C13.1184 6.09166 13.6434 6.09166 13.9684 6.41666C14.2934 6.74166 14.2934 7.26666 13.9684 7.59166L11.5601 9.99999L13.9684 12.4083C14.2851 12.725 14.2851 13.2583 13.9684 13.5833Z" fill="#E50018"/>
</g>
</svg>
