<svg width="59" height="40" viewBox="0 0 59 40" fill="none" xmlns="http://www.w3.org/2000/svg">
<rect x="1.1665" y="0.5" width="56.6686" height="39" rx="5.5" fill="white" stroke="#D9D9D9"/>
<g clip-path="url(#clip0_7616_75716)">
<path d="M23.947 16.7231H21.4336C21.2616 16.7231 21.1153 16.8519 21.0885 17.0269L20.072 23.6697C20.0518 23.8008 20.1503 23.919 20.2793 23.919H21.4792C21.6512 23.919 21.7974 23.7902 21.8243 23.6148L22.0984 21.8231C22.1249 21.6478 22.2715 21.519 22.4432 21.519H23.2388C24.8945 21.519 25.85 20.6932 26.0995 19.0569C26.212 18.3409 26.1043 17.7784 25.7791 17.3845C25.4218 16.9519 24.7882 16.7231 23.947 16.7231ZM24.237 19.1493C24.0995 20.0788 23.4104 20.0788 22.7442 20.0788H22.3649L22.631 18.3428C22.6468 18.2379 22.735 18.1606 22.8379 18.1606H23.0117C23.4656 18.1606 23.8937 18.1606 24.115 18.4273C24.2469 18.5864 24.2873 18.8228 24.237 19.1493Z" fill="#253B80"/>
<path d="M31.4598 19.1194H30.2562C30.1537 19.1194 30.0651 19.1966 30.0493 19.3015L29.996 19.6485L29.9119 19.5228C29.6513 19.133 29.0703 19.0027 28.4903 19.0027C27.1603 19.0027 26.0243 20.0409 25.8031 21.4974C25.6881 22.2239 25.8516 22.9186 26.2515 23.4031C26.6182 23.8485 27.143 24.0341 27.7674 24.0341C28.8391 24.0341 29.4334 23.3239 29.4334 23.3239L29.3797 23.6686C29.3595 23.8004 29.458 23.9186 29.5863 23.9186H30.6704C30.8428 23.9186 30.9883 23.7898 31.0155 23.6144L31.666 19.3686C31.6866 19.2379 31.5885 19.1194 31.4598 19.1194ZM29.7821 21.5337C29.666 22.2425 29.1203 22.7182 28.4242 22.7182C28.0747 22.7182 27.7954 22.6027 27.616 22.3837C27.4382 22.1663 27.3705 21.8569 27.4271 21.5122C27.5355 20.8095 28.0905 20.3182 28.7759 20.3182C29.1177 20.3182 29.3955 20.4353 29.5785 20.6561C29.7619 20.8792 29.8347 21.1906 29.7821 21.5337Z" fill="#253B80"/>
<path d="M37.8699 19.1194H36.6604C36.545 19.1194 36.4366 19.1785 36.3712 19.2773L34.7031 21.8099L33.996 19.3762C33.9515 19.2239 33.8152 19.1194 33.6608 19.1194H32.4723C32.3279 19.1194 32.2275 19.2648 32.2735 19.405L33.6057 23.4345L32.3532 25.2569C32.2547 25.4004 32.3539 25.5978 32.5241 25.5978H33.7321C33.8468 25.5978 33.9541 25.5402 34.0191 25.4432L38.0419 19.4584C38.1382 19.3152 38.0394 19.1194 37.8699 19.1194Z" fill="#253B80"/>
<path d="M41.8748 16.7231H39.361C39.1893 16.7231 39.0431 16.8519 39.0162 17.0269L37.9997 23.6697C37.9795 23.8008 38.078 23.919 38.2063 23.919H39.4962C39.616 23.919 39.7186 23.8288 39.7373 23.7061L40.0258 21.8231C40.0523 21.6478 40.1989 21.519 40.3705 21.519H41.1658C42.8218 21.519 43.777 20.6932 44.0269 19.0569C44.1397 18.3409 44.0313 17.7784 43.7061 17.3845C43.3492 16.9519 42.716 16.7231 41.8748 16.7231ZM42.1647 19.1493C42.0276 20.0788 41.3386 20.0788 40.6719 20.0788H40.293L40.5594 18.3428C40.5752 18.2379 40.6627 18.1606 40.766 18.1606H40.9398C41.3933 18.1606 41.8218 18.1606 42.0431 18.4273C42.175 18.5864 42.2151 18.8228 42.1647 19.1493Z" fill="#179BD7"/>
<path d="M49.387 19.1194H48.1841C48.0808 19.1194 47.993 19.1966 47.9776 19.3015L47.9243 19.6485L47.8397 19.5228C47.5792 19.133 46.9985 19.0027 46.4186 19.0027C45.0886 19.0027 43.9529 20.0409 43.7317 21.4974C43.617 22.2239 43.7798 22.9186 44.1797 23.4031C44.5472 23.8485 45.0713 24.0341 45.6957 24.0341C46.7674 24.0341 47.3616 23.3239 47.3616 23.3239L47.308 23.6686C47.2877 23.8004 47.3862 23.9186 47.5152 23.9186H48.599C48.7707 23.9186 48.9169 23.7898 48.9438 23.6144L49.5946 19.3686C49.6145 19.2379 49.516 19.1194 49.387 19.1194ZM47.7093 21.5337C47.5939 22.2425 47.0474 22.7182 46.3513 22.7182C46.0026 22.7182 45.7225 22.6027 45.5432 22.3837C45.3653 22.1663 45.2984 21.8569 45.3543 21.5122C45.4634 20.8095 46.0176 20.3182 46.703 20.3182C47.0448 20.3182 47.3227 20.4353 47.5057 20.6561C47.6898 20.8792 47.7626 21.1906 47.7093 21.5337Z" fill="#179BD7"/>
<path d="M50.8062 16.9055L49.7746 23.6699C49.7544 23.8009 49.8529 23.9191 49.9812 23.9191H51.0183C51.1906 23.9191 51.3369 23.7903 51.3634 23.6149L52.3806 16.9725C52.4009 16.8415 52.3024 16.7229 52.1741 16.7229H51.0128C50.9102 16.7233 50.822 16.8006 50.8062 16.9055Z" fill="#179BD7"/>
<path d="M9.63441 25.21L9.82662 23.9517L9.39847 23.9414H7.354L8.7748 14.6562C8.77921 14.6282 8.79355 14.602 8.81449 14.5835C8.83544 14.5649 8.86227 14.5547 8.8902 14.5547H12.3375C13.4819 14.5547 14.2717 14.8001 14.684 15.2846C14.8773 15.5119 15.0004 15.7494 15.06 16.0107C15.1225 16.285 15.1236 16.6126 15.0626 17.0123L15.0581 17.0414V17.2975L15.2515 17.4104C15.4143 17.4994 15.5436 17.6013 15.6429 17.7179C15.8082 17.9123 15.9152 18.1592 15.9604 18.452C16.0071 18.7532 15.9916 19.1115 15.9152 19.5172C15.827 19.9839 15.6844 20.3903 15.4918 20.7229C15.3147 21.0293 15.089 21.2835 14.8211 21.4804C14.5653 21.6676 14.2614 21.8096 13.9178 21.9005C13.5848 21.9899 13.2052 22.035 12.7888 22.035H12.5205C12.3286 22.035 12.1423 22.1062 11.996 22.2339C11.8494 22.3642 11.7524 22.5422 11.7226 22.7369L11.7024 22.8501L11.3628 25.0679L11.3474 25.1494C11.3433 25.1751 11.3364 25.188 11.3261 25.1967C11.3169 25.2047 11.3037 25.21 11.2908 25.21H9.63441Z" fill="#253B80"/>
<path d="M15.4344 17.0708C15.4241 17.1386 15.4124 17.2079 15.3991 17.2791C14.9445 19.6848 13.3892 20.5159 11.4028 20.5159H10.3914C10.1485 20.5159 9.94378 20.6977 9.90593 20.9447L9.3881 24.3295L9.24147 25.289C9.21684 25.4511 9.33812 25.5973 9.49689 25.5973H11.2907C11.5031 25.5973 11.6836 25.4382 11.717 25.2223L11.7347 25.1284L12.0724 22.9193L12.0941 22.7981C12.1272 22.5814 12.308 22.4223 12.5204 22.4223H12.7887C14.5266 22.4223 15.8872 21.695 16.2848 19.5905C16.4509 18.7113 16.3649 17.9772 15.9254 17.461C15.7924 17.3053 15.6273 17.1761 15.4344 17.0708Z" fill="#179BD7"/>
<path d="M14.9587 16.8755C14.8892 16.8546 14.8176 16.8357 14.744 16.8186C14.6702 16.802 14.5945 16.7872 14.5166 16.7743C14.2439 16.7289 13.9451 16.7073 13.625 16.7073H10.923C10.8565 16.7073 10.7933 16.7228 10.7367 16.7508C10.6121 16.8126 10.5195 16.9342 10.4971 17.083L9.9223 20.8353L9.90576 20.9448C9.94362 20.6978 10.1483 20.516 10.3912 20.516H11.4026C13.389 20.516 14.9443 19.6845 15.399 17.2792C15.4126 17.208 15.4239 17.1387 15.4342 17.0709C15.3192 17.008 15.1946 16.9542 15.0605 16.9084C15.0274 16.897 14.9932 16.8861 14.9587 16.8755Z" fill="#222D65"/>
<path d="M10.4971 17.083C10.5195 16.9342 10.6121 16.8126 10.7367 16.7512C10.7937 16.7232 10.8565 16.7077 10.9231 16.7077H13.625C13.9451 16.7077 14.2439 16.7292 14.5166 16.7747C14.5945 16.7876 14.6702 16.8024 14.7441 16.819C14.8176 16.8361 14.8892 16.855 14.9587 16.8758C14.9933 16.8864 15.0274 16.8974 15.0609 16.9084C15.195 16.9542 15.3196 17.0084 15.4346 17.0709C15.5699 16.1819 15.4335 15.5766 14.9672 15.0285C14.453 14.4251 13.525 14.1667 12.3376 14.1667H8.89036C8.6478 14.1667 8.44089 14.3486 8.40341 14.5959L6.96754 23.9766C6.93924 24.1622 7.07816 24.3296 7.25971 24.3296H9.38797L9.92233 20.8353L10.4971 17.083Z" fill="#253B80"/>
</g>
<defs>
<clipPath id="clip0_7616_75716">
<rect width="45.5714" height="12.5" fill="white" transform="translate(6.96387 14.1667)"/>
</clipPath>
</defs>
</svg>
