<svg width="59" height="40" viewBox="0 0 59 40" fill="none" xmlns="http://www.w3.org/2000/svg">
<g clip-path="url(#clip0_7616_75678)">
<rect x="0.666504" width="58" height="40" rx="6" fill="white"/>
<g clip-path="url(#clip1_7616_75678)">
<path d="M53.6952 32.5249H57.838L52.3529 26.6749L57.838 20.8999H53.7615L50.3726 24.6166L47.0252 20.8999H42.874L48.326 26.7082L42.874 32.5249H46.9092L50.3063 28.7749L53.6952 32.5249Z" fill="#006FCF"/>
<path d="M54.6646 26.6833L57.838 30.0833V23.3167L54.6646 26.6833Z" fill="#006FCF"/>
<path d="M36.1871 29.8332V28.0249H42.708V25.3999H36.1871V23.5916H42.8737V20.8999H33.0303V32.5249H42.8737V29.8332H36.1871Z" fill="#006FCF"/>
<path d="M54.7143 19.2083H57.838V7.58325H52.9826L50.3892 14.8249L47.8123 7.58325H42.874V19.2083H45.9977V11.0749L48.9723 19.2083H51.7397L54.7143 11.0583V19.2083Z" fill="#006FCF"/>
<path d="M41.1588 11.05V5.91667H49.0136L50.3808 9.78333L51.7479 5.91667H57.8379V0H0.666504V40H57.8379V34.1917H52.8582L50.2896 31.3333L47.7128 34.1917H31.2739V20.8917H25.9711L32.5499 5.91667H38.8968L41.1588 11.05Z" fill="#006FCF"/>
<path d="M37.77 7.58325H33.71L28.606 19.2083H32.0777L33.0388 16.8833H38.3582L39.336 19.2083H42.8905L37.7865 7.58325H37.77ZM34.116 14.2749L35.682 10.4749L37.248 14.2749H34.1077H34.116Z" fill="#006FCF"/>
</g>
</g>
<rect x="1.1665" y="0.5" width="57" height="39" rx="5.5" stroke="#D9D9D9"/>
<defs>
<clipPath id="clip0_7616_75678">
<rect x="0.666504" width="58" height="40" rx="6" fill="white"/>
</clipPath>
<clipPath id="clip1_7616_75678">
<rect width="57.1714" height="40" fill="white" transform="translate(0.666504)"/>
</clipPath>
</defs>
</svg>
