<svg width="22" height="16" viewBox="0 0 22 16" fill="none" xmlns="http://www.w3.org/2000/svg">
<path d="M0 7.5C0 7.22386 0.223858 7 0.5 7H3.5C3.77614 7 4 7.22386 4 7.5C4 7.77614 3.77614 8 3.5 8H0.5C0.223858 8 0 7.77614 0 7.5Z" fill="#393E41"/>
<path d="M1 5.5C1 5.22386 1.22386 5 1.5 5H4.5C4.77614 5 5 5.22386 5 5.5C5 5.77614 4.77614 6 4.5 6H1.5C1.22386 6 1 5.77614 1 5.5Z" fill="#393E41"/>
<path d="M0 3.5C0 3.22386 0.223858 3 0.5 3H3.5C3.77614 3 4 3.22386 4 3.5C4 3.77614 3.77614 4 3.5 4H0.5C0.223858 4 0 3.77614 0 3.5Z" fill="#393E41"/>
<path d="M2 2.5C2 2.22386 2.22386 2 2.5 2L5.5 2C5.77614 2 6 2.22386 6 2.5C6 2.77614 5.77614 3 5.5 3H2.5C2.22386 3 2 2.77614 2 2.5Z" fill="#393E41"/>
<path fill-rule="evenodd" clip-rule="evenodd" d="M16 4H18.5C18.81 4 19.11 4.15 19.3 4.4L21.6 7.47C21.86 7.82 22 8.24 22 8.67V12C22 12.55 21.55 13 21 13H20C20 14.66 18.66 16 17 16C15.34 16 14 14.66 14 13H8C8 14.66 6.66 16 5 16C3.34 16 2 14.66 2 13V9H6.5C6.77614 9 7 8.77614 7 8.5C7 8.22386 6.77614 8 6.5 8H2V7H7.5C7.77614 7 8 6.77614 8 6.5C8 6.22386 7.77614 6 7.5 6H2V5H8.5C8.77614 5 9 4.77614 9 4.5C9 4.22386 8.77614 4 8.5 4L2 4V2C2 0.895431 2.89543 0 4 0L14 0C15.1 0 16 0.9 16 2V4ZM4 13C4 13.55 4.45 14 5 14C5.55 14 6 13.55 6 13C6 12.45 5.55 12 5 12C4.45 12 4 12.45 4 13ZM20.46 8L18.5 5.5L16 5.5V8L20.46 8ZM16 13C16 13.55 16.45 14 17 14C17.55 14 18 13.55 18 13C18 12.45 17.55 12 17 12C16.45 12 16 12.45 16 13Z" fill="#393E41"/>
</svg>
