<svg width="18" height="18" viewBox="0 0 18 18" fill="none" xmlns="http://www.w3.org/2000/svg">
<path d="M9.00008 0.666748C4.40008 0.666748 0.666748 4.40008 0.666748 9.00008C0.666748 13.6001 4.40008 17.3334 9.00008 17.3334C13.6001 17.3334 17.3334 13.6001 17.3334 9.00008C17.3334 4.40008 13.6001 0.666748 9.00008 0.666748ZM9.00008 13.1667C8.54175 13.1667 8.16675 12.7917 8.16675 12.3334V9.00008C8.16675 8.54175 8.54175 8.16675 9.00008 8.16675C9.45842 8.16675 9.83342 8.54175 9.83342 9.00008V12.3334C9.83342 12.7917 9.45842 13.1667 9.00008 13.1667ZM9.83342 6.50008H8.16675V4.83342H9.83342V6.50008Z" fill="#1B655E"/>
</svg>
