<svg width="12" height="14" viewBox="0 0 12 14" fill="none" xmlns="http://www.w3.org/2000/svg">
<path d="M8.33334 1.66663H1.66668V10.3333C1.66668 10.7 1.36668 11 1.00001 11C0.633344 11 0.333344 10.7 0.333344 10.3333V1.66663C0.333344 0.933292 0.933344 0.333292 1.66668 0.333292H8.33334C8.70001 0.333292 9.00001 0.633292 9.00001 0.999959C9.00001 1.36663 8.70001 1.66663 8.33334 1.66663ZM11.6667 4.33329V12.3333C11.6667 13.0666 11.0667 13.6666 10.3333 13.6666H4.33334C3.60001 13.6666 3.00001 13.0666 3.00001 12.3333V4.33329C3.00001 3.59996 3.60001 2.99996 4.33334 2.99996H10.3333C11.0667 2.99996 11.6667 3.59996 11.6667 4.33329ZM10.3333 4.33329H4.33334V12.3333H10.3333V4.33329Z" fill="#81858A"/>
</svg>
