<svg width="27" height="22" viewBox="0 0 27 22" fill="none" xmlns="http://www.w3.org/2000/svg">
<path d="M24.166 0.333496H2.83268C1.36602 0.333496 0.179349 1.5335 0.179349 3.00016L0.166016 19.0002C0.166016 20.4668 1.36602 21.6668 2.83268 21.6668H24.166C25.6327 21.6668 26.8327 20.4668 26.8327 19.0002V3.00016C26.8327 1.5335 25.6327 0.333496 24.166 0.333496ZM23.6327 6.00016L14.206 11.8935C13.7793 12.1602 13.2193 12.1602 12.7927 11.8935L3.36602 6.00016C3.03268 5.78683 2.83268 5.42683 2.83268 5.04016C2.83268 4.14683 3.80602 3.6135 4.56602 4.08016L13.4993 9.66683L22.4327 4.08016C23.1927 3.6135 24.166 4.14683 24.166 5.04016C24.166 5.42683 23.966 5.78683 23.6327 6.00016Z" fill="white"/>
</svg>
