<svg width="27" height="28" viewBox="0 0 27 28" fill="none" xmlns="http://www.w3.org/2000/svg">
<path d="M13.5 7.33333C14.2333 7.33333 14.8333 7.93333 14.8333 8.66666V14C14.8333 14.7333 14.2333 15.3333 13.5 15.3333C12.7667 15.3333 12.1667 14.7333 12.1667 14V8.66666C12.1667 7.93333 12.7667 7.33333 13.5 7.33333ZM13.4867 0.666664C6.12667 0.666664 0.166672 6.64 0.166672 14C0.166672 21.36 6.12667 27.3333 13.4867 27.3333C20.86 27.3333 26.8333 21.36 26.8333 14C26.8333 6.64 20.86 0.666664 13.4867 0.666664ZM13.5 24.6667C7.60667 24.6667 2.83334 19.8933 2.83334 14C2.83334 8.10666 7.60667 3.33333 13.5 3.33333C19.3933 3.33333 24.1667 8.10666 24.1667 14C24.1667 19.8933 19.3933 24.6667 13.5 24.6667ZM14.8333 20.6667H12.1667V18H14.8333V20.6667Z" fill="#B25E09"/>
</svg>
