<svg width="10" height="10" viewBox="0 0 10 10" fill="none" xmlns="http://www.w3.org/2000/svg">
<path d="M0.99999 5.66683H4.33332V9.00016C4.33332 9.36683 4.63332 9.66683 4.99999 9.66683C5.36666 9.66683 5.66666 9.36683 5.66666 9.00016V5.66683H8.99999C9.36666 5.66683 9.66666 5.36683 9.66666 5.00016C9.66666 4.6335 9.36666 4.3335 8.99999 4.3335H5.66666V1.00016C5.66666 0.633496 5.36666 0.333496 4.99999 0.333496C4.63332 0.333496 4.33332 0.633496 4.33332 1.00016V4.3335H0.99999C0.633323 4.3335 0.333323 4.6335 0.333323 5.00016C0.333323 5.36683 0.633323 5.66683 0.99999 5.66683Z" fill="#393E41"/>
</svg>