<svg width="123" height="20" viewBox="0 0 123 20" fill="none" xmlns="http://www.w3.org/2000/svg">
<g clip-path="url(#clip0_119_3223)">
<path d="M22.17 3H18.5V12.505H22.115C25.54 12.505 27.535 10.47 27.535 7.725V7.705C27.535 4.96 25.565 3.005 22.165 3.005V2.995L22.17 3ZM24.83 7.775C24.83 9.31 23.785 10.18 22.205 10.18H21.13V5.335H22.205C23.785 5.335 24.83 6.22 24.83 7.74V7.775Z" fill="#DF1417"/>
<path d="M31.49 3H28.84V12.51H31.49V3Z" fill="#DF1417"/>
<path d="M37.15 6.595C35.835 6.295 35.505 6.105 35.505 5.67V5.64C35.505 5.3 35.82 5.03 36.455 5.03C37.295 5.03 38.25 5.355 39.12 5.965L40.435 4.105C39.405 3.275 38.14 2.84 36.525 2.84C34.24 2.84 32.84 4.115 32.84 5.88V5.905C32.84 7.865 34.405 8.43 36.425 8.895C37.715 9.195 38.03 9.415 38.03 9.805V9.83C38.03 10.24 37.65 10.485 36.94 10.485C35.815 10.47 34.725 10.07 33.855 9.345L32.385 11.095C33.555 12.14 35.16 12.67 36.84 12.67C39.15 12.67 40.685 11.515 40.685 9.575V9.55C40.685 7.77 39.325 7.065 37.14 6.59" fill="#DF1417"/>
<path d="M41.065 5.31H43.92V12.51H46.555V5.31H49.41V3H41.065V5.31Z" fill="#DF1417"/>
<path d="M58.89 6.275V6.25C58.89 5.315 58.605 4.58 58.045 4.04C57.415 3.385 56.4 3.01 54.95 3.01H50.45V12.515H53.085V9.635H54.24L56.155 12.515H59.2L56.93 9.2C58.11 8.695 58.885 7.735 58.885 6.28L58.89 6.275ZM56.24 6.435C56.24 7.13 55.725 7.565 54.825 7.565H53.085V5.285H54.815C55.7 5.285 56.235 5.665 56.235 6.41V6.435H56.24Z" fill="#DF1417"/>
<path d="M67.285 8.76V6.685H62.72V5.245H67.76V3.005H60.11V12.51H67.825V10.27H62.715V8.76H67.285Z" fill="#DF1417"/>
<path d="M71.7 3H69.065V12.505H76.305V10.195H71.7V3Z" fill="#DF1417"/>
<path d="M84.5 8.76V6.685H79.935V5.245H84.975V3.005H77.325V12.51H85.04V10.27H79.93V8.76H84.5Z" fill="#DF1417"/>
<path d="M93.015 9.14C92.445 9.835 91.86 10.295 90.87 10.295C89.54 10.295 88.6 9.18 88.6 7.755V7.725C88.6 6.34 89.54 5.215 90.87 5.215C91.78 5.215 92.405 5.65 92.945 6.33L94.93 4.795C94.09 3.625 92.835 2.81 90.895 2.81C88.015 2.81 85.88 4.985 85.88 7.75V7.775C85.88 10.615 88.065 12.695 90.785 12.695C92.89 12.695 94.105 11.785 94.995 10.55L93.01 9.14H93.015Z" fill="#DF1417"/>
<path d="M13.715 9.41H10.285L0 20H3.43L13.715 9.41Z" fill="#DF1417"/>
<path d="M14.86 4.705H11.43L1.145 15.295H4.575L14.86 4.705Z" fill="#AA1936"/>
<path d="M16 0H12.57L2.285 10.59H5.715L16 0Z" fill="#F69F1D"/>
<path d="M19.425 14C19.885 14 20.215 14.09 20.425 14.27C20.635 14.45 20.74 14.705 20.74 15.03C20.74 15.225 20.695 15.405 20.61 15.57C20.525 15.735 20.38 15.875 20.175 15.98C19.97 16.085 19.695 16.135 19.345 16.135H18.945V17.5H18.505V14H19.43H19.425ZM19.385 14.375H18.94V15.76H19.295C19.63 15.76 19.875 15.705 20.04 15.6C20.205 15.495 20.285 15.31 20.285 15.05C20.285 14.825 20.215 14.655 20.07 14.545C19.925 14.435 19.7 14.38 19.39 14.38L19.385 14.375Z" fill="#575756"/>
<path d="M23.47 17.505L23.05 16.42H21.66L21.245 17.505H20.8L22.17 13.99H22.565L23.93 17.505H23.47ZM22.525 14.97C22.515 14.945 22.5 14.895 22.475 14.825C22.45 14.755 22.43 14.685 22.41 14.61C22.39 14.535 22.37 14.48 22.36 14.44C22.335 14.54 22.31 14.64 22.28 14.735C22.25 14.83 22.225 14.91 22.205 14.965L21.81 16.025H22.92L22.53 14.965L22.525 14.97Z" fill="#575756"/>
<path d="M25.42 14C25.855 14 26.175 14.085 26.385 14.25C26.595 14.415 26.695 14.665 26.695 15C26.695 15.185 26.66 15.34 26.59 15.465C26.52 15.59 26.435 15.69 26.33 15.76C26.225 15.835 26.11 15.89 25.995 15.935L26.955 17.505H26.44L25.59 16.06H24.895V17.505H24.455V14.005H25.42V14ZM25.395 14.38H24.895V15.68H25.42C25.705 15.68 25.91 15.625 26.045 15.51C26.18 15.395 26.24 15.23 26.24 15.01C26.24 14.79 26.17 14.62 26.035 14.52C25.9 14.425 25.685 14.375 25.395 14.375V14.38Z" fill="#575756"/>
<path d="M28.665 17.505H28.225V14.39H27.13V14.005H29.755V14.39H28.665V17.505Z" fill="#575756"/>
<path d="M34.71 15.745C34.71 16.11 34.65 16.425 34.525 16.695C34.4 16.965 34.22 17.175 33.985 17.325C33.75 17.475 33.45 17.55 33.095 17.55C32.74 17.55 32.43 17.475 32.19 17.325C31.95 17.175 31.77 16.965 31.655 16.695C31.535 16.425 31.48 16.105 31.48 15.745C31.48 15.385 31.54 15.07 31.655 14.805C31.77 14.54 31.95 14.325 32.19 14.175C32.43 14.025 32.735 13.95 33.1 13.95C33.465 13.95 33.745 14.025 33.985 14.175C34.225 14.325 34.405 14.535 34.525 14.805C34.65 15.075 34.71 15.39 34.71 15.755V15.745ZM31.945 15.745C31.945 16.185 32.04 16.535 32.225 16.785C32.41 17.04 32.705 17.165 33.1 17.165C33.495 17.165 33.79 17.04 33.975 16.785C34.16 16.53 34.25 16.185 34.25 15.745C34.25 15.305 34.16 14.955 33.975 14.705C33.79 14.455 33.5 14.33 33.105 14.33C32.71 14.33 32.415 14.455 32.23 14.705C32.045 14.955 31.95 15.3 31.95 15.745H31.945Z" fill="#575756"/>
<path d="M35.975 17.505H35.535V14.005H37.49V14.39H35.975V15.63H37.395V16.015H35.975V17.505Z" fill="#575756"/>
<path d="M40.44 14C40.915 14 41.27 14.085 41.495 14.26C41.72 14.435 41.835 14.695 41.835 15.05C41.835 15.21 41.805 15.35 41.745 15.47C41.685 15.59 41.605 15.69 41.505 15.775C41.405 15.86 41.3 15.925 41.185 15.98L42.215 17.505H41.39L40.555 16.16H40.16V17.505H39.42V14.005H40.44V14ZM40.385 14.61H40.16V15.555H40.4C40.645 15.555 40.82 15.515 40.925 15.43C41.03 15.345 41.085 15.225 41.085 15.065C41.085 14.905 41.03 14.78 40.915 14.71C40.8 14.64 40.625 14.605 40.385 14.605V14.61Z" fill="#575756"/>
<path d="M44.77 16.53C44.77 16.84 44.66 17.09 44.435 17.275C44.21 17.46 43.895 17.55 43.48 17.55C43.11 17.55 42.78 17.48 42.49 17.34V16.65C42.655 16.72 42.83 16.79 43.01 16.85C43.19 16.91 43.365 16.94 43.54 16.94C43.715 16.94 43.855 16.905 43.93 16.835C44.005 16.765 44.045 16.675 44.045 16.565C44.045 16.475 44.015 16.4 43.955 16.34C43.895 16.28 43.815 16.22 43.71 16.165C43.61 16.11 43.49 16.055 43.36 15.99C43.28 15.95 43.19 15.905 43.095 15.85C43 15.795 42.91 15.73 42.825 15.65C42.74 15.57 42.665 15.475 42.61 15.36C42.555 15.245 42.525 15.11 42.525 14.95C42.525 14.635 42.63 14.39 42.845 14.215C43.055 14.04 43.345 13.95 43.715 13.95C43.9 13.95 44.07 13.97 44.235 14.015C44.4 14.055 44.57 14.12 44.75 14.195L44.51 14.775C44.35 14.71 44.205 14.66 44.08 14.625C43.95 14.59 43.82 14.57 43.685 14.57C43.545 14.57 43.435 14.605 43.36 14.67C43.285 14.735 43.245 14.82 43.245 14.925C43.245 15.05 43.3 15.15 43.41 15.22C43.52 15.29 43.685 15.38 43.905 15.485C44.085 15.57 44.24 15.66 44.365 15.75C44.49 15.84 44.59 15.95 44.655 16.075C44.725 16.2 44.76 16.355 44.76 16.535L44.77 16.53Z" fill="#575756"/>
<path d="M48.11 15.535H49.5V17.35C49.315 17.41 49.125 17.46 48.93 17.495C48.735 17.53 48.505 17.55 48.255 17.55C47.73 17.55 47.33 17.395 47.05 17.09C46.77 16.785 46.63 16.335 46.63 15.745C46.63 15.38 46.7 15.06 46.845 14.795C46.985 14.525 47.195 14.32 47.465 14.17C47.735 14.025 48.07 13.95 48.46 13.95C48.645 13.95 48.83 13.97 49.01 14.01C49.19 14.05 49.355 14.1 49.5 14.165L49.255 14.76C49.15 14.705 49.025 14.66 48.89 14.62C48.75 14.585 48.61 14.565 48.46 14.565C48.245 14.565 48.055 14.615 47.9 14.71C47.74 14.81 47.62 14.945 47.535 15.125C47.45 15.305 47.405 15.515 47.405 15.755C47.405 15.985 47.435 16.185 47.5 16.365C47.56 16.54 47.66 16.68 47.795 16.78C47.93 16.88 48.105 16.93 48.32 16.93C48.425 16.93 48.515 16.93 48.59 16.915C48.665 16.905 48.73 16.895 48.795 16.88V16.15H48.135V15.53L48.11 15.535Z" fill="#575756"/>
<path d="M51.405 14C51.88 14 52.235 14.085 52.46 14.26C52.69 14.435 52.8 14.695 52.8 15.05C52.8 15.21 52.77 15.35 52.71 15.47C52.65 15.59 52.57 15.69 52.47 15.775C52.37 15.86 52.265 15.925 52.15 15.98L53.18 17.505H52.355L51.52 16.16H51.125V17.505H50.385V14.005H51.405V14ZM51.35 14.61H51.125V15.555H51.365C51.61 15.555 51.785 15.515 51.89 15.43C51.995 15.345 52.05 15.225 52.05 15.065C52.05 14.905 51.995 14.78 51.88 14.71C51.765 14.64 51.59 14.605 51.35 14.605V14.61Z" fill="#575756"/>
<path d="M56.845 15.745C56.845 16.11 56.785 16.425 56.665 16.695C56.545 16.965 56.365 17.175 56.12 17.325C55.875 17.475 55.56 17.55 55.18 17.55C54.8 17.55 54.49 17.475 54.24 17.325C53.995 17.175 53.81 16.965 53.69 16.695C53.57 16.425 53.51 16.105 53.51 15.745C53.51 15.385 53.57 15.065 53.69 14.8C53.81 14.53 53.995 14.325 54.24 14.175C54.485 14.025 54.8 13.95 55.185 13.95C55.57 13.95 55.875 14.025 56.12 14.175C56.365 14.325 56.545 14.535 56.665 14.805C56.785 15.075 56.845 15.39 56.845 15.755V15.745ZM54.29 15.745C54.29 16.11 54.36 16.4 54.5 16.61C54.64 16.82 54.865 16.925 55.175 16.925C55.485 16.925 55.72 16.82 55.855 16.61C55.995 16.4 56.06 16.11 56.06 15.745C56.06 15.38 55.99 15.085 55.855 14.875C55.72 14.665 55.49 14.56 55.18 14.56C54.87 14.56 54.64 14.665 54.5 14.875C54.36 15.085 54.29 15.375 54.29 15.745Z" fill="#575756"/>
<path d="M60.47 16.265C60.47 16.505 60.415 16.725 60.31 16.92C60.205 17.115 60.045 17.27 59.83 17.38C59.615 17.495 59.345 17.55 59.02 17.55C58.555 17.55 58.205 17.43 57.96 17.195C57.72 16.96 57.595 16.645 57.595 16.255V14H58.335V16.145C58.335 16.435 58.395 16.635 58.51 16.755C58.625 16.875 58.805 16.93 59.035 16.93C59.265 16.93 59.455 16.865 59.56 16.74C59.665 16.615 59.725 16.415 59.725 16.14V14H60.465V16.265H60.47Z" fill="#575756"/>
<path d="M62.495 14C62.945 14 63.275 14.095 63.485 14.29C63.695 14.485 63.795 14.75 63.795 15.09C63.795 15.295 63.755 15.485 63.67 15.66C63.585 15.835 63.445 15.98 63.245 16.09C63.045 16.2 62.78 16.25 62.44 16.25H62.12V17.495H61.38V13.995H62.5L62.495 14ZM62.455 14.61H62.115V15.65H62.36C62.57 15.65 62.735 15.61 62.86 15.525C62.985 15.44 63.045 15.305 63.045 15.12C63.045 14.78 62.85 14.61 62.455 14.61Z" fill="#575756"/>
</g>
<g clip-path="url(#clip1_119_3223)">
<path d="M123 0H103V20H123V0Z" fill="#EF0000"/>
<path d="M120.06 9.52292C119.592 9.05255 119.013 8.85164 118.146 8.85164H116.289C115.949 8.85164 115.764 8.67324 115.767 8.33054V7.32463C115.764 6.98193 115.949 6.8042 116.289 6.8042H120.492V4.53098H116.056C114.413 4.51418 113.465 5.45156 113.486 7.09851V8.57681C113.486 9.41339 113.671 9.9402 114.124 10.3948C114.574 10.846 115.12 11.0392 115.951 11.0392H117.904C118.244 11.0395 118.429 11.2179 118.426 11.5603V12.6502C118.426 12.8242 118.384 12.9475 118.294 13.0382C118.201 13.132 118.085 13.172 117.906 13.172H112.005L110.804 11.1988C112.156 11.1826 112.965 10.3918 112.938 9.00652V7.10658C112.938 6.23203 112.745 5.68237 112.273 5.20831C111.805 4.73795 111.235 4.53098 110.368 4.53098H105.337V15.4391H107.642V6.80454H110.136C110.31 6.80454 110.434 6.84653 110.524 6.93691C110.618 7.02998 110.658 7.14622 110.658 7.32496V8.71691C110.661 9.05927 110.477 9.23768 110.136 9.23734C109.42 9.25347 108.718 9.10396 108.297 9.77725C107.982 10.2668 108.096 10.9653 108.399 11.4494C108.723 12.0259 110.48 15.1478 110.48 15.1478C110.584 15.333 110.779 15.4395 111.015 15.4395H118.155C119.802 15.4616 120.74 14.5128 120.724 12.8703V11.4212C120.724 10.5466 120.532 9.99665 120.06 9.52292H120.06Z" fill="white"/>
</g>
<defs>
<clipPath id="clip0_119_3223">
<rect width="95" height="20" fill="white"/>
</clipPath>
<clipPath id="clip1_119_3223">
<rect width="20" height="20" fill="white" transform="translate(103)"/>
</clipPath>
</defs>
</svg>
