<?xml version="1.0" encoding="UTF-8"?><svg id="Layer_1" xmlns="http://www.w3.org/2000/svg" viewBox="0 0 190 40"><defs><style>.cls-1{fill:#f69f1d;}.cls-2{fill:#aa1936;}.cls-3{fill:#df1417;}.cls-4{fill:#575756;}</style></defs><path class="cls-3" d="m44.3,5h-7.3v19h7.2c6.8,0,10.8-4.1,10.8-9.6h0c.1-5.5-3.9-9.4-10.7-9.4h0Zm5.4,9.5c0,3.1-2.1,4.8-5.2,4.8h-2.2v-9.6h2.2c3.1,0,5.2,1.7,5.2,4.8h0Z"/><path class="cls-3" d="m63,5h-5.3v19h5.3V5Z"/><path class="cls-3" d="m74.3,12.2c-2.6-.6-3.3-1-3.3-1.9v-.1c0-.7.6-1.2,1.9-1.2,1.7,0,3.6.6,5.3,1.9l2.6-3.7c-2.1-1.7-4.6-2.5-7.8-2.5-4.6,0-7.4,2.6-7.4,6.1v.1c0,3.9,3.1,5.1,7.2,6,2.6.6,3.2,1,3.2,1.8h0c0,.8-.8,1.3-2.2,1.3-2.2,0-4.4-.8-6.2-2.3l-2.9,3.5c2.3,2.1,5.6,3.1,8.9,3.1,4.6,0,7.7-2.3,7.7-6.2h0c.1-3.6-2.7-5-7-5.9"/><path class="cls-3" d="m82.1,9.6h5.7v14.4h5.3v-14.4h5.7v-4.6h-16.7s0,4.6,0,4.6Z"/><path class="cls-3" d="m117.8,11.5h0c0-1.9-.6-3.4-1.7-4.5-1.3-1.3-3.3-2.1-6.2-2.1h-9v19h5.3v-5.8h2.3l3.8,5.8h6.1l-4.5-6.6c2.3-.9,3.9-2.8,3.9-5.8h0Zm-5.3.4c0,1.4-1,2.3-2.8,2.3h-3.5v-4.6h3.5c1.7,0,2.8.7,2.8,2.3h0Z"/><path class="cls-3" d="m125.4,16.5h9.1v-4.1h-9.1v-2.9h10.1v-4.5h-15.3v19h15.4v-4.5h-10.2v-3h0Z"/><path class="cls-3" d="m143.4,5h-5.3v19h14.5v-4.6h-9.2V5h0Z"/><path class="cls-3" d="m159.9,16.5h9.1v-4.1h-9.1v-2.9h10.1v-4.5h-15.3v19h15.4v-4.5h-10.2v-3h0Z"/><path class="cls-3" d="m186,17.3c-1.1,1.4-2.3,2.3-4.3,2.3-2.7,0-4.5-2.2-4.5-5.1v-.1c0-2.8,1.9-5,4.5-5,1.8,0,3.1.9,4.1,2.2l4-3.1c-1.7-2.3-4.2-4-8.1-4-5.8,0-10,4.3-10,9.9v.1c0,5.7,4.4,9.8,9.8,9.8,4.2,0,6.6-1.8,8.4-4.3l-3.9-2.7h0Z"/><path class="cls-3" d="m27.4,18.8h-6.9L0,40h6.9l20.5-21.2Z"/><path class="cls-2" d="m29.7,9.4h-6.9L2.3,30.6h6.9L29.7,9.4Z"/><path class="cls-1" d="m32,0h-6.9L4.6,21.2h6.9L32,0Z"/><path class="cls-4" d="m40.35,28.68c-.75,0-1.34.25-1.78.75-.43.5-.65,1.19-.65,2.07s.2,1.56.6,2.06c.4.51,1.01.76,1.81.76.31,0,.6-.03.87-.08.27-.05.54-.12.8-.2v.76c-.26.1-.53.17-.81.22-.28.05-.61.07-1,.07-.71,0-1.31-.15-1.79-.44-.48-.29-.84-.71-1.07-1.25s-.36-1.18-.36-1.91.13-1.33.39-1.87c.26-.54.64-.96,1.14-1.27.5-.3,1.11-.46,1.83-.46s1.38.14,1.93.41l-.35.75c-.22-.1-.46-.19-.72-.26-.27-.08-.55-.12-.87-.12Zm-.68-1.36c-.08-.15-.2-.31-.34-.49-.14-.17-.29-.34-.45-.51s-.29-.32-.41-.44v-.13h.59c.17.11.35.25.53.4.18.16.36.32.52.5.18-.18.36-.34.54-.5s.36-.29.53-.4h.61v.13c-.12.12-.27.27-.43.44s-.31.34-.46.51c-.15.17-.26.33-.34.49h-.88Z"/><path class="cls-4" d="m48.05,35l-.84-2.17h-2.78l-.83,2.17h-.89l2.74-7.03h.79l2.73,7.03h-.91Zm-1.89-5.07c-.02-.05-.05-.15-.1-.29-.05-.14-.09-.28-.13-.43-.04-.15-.08-.26-.1-.34-.05.2-.1.4-.16.59-.06.19-.11.35-.15.46l-.79,2.12h2.22l-.78-2.12Z"/><path class="cls-4" d="m53.99,33.13c0,.62-.23,1.11-.68,1.45-.45.35-1.06.52-1.82.52-.39,0-.76-.03-1.09-.09s-.61-.14-.83-.25v-.84c.24.1.53.2.88.28.35.08.71.13,1.08.13.52,0,.92-.1,1.18-.3.26-.2.4-.48.4-.82,0-.23-.05-.42-.15-.58s-.27-.3-.51-.44-.57-.28-1-.43c-.6-.22-1.04-.48-1.35-.79-.3-.31-.46-.74-.46-1.29,0-.37.09-.69.28-.96.19-.26.45-.47.79-.61s.72-.22,1.16-.22c.39,0,.74.04,1.06.11.32.07.61.17.87.28l-.27.75c-.24-.1-.51-.19-.79-.26-.28-.07-.58-.11-.89-.11-.44,0-.77.09-.99.28-.22.19-.33.43-.33.74,0,.24.05.43.15.59s.26.3.48.42c.22.12.52.26.9.4.41.15.76.31,1.04.49.28.17.5.38.65.62.15.24.22.55.22.91Z"/><path class="cls-4" d="m57.72,35h-.88v-6.23h-2.19v-.77h5.25v.77h-2.18v6.23Zm-.89-7.69c-.08-.15-.2-.31-.34-.49-.14-.17-.29-.34-.45-.51-.16-.17-.29-.32-.41-.44v-.13h.59c.17.11.35.25.53.4s.36.32.52.5c.18-.18.36-.34.54-.5s.36-.29.53-.4h.61v.13c-.12.12-.27.27-.43.44-.16.17-.31.34-.46.51-.15.17-.26.33-.34.49h-.88Z"/><path class="cls-4" d="m65.67,28c.95,0,1.66.17,2.11.52.45.35.68.87.68,1.58,0,.32-.06.6-.18.84-.12.24-.28.44-.48.61-.2.17-.41.3-.64.41l2.06,3.05h-1.65l-1.67-2.69h-.79v2.69h-1.48v-7h2.04Zm-.11,1.22h-.45v1.89h.48c.49,0,.84-.08,1.05-.25s.32-.41.32-.73-.11-.57-.34-.71-.58-.21-1.06-.21Z"/><path class="cls-4" d="m74.34,33.06c0,.62-.22,1.12-.67,1.49s-1.08.55-1.91.55c-.74,0-1.4-.14-1.98-.42v-1.38c.33.14.68.28,1.04.4s.71.18,1.06.18.63-.07.78-.21c.15-.14.23-.32.23-.54,0-.18-.06-.33-.18-.45-.12-.12-.28-.24-.49-.35-.2-.11-.44-.22-.7-.35-.16-.08-.34-.17-.53-.28-.19-.11-.37-.24-.54-.4s-.32-.35-.43-.58c-.11-.23-.17-.5-.17-.82,0-.63.21-1.12.64-1.47.42-.35,1-.53,1.74-.53.37,0,.71.04,1.04.13.33.08.67.21,1.03.36l-.48,1.16c-.32-.13-.61-.23-.86-.3-.26-.07-.52-.11-.79-.11-.28,0-.5.07-.65.2s-.23.3-.23.51c0,.25.11.45.33.59.22.14.55.32.99.53.36.17.67.35.92.53.25.18.45.4.58.65.14.25.21.56.21.92Z"/><path class="cls-4" d="m81.02,31.07h2.78v3.63c-.37.12-.75.22-1.14.29-.4.07-.85.11-1.35.11-1.05,0-1.85-.31-2.41-.92-.56-.61-.84-1.51-.84-2.69,0-.73.14-1.37.43-1.9.28-.54.7-.95,1.24-1.25.54-.29,1.21-.44,1.99-.44.37,0,.74.04,1.1.12.36.08.69.18.98.31l-.49,1.19c-.22-.11-.46-.2-.74-.28-.27-.07-.56-.11-.86-.11-.43,0-.81.1-1.12.29-.32.2-.56.47-.74.83s-.26.78-.26,1.26c0,.46.06.86.19,1.22.12.35.32.63.59.83.27.2.62.3,1.05.3.21,0,.39,0,.53-.03.15-.02.28-.04.41-.07v-1.46h-1.32v-1.24Z"/><path class="cls-4" d="m87.6,28c.95,0,1.66.17,2.11.52.45.35.68.87.68,1.58,0,.32-.06.6-.18.84-.12.24-.28.44-.48.61-.2.17-.41.3-.64.41l2.06,3.05h-1.65l-1.67-2.69h-.79v2.69h-1.48v-7h2.04Zm-.11,1.22h-.45v1.89h.48c.49,0,.84-.08,1.05-.25s.32-.41.32-.73-.11-.57-.34-.71-.58-.21-1.06-.21Z"/><path class="cls-4" d="m98.49,31.49c0,.73-.12,1.36-.36,1.9-.24.54-.6.96-1.09,1.26s-1.12.45-1.88.45-1.38-.15-1.88-.45c-.49-.3-.86-.72-1.1-1.26-.24-.54-.36-1.18-.36-1.9s.12-1.36.36-1.89c.24-.54.6-.95,1.1-1.25.49-.3,1.12-.45,1.89-.45s1.38.15,1.87.45.86.72,1.09,1.26c.24.54.36,1.17.36,1.9Zm-5.11,0c0,.73.14,1.31.42,1.73.28.42.73.63,1.35.63s1.09-.21,1.36-.63.41-1,.41-1.73-.14-1.32-.41-1.74c-.28-.42-.73-.63-1.35-.63s-1.08.21-1.36.63c-.28.42-.42,1-.42,1.74Z"/><path class="cls-4" d="m105.74,32.53c0,.48-.11.92-.32,1.31-.21.39-.53.7-.96.92-.43.23-.97.34-1.62.34-.93,0-1.63-.24-2.12-.71-.48-.47-.73-1.1-.73-1.88v-4.51h1.48v4.29c0,.58.12.98.35,1.22s.59.35,1.05.35.84-.13,1.05-.38.33-.65.33-1.2v-4.28h1.48v4.53Z"/><path class="cls-4" d="m109.79,28c.9,0,1.56.19,1.98.58.42.39.62.92.62,1.6,0,.41-.08.79-.25,1.14s-.45.64-.85.86-.93.32-1.61.32h-.64v2.49h-1.48v-7h2.24Zm-.08,1.22h-.68v2.08h.49c.42,0,.75-.08,1-.25.25-.17.37-.44.37-.81,0-.68-.39-1.02-1.18-1.02Z"/></svg>