<?xml version="1.0" encoding="UTF-8"?><svg id="Layer_1" xmlns="http://www.w3.org/2000/svg" viewBox="0 0 190 40"><defs><style>.cls-1{fill:#f69f1d;}.cls-2{fill:#aa1936;}.cls-3{fill:#df1417;}.cls-4{fill:#585856;}</style></defs><path class="cls-3" d="m44.34,5h-7.34v19.01h7.23c6.85,0,10.84-4.07,10.84-9.56v-.04c0-5.49-3.94-9.4-10.74-9.4v-.02h0Zm5.32,9.55c0,3.07-2.09,4.81-5.25,4.81h-2.15v-9.69h2.15c3.16,0,5.25,1.77,5.25,4.81v.07Z"/><path class="cls-3" d="m62.98,5h-5.3v19.02h5.3V5Z"/><path class="cls-3" d="m74.3,12.19c-2.63-.6-3.29-.98-3.29-1.85v-.06c0-.68.63-1.22,1.9-1.22,1.68,0,3.59.65,5.33,1.87l2.63-3.72c-2.06-1.66-4.59-2.53-7.82-2.53-4.57,0-7.37,2.55-7.37,6.08v.05c0,3.92,3.13,5.05,7.17,5.98,2.58.6,3.21,1.04,3.21,1.82v.05c0,.82-.76,1.31-2.18,1.31-2.25-.03-4.43-.83-6.17-2.28l-2.94,3.5c2.34,2.09,5.55,3.15,8.91,3.15,4.62,0,7.69-2.31,7.69-6.19v-.05c0-3.56-2.72-4.97-7.09-5.92"/><path class="cls-3" d="m82.13,9.62h5.71v14.4h5.27v-14.4h5.71v-4.62h-16.69s0,4.62,0,4.62Z"/><path class="cls-3" d="m117.78,11.55v-.05c0-1.87-.57-3.34-1.69-4.42-1.26-1.31-3.29-2.06-6.19-2.06h-9v19.01h5.27v-5.76h2.31l3.83,5.76h6.09l-4.54-6.63c2.36-1.01,3.91-2.93,3.91-5.84h.01Zm-5.3.32c0,1.39-1.03,2.26-2.83,2.26h-3.48v-4.56h3.46c1.77,0,2.84.76,2.84,2.25v.05h.01Z"/><path class="cls-3" d="m125.44,16.52h9.13v-4.15h-9.13v-2.88h10.08v-4.48h-15.3v19.01h15.43v-4.48h-10.22v-3.02h.01Z"/><path class="cls-3" d="m143.4,5h-5.27v19.01h14.48v-4.62h-9.21V5h0Z"/><path class="cls-3" d="m159.87,16.52h9.13v-4.15h-9.13v-2.88h10.08v-4.48h-15.3v19.01h15.43v-4.48h-10.22v-3.02h.01Z"/><path class="cls-3" d="m186.03,17.28c-1.14,1.39-2.31,2.31-4.29,2.31-2.66,0-4.54-2.23-4.54-5.08v-.06c0-2.77,1.88-5.02,4.54-5.02,1.82,0,3.07.87,4.15,2.23l3.97-3.07c-1.68-2.34-4.19-3.97-8.07-3.97-5.76,0-10.03,4.35-10.03,9.88v.05c0,5.68,4.37,9.84,9.81,9.84,4.21,0,6.64-1.82,8.42-4.29l-3.97-2.82h0Z"/><path class="cls-3" d="m27.43,18.82h-6.86L0,40h6.86l20.57-21.18Z"/><path class="cls-2" d="m29.72,9.41h-6.86L2.29,30.59h6.86L29.72,9.41Z"/><path class="cls-1" d="m32,0h-6.86L4.57,21.18h6.86L32,0Z"/><path class="cls-4" d="m40.36,28.68c-.75,0-1.34.25-1.78.75-.43.5-.65,1.19-.65,2.07s.2,1.56.6,2.06,1.01.76,1.81.76c.31,0,.6-.03.87-.08.27-.05.54-.12.8-.2v.76c-.26.1-.53.17-.81.22-.28.05-.61.07-1,.07-.71,0-1.31-.15-1.79-.44-.48-.29-.84-.71-1.07-1.25-.24-.54-.36-1.18-.36-1.91s.13-1.33.39-1.87.64-.96,1.14-1.27c.5-.3,1.12-.46,1.83-.46s1.38.14,1.93.41l-.35.75c-.22-.1-.46-.19-.72-.26-.27-.08-.55-.12-.87-.12h.03Zm-.68-1.36c-.08-.15-.2-.31-.34-.49-.14-.17-.29-.34-.45-.51s-.29-.32-.41-.44v-.13h.59c.17.11.35.25.53.4.18.16.36.32.52.5.18-.18.36-.34.54-.5s.36-.29.53-.4h.61v.13c-.12.12-.27.27-.43.44s-.31.34-.46.51c-.15.17-.26.33-.34.49h-.89Z"/><path class="cls-4" d="m48.05,35.01l-.84-2.17h-2.78l-.83,2.17h-.89l2.74-7.03h.79l2.73,7.03h-.92Zm-1.89-5.07s-.05-.15-.1-.29c-.05-.14-.09-.28-.13-.43s-.08-.26-.1-.34c-.05.2-.1.4-.16.59s-.11.35-.15.46l-.79,2.12h2.22l-.79-2.12h0Zm1.12-4.09c-.08.12-.2.27-.36.46-.16.19-.34.37-.53.56s-.36.34-.51.46h-.57v-.12c.1-.12.21-.27.32-.44s.23-.34.34-.53c.11-.18.2-.34.28-.49h1.04v.1h-.01Z"/><path class="cls-4" d="m53.99,33.14c0,.62-.23,1.11-.68,1.45-.45.35-1.06.52-1.82.52-.39,0-.76-.03-1.09-.09s-.61-.14-.83-.25v-.84c.24.1.53.2.88.28s.71.13,1.08.13c.52,0,.92-.1,1.18-.3.26-.2.4-.48.4-.82,0-.23-.05-.42-.15-.58-.1-.16-.27-.3-.51-.44-.24-.13-.57-.28-1-.43-.6-.22-1.04-.48-1.35-.79-.3-.31-.46-.74-.46-1.29,0-.37.09-.69.29-.96.19-.26.45-.47.79-.61s.72-.22,1.16-.22c.39,0,.74.04,1.06.11s.61.17.87.28l-.27.75c-.24-.1-.51-.19-.79-.26-.28-.07-.58-.11-.89-.11-.44,0-.77.09-.99.28s-.33.43-.33.74c0,.24.05.43.15.59.1.16.26.3.48.42s.52.26.9.4c.41.15.76.31,1.04.49.28.17.5.38.65.62.15.24.22.55.22.91v.02Z"/><path class="cls-4" d="m57.72,35.01h-.88v-6.23h-2.19v-.77h5.25v.77h-2.18v6.23Z"/><path class="cls-4" d="m65.67,28.01c.96,0,1.66.17,2.11.52s.68.87.68,1.58c0,.32-.06.6-.18.84s-.28.44-.48.61-.41.3-.64.41l2.06,3.05h-1.65l-1.67-2.69h-.79v2.69h-1.48v-7h2.04Zm-.11,1.22h-.45v1.89h.48c.49,0,.84-.08,1.05-.25.21-.16.32-.41.32-.73s-.11-.57-.34-.71c-.23-.14-.58-.21-1.06-.21h0Z"/><path class="cls-4" d="m74.34,33.07c0,.62-.22,1.12-.67,1.49-.45.37-1.08.55-1.91.55-.74,0-1.4-.14-1.98-.42v-1.38c.33.14.68.28,1.04.4s.71.18,1.06.18.63-.07.78-.21.23-.32.23-.54c0-.18-.06-.33-.18-.45s-.28-.24-.49-.35c-.2-.11-.44-.22-.7-.35-.16-.08-.34-.17-.53-.28s-.37-.24-.54-.4-.32-.35-.43-.58-.17-.5-.17-.82c0-.63.21-1.12.64-1.47.42-.35,1-.53,1.74-.53.37,0,.71.04,1.04.13.33.08.67.21,1.04.36l-.48,1.16c-.32-.13-.61-.23-.86-.3s-.52-.11-.79-.11-.5.07-.65.2-.23.3-.23.51c0,.25.11.45.33.59s.55.32.99.53c.36.17.67.35.92.53s.45.4.58.65c.14.25.21.56.21.92h.01Z"/><path class="cls-4" d="m81.02,31.08h2.78v3.63c-.37.12-.75.22-1.15.29s-.85.11-1.34.11c-1.05,0-1.85-.31-2.41-.92-.56-.61-.84-1.51-.84-2.69,0-.73.14-1.37.42-1.9s.7-.95,1.24-1.25c.55-.29,1.21-.44,2-.44.37,0,.74.04,1.1.12s.69.18.98.31l-.49,1.19c-.22-.11-.46-.2-.74-.28-.27-.07-.56-.11-.86-.11-.43,0-.81.1-1.12.29s-.56.47-.74.83c-.17.36-.26.78-.26,1.26s.06.86.19,1.22c.12.35.32.63.59.83s.62.3,1.05.3c.21,0,.39,0,.53-.03.14-.02.28-.04.41-.07v-1.46h-1.32v-1.24h-.02Z"/><path class="cls-4" d="m87.6,28.01c.95,0,1.66.17,2.11.52s.68.87.68,1.58c0,.32-.06.6-.18.84s-.28.44-.48.61c-.2.17-.41.3-.64.41l2.06,3.05h-1.65l-1.67-2.69h-.79v2.69h-1.48v-7h2.04Zm-.11,1.22h-.45v1.89h.48c.49,0,.84-.08,1.05-.25.21-.16.32-.41.32-.73s-.11-.57-.34-.71c-.23-.14-.58-.21-1.06-.21h0Z"/><path class="cls-4" d="m98.49,31.5c0,.73-.12,1.36-.36,1.9s-.61.96-1.1,1.26-1.12.45-1.88.45-1.38-.15-1.88-.45-.86-.72-1.1-1.26c-.24-.54-.36-1.18-.36-1.9s.12-1.36.36-1.89.6-.95,1.1-1.25,1.12-.45,1.89-.45,1.38.15,1.87.45.86.72,1.09,1.26c.24.54.36,1.17.36,1.9v-.02Zm-5.11,0c0,.73.14,1.31.42,1.73s.73.63,1.35.63,1.09-.21,1.36-.63.41-1,.41-1.73-.14-1.31-.41-1.73-.73-.63-1.35-.63-1.08.21-1.36.63-.42,1-.42,1.73Z"/><path class="cls-4" d="m105.74,28.01v4.53c0,.48-.11.92-.32,1.31-.21.39-.53.7-.97.92s-.97.34-1.62.34c-.93,0-1.63-.24-2.12-.71-.48-.47-.73-1.1-.73-1.88v-4.51h1.48v4.29c0,.58.12.99.35,1.22s.59.35,1.05.35.84-.13,1.05-.38.33-.65.33-1.2v-4.28h1.5Z"/><path class="cls-4" d="m109.79,28.01c.9,0,1.56.19,1.98.58.42.39.62.92.62,1.6,0,.41-.08.79-.25,1.15s-.45.64-.85.85-.93.32-1.61.32h-.64v2.49h-1.48v-7h2.24-.01Zm-.08,1.22h-.68v2.08h.49c.42,0,.75-.08,1-.25s.37-.44.37-.81c0-.68-.39-1.02-1.18-1.02Z"/></svg>