<?xml version="1.0" encoding="UTF-8"?><svg id="Layer_1" xmlns="http://www.w3.org/2000/svg" viewBox="0 0 190 40"><defs><style>.cls-1{fill:#f69f1d;}.cls-2{fill:#aa1936;}.cls-3{fill:#df1417;}.cls-4{fill:#575756;}</style></defs><path class="cls-3" d="m44.34,6h-7.34v19.01h7.23c6.85,0,10.84-4.07,10.84-9.56v-.04c0-5.49-3.94-9.4-10.74-9.4v-.02Zm5.32,9.55c0,3.07-2.09,4.81-5.25,4.81h-2.15v-9.69h2.15c3.16,0,5.25,1.77,5.25,4.81v.07Z"/><path class="cls-3" d="m62.98,6h-5.3v19.02h5.3V6Z"/><path class="cls-3" d="m74.3,13.19c-2.63-.6-3.29-.98-3.29-1.85v-.06c0-.68.63-1.22,1.9-1.22,1.68,0,3.59.65,5.33,1.87l2.63-3.72c-2.06-1.66-4.59-2.53-7.82-2.53-4.57,0-7.37,2.55-7.37,6.08v.05c0,3.92,3.13,5.05,7.17,5.98,2.58.6,3.21,1.04,3.21,1.82v.05c0,.82-.76,1.31-2.18,1.31-2.25-.03-4.43-.83-6.17-2.28l-2.94,3.5c2.34,2.09,5.55,3.15,8.91,3.15,4.62,0,7.69-2.31,7.69-6.19v-.05c0-3.56-2.72-4.97-7.09-5.92"/><path class="cls-3" d="m82.13,10.62h5.71v14.4h5.27v-14.4h5.71v-4.62h-16.69v4.62Z"/><path class="cls-3" d="m117.78,12.55v-.05c0-1.87-.57-3.34-1.69-4.42-1.26-1.31-3.29-2.06-6.19-2.06h-9v19.01h5.27v-5.76h2.31l3.83,5.76h6.09l-4.54-6.63c2.36-1.01,3.91-2.93,3.91-5.84h0Zm-5.3.32c0,1.39-1.03,2.26-2.83,2.26h-3.48v-4.56h3.46c1.77,0,2.84.76,2.84,2.25v.05Z"/><path class="cls-3" d="m125.44,17.52h9.13v-4.15h-9.13v-2.88h10.08v-4.48h-15.3v19.01h15.43v-4.48h-10.22v-3.02Z"/><path class="cls-3" d="m143.4,6h-5.27v19.01h14.48v-4.62h-9.21V6Z"/><path class="cls-3" d="m159.87,17.52h9.13v-4.15h-9.13v-2.88h10.08v-4.48h-15.3v19.01h15.43v-4.48h-10.22v-3.02Z"/><path class="cls-3" d="m186.03,18.28c-1.14,1.39-2.31,2.31-4.29,2.31-2.66,0-4.54-2.23-4.54-5.08v-.06c0-2.77,1.88-5.02,4.54-5.02,1.82,0,3.07.87,4.15,2.23l3.97-3.07c-1.68-2.34-4.19-3.97-8.07-3.97-5.76,0-10.03,4.35-10.03,9.88v.05c0,5.68,4.37,9.84,9.81,9.84,4.21,0,6.64-1.82,8.42-4.29l-3.97-2.82Z"/><path class="cls-3" d="m27.43,18.82h-6.86L0,40h6.86l20.57-21.18Z"/><path class="cls-2" d="m29.72,9.41h-6.86L2.29,30.59h6.86L29.72,9.41Z"/><path class="cls-1" d="m32,0h-6.86L4.57,21.18h6.86L32,0Z"/><path class="cls-4" d="m38.85,28c.92,0,1.58.18,2,.54s.63.87.63,1.52c0,.39-.09.75-.26,1.08-.17.34-.46.61-.87.82-.41.21-.96.31-1.66.31h-.8v2.73h-.88v-7h1.85Zm-.08.75h-.89v2.77h.71c.67,0,1.16-.11,1.49-.32s.49-.58.49-1.1c0-.45-.14-.79-.43-1.01-.29-.22-.74-.33-1.36-.33Z"/><path class="cls-4" d="m46.94,35l-.84-2.17h-2.78l-.83,2.17h-.89l2.74-7.03h.79l2.73,7.03h-.91Zm-1.89-5.07c-.02-.05-.05-.15-.1-.29-.05-.14-.09-.28-.13-.43-.04-.15-.08-.26-.1-.34-.05.2-.1.4-.16.59-.06.19-.11.35-.15.46l-.79,2.12h2.22l-.78-2.12Z"/><path class="cls-4" d="m50.84,28c.87,0,1.51.17,1.93.5s.62.83.62,1.5c0,.37-.07.68-.21.93-.14.25-.31.45-.52.59-.21.15-.44.26-.67.35l1.92,3.14h-1.03l-1.7-2.89h-1.39v2.89h-.88v-7h1.93Zm-.05.76h-1v2.6h1.05c.57,0,.98-.11,1.25-.34s.39-.56.39-1-.14-.78-.41-.98c-.27-.19-.7-.29-1.28-.29Z"/><path class="cls-4" d="m57.33,35h-.88v-6.23h-2.19v-.77h5.25v.77h-2.18v6.23Z"/><path class="cls-4" d="m64.58,35h-3.91v-7h3.91v.77h-3.03v2.19h2.85v.77h-2.85v2.5h3.03v.78Z"/><path class="cls-4" d="m74.47,31.43c0,1.18-.32,2.08-.97,2.67s-1.54.9-2.69.9h-1.95v-7h2.16c.71,0,1.32.13,1.83.39.52.26.92.65,1.2,1.15s.42,1.14.42,1.89Zm-.93.03c0-.94-.23-1.62-.69-2.06-.46-.43-1.11-.65-1.96-.65h-1.15v5.49h.95c1.9,0,2.84-.93,2.84-2.79Z"/><path class="cls-4" d="m78.09,35h-2.53v-.51l.82-.19v-5.6l-.82-.2v-.51h2.53v.51l-.82.2v5.6l.82.19v.51Z"/><path class="cls-4" d="m85.1,35h-1.03l-3.75-5.82h-.04c.01.23.03.51.05.85s.03.69.03,1.05v3.91h-.81v-7h1.02l3.74,5.8h.04c0-.1-.01-.26-.02-.47,0-.21-.02-.44-.03-.69,0-.25-.01-.48-.01-.69v-3.95h.82v7Z"/><path class="cls-4" d="m91.72,28c.96,0,1.66.17,2.11.52s.68.87.68,1.58c0,.32-.06.6-.18.84-.12.24-.28.44-.48.61s-.41.3-.64.41l2.06,3.05h-1.65l-1.67-2.69h-.79v2.69h-1.48v-7h2.04Zm-.11,1.22h-.45v1.89h.48c.49,0,.84-.08,1.05-.25.21-.16.32-.41.32-.73s-.11-.57-.34-.71c-.23-.14-.58-.21-1.06-.21Z"/><path class="cls-4" d="m100.38,33.06c0,.62-.22,1.12-.67,1.49s-1.08.55-1.91.55c-.74,0-1.4-.14-1.98-.42v-1.38c.33.14.68.28,1.04.4s.71.18,1.06.18.63-.07.78-.21c.15-.14.23-.32.23-.54,0-.18-.06-.33-.18-.45-.12-.12-.28-.24-.49-.35-.2-.11-.43-.22-.7-.35-.16-.08-.34-.17-.53-.28-.19-.11-.37-.24-.54-.4-.17-.16-.32-.35-.43-.58-.11-.23-.17-.5-.17-.82,0-.63.21-1.12.64-1.47.43-.35,1-.53,1.74-.53.37,0,.71.04,1.04.13s.67.21,1.04.36l-.48,1.16c-.32-.13-.61-.23-.86-.3-.25-.07-.52-.11-.79-.11s-.5.07-.65.2-.23.3-.23.51c0,.25.11.45.33.59.22.14.55.32.99.53.36.17.67.35.92.53.25.18.45.4.58.65.14.25.21.56.21.92Z"/><path class="cls-4" d="m107.06,31.07h2.78v3.63c-.37.12-.75.22-1.15.29-.4.07-.85.11-1.34.11-1.05,0-1.85-.31-2.41-.92-.56-.61-.84-1.51-.84-2.69,0-.73.14-1.37.42-1.9.28-.54.69-.95,1.24-1.25.55-.29,1.21-.44,2-.44.37,0,.74.04,1.1.12.36.08.69.18.98.31l-.49,1.19c-.22-.11-.46-.2-.74-.28-.28-.07-.56-.11-.86-.11-.43,0-.81.1-1.12.29s-.56.47-.74.83c-.17.36-.26.78-.26,1.26s.06.86.19,1.22c.12.35.32.63.59.83.27.2.62.3,1.05.3.21,0,.39,0,.53-.03.14-.02.28-.04.41-.07v-1.46h-1.33v-1.24Z"/><path class="cls-4" d="m113.65,28c.95,0,1.66.17,2.11.52.46.35.68.87.68,1.58,0,.32-.06.6-.18.84-.12.24-.28.44-.48.61-.2.17-.41.3-.64.41l2.06,3.05h-1.65l-1.67-2.69h-.79v2.69h-1.48v-7h2.04Zm-.11,1.22h-.45v1.89h.48c.49,0,.84-.08,1.05-.25s.32-.41.32-.73-.12-.57-.34-.71c-.23-.14-.58-.21-1.06-.21Z"/><path class="cls-4" d="m124.53,31.49c0,.73-.12,1.36-.36,1.9-.24.54-.61.96-1.1,1.26-.49.3-1.12.45-1.88.45s-1.38-.15-1.88-.45c-.49-.3-.86-.72-1.1-1.26-.24-.54-.36-1.18-.36-1.9s.12-1.36.36-1.89c.24-.54.61-.95,1.1-1.25.49-.3,1.12-.45,1.89-.45s1.38.15,1.87.45.85.72,1.09,1.26c.24.54.36,1.17.36,1.9Zm-5.11,0c0,.73.14,1.31.42,1.73s.73.63,1.35.63,1.09-.21,1.36-.63c.28-.42.41-1,.41-1.73s-.14-1.31-.41-1.73c-.27-.42-.73-.63-1.35-.63s-1.08.21-1.36.63-.42,1-.42,1.73Z"/><path class="cls-4" d="m131.78,28v4.53c0,.48-.11.92-.32,1.31-.21.39-.53.7-.97.92s-.97.34-1.62.34c-.93,0-1.63-.24-2.12-.71-.48-.47-.73-1.1-.73-1.88v-4.51h1.48v4.29c0,.58.12.99.35,1.22s.59.35,1.05.35.84-.13,1.05-.38.33-.65.33-1.2v-4.28h1.48Z"/><path class="cls-4" d="m135.83,28c.9,0,1.56.19,1.98.58.42.39.62.92.62,1.6,0,.41-.08.79-.25,1.15s-.45.64-.85.85-.93.32-1.61.32h-.64v2.49h-1.48v-7h2.24Zm-.08,1.22h-.68v2.08h.49c.42,0,.75-.08,1-.25.25-.17.37-.44.37-.81,0-.68-.39-1.02-1.18-1.02Z"/></svg>