<?xml version="1.0" encoding="UTF-8"?><svg id="Layer_1" xmlns="http://www.w3.org/2000/svg" viewBox="0 0 190 40"><defs><style>.cls-1{fill:#f69f1d;}.cls-2{fill:#aa1936;}.cls-3{fill:#df1417;}.cls-4{fill:#575756;}</style></defs><path class="cls-3" d="m21.4,19.6h-5.4L0,36h5.3s16.1-16.4,16.1-16.4Z"/><path class="cls-2" d="m23.5,12h-5.3L2.2,28.4h5.3L23.5,12Z"/><path class="cls-1" d="m25,5h-5.3L3.7,21.4h5.3L25,5Z"/><path class="cls-3" d="m85.9,9h-5.2v13.01h5.2c4.9,0,7.7-2.8,7.7-6.56s-2.8-6.46-7.7-6.46h0Zm3.8,6.46c0,2.12-1.5,3.28-3.7,3.28h-1.5v-6.65h1.5c2.3.1,3.7,1.25,3.7,3.37Z"/><path class="cls-3" d="m99.3,9h-3.8v13.01h3.8v-13.01Z"/><path class="cls-3" d="m107.4,13.92c-1.9-.39-2.3-.67-2.3-1.25,0-.48.5-.87,1.4-.87,1.2,0,2.6.48,3.8,1.25l1.9-2.51c-1.5-1.16-3.3-1.74-5.6-1.74-3.3,0-5.3,1.74-5.3,4.15,0,2.7,2.2,3.47,5.1,4.05,1.8.39,2.3.67,2.3,1.25s-.5.87-1.6.87c-1.6,0-3.2-.58-4.4-1.54l-2.1,2.41c1.7,1.45,4,2.12,6.4,2.12,3.3,0,5.5-1.54,5.5-4.24-.1-2.41-2-3.37-5.1-3.95Z"/><path class="cls-3" d="m112.9,12.08h4.1v9.83h3.8v-9.83h4.1v-3.08h-11.9v3.08h-.1Z"/><path class="cls-3" d="m138.4,13.43c0-1.35-.4-2.31-1.2-3.08-.9-.87-2.3-1.45-4.4-1.45h-6.4v13.01h3.8v-3.95h1.6l2.7,3.95h4.3l-3.2-4.53c1.7-.67,2.8-1.93,2.8-3.95h0Zm-3.8.19c0,.96-.7,1.54-2,1.54h-2.5v-3.08h2.5c1.3,0,2,.48,2,1.54Z"/><path class="cls-3" d="m143.9,16.81h6.5v-2.8h-6.5v-1.93h7.2v-3.08h-10.9v13.01h11v-3.08h-7.3s0-2.12,0-2.12Z"/><path class="cls-3" d="m156.7,9h-3.8v13.01h10.3v-3.18h-6.6v-9.83h.1Z"/><path class="cls-3" d="m168.5,16.81h6.5v-2.8h-6.5v-1.93h7.2v-3.08h-10.9v13.01h11v-3.08h-7.3s0-2.12,0-2.12Z"/><path class="cls-3" d="m187.2,17.39c-.8.96-1.7,1.54-3.1,1.54-1.9,0-3.2-1.54-3.2-3.47s1.3-3.47,3.2-3.47c1.3,0,2.2.58,3,1.54l2.8-2.12c-1.2-1.64-3-2.7-5.8-2.7-4.1,0-7.2,2.99-7.2,6.75s3.1,6.75,7,6.75c3,0,4.7-1.25,6-2.89l-2.7-1.93Z"/><path class="cls-3" d="m51.6,9h10.5v2.99h-6.5v2.6h6v2.99h-6v4.43h-4v-13.01Z"/><path class="cls-3" d="m72.3,22.01l-.8-2.12h-5.4l-.8,2.12h-4.1l5.8-13.01h4l5.6,13.01s-4.3,0-4.3,0Zm-5.1-4.92h3.3l-1.6-4.24s-1.7,4.24-1.7,4.24Z"/><path class="cls-3" d="m30.7,16.81h6.5v-2.8h-6.5v-1.93h7.2v-3.08h-10.9v13.01h11v-3.08h-7.3s0-2.12,0-2.12Z"/><path class="cls-3" d="m43.6,9h-3.8v13.01h10.3v-3.18h-6.6v-9.83h.1Z"/><path class="cls-4" d="m32.61,28.43c0,1.18-.32,2.08-.97,2.67-.64.6-1.54.9-2.69.9h-1.95v-7h2.16c.71,0,1.32.13,1.83.39.52.26.92.65,1.2,1.15s.42,1.14.42,1.89Zm-.93.03c0-.94-.23-1.62-.69-2.06-.46-.43-1.11-.65-1.96-.65h-1.15v5.49h.95c1.9,0,2.84-.93,2.84-2.79h0Z"/><path class="cls-4" d="m38.46,32.01l-.84-2.17h-2.78l-.83,2.17h-.89l2.74-7.03h.79l2.73,7.03h-.92Zm-1.89-5.07s-.05-.15-.1-.29c-.05-.14-.09-.28-.13-.43s-.08-.26-.1-.34c-.05.2-.1.4-.16.59s-.11.35-.15.46l-.79,2.12h2.22l-.78-2.12h-.01Z"/><path class="cls-4" d="m40.43,32.01v-7h.88v6.22h3.06v.79h-3.94Zm2.62.69c-.03.12-.08.27-.16.45-.08.18-.18.36-.28.54-.11.18-.22.35-.34.49h-.47v-.12c.05-.11.11-.25.16-.43.06-.17.11-.35.15-.54s.08-.35.09-.49h.85v.09h0Z"/><path class="cls-4" d="m50.06,32.01l-.84-2.17h-2.78l-.83,2.17h-.89l2.74-7.03h.79l2.73,7.03h-.92Zm-1.89-5.07s-.05-.15-.1-.29c-.05-.14-.09-.28-.13-.43s-.08-.26-.1-.34c-.05.2-.1.4-.16.59s-.11.35-.15.46l-.79,2.12h2.22l-.78-2.12h-.01Z"/><path class="cls-4" d="m60.24,32.01h-1.03l-3.75-5.82h-.04c.01.23.03.51.05.85s.03.69.03,1.05v3.91h-.81v-7h1.02l3.74,5.8h.04c0-.1-.01-.26-.02-.47,0-.21-.02-.44-.03-.69,0-.25-.01-.48-.01-.69v-3.95h.82v7h-.01Z"/><path class="cls-4" d="m68.35,28.49c0,.73-.12,1.36-.37,1.9s-.61.96-1.08,1.26-1.07.45-1.78.45-1.33-.15-1.81-.45c-.48-.3-.84-.72-1.07-1.26-.24-.54-.35-1.18-.35-1.9s.12-1.35.35-1.88.59-.96,1.07-1.26c.48-.3,1.09-.45,1.82-.45s1.29.15,1.77.45.84.72,1.08,1.26c.25.54.37,1.17.37,1.9v-.02Zm-5.53,0c0,.88.19,1.58.56,2.08.37.51.96.76,1.75.76s1.38-.25,1.75-.76.55-1.2.55-2.08-.18-1.58-.55-2.08-.95-.75-1.74-.75-1.38.25-1.75.75-.56,1.19-.56,2.08h-.01Z"/><path class="cls-4" d="m74.62,25c.95,0,1.66.17,2.11.52s.68.87.68,1.58c0,.32-.06.6-.18.84s-.28.44-.48.61c-.2.17-.41.3-.64.41l2.06,3.05h-1.65l-1.67-2.69h-.79v2.69h-1.48v-7h2.04Zm-.11,1.22h-.45v1.89h.48c.49,0,.84-.08,1.05-.25s.32-.41.32-.73-.11-.57-.34-.71-.58-.21-1.06-.21h0Z"/><path class="cls-4" d="m83.28,30.06c0,.62-.22,1.12-.67,1.49s-1.08.55-1.91.55c-.74,0-1.4-.14-1.98-.42v-1.38c.33.14.68.28,1.04.4s.71.18,1.06.18.63-.07.78-.21.23-.32.23-.54c0-.18-.06-.33-.18-.45s-.28-.24-.49-.35c-.2-.11-.44-.22-.7-.35-.16-.08-.34-.17-.53-.28s-.37-.24-.54-.4-.32-.35-.43-.58-.17-.5-.17-.82c0-.63.21-1.12.64-1.47.42-.35,1-.53,1.74-.53.37,0,.71.04,1.04.13.33.08.67.21,1.03.36l-.48,1.16c-.32-.13-.61-.23-.86-.3-.26-.07-.52-.11-.79-.11s-.5.07-.65.2-.23.3-.23.51c0,.25.11.45.33.59s.55.32.99.53c.36.17.67.35.92.53s.45.4.58.65c.14.25.21.56.21.92h.02Z"/><path class="cls-4" d="m89.96,28.07h2.78v3.63c-.37.12-.75.22-1.14.29s-.85.11-1.35.11c-1.05,0-1.85-.31-2.41-.92-.56-.61-.84-1.51-.84-2.69,0-.73.14-1.37.43-1.9.28-.54.7-.95,1.24-1.25.54-.29,1.21-.44,1.99-.44.37,0,.74.04,1.1.12s.69.18.98.31l-.49,1.19c-.22-.11-.46-.2-.74-.28-.28-.07-.56-.11-.86-.11-.43,0-.81.1-1.12.29s-.56.47-.74.83c-.17.36-.26.78-.26,1.26s.06.86.19,1.22c.12.35.32.63.59.83s.62.3,1.05.3c.21,0,.39,0,.54-.03.15-.02.28-.04.41-.07v-1.46h-1.33v-1.24h-.02Z"/><path class="cls-4" d="m96.54,25c.95,0,1.66.17,2.11.52.46.35.68.87.68,1.58,0,.32-.06.6-.18.84s-.28.44-.48.61c-.2.17-.41.3-.64.41l2.06,3.05h-1.65l-1.67-2.69h-.79v2.69h-1.48v-7h2.04Zm-.11,1.22h-.45v1.89h.48c.49,0,.84-.08,1.05-.25s.32-.41.32-.73-.11-.57-.34-.71-.58-.21-1.06-.21h0Z"/><path class="cls-4" d="m107.43,28.49c0,.73-.12,1.36-.36,1.9s-.6.96-1.09,1.26-1.12.45-1.88.45-1.38-.15-1.88-.45c-.49-.3-.86-.72-1.1-1.26-.24-.54-.36-1.18-.36-1.9s.12-1.36.36-1.89c.24-.54.61-.95,1.1-1.25s1.12-.45,1.89-.45,1.38.15,1.87.45.85.72,1.09,1.26.36,1.17.36,1.9v-.02Zm-5.11,0c0,.73.14,1.31.42,1.73s.73.63,1.35.63,1.09-.21,1.36-.63c.28-.42.41-1,.41-1.73s-.14-1.32-.41-1.74c-.27-.42-.73-.63-1.35-.63s-1.08.21-1.36.63-.42,1-.42,1.74Z"/><path class="cls-4" d="m114.68,29.53c0,.48-.11.92-.32,1.31-.21.39-.53.7-.96.92-.43.23-.97.34-1.62.34-.93,0-1.63-.24-2.12-.71-.48-.47-.73-1.1-.73-1.88v-4.51h1.48v4.29c0,.58.12.98.35,1.22s.59.35,1.05.35.84-.13,1.05-.38.33-.65.33-1.2v-4.28h1.48v4.53h0Z"/><path class="cls-4" d="m118.73,25c.9,0,1.56.19,1.98.58s.62.92.62,1.6c0,.41-.08.79-.25,1.14s-.45.64-.85.86-.93.32-1.61.32h-.64v2.49h-1.48v-7h2.24,0Zm-.08,1.22h-.68v2.08h.49c.42,0,.75-.08,1-.25s.37-.44.37-.81c0-.68-.39-1.02-1.18-1.02Z"/></svg>