<?xml version="1.0" encoding="UTF-8"?><svg id="Layer_1" xmlns="http://www.w3.org/2000/svg" viewBox="0 0 190 40"><defs><style>.cls-1{fill:#f69f1d;}.cls-2{fill:#aa1936;}.cls-3{fill:#df1417;}.cls-4{fill:#575756;}</style></defs><path class="cls-3" d="m21.4,19.6h-5.4L0,36h5.3l16.1-16.4Z"/><path class="cls-2" d="m23.5,12h-5.3L2.2,28.4h5.3l16-16.4Z"/><path class="cls-1" d="m25,5h-5.3L3.7,21.4h5.3L25,5Z"/><path class="cls-3" d="m85.9,9h-5.2v13h5.2c4.9,0,7.7-2.8,7.7-6.6s-2.8-6.4-7.7-6.4Zm3.8,6.5c0,2.1-1.5,3.3-3.7,3.3h-1.5v-6.7h1.5c2.3.1,3.7,1.2,3.7,3.4Z"/><path class="cls-3" d="m99.3,9h-3.8v13h3.8v-13Z"/><path class="cls-3" d="m107.4,13.9c-1.9-.4-2.3-.7-2.3-1.3,0-.5.5-.9,1.4-.9,1.2,0,2.6.5,3.8,1.3l1.9-2.5c-1.5-1.2-3.3-1.7-5.6-1.7-3.3,0-5.3,1.7-5.3,4.1,0,2.7,2.2,3.5,5.1,4,1.8.4,2.3.7,2.3,1.3s-.5.9-1.6.9c-1.6,0-3.2-.6-4.4-1.5l-2.1,2.4c1.7,1.4,4,2.1,6.4,2.1,3.3,0,5.5-1.5,5.5-4.2-.1-2.4-2-3.4-5.1-4Z"/><path class="cls-3" d="m112.9,12.1h4.1v9.8h3.8v-9.8h4.1v-3.1h-11.9l-.1,3.1h0Z"/><path class="cls-3" d="m138.4,13.4c0-1.3-.4-2.3-1.2-3.1-.9-.9-2.3-1.4-4.4-1.4h-6.4v13h3.8v-4h1.6l2.7,4h4.3l-3.2-4.5c1.7-.7,2.8-1.9,2.8-4Zm-3.8.2c0,1-.7,1.5-2,1.5h-2.5v-3.1h2.5c1.3.1,2,.6,2,1.6Z"/><path class="cls-3" d="m143.9,16.8h6.5v-2.8h-6.5v-1.9h7.2v-3.1h-10.9v13h11v-3.1h-7.3v-2.1Z"/><path class="cls-3" d="m156.7,9h-3.8v13h10.3v-3.2h-6.6l.1-9.8h0Z"/><path class="cls-3" d="m168.5,16.8h6.5v-2.8h-6.5v-1.9h7.2v-3.1h-10.9v13h11v-3.1h-7.3v-2.1Z"/><path class="cls-3" d="m187.2,17.4c-.8,1-1.7,1.5-3.1,1.5-1.9,0-3.2-1.5-3.2-3.5s1.3-3.5,3.2-3.5c1.3,0,2.2.6,3,1.5l2.8-2.1c-1.2-1.6-3-2.7-5.8-2.7-4.1,0-7.2,3-7.2,6.7,0,3.9,3.1,6.7,7,6.7,3,0,4.7-1.3,6-2.9l-2.7-1.7Z"/><path class="cls-3" d="m51.6,9h10.5v3h-6.5v2.6h6v3h-6v4.4h-4v-13Z"/><path class="cls-3" d="m72.3,22l-.8-2.1h-5.4l-.8,2.1h-4.1l5.8-13h4l5.6,13h-4.3Zm-5.1-4.9h3.3l-1.6-4.2-1.7,4.2Z"/><path class="cls-3" d="m30.7,16.8h6.5v-2.8h-6.5v-1.9h7.2v-3.1h-10.9v13h11v-3.1h-7.3v-2.1Z"/><path class="cls-3" d="m43.6,9h-3.8v13h10.3v-3.2h-6.6l.1-9.8h0Z"/><path class="cls-4" d="m30.92,32h-3.91v-7h3.91v.77h-3.03v2.19h2.85v.77h-2.85v2.5h3.03v.78Z"/><path class="cls-4" d="m38.11,32h-1.03l-3.75-5.82h-.04c.01.23.03.51.05.85s.03.69.03,1.05v3.91h-.81v-7h1.02l3.74,5.8h.04c0-.1-.01-.26-.02-.47,0-.21-.02-.44-.03-.69,0-.25-.01-.48-.01-.69v-3.95h.82v7Z"/><path class="cls-4" d="m48.37,28.43c0,1.18-.32,2.08-.97,2.67-.64.6-1.54.9-2.69.9h-1.95v-7h2.16c.71,0,1.32.13,1.83.39.52.26.92.65,1.2,1.15s.42,1.14.42,1.89Zm-.93.03c0-.94-.23-1.62-.69-2.06-.46-.43-1.11-.65-1.96-.65h-1.15v5.49h.95c1.9,0,2.84-.93,2.84-2.79Z"/><path class="cls-4" d="m53.93,32h-3.91v-7h3.91v.77h-3.03v2.19h2.85v.77h-2.85v2.5h3.03v.78Z"/><path class="cls-4" d="m55.57,32v-7h.88v6.22h3.06v.79h-3.94Z"/><path class="cls-4" d="m67.85,32l-.84-2.17h-2.78l-.83,2.17h-.89l2.74-7.03h.79l2.73,7.03h-.91Zm-1.89-5.07c-.02-.05-.05-.15-.1-.29-.05-.14-.09-.28-.13-.43-.04-.15-.08-.26-.1-.34-.05.2-.1.4-.16.59-.06.19-.11.35-.15.46l-.79,2.12h2.22l-.78-2.12Z"/><path class="cls-4" d="m70.7,32h-.88v-7h3.91v.77h-3.03v2.48h2.84v.77h-2.84v2.97Z"/><path class="cls-4" d="m79.63,25c.95,0,1.66.17,2.11.52.45.35.68.87.68,1.58,0,.32-.06.6-.18.84-.12.24-.28.44-.48.61-.2.17-.41.3-.64.41l2.06,3.05h-1.65l-1.67-2.69h-.79v2.69h-1.48v-7h2.04Zm-.11,1.22h-.45v1.89h.48c.49,0,.84-.08,1.05-.25s.32-.41.32-.73-.11-.57-.34-.71-.58-.21-1.06-.21Z"/><path class="cls-4" d="m88.29,30.06c0,.62-.22,1.12-.67,1.49-.45.37-1.08.55-1.91.55-.74,0-1.4-.14-1.98-.42v-1.38c.33.14.68.28,1.04.4.36.12.71.18,1.06.18s.63-.07.78-.21c.15-.14.23-.32.23-.54,0-.18-.06-.33-.18-.45-.12-.12-.28-.24-.49-.35-.2-.11-.44-.22-.7-.35-.16-.08-.34-.17-.53-.28-.19-.11-.37-.24-.54-.4s-.32-.35-.43-.58c-.11-.23-.17-.5-.17-.82,0-.63.21-1.12.64-1.47.42-.35,1-.53,1.74-.53.37,0,.71.04,1.04.13.33.08.67.21,1.04.36l-.48,1.16c-.32-.13-.61-.23-.86-.3-.26-.07-.52-.11-.79-.11-.28,0-.5.07-.65.2s-.22.3-.22.51c0,.25.11.45.33.59.22.14.55.32.99.53.36.17.67.35.92.53.25.18.45.4.58.65.14.25.21.56.21.92Z"/><path class="cls-4" d="m94.97,28.07h2.78v3.63c-.37.12-.75.22-1.15.29-.4.07-.85.11-1.34.11-1.05,0-1.85-.31-2.41-.92-.56-.61-.84-1.51-.84-2.69,0-.73.14-1.37.42-1.9.28-.54.69-.95,1.24-1.25.55-.29,1.21-.44,2-.44.37,0,.74.04,1.1.12.36.08.69.18.98.31l-.49,1.19c-.22-.11-.46-.2-.74-.28-.28-.07-.56-.11-.86-.11-.43,0-.81.1-1.12.29s-.56.47-.74.83c-.17.36-.26.78-.26,1.26s.06.86.19,1.22c.12.35.32.63.59.83.27.2.62.3,1.05.3.21,0,.39,0,.53-.03.14-.02.28-.04.41-.07v-1.46h-1.33v-1.24Z"/><path class="cls-4" d="m101.56,25c.95,0,1.66.17,2.11.52.46.35.68.87.68,1.58,0,.32-.06.6-.18.84-.12.24-.28.44-.48.61-.2.17-.41.3-.64.41l2.06,3.05h-1.65l-1.67-2.69h-.79v2.69h-1.48v-7h2.04Zm-.11,1.22h-.45v1.89h.48c.49,0,.84-.08,1.05-.25s.32-.41.32-.73-.12-.57-.34-.71c-.23-.14-.58-.21-1.06-.21Z"/><path class="cls-4" d="m112.45,28.49c0,.73-.12,1.36-.36,1.9-.24.54-.61.96-1.1,1.26-.49.3-1.12.45-1.88.45s-1.38-.15-1.88-.45c-.49-.3-.86-.72-1.1-1.26-.24-.54-.36-1.18-.36-1.9s.12-1.36.36-1.89c.24-.54.61-.95,1.1-1.25.49-.3,1.12-.45,1.89-.45s1.38.15,1.87.45.85.72,1.09,1.26c.24.54.36,1.17.36,1.9Zm-5.11,0c0,.73.14,1.31.42,1.73s.73.63,1.35.63,1.09-.21,1.36-.63c.28-.42.41-1,.41-1.73s-.14-1.31-.41-1.73c-.27-.42-.73-.63-1.35-.63s-1.08.21-1.36.63-.42,1-.42,1.73Z"/><path class="cls-4" d="m119.69,25v4.53c0,.48-.11.92-.32,1.31-.21.39-.53.7-.97.92s-.97.34-1.62.34c-.93,0-1.63-.24-2.12-.71-.48-.47-.73-1.1-.73-1.88v-4.51h1.48v4.29c0,.58.12.99.35,1.22s.59.35,1.05.35.84-.13,1.05-.38.33-.65.33-1.2v-4.28h1.48Z"/><path class="cls-4" d="m123.75,25c.9,0,1.56.19,1.98.58.42.39.62.92.62,1.6,0,.41-.08.79-.25,1.15s-.45.64-.85.85-.93.32-1.61.32h-.64v2.49h-1.48v-7h2.24Zm-.08,1.22h-.68v2.08h.49c.42,0,.75-.08,1-.25.25-.17.37-.44.37-.81,0-.68-.39-1.02-1.18-1.02Z"/></svg>