<?xml version="1.0" encoding="UTF-8"?><svg id="Layer_1" xmlns="http://www.w3.org/2000/svg" viewBox="0 0 190 40"><defs><style>.cls-1{fill:#f69f1d;}.cls-2{fill:#aa1936;}.cls-3{fill:#df1417;}.cls-4{fill:#585856;}</style></defs><path class="cls-3" d="m21.4,19.6h-5.4L0,36h5.3s16.1-16.4,16.1-16.4Z"/><path class="cls-2" d="m23.5,12h-5.3L2.2,28.4h5.3L23.5,12Z"/><path class="cls-1" d="m25,5h-5.3L3.7,21.4h5.3L25,5Z"/><path class="cls-3" d="m85.9,8h-5.2v13.01h5.2c4.9,0,7.7-2.8,7.7-6.56s-2.8-6.46-7.7-6.46h0Zm3.8,6.46c0,2.12-1.5,3.28-3.7,3.28h-1.5v-6.65h1.5c2.3.1,3.7,1.25,3.7,3.37Z"/><path class="cls-3" d="m99.3,8h-3.8v13.01h3.8V8Z"/><path class="cls-3" d="m107.4,12.92c-1.9-.39-2.3-.67-2.3-1.25,0-.48.5-.87,1.4-.87,1.2,0,2.6.48,3.8,1.25l1.9-2.51c-1.5-1.16-3.3-1.74-5.6-1.74-3.3,0-5.3,1.74-5.3,4.15,0,2.7,2.2,3.47,5.1,4.05,1.8.39,2.3.67,2.3,1.25s-.5.87-1.6.87c-1.6,0-3.2-.58-4.4-1.54l-2.1,2.41c1.7,1.45,4,2.12,6.4,2.12,3.3,0,5.5-1.54,5.5-4.24-.1-2.41-2-3.37-5.1-3.95Z"/><path class="cls-3" d="m112.9,11.08h4.1v9.83h3.8v-9.83h4.1v-3.08h-11.9v3.08h-.1Z"/><path class="cls-3" d="m138.4,12.43c0-1.35-.4-2.31-1.2-3.08-.9-.87-2.3-1.45-4.4-1.45h-6.4v13.01h3.8v-3.95h1.6l2.7,3.95h4.3l-3.2-4.53c1.7-.67,2.8-1.93,2.8-3.95h0Zm-3.8.19c0,.96-.7,1.54-2,1.54h-2.5v-3.08h2.5c1.3,0,2,.48,2,1.54Z"/><path class="cls-3" d="m143.9,15.81h6.5v-2.8h-6.5v-1.93h7.2v-3.08h-10.9v13.01h11v-3.08h-7.3s0-2.12,0-2.12Z"/><path class="cls-3" d="m156.7,8h-3.8v13.01h10.3v-3.18h-6.6V8h.1Z"/><path class="cls-3" d="m168.5,15.81h6.5v-2.8h-6.5v-1.93h7.2v-3.08h-10.9v13.01h11v-3.08h-7.3s0-2.12,0-2.12Z"/><path class="cls-3" d="m187.2,16.39c-.8.96-1.7,1.54-3.1,1.54-1.9,0-3.2-1.54-3.2-3.47s1.3-3.47,3.2-3.47c1.3,0,2.2.58,3,1.54l2.8-2.12c-1.2-1.64-3-2.7-5.8-2.7-4.1,0-7.2,2.99-7.2,6.75s3.1,6.75,7,6.75c3,0,4.7-1.25,6-2.89l-2.7-1.93Z"/><path class="cls-3" d="m51.6,8h10.5v2.99h-6.5v2.6h6v2.99h-6v4.43h-4V8Z"/><path class="cls-3" d="m72.3,21.01l-.8-2.12h-5.4l-.8,2.12h-4.1l5.8-13.01h4l5.6,13.01s-4.3,0-4.3,0Zm-5.1-4.92h3.3l-1.6-4.24s-1.7,4.24-1.7,4.24Z"/><path class="cls-3" d="m30.7,15.81h6.5v-2.8h-6.5v-1.93h7.2v-3.08h-10.9v13.01h11v-3.08h-7.3s0-2.12,0-2.12Z"/><path class="cls-3" d="m43.6,8h-3.8v13.01h10.3v-3.18h-6.6V8h.1Z"/><path class="cls-4" d="m30.32,25.71c-.75,0-1.34.25-1.78.75-.43.5-.65,1.19-.65,2.07s.2,1.56.6,2.06c.4.51,1.01.76,1.81.76.31,0,.6-.03.87-.08s.54-.12.8-.2v.76c-.26.1-.53.17-.81.22-.28.05-.61.07-1,.07-.71,0-1.31-.15-1.79-.44-.48-.29-.84-.71-1.07-1.25s-.36-1.18-.36-1.91.13-1.33.39-1.87.64-.96,1.14-1.27c.5-.3,1.11-.46,1.83-.46s1.38.14,1.93.41l-.35.75c-.22-.1-.46-.19-.72-.26-.27-.08-.55-.12-.87-.12h.03Z"/><path class="cls-4" d="m37.89,32.04h-4.86v-.67l3.69-5.55h-3.57v-.78h4.64v.67l-3.69,5.55h3.79v.79h0Z"/><path class="cls-4" d="m43.24,32.04h-3.91v-7h3.91v.77h-3.03v2.19h2.85v.77h-2.85v2.5h3.03v.78h0Zm-.96,1.14c0,.29.15.44.44.44.11,0,.2,0,.28-.02s.14-.03.19-.03v.55c-.09.03-.18.05-.27.06-.09.02-.2.02-.33.02-.35,0-.6-.08-.77-.25-.16-.16-.25-.39-.25-.68,0-.19.05-.37.14-.55s.21-.34.35-.48.28-.26.41-.35l.47.15c-.22.21-.39.4-.5.57s-.17.36-.17.56h.01Z"/><path class="cls-4" d="m48.85,30.16c0,.62-.23,1.11-.68,1.45-.45.35-1.06.52-1.82.52-.39,0-.76-.03-1.09-.09s-.61-.14-.83-.25v-.84c.24.1.53.2.88.28.35.08.71.13,1.08.13.52,0,.92-.1,1.18-.3.26-.2.4-.48.4-.82,0-.23-.05-.42-.15-.58s-.27-.3-.51-.44-.57-.28-1-.43c-.6-.22-1.04-.48-1.35-.79-.3-.31-.46-.74-.46-1.29,0-.37.09-.69.28-.96.19-.26.45-.47.79-.61s.72-.22,1.16-.22c.39,0,.74.04,1.06.11s.61.17.87.28l-.27.75c-.24-.1-.51-.19-.79-.26-.28-.07-.58-.11-.89-.11-.44,0-.77.09-.99.28s-.33.43-.33.74c0,.24.05.43.15.59s.26.3.48.42.52.26.9.4c.41.15.76.31,1.04.49.28.17.5.38.65.62.15.24.22.55.22.91l.02.02Zm-.68-7.29c-.08.12-.2.27-.36.46s-.34.37-.52.56-.36.34-.52.46h-.57v-.12c.1-.12.2-.27.32-.44s.23-.34.34-.53c.11-.18.2-.34.27-.49h1.04v.1Z"/><path class="cls-4" d="m53.36,25.71c-.75,0-1.34.25-1.78.75-.43.5-.65,1.19-.65,2.07s.2,1.56.6,2.06c.4.51,1.01.76,1.81.76.31,0,.6-.03.87-.08s.54-.12.8-.2v.76c-.26.1-.53.17-.81.22-.28.05-.61.07-1,.07-.71,0-1.31-.15-1.79-.44s-.84-.71-1.07-1.25-.36-1.18-.36-1.91.13-1.33.39-1.87.64-.96,1.14-1.27c.5-.3,1.11-.46,1.83-.46s1.38.14,1.93.41l-.35.75c-.22-.1-.46-.19-.72-.26-.27-.08-.55-.12-.87-.12h.03Zm1.23-2.83c-.08.12-.2.27-.36.46-.16.19-.34.37-.52.56-.19.19-.36.34-.52.46h-.57v-.12c.1-.12.2-.27.32-.44.11-.17.23-.34.34-.53.11-.18.2-.34.27-.49h1.04v.1Z"/><path class="cls-4" d="m61.28,25.03c.95,0,1.66.17,2.11.52s.68.87.68,1.58c0,.32-.06.6-.18.84-.12.24-.28.44-.48.61s-.41.3-.64.41l2.06,3.05h-1.65l-1.67-2.69h-.79v2.69h-1.48v-7h2.04,0Zm-.11,1.22h-.45v1.89h.48c.49,0,.84-.08,1.05-.25s.32-.41.32-.73-.11-.57-.34-.71-.58-.21-1.06-.21h0Z"/><path class="cls-4" d="m69.94,30.1c0,.62-.22,1.12-.67,1.49s-1.08.55-1.91.55c-.74,0-1.4-.14-1.98-.42v-1.38c.33.14.68.28,1.04.4s.71.18,1.06.18.63-.07.78-.21.23-.32.23-.54c0-.18-.06-.33-.18-.45s-.28-.24-.49-.35c-.2-.11-.44-.22-.7-.35-.16-.08-.34-.17-.53-.28s-.37-.24-.54-.4-.32-.35-.43-.58-.17-.5-.17-.82c0-.63.21-1.12.64-1.47.42-.35,1-.53,1.74-.53.37,0,.71.04,1.04.13.33.08.67.21,1.04.36l-.48,1.16c-.32-.13-.61-.23-.86-.3-.26-.07-.52-.11-.79-.11s-.5.07-.65.2-.23.3-.23.51c0,.25.11.45.33.59s.55.32.99.53c.36.17.67.35.92.53s.45.4.58.65c.14.25.21.56.21.92h.01Z"/><path class="cls-4" d="m76.62,28.1h2.78v3.63c-.37.12-.75.22-1.15.29-.4.07-.85.11-1.34.11-1.05,0-1.85-.31-2.41-.92-.56-.61-.84-1.51-.84-2.69,0-.73.14-1.37.42-1.9s.69-.95,1.24-1.25c.55-.29,1.21-.44,2-.44.37,0,.74.04,1.1.12s.69.18.98.31l-.49,1.19c-.22-.11-.46-.2-.74-.28-.27-.07-.56-.11-.86-.11-.43,0-.81.1-1.12.29-.32.2-.56.47-.74.83s-.26.78-.26,1.26.06.86.19,1.22c.12.35.32.63.59.83s.62.3,1.05.3c.21,0,.39,0,.53-.03s.28-.04.41-.07v-1.46h-1.32v-1.24h-.02Z"/><path class="cls-4" d="m83.2,25.03c.95,0,1.66.17,2.11.52s.68.87.68,1.58c0,.32-.06.6-.18.84s-.28.44-.48.61-.41.3-.64.41l2.06,3.05h-1.65l-1.67-2.69h-.79v2.69h-1.48v-7h2.04Zm-.11,1.22h-.45v1.89h.48c.49,0,.84-.08,1.05-.25s.32-.41.32-.73-.11-.57-.34-.71-.58-.21-1.06-.21h0Z"/><path class="cls-4" d="m94.09,28.53c0,.73-.12,1.36-.36,1.9-.24.54-.61.96-1.1,1.26-.49.3-1.12.45-1.88.45s-1.38-.15-1.88-.45c-.49-.3-.86-.72-1.1-1.26s-.36-1.18-.36-1.9.12-1.36.36-1.89c.24-.54.61-.95,1.1-1.25s1.12-.45,1.89-.45,1.38.15,1.87.45.85.72,1.09,1.26.36,1.17.36,1.9v-.02Zm-5.11,0c0,.73.14,1.31.42,1.73s.73.63,1.35.63,1.09-.21,1.36-.63c.28-.42.41-1,.41-1.73s-.14-1.31-.41-1.73c-.27-.42-.73-.63-1.35-.63s-1.08.21-1.36.63-.42,1-.42,1.73Z"/><path class="cls-4" d="m101.34,25.03v4.53c0,.48-.11.92-.32,1.31s-.53.7-.97.92c-.44.22-.97.34-1.62.34-.93,0-1.63-.24-2.12-.71-.48-.47-.73-1.1-.73-1.88v-4.51h1.48v4.29c0,.58.12.99.35,1.22s.59.35,1.05.35.84-.13,1.05-.38.33-.65.33-1.2v-4.28h1.5Z"/><path class="cls-4" d="m105.39,25.03c.9,0,1.56.19,1.98.58.42.39.62.92.62,1.6,0,.41-.08.79-.25,1.15s-.45.64-.85.85-.93.32-1.61.32h-.64v2.49h-1.48v-7h2.24-.01Zm-.08,1.22h-.68v2.08h.49c.42,0,.75-.08,1-.25s.37-.44.37-.81c0-.68-.39-1.02-1.18-1.02Z"/></svg>